<?xml version="1.0" encoding="UTF-8" standalone="no"?>
<svg
   xmlns:dc="http://purl.org/dc/elements/1.1/"
   xmlns:cc="http://creativecommons.org/ns#"
   xmlns:rdf="http://www.w3.org/1999/02/22-rdf-syntax-ns#"
   xmlns:svg="http://www.w3.org/2000/svg"
   xmlns="http://www.w3.org/2000/svg"
   xmlns:sodipodi="http://sodipodi.sourceforge.net/DTD/sodipodi-0.dtd"
   xmlns:inkscape="http://www.inkscape.org/namespaces/inkscape"
   width="273.40854mm"
   height="106.21159mm"
   viewBox="0 0 273.40853 106.21159"
   version="1.1"
   id="svg8"
   inkscape:version="1.0.1 (3bc2e813f5, 2020-09-07)"
   sodipodi:docname="logo.svg"
   inkscape:export-filename="D:\Roisin\Documents\dopes\logo.png"
   inkscape:export-xdpi="300"
   inkscape:export-ydpi="300">
  <defs
     id="defs2" />
  <sodipodi:namedview
     id="base"
     pagecolor="#ffffff"
     bordercolor="#666666"
     borderopacity="1.0"
     inkscape:pageopacity="0.0"
     inkscape:pageshadow="2"
     inkscape:zoom="0.68099104"
     inkscape:cx="176.43339"
     inkscape:cy="418.22686"
     inkscape:document-units="mm"
     inkscape:current-layer="layer1"
     inkscape:document-rotation="0"
     showgrid="false"
     inkscape:window-width="1920"
     inkscape:window-height="991"
     inkscape:window-x="-9"
     inkscape:window-y="-9"
     inkscape:window-maximized="1" />
  <metadata
     id="metadata5">
    <rdf:RDF>
      <cc:Work
         rdf:about="">
        <dc:format>image/svg+xml</dc:format>
        <dc:type
           rdf:resource="http://purl.org/dc/dcmitype/StillImage" />
        <dc:title />
      </cc:Work>
    </rdf:RDF>
  </metadata>
  <g
     inkscape:label="Layer 1"
     inkscape:groupmode="layer"
     id="layer1"
     transform="translate(-8.4109803,10.218637)">
    <path
       style="fill:#000000;stroke-width:0.264583"
       d="m 39.414437,95.724156 c -6.536655,-1.24894 -9.926549,-5.60032 -11.176055,-14.345973 -0.477271,-3.34057 -0.751482,-10.309047 -0.519641,-13.20562 0.546917,-6.8331 2.881963,-10.967855 7.444192,-13.1817 2.282764,-1.107726 4.606498,-1.603116 9.476056,-2.020179 8.772229,-0.751316 13.687306,-2.463773 18.790388,-6.546743 3.26985,-2.616203 6.797166,-7.092098 7.869774,-9.986142 0.242813,-0.655143 0.582287,-1.191168 0.754388,-1.191168 0.172101,0 1.426339,0.555353 2.7872,1.23412 4.365577,2.177447 7.157513,5.606013 8.259579,10.142963 1.555877,6.405181 1.151594,16.475135 -0.932441,23.225299 -0.717918,2.325333 -2.487676,5.805902 -4.146974,8.155826 -5.394036,7.639129 -17.017335,14.891537 -27.756287,17.318647 -3.061084,0.69184 -8.311523,0.88572 -10.850179,0.40067 z m 5.224552,-14.07777 v -3.606493 l -0.992187,0.163997 c -0.545703,0.0902 -1.557734,0.165309 -2.248958,0.16691 l -1.256771,0.0029 v 3.439583 3.439583 h 2.248958 2.248958 z m 12.757327,-2.875798 c 0.101312,-9.118139 0.134906,-8.447876 -0.428871,-8.55645 -0.277111,-0.05337 -1.387025,-0.01426 -2.466477,0.08689 l -1.962642,0.183915 0.06579,5.934797 c 0.03619,3.26414 0.117816,6.289272 0.181404,6.722514 l 0.115612,0.787712 h 2.218928 2.218928 z m 12.49984,-3.902604 c 0.09982,-3.674401 0.143031,-8.288073 0.09602,-10.252604 l -0.08548,-3.571875 H 67.657738 65.40878 l -0.06925,10.252604 -0.06925,10.252604 h 2.222193 2.222193 z m -27.10925,-2.012212 c 0.363802,-0.266613 0.788922,-0.867947 0.944714,-1.336302 0.207888,-0.62498 0.665469,-1.066517 1.719791,-1.659485 0.790094,-0.444365 3.103412,-1.79179 5.140703,-2.994281 3.541279,-2.090203 3.762341,-2.181289 5.027083,-2.071315 1.828395,0.158986 2.925104,-0.535961 3.319859,-2.103683 0.243208,-0.96587 0.646531,-1.454716 2.570999,-3.116183 1.255398,-1.083831 3.252822,-2.888843 4.438719,-4.011136 2.020601,-1.912229 2.214408,-2.031087 3.082242,-1.890258 1.780206,0.288888 3.389222,-1.07007 3.389222,-2.862503 0,-2.02193 -1.097597,-3.128578 -3.102988,-3.128578 -1.92749,0 -3.16344,1.654971 -2.841125,3.804335 0.166317,1.109075 0.158597,1.121928 -1.780206,2.9636 -1.070986,1.017331 -2.92726,2.595713 -4.12505,3.507515 -2.077582,1.581528 -2.20477,1.638935 -2.763713,1.247436 -0.334915,-0.234585 -1.138603,-0.410387 -1.876094,-0.410387 -1.102138,0 -1.402062,0.119766 -2.057794,0.821732 -0.647917,0.693595 -0.767612,1.041204 -0.767612,2.229231 v 1.407501 l -3.241146,1.981132 c -1.78263,1.089622 -3.9131,2.307722 -4.734377,2.706885 l -1.493232,0.725752 -0.702005,-0.552198 c -2.738115,-2.153804 -6.116976,0.808572 -4.496493,3.942241 0.778081,1.50464 2.862884,1.88768 4.348503,0.798949 z M 21.05889,77.49827 c -3.314287,-1.129744 -5.880502,-3.648485 -7.768777,-7.625053 -1.346886,-2.836444 -1.980867,-6.1751 -1.985145,-10.454129 -0.01106,-11.05958 4.673097,-18.593482 13.368326,-21.501353 3.631406,-1.214422 6.53506,-1.60396 14.861449,-1.993733 8.53313,-0.399455 9.317061,-0.56242 11.368005,-2.36324 0.960192,-0.843089 2.490512,-3.07663 2.107967,-3.07663 -0.05813,0 -0.745162,0.292602 -1.526733,0.650226 C 48.320703,32.581788 47.04638,32.733804 38.156698,32.7242 31.303609,32.7168 29.658181,32.64065 28.15226,32.261195 26.655862,31.884143 25.038951,31.806387 18.627261,31.803148 13.02463,31.800348 10.730036,31.709528 10.268664,31.472419 9.0349196,30.838374 8.5399583,29.815329 8.4319289,27.676043 8.3060031,25.18235 8.7472434,23.532991 9.7706597,22.671841 10.532824,22.030523 10.640334,22.017465 15.158251,22.017465 h 4.609906 v -1.048408 c 0,-1.423202 0.934956,-3.819739 1.93416,-4.957773 0.99777,-1.136396 2.391923,-2.043864 3.778499,-2.459458 0.994277,-0.298014 1.03687,-0.357661 1.10295,-1.544569 0.172955,-3.1066084 1.470173,-6.2200604 3.268508,-7.8447474 2.460313,-2.222746 5.787678,-3.19862502 12.265636,-3.59737002 5.565854,-0.342601 12.266665,0.0043 15.29694,0.79185002 6.28446,1.633358 10.811817,6.170411 12.716772,12.7440164 1.558951,5.379611 1.419351,12.072561 -0.372063,17.838334 -2.021657,6.506824 -6.492576,11.696451 -12.826166,14.888 -3.474897,1.751031 -6.95611,2.531258 -13.328043,2.987157 -8.323315,0.595513 -12.004667,2.364115 -15.196235,7.300594 -2.685835,4.154249 -3.465785,7.29257 -3.475013,13.98258 -0.0036,2.619375 0.08413,5.268516 0.194995,5.886979 l 0.201565,1.124479 -1.259898,-0.0068 C 23.37782,78.098546 22.022476,77.826734 21.05889,77.498275 Z M 13.682741,26.912257 c 0,-1.091406 -0.0893,-1.986 -0.198437,-1.987987 -0.109141,-0.0021 -0.466329,-0.07541 -0.79375,-0.163152 -0.581568,-0.155853 -0.595313,-0.109956 -0.595313,1.987989 v 2.147525 h 0.79375 0.79375 z m 14.647277,1.611902 c 1.649722,-0.496493 4.041505,-2.028645 3.566173,-2.284454 -0.194741,-0.104804 -1.440376,-0.442839 -2.768079,-0.751187 -1.984441,-0.460875 -3.260849,-0.560636 -7.173039,-0.560636 h -4.759041 l -0.166846,1.389062 c -0.09177,0.763985 -0.167881,1.656953 -0.169146,1.984375 l -0.0023,0.595313 h 5.117324 c 3.637235,0 5.475285,-0.107731 6.354953,-0.372473 z M 47.116606,17.683903 c 1.613879,-0.674322 2.926342,-3.199111 2.285476,-4.396581 -0.261374,-0.488381 -0.552223,-0.530273 -3.681672,-0.530273 -3.901588,0 -4.151992,0.119179 -3.917867,1.864696 0.359656,2.681436 2.825099,4.102113 5.314063,3.062158 z m -34.044478,1.753875 c -0.06197,-0.109141 -0.322117,-0.83984 -0.578096,-1.623774 -0.650717,-1.992818 -0.421421,-4.059449 0.795919,-7.173621 1.625447,-4.1581764 1.53529,-5.4332854 -0.757639,-10.71562542 -1.25915,-2.90076398 -0.810123,-6.63936628 1.12359,-9.35501508 0.808167,-1.1349645 1.07652,-1.0432815 0.782074,0.2672001 -0.373563,1.6626151 0.132683,3.4971961 1.76418,6.393196 3.471513,6.162127 3.375766,9.204417 -0.482031,15.3160964 -2.105392,3.335445 -2.661425,4.720023 -2.448819,6.097793 0.143158,0.927735 0.06156,1.252932 -0.199178,0.79375 z"
       id="path913"
       sodipodi:nodetypes="ssssssssssssssccssccccccssscsscccssscccccccssssssssssssssssssscsscssssssssssssscsssscsssssscsssssssccssscsscccsssssccscsssssssssssssccsss" />
    <path
       style="fill:#000000;stroke-width:0.443059"
       d="m 155.76923,83.601791 c -7.05118,-1.580964 -12.1224,-7.276274 -14.05231,-15.781672 -1.17242,-5.166942 -1.04537,-19.408973 0.21403,-23.993474 1.28061,-4.661754 2.88182,-7.633883 5.71018,-10.599127 3.51214,-3.682116 6.70322,-5.035988 11.90342,-5.050237 3.62345,-0.0099 4.26937,0.123214 6.91395,1.425127 5.70221,2.807187 9.46324,8.537274 10.83513,16.507811 0.90852,5.278316 0.65424,17.71721 -0.45204,22.113882 -2.81625,11.19256 -11.49408,17.525256 -21.07236,15.37769 z m 6.40922,-9.765499 c 1.84397,-0.770454 3.61784,-3.350091 4.4854,-6.522824 0.90292,-3.302116 1.28852,-13.8943 0.68307,-18.76353 -0.85934,-6.910978 -3.65279,-10.857837 -7.6848,-10.857837 -3.14122,0 -5.63664,2.01127 -6.99289,5.636173 -1.90206,5.083709 -2.24811,17.696164 -0.65376,23.827257 1.57724,6.06524 5.4862,8.634849 10.16298,6.680761 z m 100.46827,9.888713 c -6.76016,-1.13863 -11.77757,-6.657124 -12.75555,-14.02939 l -0.2901,-2.186922 1.70982,-0.282468 c 0.9404,-0.155365 3.14117,-0.284666 4.89059,-0.287346 l 3.18077,-0.0049 0.50122,2.414425 c 0.70141,3.378555 2.67294,5.117578 5.80185,5.117578 1.22204,0 2.78051,-0.288877 3.46326,-0.64194 2.64993,-1.370335 3.72096,-4.811603 2.49589,-8.019394 -0.81785,-2.141509 -1.27857,-2.465938 -11.02403,-7.762889 -7.21557,-3.92188 -9.64272,-7.513964 -9.64272,-14.270851 0,-3.88465 0.26427,-5.147302 1.66329,-7.947028 1.4091,-2.819935 3.78263,-5.098358 6.76575,-6.494614 2.13566,-0.999608 3.05243,-1.156403 6.6842,-1.143208 3.56168,0.01289 4.58698,0.189855 6.6661,1.150213 1.35138,0.624212 3.19152,1.779795 4.0892,2.567974 2.15565,1.892687 4.27359,6.26029 4.41801,9.110768 l 0.11219,2.2153 h -4.58253 -4.58255 l -0.60485,-1.772236 c -0.87238,-2.55615 -2.87577,-4.209066 -5.10153,-4.209066 -3.57071,0 -5.73078,2.257421 -5.73078,5.989074 0,3.319656 1.74686,4.888134 10.86518,9.755648 5.24626,2.800542 7.27272,4.481952 8.86375,7.354512 1.23641,2.232275 1.31638,2.673331 1.31638,7.259635 0,4.624825 -0.077,5.039342 -1.45622,7.840982 -3.15617,6.411065 -9.94927,9.584379 -17.71662,8.276116 z M 102.60216,55.791834 V 28.699545 l 9.19346,0.256443 c 10.22968,0.285347 12.38045,0.708395 15.90888,3.129149 5.94593,4.07934 8.5303,12.413917 7.98954,25.766151 -0.28749,7.098605 -1.06904,11.153801 -2.90626,15.079881 -1.73239,3.702014 -4.03112,6.131692 -7.30501,7.721146 -3.58617,1.741067 -6.98738,2.224427 -15.68092,2.228463 l -7.19969,0.0033 z m 16.60952,17.292545 c 2.48841,-0.690826 4.35247,-2.855688 5.35399,-6.217927 0.69254,-2.324958 0.83855,-4.271193 0.84247,-11.23046 0.005,-8.926455 -0.53365,-12.185918 -2.4613,-14.893066 -1.19464,-1.677711 -3.87126,-2.607772 -7.50496,-2.607772 h -3.09243 v 17.722368 17.722363 l 2.54758,-0.0033 c 1.40118,-0.0013 3.34276,-0.223224 4.31465,-0.493034 z m 64.47028,-17.226857 v -27.02661 l 6.31359,0.01206 c 12.2638,0.02331 16.92308,0.971141 20.19876,4.108984 3.98902,3.821164 5.52025,11.601562 3.84213,19.522227 -0.79061,3.731561 -2.24086,6.285725 -4.89615,8.623009 -2.717,2.391594 -5.25226,3.201798 -10.94813,3.498745 l -4.76291,0.248308 v 9.019965 9.01997 h -4.87364 -4.87365 z m 17.72928,-1.711582 c 2.44712,-1.30847 3.30391,-3.216069 3.31046,-7.370631 0.005,-2.755265 -0.19183,-3.880103 -0.88055,-5.049368 -1.54552,-2.623872 -2.95877,-3.346146 -6.89732,-3.52501 l -3.51458,-0.159602 v 8.465036 8.46504 h 3.2191 c 2.29247,0 3.66349,-0.237613 4.76289,-0.825465 z m 18.60156,1.694733 V 28.797218 l 13.18102,0.127618 13.18101,0.127618 0.12626,4.541356 0.12626,4.541358 h -8.43364 -8.43361 v 6.645887 6.645888 h 7.08894 7.08894 v 4.430591 4.430591 h -7.08894 -7.08894 v 6.645887 6.645889 h 8.41812 8.41812 v 4.652113 4.65213 h -13.29178 -13.29177 z"
       id="path865"
       sodipodi:nodetypes="sssssssssssssssssscsscsssssssssssscccsssssscssccsssssscccssssccccccccsssssccccccscsscccssccccccccccccccccccccccccc" />
  </g>
</svg>
