<?xml version="1.0" standalone="no"?>
<!DOCTYPE svg PUBLIC "-//W3C//DTD SVG 20010904//EN"
 "http://www.w3.org/TR/2001/REC-SVG-20010904/DTD/svg10.dtd">
<svg version="1.0" xmlns="http://www.w3.org/2000/svg"
 width="357.000000pt" height="357.000000pt" viewBox="0 0 357.000000 357.000000"
 preserveAspectRatio="xMidYMid meet">
<metadata>
Created by potrace 1.14, written by Peter Selinger 2001-2017
</metadata>
<g transform="translate(0.000000,357.000000) scale(0.100000,-0.100000)"
fill="#000000" stroke="none">
<path d="M1731 3469 c-1 -12 -8 -15 -26 -11 -17 3 -25 0 -25 -9 0 -11 -2 -11
-10 1 -8 13 -10 13 -10 -2 0 -10 -7 -15 -17 -13 -10 1 -26 -7 -36 -19 -10 -11
-15 -14 -11 -6 6 12 5 13 -8 3 -8 -7 -18 -10 -21 -6 -4 3 -7 -1 -7 -10 0 -9
-4 -16 -8 -14 -5 1 -21 -11 -36 -28 -16 -16 -22 -21 -15 -10 13 18 13 19 -3 6
-10 -7 -16 -17 -13 -21 3 -5 -3 -15 -13 -22 -9 -7 -17 -20 -17 -28 0 -8 -3
-18 -8 -21 -5 -3 -9 -12 -10 -20 -2 -8 -7 -20 -11 -28 -6 -9 -5 -12 2 -7 6 4
5 -5 -3 -21 -11 -21 -12 -30 -2 -42 9 -12 9 -13 0 -7 -9 5 -13 0 -13 -14 0
-13 4 -19 12 -14 7 5 8 3 2 -7 -16 -26 -15 -52 3 -72 10 -11 12 -17 6 -13 -14
8 -18 -10 -4 -18 4 -3 7 -17 6 -31 -2 -14 1 -25 7 -25 6 0 6 -6 -2 -15 -10
-12 -9 -16 3 -21 9 -3 13 -12 10 -21 -4 -9 -2 -14 3 -11 5 3 10 -10 11 -30 1
-20 7 -38 12 -40 6 -2 11 -13 11 -23 0 -14 4 -18 13 -13 7 5 6 0 -3 -11 -9
-11 -10 -16 -2 -11 11 7 17 -11 13 -37 -1 -5 3 -6 8 -3 8 5 22 -23 25 -51 1
-7 10 -20 21 -28 11 -9 13 -14 5 -10 -9 4 -8 1 3 -8 10 -9 17 -17 16 -19 -5
-7 13 -48 21 -48 9 0 25 -39 22 -52 -1 -5 3 -7 10 -5 7 1 13 -4 14 -10 1 -7 2
-17 3 -23 0 -5 8 -10 16 -10 8 0 15 -5 15 -11 0 -5 -6 -7 -12 -4 -7 4 -3 -3
10 -14 13 -11 23 -22 22 -25 -1 -20 1 -27 8 -22 4 2 14 -5 22 -17 12 -21 12
-21 -6 -8 -10 7 -3 -1 16 -19 19 -18 28 -29 20 -25 -8 4 -2 -4 14 -19 33 -30
45 -34 25 -9 -11 13 -11 15 -1 9 13 -8 29 6 61 53 8 11 18 18 23 15 4 -3 5 2
2 11 -5 11 0 18 15 22 11 3 18 10 15 15 -3 5 4 20 16 33 13 14 19 29 15 36 -5
7 -4 10 3 5 6 -3 16 7 24 24 7 16 17 30 21 30 5 0 6 4 3 9 -3 5 1 12 10 15 8
3 12 10 9 16 -3 5 -1 10 5 10 6 0 8 5 5 10 -3 6 -1 10 4 10 6 0 11 7 11 15 0
9 6 18 14 21 8 3 13 15 11 26 -3 15 0 18 13 13 9 -3 13 -3 9 1 -4 4 -1 14 6
22 9 13 9 14 0 8 -9 -5 -11 -2 -7 8 3 9 10 14 14 11 9 -6 22 23 15 35 -3 4 2
10 10 14 8 3 15 16 15 30 0 14 5 28 11 32 6 3 9 19 7 35 -3 15 -1 26 4 23 4
-3 8 6 8 20 0 14 4 26 9 26 5 0 8 8 7 18 -2 9 2 20 8 24 7 5 7 8 -3 8 -11 0
-11 3 -1 15 6 8 8 20 4 27 -14 22 -13 40 1 35 10 -4 11 3 5 30 -7 29 -6 34 7
28 13 -4 14 -3 4 9 -7 8 -9 21 -5 28 5 8 1 8 -11 -2 -17 -14 -18 -14 -6 8 9
17 9 22 -1 22 -8 0 -9 3 -3 8 17 12 3 92 -16 92 -5 0 -8 3 -8 8 3 19 -2 33
-11 27 -5 -3 -10 3 -10 13 0 11 -8 26 -17 33 -17 13 -17 12 -4 -6 10 -13 6
-12 -12 5 -38 36 -61 55 -67 55 -3 0 -4 3 -3 6 1 4 -7 5 -17 2 -11 -3 -20 0
-20 6 0 6 -12 11 -26 11 -14 0 -23 4 -20 8 3 5 -16 9 -42 11 -26 1 -49 6 -52
12 -7 10 -99 8 -117 -4 -6 -4 -14 -1 -16 5 -4 9 -6 7 -6 -3z"/>
<path d="M910 3128 c0 -4 -7 -4 -17 -1 -12 5 -14 3 -8 -7 6 -10 4 -12 -9 -7
-10 4 -27 2 -38 -4 -12 -7 -18 -7 -14 -1 4 6 -2 8 -14 5 -11 -3 -18 -9 -15
-13 3 -4 -2 -10 -10 -14 -8 -3 -15 0 -15 7 0 7 -9 1 -20 -13 -11 -14 -20 -19
-20 -12 0 8 -6 6 -18 -5 -11 -10 -17 -21 -15 -25 2 -4 -2 -5 -10 -2 -8 3 -29
-9 -46 -26 -18 -16 -30 -30 -27 -30 4 0 1 -6 -6 -14 -7 -8 -16 -12 -20 -10 -4
2 -10 -6 -14 -18 -3 -12 -13 -28 -20 -36 -8 -7 -12 -17 -9 -22 3 -5 1 -11 -5
-15 -5 -3 -10 -15 -10 -26 0 -13 -4 -18 -12 -13 -8 5 -9 0 -6 -14 4 -12 3 -20
-2 -17 -4 3 -10 -4 -13 -15 -3 -11 -1 -18 4 -14 5 3 9 0 9 -5 0 -6 -4 -11 -10
-11 -5 0 -7 -7 -4 -15 4 -8 1 -15 -5 -15 -6 0 -8 -7 -5 -15 4 -8 11 -12 18 -8
6 3 3 -3 -6 -13 -15 -17 -16 -23 -5 -39 8 -10 12 -28 9 -41 -2 -13 0 -24 6
-24 6 0 8 -9 5 -20 -4 -14 0 -20 11 -20 10 0 15 -4 11 -10 -3 -5 3 -18 15 -30
11 -11 20 -25 20 -31 0 -5 5 -7 10 -4 6 3 10 -1 10 -9 0 -9 7 -16 16 -16 8 0
13 -4 9 -9 -5 -9 32 -27 48 -23 4 1 6 -1 6 -5 -3 -21 2 -32 15 -27 8 3 17 0
22 -7 5 -8 3 -10 -6 -4 -8 5 -11 4 -7 -3 4 -5 18 -9 31 -8 19 2 23 -1 19 -18
-4 -17 -3 -18 6 -6 7 10 11 11 11 3 0 -7 6 -12 13 -10 6 1 11 -3 10 -10 -2 -7
4 -10 12 -7 8 4 15 1 15 -5 0 -6 5 -11 11 -11 5 0 7 6 4 13 -4 6 0 4 9 -7 8
-10 27 -18 41 -18 14 0 23 -3 21 -6 -3 -3 -1 -11 5 -19 9 -10 15 -10 25 -2 10
8 14 8 14 0 0 -6 7 -11 15 -11 8 0 15 -5 15 -11 0 -8 5 -8 15 1 8 7 15 8 15 3
0 -5 10 -9 22 -10 11 -1 24 -7 27 -12 4 -6 15 -10 26 -10 50 -1 55 -4 42 -19
-10 -13 -9 -14 11 -3 13 7 22 8 22 2 0 -5 10 -8 22 -6 12 3 25 -1 30 -8 4 -6
26 -12 50 -12 28 -1 42 -5 40 -14 -2 -9 3 -9 18 -1 16 9 20 8 20 -6 0 -13 3
-14 15 -4 11 9 15 9 15 1 0 -8 5 -9 19 -1 14 7 22 7 26 -1 4 -6 18 -8 32 -4
16 4 22 2 18 -5 -3 -5 -1 -10 4 -10 6 0 11 7 11 15 0 8 5 15 11 15 8 0 7 6 -2
17 -8 9 -9 14 -3 10 6 -3 11 0 11 8 0 8 -4 12 -8 9 -4 -2 -10 0 -14 6 -3 5 -1
10 6 10 8 0 8 4 2 13 -6 6 -10 32 -9 56 1 35 -3 45 -17 49 -15 4 -16 7 -5 13
11 8 11 10 -1 18 -11 7 -11 9 0 14 10 4 11 8 3 14 -6 4 -10 16 -8 26 1 9 -3
17 -9 17 -7 0 -5 5 3 10 13 8 13 10 -2 10 -14 0 -17 8 -15 38 1 20 -3 43 -10
50 -11 12 -17 48 -16 90 1 7 -2 11 -5 8 -10 -10 -29 38 -20 50 5 7 3 14 -6 17
-9 4 -13 15 -11 27 2 11 0 20 -6 20 -5 0 -9 9 -9 20 0 11 -5 20 -10 20 -6 0
-10 8 -8 18 2 9 -2 16 -9 15 -7 -2 -10 4 -7 12 4 8 1 15 -5 15 -6 0 -8 7 -4
17 4 10 2 14 -4 10 -6 -4 -14 0 -17 9 -4 10 -2 13 7 9 6 -4 5 0 -3 7 -29 26
-56 62 -40 54 9 -4 8 -2 -2 7 -10 8 -18 18 -18 23 0 11 -36 44 -48 44 -4 0
-16 11 -26 25 -11 14 -26 23 -33 21 -8 -3 -11 -2 -8 3 3 5 -4 12 -15 16 -11 4
-18 10 -16 14 3 4 0 8 -7 9 -69 10 -86 15 -80 26 4 6 -1 5 -10 -3 -10 -8 -17
-9 -17 -3 0 6 -9 10 -20 9 -11 -1 -20 -5 -20 -9z"/>
<path d="M2666 3105 c4 -10 2 -14 -8 -10 -8 3 -26 1 -41 -4 -18 -7 -27 -7 -31
2 -2 7 -5 4 -5 -6 -1 -10 -5 -16 -10 -13 -4 3 -19 -3 -31 -14 -28 -25 -37 -26
-19 -2 7 9 -6 -2 -28 -25 -23 -24 -47 -43 -53 -43 -6 0 -9 -4 -6 -9 3 -5 -1
-12 -10 -15 -9 -3 -12 -11 -8 -18 5 -7 2 -9 -8 -5 -12 4 -15 0 -13 -19 2 -19
0 -22 -11 -13 -11 9 -14 7 -14 -9 0 -11 -7 -27 -15 -36 -9 -8 -14 -21 -13 -28
2 -7 -4 -12 -13 -12 -11 1 -15 -5 -12 -17 3 -11 0 -19 -6 -19 -6 0 -10 -3 -9
-7 3 -16 -14 -63 -22 -58 -4 3 -7 -8 -6 -24 1 -17 -2 -28 -6 -25 -4 3 -8 0 -8
-6 0 -6 -3 -9 -8 -6 -4 2 -7 -13 -6 -35 0 -26 -3 -38 -11 -36 -7 3 -11 -9 -11
-33 0 -21 -7 -45 -16 -53 -9 -9 -15 -29 -13 -47 1 -16 -1 -30 -6 -30 -5 0 -9
-5 -9 -11 0 -5 6 -7 13 -4 6 4 4 0 -7 -9 -10 -8 -16 -22 -13 -31 4 -8 2 -15
-4 -15 -6 0 -7 -6 -1 -16 7 -12 4 -22 -11 -37 -14 -14 -16 -21 -7 -27 8 -5 8
-10 2 -14 -6 -3 -8 -15 -5 -26 3 -13 0 -20 -8 -20 -11 0 -11 -2 1 -10 12 -7
11 -12 -5 -31 -11 -12 -14 -19 -7 -15 10 6 11 1 6 -18 -5 -20 -2 -26 11 -26 9
0 13 -5 9 -11 -4 -7 -1 -10 7 -7 8 3 13 12 11 19 -3 11 -1 12 9 2 16 -16 33
-17 23 -2 -4 7 1 7 16 -1 18 -10 21 -9 15 1 -6 9 -3 11 8 6 9 -3 19 -2 23 4 4
7 10 6 19 -1 10 -8 15 -8 20 1 6 8 10 7 16 -2 6 -10 9 -11 9 -1 0 6 9 12 21
12 13 0 18 4 13 13 -5 9 -4 9 6 0 8 -7 19 -9 29 -4 9 5 24 7 33 6 10 -2 20 1
24 6 3 5 10 6 16 3 6 -4 13 -2 17 4 4 6 25 13 46 15 22 2 39 8 38 13 -2 11 37
11 54 1 7 -4 18 1 25 11 7 10 24 18 38 18 14 0 24 5 23 11 -1 6 6 9 17 6 12
-3 20 0 20 7 0 7 7 10 15 6 9 -3 18 1 22 10 3 8 12 13 19 10 7 -3 20 2 29 10
9 9 22 13 31 10 8 -3 12 -2 9 4 -7 11 29 32 39 23 3 -3 6 1 6 11 0 9 5 14 10
11 10 -6 34 12 39 30 1 6 5 12 8 15 4 3 3 -1 -1 -7 -10 -17 2 -16 19 1 8 7 11
16 8 20 -4 3 1 6 11 6 9 0 14 5 11 10 -3 6 0 10 8 10 8 0 18 11 21 25 4 14 11
23 16 20 6 -3 10 1 10 10 0 10 5 13 13 9 9 -6 9 -4 -1 8 -8 11 -9 17 -2 20 6
2 13 17 16 33 3 16 10 33 16 36 7 4 5 9 -3 12 -9 4 -11 8 -4 14 12 9 13 28 3
39 -5 4 -8 12 -8 18 0 6 4 5 9 -3 7 -10 9 -7 8 12 -1 14 -5 23 -9 20 -5 -2 -9
10 -9 26 -1 17 -2 39 -3 49 0 9 -8 26 -18 36 -13 14 -15 24 -7 38 5 10 6 18 2
17 -21 -4 -31 3 -29 19 0 9 -5 16 -11 14 -7 -1 -12 1 -12 5 3 21 -2 43 -10 41
-5 -2 -25 14 -45 36 -20 21 -36 35 -36 30 0 -5 -4 -4 -8 2 -11 17 -126 79
-117 63 8 -12 6 -12 -8 0 -9 7 -17 11 -17 7 0 -4 -12 2 -27 11 -15 10 -24 13
-20 6 4 -6 3 -14 -3 -18 -5 -3 -10 1 -10 9 0 8 -5 18 -12 22 -7 4 -8 3 -4 -4
8 -13 -20 -12 -41 1 -9 6 -11 3 -7 -8z"/>
<path d="M410 2214 c0 -6 -12 -11 -27 -10 -16 0 -27 -4 -26 -10 1 -6 -5 -11
-13 -12 -7 -1 -21 -3 -29 -4 -8 -1 -12 -5 -9 -10 5 -7 -19 -13 -40 -9 -5 1 -3
-6 5 -15 8 -10 9 -15 2 -11 -6 4 -14 3 -18 -3 -4 -6 -12 -7 -18 -3 -7 4 -6 0
2 -10 12 -15 11 -17 -10 -17 -19 0 -21 -2 -9 -10 13 -8 12 -10 -3 -10 -10 0
-16 -4 -13 -9 3 -5 -1 -12 -10 -15 -8 -3 -14 -14 -12 -23 2 -11 -2 -17 -11
-15 -8 2 -11 -3 -8 -13 4 -8 2 -15 -3 -15 -5 0 -7 -9 -5 -20 2 -11 0 -18 -4
-15 -12 6 -17 -12 -17 -52 1 -23 -4 -33 -14 -34 -10 0 -9 -3 4 -8 16 -6 17 -9
4 -13 -18 -7 -20 -106 -2 -129 6 -8 10 -23 10 -34 -1 -11 6 -26 14 -33 13 -12
13 -13 0 -6 -10 5 -8 -1 5 -16 11 -13 14 -20 7 -16 -11 7 -11 4 0 -13 7 -12
16 -21 21 -21 4 0 6 -4 2 -10 -3 -5 10 -26 30 -47 19 -20 35 -41 35 -46 0 -4
4 -6 8 -3 5 3 15 -4 22 -15 8 -10 22 -19 32 -19 10 0 18 -4 18 -8 0 -8 14 -12
53 -13 9 0 15 -4 12 -10 -4 -5 -1 -9 4 -9 6 0 11 6 11 13 0 9 2 9 8 0 9 -15
62 -20 81 -8 10 5 12 4 7 -4 -9 -15 46 -3 55 12 4 5 9 3 11 -4 4 -11 8 -11 19
-2 8 6 24 10 34 9 11 -2 30 3 43 11 12 7 36 15 52 16 17 1 30 6 30 10 0 5 5 5
10 2 6 -3 10 -1 10 5 0 7 7 10 15 6 8 -3 15 0 15 5 0 6 9 9 20 6 11 -3 18 0
17 6 -1 6 8 13 21 15 12 2 22 8 22 13 0 5 5 9 11 9 5 0 7 -6 3 -12 -4 -7 3 -2
16 10 13 14 30 22 40 19 14 -3 17 -1 13 11 -4 10 -2 13 5 8 7 -4 12 -3 12 3 0
6 7 7 17 4 10 -4 14 -2 10 4 -4 7 5 14 22 18 16 3 32 13 35 22 4 9 12 13 23 9
10 -4 14 -4 11 0 -11 10 15 32 31 26 9 -3 12 -1 7 6 -5 8 2 12 21 12 19 0 24
3 15 9 -10 6 -8 10 10 16 12 4 26 7 31 6 4 -1 7 7 7 17 0 14 2 15 10 2 8 -13
10 -13 10 2 0 9 5 20 12 24 7 4 8 3 4 -4 -13 -21 4 -13 29 14 14 15 25 21 25
14 0 -7 9 -3 20 10 25 28 26 41 3 33 -10 -3 -15 -3 -11 2 8 9 -15 35 -32 35
-6 0 -8 5 -4 12 4 6 3 8 -4 4 -6 -3 -23 6 -38 21 -14 16 -23 21 -20 13 5 -10
2 -9 -7 2 -8 10 -17 15 -20 11 -4 -3 -7 -1 -7 6 0 7 -5 9 -10 6 -6 -4 -9 -1
-8 7 2 7 -7 14 -19 16 -13 2 -23 11 -23 20 0 14 -2 14 -9 3 -7 -11 -10 -10
-18 3 -5 9 -19 18 -30 19 -12 0 -21 4 -20 8 1 4 -1 6 -4 5 -12 -3 -39 27 -33
36 5 7 1 7 -11 1 -13 -8 -22 -6 -37 9 -12 12 -28 18 -39 15 -17 -5 -18 -3 -8
9 7 8 8 14 3 13 -5 -1 -12 0 -16 1 -5 1 -11 3 -15 4 -5 1 -18 7 -29 14 -12 6
-24 8 -28 5 -3 -3 -6 0 -6 7 0 7 -3 10 -7 7 -3 -4 -12 1 -20 11 -9 10 -11 11
-7 2 7 -12 5 -13 -8 -3 -8 7 -19 9 -23 5 -5 -4 -5 -2 -2 4 4 7 0 15 -9 18 -23
9 -26 8 -18 -6 6 -9 3 -9 -9 0 -9 8 -21 11 -26 7 -7 -4 -8 1 -4 11 5 14 2 16
-20 12 -15 -3 -27 -1 -27 4 0 5 -10 3 -22 -3 -21 -11 -22 -11 -9 4 12 15 10
17 -15 18 -60 3 -69 4 -81 12 -6 4 -14 1 -17 -5 -5 -10 -7 -10 -12 0 -5 10 -9
10 -22 0 -13 -11 -14 -11 -7 2 7 12 6 13 -6 3 -20 -16 -31 -17 -40 -1 -5 7 -9
8 -9 2z m-277 -444 c3 -11 1 -18 -4 -14 -5 3 -9 12 -9 20 0 20 7 17 13 -6z m7
-40 c0 -5 -2 -10 -4 -10 -3 0 -8 5 -11 10 -3 6 -1 10 4 10 6 0 11 -4 11 -10z"/>
<path d="M3028 2169 c-2 -6 -26 -12 -55 -13 -28 0 -49 -5 -45 -10 3 -5 -2 -7
-11 -3 -10 3 -17 2 -17 -3 0 -5 -9 -7 -20 -5 -11 2 -20 0 -20 -6 0 -5 -7 -9
-16 -9 -8 0 -13 -4 -10 -8 3 -5 -1 -9 -9 -9 -8 0 -12 4 -9 9 3 4 -2 5 -10 2
-9 -3 -16 -10 -16 -16 0 -5 -4 -6 -10 -3 -5 3 -10 1 -10 -4 0 -6 -14 -11 -31
-11 -17 0 -28 -4 -24 -10 6 -10 -7 -14 -34 -10 -8 1 -12 -4 -8 -13 3 -9 -1
-14 -11 -14 -35 0 -42 -4 -42 -20 0 -15 -2 -16 -10 -3 -7 12 -10 12 -10 1 0
-7 -6 -11 -14 -8 -10 4 -13 1 -10 -7 3 -8 0 -17 -7 -22 -8 -4 -10 -3 -5 4 4 7
2 12 -3 12 -6 0 -11 -4 -11 -9 0 -5 -9 -11 -21 -14 -14 -4 -18 -10 -13 -19 5
-9 2 -8 -11 2 -10 8 -17 11 -14 5 3 -5 -6 -21 -19 -34 -21 -19 -24 -20 -19 -5
7 18 6 18 -6 2 -8 -10 -17 -15 -20 -11 -4 3 -7 -1 -7 -11 0 -9 -4 -15 -10 -11
-5 3 -18 -3 -30 -15 -11 -11 -20 -18 -20 -15 0 3 -10 -3 -22 -14 -11 -11 -26
-18 -31 -14 -6 3 -7 1 -3 -5 7 -11 -32 -38 -48 -34 -5 2 -6 -4 -2 -13 3 -9 6
-18 6 -21 0 -2 7 -1 15 3 10 3 15 0 13 -8 -2 -7 7 -18 20 -24 12 -5 22 -13 22
-17 0 -5 7 -8 17 -8 9 0 13 -3 10 -7 -10 -9 31 -35 43 -28 6 3 13 -1 16 -9 3
-9 13 -16 21 -16 8 0 11 -4 8 -10 -3 -6 1 -7 9 -4 9 3 16 1 16 -5 0 -6 6 -10
13 -9 7 2 11 -5 9 -17 -2 -16 -1 -17 7 -5 8 12 14 11 35 -9 13 -13 29 -20 36
-16 6 4 9 1 8 -7 -2 -7 4 -13 12 -13 8 0 23 -9 33 -20 10 -11 16 -13 12 -5 -4
9 -1 8 8 -3 9 -10 18 -18 21 -18 21 3 26 0 20 -11 -4 -6 -3 -8 4 -4 6 3 14 1
17 -5 4 -5 12 -8 19 -6 12 5 38 -18 30 -26 -3 -2 6 -4 20 -4 14 0 41 -10 61
-22 20 -11 33 -17 30 -11 -3 6 1 7 9 4 9 -3 14 -10 11 -14 -3 -4 1 -8 8 -7 40
1 67 -4 62 -13 -3 -5 0 -7 8 -4 8 3 18 0 22 -6 5 -8 11 -8 21 1 8 7 14 7 14 1
0 -5 17 -9 38 -8 26 0 36 -3 34 -12 -1 -8 2 -11 8 -7 6 3 7 12 3 18 -4 7 2 5
12 -3 10 -8 16 -10 12 -4 -4 7 7 11 31 11 40 0 132 36 132 52 0 5 9 8 19 6 15
-3 18 1 14 12 -4 10 -2 14 5 9 6 -3 17 3 25 14 7 11 17 17 22 12 4 -4 5 3 2
16 -5 20 -3 21 9 11 8 -7 14 -8 13 -3 -4 23 2 45 11 39 9 -6 14 16 13 53 -1 9
3 10 11 2 10 -7 12 -3 11 20 -1 17 1 30 5 30 4 0 5 11 2 25 -2 14 0 31 6 38
14 17 15 140 1 131 -8 -5 -9 -1 -1 12 8 14 7 23 -5 36 -12 13 -12 18 -3 18 9
0 8 7 -4 25 -9 13 -16 31 -16 40 0 8 -6 15 -12 15 -9 0 -8 4 2 10 13 8 12 10
-3 10 -10 0 -16 4 -13 9 3 5 -1 12 -10 15 -9 4 -14 9 -11 13 4 3 -3 15 -16 25
-12 11 -22 25 -22 31 0 7 -8 11 -18 9 -9 -2 -17 1 -17 6 0 5 -13 15 -30 22
-16 7 -28 15 -26 19 3 4 -11 6 -30 6 -22 -1 -38 4 -44 14 -5 9 -10 11 -10 5 0
-6 -7 -11 -15 -11 -8 0 -12 4 -10 8 3 4 -11 7 -30 7 -23 0 -33 -4 -29 -11 4
-8 2 -7 -7 1 -7 6 -17 12 -22 12 -4 0 -5 -6 -1 -12 6 -10 4 -10 -8 0 -12 9
-17 10 -20 1z m-638 -489 c0 -5 -2 -10 -4 -10 -3 0 -8 5 -11 10 -3 6 -1 10 4
10 6 0 11 -4 11 -10z"/>
<path d="M1730 1978 c0 -4 -6 -7 -12 -5 -7 1 -12 -4 -10 -12 3 -12 0 -12 -12
-1 -12 9 -16 9 -16 1 0 -7 -5 -9 -12 -5 -8 5 -7 0 2 -11 9 -11 10 -16 3 -11
-8 4 -13 2 -13 -4 0 -6 -4 -9 -9 -6 -5 3 -15 -2 -22 -11 -11 -13 -11 -15 -1
-9 11 7 11 4 1 -12 -7 -12 -17 -18 -22 -15 -5 3 -4 -5 3 -17 7 -13 8 -20 2
-16 -16 10 -25 -13 -12 -29 8 -10 8 -15 -1 -21 -8 -5 -10 -3 -4 7 6 11 5 11
-5 2 -11 -10 -10 -17 4 -37 9 -14 16 -29 16 -33 0 -4 -5 -1 -10 7 -6 9 -10 10
-10 3 0 -6 5 -15 11 -18 6 -4 8 -14 5 -22 -3 -8 -2 -12 3 -9 5 3 15 -2 22 -11
10 -12 10 -14 2 -9 -7 4 -13 2 -13 -3 0 -6 5 -11 11 -11 7 0 20 -10 30 -22 11
-11 19 -17 19 -12 0 5 7 -1 15 -13 14 -20 61 -41 49 -21 -4 6 0 7 12 1 16 -7
68 -9 84 -3 3 1 14 3 24 5 10 2 23 10 27 17 5 7 9 9 9 3 0 -5 5 -2 11 8 5 9
16 17 24 17 8 0 17 5 21 12 4 7 3 8 -4 4 -8 -5 -10 -2 -6 8 3 9 9 14 13 12 4
-3 13 4 20 16 10 16 10 19 -1 12 -10 -6 -11 -5 -1 8 7 8 10 18 6 21 -3 4 2 7
12 7 14 0 15 3 5 15 -8 9 -8 15 -2 15 7 0 8 10 2 29 -5 19 -4 33 3 41 9 8 7 9
-7 4 -13 -5 -17 -4 -12 4 4 7 2 12 -3 12 -6 0 -11 9 -11 20 0 11 -4 20 -10 20
-5 0 -10 7 -10 16 0 8 -4 12 -10 9 -5 -3 -10 1 -10 10 0 9 -4 13 -10 10 -5 -3
-10 -1 -10 4 0 6 -3 10 -7 10 -20 -3 -34 2 -28 11 7 12 10 11 -77 14 -38 1
-68 -1 -68 -6z"/>
<path d="M1422 1471 c-8 -4 -31 -8 -52 -7 -21 1 -38 -2 -37 -8 1 -5 -18 -11
-42 -12 -25 -2 -48 -9 -53 -16 -6 -10 -8 -10 -8 2 -1 11 -4 10 -15 -4 -11 -14
-15 -16 -15 -5 0 8 -3 10 -8 4 -4 -6 -21 -10 -39 -10 -18 1 -30 -2 -27 -7 5
-8 -4 -10 -58 -11 -15 -1 -25 -3 -23 -6 10 -10 -40 -28 -52 -18 -9 6 -13 6
-13 -2 0 -7 -4 -10 -9 -6 -5 3 -16 -2 -24 -10 -12 -11 -17 -12 -20 -2 -4 9 -6
9 -6 0 -1 -7 -8 -10 -16 -7 -8 4 -15 1 -15 -7 0 -7 -3 -10 -6 -6 -3 3 -21 -3
-41 -14 -19 -11 -44 -21 -56 -23 -12 -1 -22 -9 -22 -17 0 -9 -9 -13 -28 -11
-18 2 -27 -1 -25 -9 2 -7 -3 -14 -9 -15 -7 -1 -18 -2 -24 -3 -5 0 -7 -6 -3
-12 4 -7 1 -10 -7 -7 -8 3 -22 -4 -31 -14 -9 -11 -22 -17 -28 -13 -6 3 -9 2
-8 -3 4 -13 -49 -61 -59 -53 -4 3 -2 -1 5 -10 11 -14 10 -17 -5 -15 -10 0 -17
-5 -15 -12 1 -7 -5 -15 -13 -18 -8 -3 -12 -11 -8 -17 3 -5 -1 -15 -9 -21 -19
-15 -29 -44 -17 -51 5 -4 7 -11 3 -16 -3 -5 -10 -7 -15 -4 -5 4 -5 -4 1 -19 6
-16 6 -27 0 -31 -6 -4 -10 -11 -10 -16 0 -6 4 -7 10 -4 6 3 7 -1 4 -9 -3 -9
-11 -13 -18 -9 -6 3 -3 -2 6 -13 14 -16 15 -23 5 -34 -7 -8 -8 -11 -1 -7 7 4
14 0 18 -8 3 -8 0 -15 -7 -15 -7 0 -8 -3 -2 -8 18 -13 42 -47 27 -38 -12 7
-12 4 -1 -15 7 -13 19 -30 28 -37 10 -8 10 -11 2 -6 -20 10 -3 -17 21 -34 10
-7 18 -20 18 -27 0 -8 11 -22 25 -31 14 -9 23 -20 20 -24 -5 -8 33 -26 47 -22
5 1 7 -3 5 -9 -2 -12 78 -60 96 -56 6 1 11 -3 10 -9 -1 -7 10 -11 27 -10 17 1
30 -3 30 -8 0 -6 5 -4 10 4 8 12 10 12 11 -5 0 -11 3 -14 6 -7 2 6 9 12 14 12
6 0 8 -4 5 -8 -2 -4 11 -8 29 -8 18 0 31 4 29 8 -3 5 -10 5 -16 2 -7 -4 -8 -2
-4 4 5 9 13 9 27 2 14 -8 19 -7 19 2 0 9 3 9 10 -2 5 -8 10 -10 10 -4 0 7 8
11 18 10 10 0 16 5 14 13 -3 12 0 12 12 1 12 -9 16 -10 16 0 0 7 7 10 17 6 10
-4 14 -4 11 0 -8 8 10 28 35 37 11 4 15 12 11 19 -5 7 -2 9 9 5 8 -3 21 1 28
9 10 12 9 13 -7 8 -10 -3 -4 3 14 15 17 11 32 28 32 36 0 9 7 18 15 21 8 4 12
10 9 15 -3 5 0 9 5 9 6 0 11 7 11 16 0 9 5 12 12 8 7 -5 8 -3 3 6 -4 7 -2 15
4 20 11 6 18 24 20 53 1 5 6 5 12 2 6 -4 10 -1 8 6 -3 27 1 40 11 34 6 -4 7 1
3 11 -5 13 -3 15 7 9 8 -5 11 -4 6 3 -3 6 -2 13 4 17 7 4 7 12 0 25 -9 16 -8
18 6 13 12 -4 15 -3 10 5 -4 7 -2 12 5 12 8 0 7 5 -2 17 -10 11 -10 14 -1 9 8
-5 12 0 12 14 0 12 3 19 8 17 4 -3 8 11 9 30 1 19 7 41 14 49 6 8 8 14 4 14
-4 0 -2 6 4 14 9 11 9 15 -1 19 -7 3 -4 6 7 6 15 1 17 3 7 10 -12 7 -12 11 0
22 8 7 12 23 10 36 -2 13 0 23 6 23 6 0 9 11 7 25 -1 14 1 25 5 25 4 0 11 7
14 16 4 9 2 13 -5 8 -8 -4 -8 -1 0 14 14 27 14 35 -1 27 -7 -4 -5 0 6 9 10 8
16 22 13 30 -4 9 -3 17 1 20 4 2 7 21 7 40 -1 20 1 36 5 36 4 0 7 7 7 14 0 11
-5 12 -18 5 -23 -12 -32 -12 -24 1 7 12 4 12 -13 1z"/>
<path d="M2124 1461 c-15 -4 -20 -13 -18 -31 2 -14 4 -37 5 -52 1 -15 5 -25 9
-23 3 2 6 -18 5 -45 -1 -36 2 -47 10 -40 7 6 11 3 12 -11 1 -13 -2 -17 -10
-12 -7 4 -6 0 2 -10 7 -9 11 -30 9 -46 -2 -17 -1 -28 3 -26 12 8 25 -19 23
-47 0 -16 3 -28 9 -28 5 0 4 -7 -3 -16 -11 -12 -11 -15 0 -12 10 2 14 -7 14
-27 1 -32 15 -56 29 -48 5 3 4 -4 -2 -16 -8 -15 -9 -21 -1 -21 6 0 8 -5 5 -11
-4 -6 1 -17 11 -25 11 -9 13 -12 5 -8 -10 5 -12 3 -5 -7 10 -16 11 -20 13 -50
1 -12 5 -17 12 -13 8 5 10 -1 7 -20 -3 -14 -1 -29 5 -33 6 -4 7 -1 2 7 -5 9
-4 11 3 6 7 -4 12 -18 12 -32 0 -13 5 -24 10 -24 6 0 10 -7 10 -15 0 -8 4 -15
10 -15 5 0 7 -6 4 -14 -3 -7 7 -23 22 -35 15 -12 21 -21 13 -21 -10 -1 -8 -4
4 -11 9 -6 15 -14 12 -20 -4 -5 1 -9 10 -9 9 0 13 -4 10 -10 -3 -5 1 -10 9
-10 9 0 16 -6 16 -14 0 -7 14 -24 32 -37 17 -13 37 -30 45 -37 7 -8 20 -11 28
-8 8 3 17 0 21 -6 5 -7 2 -8 -6 -3 -9 5 -11 4 -6 -4 4 -7 13 -10 19 -8 7 2 21
-3 31 -12 11 -9 16 -10 12 -4 -4 7 -2 13 3 13 6 0 11 -6 11 -12 0 -8 3 -9 8
-3 4 6 13 11 21 13 11 2 12 0 3 -10 -8 -11 -7 -14 9 -14 10 0 19 7 19 16 0 13
1 13 10 0 9 -13 11 -13 20 0 5 8 10 10 10 4 0 -6 7 -11 15 -11 8 0 12 4 9 8
-2 4 4 8 13 8 48 1 92 17 110 40 7 9 13 12 13 7 0 -6 7 -1 15 10 15 19 15 19
9 -1 -4 -17 -3 -16 8 3 8 12 17 20 20 17 3 -4 9 3 13 14 3 12 9 19 13 17 4 -2
13 2 20 10 7 8 9 14 5 14 -4 0 3 7 15 16 12 8 19 20 16 26 -5 7 -2 9 7 6 10
-4 15 1 16 15 1 11 6 23 11 26 5 3 12 16 16 29 4 12 11 20 15 18 4 -3 8 1 8 9
0 8 -5 11 -10 8 -6 -4 -3 4 6 18 20 27 22 43 5 33 -7 -4 -8 -3 -4 4 4 7 15 12
24 12 13 0 13 2 -4 15 -10 8 -13 14 -5 13 9 -2 14 10 17 40 2 25 -1 42 -8 42
-7 0 -6 5 2 15 12 14 7 20 -14 16 -5 -1 -4 5 4 13 9 12 9 16 1 16 -7 0 -9 5
-6 10 3 6 0 10 -7 10 -10 0 -10 2 -1 8 9 6 7 12 -7 22 -15 11 -17 17 -7 29 6
9 8 13 3 9 -12 -10 -39 20 -32 37 3 9 0 12 -10 8 -7 -3 -14 0 -14 7 0 6 -4 8
-10 5 -10 -6 -15 9 -10 30 1 5 -2 7 -6 3 -4 -4 -13 0 -21 10 -10 11 -12 12 -8
2 4 -8 -2 -5 -13 8 -11 12 -25 22 -32 22 -6 0 -8 5 -4 12 4 6 3 8 -4 4 -6 -3
-17 -1 -24 6 -8 7 -24 19 -37 26 -19 11 -22 11 -16 0 3 -7 0 -5 -8 4 -8 10
-17 15 -20 11 -4 -3 -7 -1 -7 6 0 7 -7 11 -15 8 -8 -4 -17 -1 -21 5 -5 7 -2 8
7 3 8 -5 11 -4 6 1 -5 5 -12 9 -15 9 -4 0 -13 4 -21 9 -11 7 -12 6 -5 -5 6
-10 0 -9 -19 4 -14 9 -34 17 -44 17 -10 0 -26 7 -36 15 -11 7 -27 12 -38 10
-10 -2 -19 0 -19 6 0 5 -7 9 -15 9 -8 0 -15 5 -15 10 0 7 -6 7 -19 0 -14 -7
-22 -7 -26 1 -4 6 -13 8 -21 5 -7 -3 -11 0 -8 7 3 8 -5 12 -23 11 -16 -1 -34
4 -42 10 -11 8 -13 8 -7 -1 5 -9 2 -11 -8 -7 -9 3 -16 10 -16 14 0 4 -21 8
-47 8 -25 1 -50 6 -53 13 -4 6 -28 11 -54 12 -25 0 -46 4 -46 8 0 11 -23 16
-46 10z"/>
<path d="M1769 1323 c-16 -19 -19 -27 -19 -44 0 -5 -4 -7 -10 -4 -5 3 -10 -1
-10 -9 0 -9 -4 -16 -9 -16 -6 0 -8 -9 -6 -19 3 -15 -1 -18 -13 -14 -9 3 -14 3
-10 -2 4 -4 0 -14 -10 -22 -10 -9 -11 -11 -2 -7 13 7 13 5 1 -9 -7 -9 -17 -14
-22 -11 -5 3 -6 -2 -3 -10 3 -9 1 -16 -6 -16 -6 0 -8 -4 -5 -10 3 -5 2 -10 -3
-10 -5 0 -15 -12 -23 -27 -8 -16 -18 -31 -24 -35 -5 -4 -11 -12 -11 -18 -1 -5
-2 -15 -3 -21 0 -5 -5 -8 -10 -5 -5 3 -12 -1 -15 -10 -3 -9 -2 -12 5 -8 6 3 5
-3 -2 -14 -7 -12 -18 -18 -24 -15 -5 4 -7 3 -3 -2 4 -4 2 -17 -4 -29 -7 -11
-11 -24 -10 -28 1 -5 -3 -8 -9 -8 -5 0 -8 -4 -5 -9 4 -5 0 -11 -6 -13 -7 -3
-13 -13 -13 -24 0 -10 -6 -18 -13 -16 -8 1 -11 -2 -7 -8 4 -6 1 -18 -7 -27
-11 -14 -11 -16 2 -8 12 7 12 5 -1 -11 -26 -31 -34 -48 -19 -39 10 6 11 4 4
-6 -5 -8 -9 -17 -9 -21 0 -3 -4 -10 -9 -15 -6 -5 -6 -2 -1 7 5 9 5 12 -1 7 -5
-5 -10 -24 -10 -43 -1 -18 -7 -40 -13 -48 -6 -7 -13 -40 -14 -72 -1 -33 -6
-65 -11 -72 -4 -7 -3 -19 3 -26 7 -9 7 -16 -1 -24 -9 -9 -9 -12 -1 -12 7 0 10
-10 7 -26 -3 -16 -1 -23 6 -19 6 3 7 0 4 -10 -7 -17 22 -85 36 -85 5 0 7 -7 3
-16 -4 -10 1 -17 16 -21 11 -3 19 -9 16 -13 -2 -4 5 -16 17 -26 12 -11 18 -13
13 -5 -5 10 -4 12 3 7 7 -4 12 -14 12 -21 0 -9 6 -12 17 -8 12 5 14 3 8 -7 -6
-10 -4 -12 9 -7 10 4 19 1 22 -8 4 -9 19 -15 36 -15 17 0 27 -4 23 -10 -6 -10
5 -12 55 -12 14 0 28 -5 31 -10 4 -7 15 -6 29 2 12 7 20 8 16 2 -3 -5 1 -12 9
-16 8 -3 17 0 21 6 5 7 2 8 -7 3 -8 -5 -10 -4 -6 0 10 12 38 15 31 4 -8 -14
20 -11 35 3 11 11 12 10 6 -2 -7 -12 -6 -13 6 -3 8 7 32 11 52 9 20 -2 34 0
31 5 -3 5 0 9 6 9 6 0 8 5 4 12 -5 7 -3 8 5 4 13 -9 71 11 71 24 0 4 12 11 26
14 15 4 24 9 21 12 -3 4 10 21 28 40 19 19 32 34 28 34 -3 0 4 8 15 19 24 20
29 36 10 26 -7 -4 -4 1 6 9 11 9 16 16 11 16 -5 0 -4 5 3 12 16 16 15 31 0 22
-7 -4 -4 3 7 16 12 14 14 20 5 15 -12 -7 -13 -6 -3 6 10 12 10 18 1 27 -9 9
-9 15 1 25 10 10 11 8 6 -8 -6 -16 -5 -17 4 -5 8 11 7 18 -4 26 -11 8 -12 13
-3 22 9 9 9 12 0 12 -10 0 -10 5 -1 21 6 12 7 19 1 15 -5 -3 -12 6 -15 19 -2
14 0 28 5 31 5 3 1 13 -9 21 -10 8 -12 12 -5 8 6 -3 12 -2 12 4 0 5 -5 11 -10
13 -6 2 -11 20 -12 40 -1 20 -6 36 -12 35 -5 -1 -10 7 -11 18 0 11 -5 27 -10
35 -5 8 -10 21 -11 28 -2 8 -10 22 -19 33 -10 10 -15 25 -12 33 3 8 -1 17 -10
20 -8 4 -13 13 -9 21 3 8 0 15 -6 15 -6 0 -9 3 -5 6 3 4 -4 15 -16 26 -12 11
-17 17 -11 14 6 -3 11 1 11 8 0 8 -6 12 -14 9 -8 -3 -11 0 -8 9 3 8 -4 23 -15
33 -14 13 -17 21 -9 26 8 4 4 9 -10 14 -11 3 -21 13 -21 21 0 8 -4 12 -10 9
-5 -3 -7 0 -4 8 3 8 -2 20 -11 27 -8 7 -15 19 -15 26 0 8 -5 14 -11 14 -5 0
-7 5 -4 10 3 6 -1 13 -9 16 -9 3 -16 15 -16 26 0 10 -4 16 -10 13 -5 -3 -10 3
-10 15 0 12 -4 18 -10 15 -5 -3 -10 4 -10 15 0 17 -4 21 -17 16 -10 -4 -14 -4
-10 0 4 4 -1 13 -11 21 -9 8 -11 11 -3 7 9 -5 12 -3 7 4 -9 15 -9 15 -27 -5z"/>
</g>
</svg>
