<?xml version="1.0" encoding="utf-8" standalone="no"?>
<!DOCTYPE svg PUBLIC "-//W3C//DTD SVG 1.1//EN"
  "http://www.w3.org/Graphics/SVG/1.1/DTD/svg11.dtd">
<svg xmlns:xlink="http://www.w3.org/1999/xlink" width="332.64pt" height="332.64pt" viewBox="0 0 332.64 332.64" xmlns="http://www.w3.org/2000/svg" version="1.1">
 <metadata>
  <rdf:RDF xmlns:dc="http://purl.org/dc/elements/1.1/" xmlns:cc="http://creativecommons.org/ns#" xmlns:rdf="http://www.w3.org/1999/02/22-rdf-syntax-ns#">
   <cc:Work>
    <dc:type rdf:resource="http://purl.org/dc/dcmitype/StillImage"/>
    <dc:date>2025-09-01T08:47:39.278756</dc:date>
    <dc:format>image/svg+xml</dc:format>
    <dc:creator>
     <cc:Agent>
      <dc:title>Matplotlib v3.7.3, https://matplotlib.org/</dc:title>
     </cc:Agent>
    </dc:creator>
   </cc:Work>
  </rdf:RDF>
 </metadata>
 <defs>
  <style type="text/css">*{stroke-linejoin: round; stroke-linecap: butt}</style>
 </defs>
 <g id="figure_1">
  <g id="patch_1">
   <path d="M 0 332.64 
L 332.64 332.64 
L 332.64 0 
L 0 0 
L 0 332.64 
z
" style="fill: none"/>
  </g>
  <g id="axes_1">
   <g id="line2d_1">
    <path d="M 166.421507 166.218493 
L 163.537906 160.086667 
L 162.439044 157.363694 
L 161.7401 155.040637 
L 161.540004 153.622457 
L 161.653489 152.517858 
L 161.913864 151.966177 
L 162.325961 151.566218 
L 162.890422 151.318623 
L 163.605413 151.221558 
L 164.950065 151.348125 
L 166.598506 151.778483 
L 169.205017 152.760881 
L 172.955207 154.480931 
L 184.683899 160.119202 
L 187.19059 161.001781 
L 188.736348 161.329455 
L 189.952168 161.327191 
L 190.566066 161.129033 
L 191.017117 160.768028 
L 191.303683 160.242537 
L 191.426945 159.553744 
L 191.390917 158.70566 
L 191.053825 157.150483 
L 190.408468 155.287043 
L 189.150778 152.40524 
L 186.707493 147.525787 
L 182.93661 140.100651 
L 181.676109 137.216039 
L 181.03866 135.360505 
L 180.724857 133.828618 
L 180.715961 133.007666 
L 180.877611 132.35726 
L 181.215243 131.882836 
L 181.73113 131.586666 
L 182.424298 131.467779 
L 183.290515 131.521939 
L 184.897143 131.910483 
L 186.837475 132.632731 
L 189.850992 134.022136 
L 194.952234 136.687209 
L 202.619021 140.699744 
L 205.523537 141.980148 
L 207.345804 142.584331 
L 208.800019 142.820462 
L 209.544466 142.752853 
L 210.09938 142.495711 
L 210.460654 142.044928 
L 210.627917 141.400136 
L 210.604593 140.564755 
L 210.228998 138.971076 
L 209.481238 137.005233 
L 208.005568 133.90545 
L 205.135118 128.598832 
L 200.804115 120.613577 
L 199.443341 117.62869 
L 198.821976 115.789241 
L 198.611678 114.360859 
L 198.721659 113.658784 
L 199.041232 113.166301 
L 199.573689 112.886702 
L 200.317904 112.81886 
L 201.268293 112.957194 
L 203.057449 113.528265 
L 205.235665 114.488397 
L 208.620363 116.248983 
L 215.244142 120.030566 
L 220.756607 123.106863 
L 223.8982 124.624344 
L 225.817978 125.326037 
L 226.849416 125.54542 
L 227.66339 125.547337 
L 228.24906 125.320951 
L 228.600583 124.860418 
L 228.717316 124.165095 
L 228.603912 123.239635 
L 228.270298 122.093964 
L 227.391256 119.996838 
L 225.628713 116.610184 
L 222.198268 110.74357 
L 217.653367 102.950445 
L 216.051711 99.724676 
L 215.352465 97.807347 
L 215.170097 96.812923 
L 215.234522 96.065292 
L 215.556238 95.574951 
L 216.139618 95.346276 
L 216.9827 95.377301 
L 218.077121 95.659666 
L 220.156258 96.520719 
L 222.691852 97.838229 
L 226.603501 100.125765 
L 238.936806 107.586734 
L 241.40252 108.834364 
L 243.367497 109.581257 
L 244.354739 109.756443 
L 245.06181 109.651457 
L 245.477847 109.255438 
L 245.599565 108.565101 
L 245.4315 107.58498 
L 244.98604 106.327463 
L 243.843639 103.966979 
L 241.596328 100.095555 
L 237.347213 93.410272 
L 233.235736 86.862627 
L 231.245953 83.248731 
L 230.39644 81.181134 
L 230.197753 80.170391 
L 230.319044 79.479626 
L 230.503849 79.258403 
L 230.772473 79.120998 
L 231.560663 79.097133 
L 232.676409 79.400823 
L 234.10265 80.015008 
L 236.763436 81.457709 
L 241.076142 84.146304 
L 256.028264 93.820061 
L 258.483413 95.057126 
L 259.720185 95.481842 
L 260.598917 95.548517 
L 260.89718 95.440752 
L 261.09919 95.236735 
L 261.204267 94.935783 
L 261.124837 94.044297 
L 260.669311 92.776715 
L 259.860816 91.156164 
L 258.066917 88.144181 
L 254.86286 83.316012 
L 246.234659 70.627531 
L 244.513638 67.688425 
L 243.798468 66.161199 
L 243.485167 65.035842 
L 243.490148 64.634795 
L 243.606869 64.345488 
L 243.837085 64.169676 
L 244.181528 64.108091 
L 245.21075 64.325257 
L 246.679174 64.981625 
L 248.554477 66.044871 
L 252.019732 68.292043 
L 257.489353 72.137552 
L 268.632457 80.032431 
L 271.886848 82.068737 
L 273.543721 82.913555 
L 274.717166 83.274944 
L 275.10857 83.26032 
L 275.364826 83.110547 
L 275.483913 82.823606 
L 275.465248 82.398913 
L 275.019827 81.141436 
L 274.053824 79.363377 
L 271.741865 75.833334 
L 267.475536 69.942893 
L 258.301411 57.520544 
L 255.946692 53.947741 
L 255.01464 52.203633 
L 254.687756 51.064693 
L 254.768527 50.739435 
L 255.01757 50.58245 
L 255.43646 50.595312 
L 256.779484 51.12628 
L 258.767366 52.302106 
L 262.80768 55.124336 
L 269.582005 60.274549 
L 281.741 69.591347 
L 285.565591 72.197855 
L 287.274604 73.094811 
L 287.836414 73.250593 
L 288.190823 73.198974 
L 288.332144 72.934267 
L 288.257724 72.453819 
L 287.968078 71.758145 
L 286.761553 69.739564 
L 284.782615 66.94857 
L 280.646263 61.594133 
L 265.29435 42.181941 
L 263.767066 39.842601 
L 263.373681 39.043187 
L 263.250929 38.514407 
L 263.411281 38.268732 
L 263.86238 38.313802 
L 264.606666 38.65206 
L 266.95689 40.190228 
L 270.368526 42.789808 
L 277.045776 48.248974 
L 294.139447 62.500449 
L 297.607106 65.156051 
L 299.744063 66.480952 
L 300.226515 66.557376 
L 300.287204 66.212037 
L 299.914443 65.433248 
L 299.107046 64.219823 
L 296.240664 60.541385 
L 291.913023 55.401688 
L 280.719879 42.584432 
L 272.754728 33.401197 
L 269.10929 28.943703 
L 268.06388 27.492264 
L 267.637831 26.660187 
L 267.887238 26.503566 
L 268.8477 27.058 
L 270.530668 28.33494 
L 275.970402 32.962619 
L 288.146414 43.920546 
L 305.429699 59.579719 
L 310.730695 64.068659 
L 311.802586 64.734521 
L 311.612538 64.138446 
L 310.074737 62.194617 
L 307.181367 58.895219 
L 297.78033 48.682126 
L 269.838727 18.710382 
L 267.811282 16.276909 
L 268.221052 16.280651 
L 271.305551 18.959122 
L 276.988765 24.236308 
L 316.151416 61.368819 
L 317.52 62.331375 
L 314.720131 59.125478 
L 299.286669 42.87996 
L 282.102748 24.883983 
L 277.684954 20.060161 
L 277.547879 19.517058 
L 281.525449 23.0886 
L 307.628857 47.567896 
L 308.579669 48.112679 
L 306.335623 45.462605 
L 290.249734 27.752604 
L 290.254728 27.35157 
L 292.327088 29.017902 
L 302.033268 37.505998 
L 303.504175 38.570877 
L 303.47789 38.138563 
L 302.243594 36.49824 
L 297.351337 30.387899 
L 297.038285 29.668818 
L 297.633332 29.857838 
L 302.692153 33.292546 
L 303.031912 33.226277 
L 302.843433 32.63177 
L 301.270198 29.840451 
L 301.141474 29.305699 
L 301.372357 29.130554 
L 301.898687 29.250856 
L 303.813504 29.947589 
L 304.14914 29.877197 
L 304.269364 29.591392 
L 304.084264 27.782181 
L 304.250228 27.542116 
L 304.912401 27.392233 
L 305.660783 27.328559 
L 306.143051 26.998771 
L 306.453662 26.091298 
L 306.745524 25.571105 
L 307.22505 25.238574 
L 308.011851 24.807291 
L 308.571733 24.149088 
L 309.284518 23.237762 
L 310.971846 21.676865 
L 311.972836 20.647715 
L 313.204561 19.443272 
L 313.204561 19.443272 
" clip-path="url(#p9a845dc9e3)" style="fill: none; stroke: #ffffff; stroke-width: 2; stroke-linecap: square"/>
   </g>
   <g id="line2d_2">
    <path d="M 166.218493 166.218493 
L 160.086667 169.102094 
L 157.363694 170.200956 
L 155.040637 170.8999 
L 153.622457 171.099996 
L 152.517858 170.986511 
L 151.966177 170.726136 
L 151.566218 170.314039 
L 151.318623 169.749578 
L 151.221558 169.034587 
L 151.348125 167.689935 
L 151.778483 166.041494 
L 152.760881 163.434983 
L 154.480931 159.684793 
L 160.119202 147.956101 
L 161.001781 145.44941 
L 161.329455 143.903652 
L 161.327191 142.687832 
L 161.129033 142.073934 
L 160.768028 141.622883 
L 160.242537 141.336317 
L 159.553744 141.213055 
L 158.70566 141.249083 
L 157.150483 141.586175 
L 155.287043 142.231532 
L 152.40524 143.489222 
L 147.525787 145.932507 
L 140.100651 149.70339 
L 137.216039 150.963891 
L 135.360505 151.60134 
L 133.828618 151.915143 
L 133.007666 151.924039 
L 132.35726 151.762389 
L 131.882836 151.424757 
L 131.586666 150.90887 
L 131.467779 150.215702 
L 131.521939 149.349485 
L 131.910483 147.742857 
L 132.632731 145.802525 
L 134.022136 142.789008 
L 136.687209 137.687766 
L 140.699744 130.020979 
L 141.980148 127.116463 
L 142.584331 125.294196 
L 142.820462 123.839981 
L 142.752853 123.095534 
L 142.495711 122.54062 
L 142.044928 122.179346 
L 141.400136 122.012083 
L 140.564755 122.035407 
L 138.971076 122.411002 
L 137.005233 123.158762 
L 133.90545 124.634432 
L 128.598832 127.504882 
L 120.613577 131.835885 
L 117.62869 133.196659 
L 115.789241 133.818024 
L 114.360859 134.028322 
L 113.658784 133.918341 
L 113.166301 133.598768 
L 112.886702 133.066311 
L 112.81886 132.322096 
L 112.957194 131.371707 
L 113.528265 129.582551 
L 114.488397 127.404335 
L 116.248983 124.019637 
L 120.030566 117.395858 
L 123.106863 111.883393 
L 124.624344 108.7418 
L 125.326037 106.822022 
L 125.54542 105.790584 
L 125.547337 104.97661 
L 125.320951 104.39094 
L 124.860418 104.039417 
L 124.165095 103.922684 
L 123.239635 104.036088 
L 122.093964 104.369702 
L 119.996838 105.248744 
L 116.610184 107.011287 
L 110.74357 110.441732 
L 102.950445 114.986633 
L 99.724676 116.588289 
L 97.807347 117.287535 
L 96.812923 117.469903 
L 96.065292 117.405478 
L 95.574951 117.083762 
L 95.346276 116.500382 
L 95.377301 115.6573 
L 95.659666 114.562879 
L 96.520719 112.483742 
L 97.838229 109.948148 
L 100.125765 106.036499 
L 107.586734 93.703194 
L 108.834364 91.23748 
L 109.581257 89.272503 
L 109.756443 88.285261 
L 109.651457 87.57819 
L 109.255438 87.162153 
L 108.565101 87.040435 
L 107.58498 87.2085 
L 106.327463 87.65396 
L 103.966979 88.796361 
L 100.095555 91.043672 
L 93.410272 95.292787 
L 86.862627 99.404264 
L 83.248731 101.394047 
L 81.181134 102.24356 
L 80.170391 102.442247 
L 79.479626 102.320956 
L 79.258403 102.136151 
L 79.120998 101.867527 
L 79.097133 101.079337 
L 79.400823 99.963591 
L 80.015008 98.53735 
L 81.457709 95.876564 
L 84.146304 91.563858 
L 93.820061 76.611736 
L 95.057126 74.156587 
L 95.481842 72.919815 
L 95.548517 72.041083 
L 95.440752 71.74282 
L 95.236735 71.54081 
L 94.935783 71.435733 
L 94.044297 71.515163 
L 92.776715 71.970689 
L 91.156164 72.779184 
L 88.144181 74.573083 
L 83.316012 77.77714 
L 70.627531 86.405341 
L 67.688425 88.126362 
L 66.161199 88.841532 
L 65.035842 89.154833 
L 64.634795 89.149852 
L 64.345488 89.033131 
L 64.169676 88.802915 
L 64.108091 88.458472 
L 64.325257 87.42925 
L 64.981625 85.960826 
L 66.044871 84.085523 
L 68.292043 80.620268 
L 72.137552 75.150647 
L 80.032431 64.007543 
L 82.068737 60.753152 
L 82.913555 59.096279 
L 83.274944 57.922834 
L 83.26032 57.53143 
L 83.110547 57.275174 
L 82.823606 57.156087 
L 82.398913 57.174752 
L 81.141436 57.620173 
L 79.363377 58.586176 
L 75.833334 60.898135 
L 69.942893 65.164464 
L 57.520544 74.338589 
L 53.947741 76.693308 
L 52.203633 77.62536 
L 51.064693 77.952244 
L 50.739435 77.871473 
L 50.58245 77.62243 
L 50.595312 77.20354 
L 51.12628 75.860516 
L 52.302106 73.872634 
L 55.124336 69.83232 
L 60.274549 63.057995 
L 69.591347 50.899 
L 72.197855 47.074409 
L 73.094811 45.365396 
L 73.250593 44.803586 
L 73.198974 44.449177 
L 72.934267 44.307856 
L 72.453819 44.382276 
L 71.758145 44.671922 
L 69.739564 45.878447 
L 66.94857 47.857385 
L 61.594133 51.993737 
L 42.181941 67.34565 
L 39.842601 68.872934 
L 39.043187 69.266319 
L 38.514407 69.389071 
L 38.268732 69.228719 
L 38.313802 68.77762 
L 38.65206 68.033334 
L 40.190228 65.68311 
L 42.789808 62.271474 
L 48.248974 55.594224 
L 62.500449 38.500553 
L 65.156051 35.032894 
L 66.480952 32.895937 
L 66.557376 32.413485 
L 66.212037 32.352796 
L 65.433248 32.725557 
L 64.219823 33.532954 
L 60.541385 36.399336 
L 55.401688 40.726977 
L 42.584432 51.920121 
L 33.401197 59.885272 
L 28.943703 63.53071 
L 27.492264 64.57612 
L 26.660187 65.002169 
L 26.503566 64.752762 
L 27.058 63.7923 
L 28.33494 62.109332 
L 32.962619 56.669598 
L 43.920546 44.493586 
L 59.579719 27.210301 
L 64.068659 21.909305 
L 64.734521 20.837414 
L 64.138446 21.027462 
L 62.194617 22.565263 
L 58.895219 25.458633 
L 48.682126 34.85967 
L 18.710382 62.801273 
L 16.276909 64.828718 
L 16.280651 64.418948 
L 18.959122 61.334449 
L 24.236308 55.651235 
L 61.368819 16.488584 
L 62.331375 15.12 
L 59.125478 17.919869 
L 42.87996 33.353331 
L 24.883983 50.537252 
L 20.060161 54.955046 
L 19.517058 55.092121 
L 23.0886 51.114551 
L 47.567896 25.011143 
L 48.112679 24.060331 
L 45.462605 26.304377 
L 27.752604 42.390266 
L 27.35157 42.385272 
L 29.017902 40.312912 
L 37.505998 30.606732 
L 38.570877 29.135825 
L 38.138563 29.16211 
L 36.49824 30.396406 
L 30.387899 35.288663 
L 29.668818 35.601715 
L 29.857838 35.006668 
L 33.292546 29.947847 
L 33.226277 29.608088 
L 32.63177 29.796567 
L 29.840451 31.369802 
L 29.305699 31.498526 
L 29.130554 31.267643 
L 29.250856 30.741313 
L 29.947589 28.826496 
L 29.877197 28.49086 
L 29.591392 28.370636 
L 27.782181 28.555736 
L 27.542116 28.389772 
L 27.392233 27.727599 
L 27.328559 26.979217 
L 26.998771 26.496949 
L 26.091298 26.186338 
L 25.571105 25.894476 
L 25.238574 25.41495 
L 24.807291 24.628149 
L 24.149088 24.068267 
L 23.237762 23.355482 
L 21.676865 21.668154 
L 20.647715 20.667164 
L 19.443272 19.435439 
L 19.443272 19.435439 
" clip-path="url(#p9a845dc9e3)" style="fill: none; stroke: #ffffff; stroke-width: 2; stroke-linecap: square"/>
   </g>
   <g id="line2d_3">
    <path d="M 166.218493 166.421507 
L 169.102094 172.553333 
L 170.200956 175.276306 
L 170.8999 177.599363 
L 171.099996 179.017543 
L 170.986511 180.122142 
L 170.726136 180.673823 
L 170.314039 181.073782 
L 169.749578 181.321377 
L 169.034587 181.418442 
L 167.689935 181.291875 
L 166.041494 180.861517 
L 163.434983 179.879119 
L 159.684793 178.159069 
L 147.956101 172.520798 
L 145.44941 171.638219 
L 143.903652 171.310545 
L 142.687832 171.312809 
L 142.073934 171.510967 
L 141.622883 171.871972 
L 141.336317 172.397463 
L 141.213055 173.086256 
L 141.249083 173.93434 
L 141.586175 175.489517 
L 142.231532 177.352957 
L 143.489222 180.23476 
L 145.932507 185.114213 
L 149.70339 192.539349 
L 150.963891 195.423961 
L 151.60134 197.279495 
L 151.915143 198.811382 
L 151.924039 199.632334 
L 151.762389 200.28274 
L 151.424757 200.757164 
L 150.90887 201.053334 
L 150.215702 201.172221 
L 149.349485 201.118061 
L 147.742857 200.729517 
L 145.802525 200.007269 
L 142.789008 198.617864 
L 137.687766 195.952791 
L 130.020979 191.940256 
L 127.116463 190.659852 
L 125.294196 190.055669 
L 123.839981 189.819538 
L 123.095534 189.887147 
L 122.54062 190.144289 
L 122.179346 190.595072 
L 122.012083 191.239864 
L 122.035407 192.075245 
L 122.411002 193.668924 
L 123.158762 195.634767 
L 124.634432 198.73455 
L 127.504882 204.041168 
L 131.835885 212.026423 
L 133.196659 215.01131 
L 133.818024 216.850759 
L 134.028322 218.279141 
L 133.918341 218.981216 
L 133.598768 219.473699 
L 133.066311 219.753298 
L 132.322096 219.82114 
L 131.371707 219.682806 
L 129.582551 219.111735 
L 127.404335 218.151603 
L 124.019637 216.391017 
L 117.395858 212.609434 
L 111.883393 209.533137 
L 108.7418 208.015656 
L 106.822022 207.313963 
L 105.790584 207.09458 
L 104.97661 207.092663 
L 104.39094 207.319049 
L 104.039417 207.779582 
L 103.922684 208.474905 
L 104.036088 209.400365 
L 104.369702 210.546036 
L 105.248744 212.643162 
L 107.011287 216.029816 
L 110.441732 221.89643 
L 114.986633 229.689555 
L 116.588289 232.915324 
L 117.287535 234.832653 
L 117.469903 235.827077 
L 117.405478 236.574708 
L 117.083762 237.065049 
L 116.500382 237.293724 
L 115.6573 237.262699 
L 114.562879 236.980334 
L 112.483742 236.119281 
L 109.948148 234.801771 
L 106.036499 232.514235 
L 93.703194 225.053266 
L 91.23748 223.805636 
L 89.272503 223.058743 
L 88.285261 222.883557 
L 87.57819 222.988543 
L 87.162153 223.384562 
L 87.040435 224.074899 
L 87.2085 225.05502 
L 87.65396 226.312537 
L 88.796361 228.673021 
L 91.043672 232.544445 
L 95.292787 239.229728 
L 99.404264 245.777373 
L 101.394047 249.391269 
L 102.24356 251.458866 
L 102.442247 252.469609 
L 102.320956 253.160374 
L 102.136151 253.381597 
L 101.867527 253.519002 
L 101.079337 253.542867 
L 99.963591 253.239177 
L 98.53735 252.624992 
L 95.876564 251.182291 
L 91.563858 248.493696 
L 76.611736 238.819939 
L 74.156587 237.582874 
L 72.919815 237.158158 
L 72.041083 237.091483 
L 71.74282 237.199248 
L 71.54081 237.403265 
L 71.435733 237.704217 
L 71.515163 238.595703 
L 71.970689 239.863285 
L 72.779184 241.483836 
L 74.573083 244.495819 
L 77.77714 249.323988 
L 86.405341 262.012469 
L 88.126362 264.951575 
L 88.841532 266.478801 
L 89.154833 267.604158 
L 89.149852 268.005205 
L 89.033131 268.294512 
L 88.802915 268.470324 
L 88.458472 268.531909 
L 87.42925 268.314743 
L 85.960826 267.658375 
L 84.085523 266.595129 
L 80.620268 264.347957 
L 75.150647 260.502448 
L 64.007543 252.607569 
L 60.753152 250.571263 
L 59.096279 249.726445 
L 57.922834 249.365056 
L 57.53143 249.37968 
L 57.275174 249.529453 
L 57.156087 249.816394 
L 57.174752 250.241087 
L 57.620173 251.498564 
L 58.586176 253.276623 
L 60.898135 256.806666 
L 65.164464 262.697107 
L 74.338589 275.119456 
L 76.693308 278.692259 
L 77.62536 280.436367 
L 77.952244 281.575307 
L 77.871473 281.900565 
L 77.62243 282.05755 
L 77.20354 282.044688 
L 75.860516 281.51372 
L 73.872634 280.337894 
L 69.83232 277.515664 
L 63.057995 272.365451 
L 50.899 263.048653 
L 47.074409 260.442145 
L 45.365396 259.545189 
L 44.803586 259.389407 
L 44.449177 259.441026 
L 44.307856 259.705733 
L 44.382276 260.186181 
L 44.671922 260.881855 
L 45.878447 262.900436 
L 47.857385 265.69143 
L 51.993737 271.045867 
L 67.34565 290.458059 
L 68.872934 292.797399 
L 69.266319 293.596813 
L 69.389071 294.125593 
L 69.228719 294.371268 
L 68.77762 294.326198 
L 68.033334 293.98794 
L 65.68311 292.449772 
L 62.271474 289.850192 
L 55.594224 284.391026 
L 38.500553 270.139551 
L 35.032894 267.483949 
L 32.895937 266.159048 
L 32.413485 266.082624 
L 32.352796 266.427963 
L 32.725557 267.206752 
L 33.532954 268.420177 
L 36.399336 272.098615 
L 40.726977 277.238312 
L 51.920121 290.055568 
L 59.885272 299.238803 
L 63.53071 303.696297 
L 64.57612 305.147736 
L 65.002169 305.979813 
L 64.752762 306.136434 
L 63.7923 305.582 
L 62.109332 304.30506 
L 56.669598 299.677381 
L 44.493586 288.719454 
L 27.210301 273.060281 
L 21.909305 268.571341 
L 20.837414 267.905479 
L 21.027462 268.501554 
L 22.565263 270.445383 
L 25.458633 273.744781 
L 34.85967 283.957874 
L 62.801273 313.929618 
L 64.828718 316.363091 
L 64.418948 316.359349 
L 61.334449 313.680878 
L 55.651235 308.403692 
L 16.488584 271.271181 
L 15.12 270.308625 
L 17.919869 273.514522 
L 33.353331 289.76004 
L 50.537252 307.756017 
L 54.955046 312.579839 
L 55.092121 313.122942 
L 51.114551 309.5514 
L 25.011143 285.072104 
L 24.060331 284.527321 
L 26.304377 287.177395 
L 42.390266 304.887396 
L 42.385272 305.28843 
L 40.312912 303.622098 
L 30.606732 295.134002 
L 29.135825 294.069123 
L 29.16211 294.501437 
L 30.396406 296.14176 
L 35.288663 302.252101 
L 35.601715 302.971182 
L 35.006668 302.782162 
L 29.947847 299.347454 
L 29.608088 299.413723 
L 29.796567 300.00823 
L 31.369802 302.799549 
L 31.498526 303.334301 
L 31.267643 303.509446 
L 30.741313 303.389144 
L 28.826496 302.692411 
L 28.49086 302.762803 
L 28.370636 303.048608 
L 28.555736 304.857819 
L 28.389772 305.097884 
L 27.727599 305.247767 
L 26.979217 305.311441 
L 26.496949 305.641229 
L 26.186338 306.548702 
L 25.894476 307.068895 
L 25.41495 307.401426 
L 24.628149 307.832709 
L 24.068267 308.490912 
L 23.355482 309.402238 
L 21.668154 310.963135 
L 20.667164 311.992285 
L 19.435439 313.196728 
L 19.435439 313.196728 
" clip-path="url(#p9a845dc9e3)" style="fill: none; stroke: #ffffff; stroke-width: 2; stroke-linecap: square"/>
   </g>
   <g id="line2d_4">
    <path d="M 166.421507 166.421507 
L 172.553333 163.537906 
L 175.276306 162.439044 
L 177.599363 161.7401 
L 179.017543 161.540004 
L 180.122142 161.653489 
L 180.673823 161.913864 
L 181.073782 162.325961 
L 181.321377 162.890422 
L 181.418442 163.605413 
L 181.291875 164.950065 
L 180.861517 166.598506 
L 179.879119 169.205017 
L 178.159069 172.955207 
L 172.520798 184.683899 
L 171.638219 187.19059 
L 171.310545 188.736348 
L 171.312809 189.952168 
L 171.510967 190.566066 
L 171.871972 191.017117 
L 172.397463 191.303683 
L 173.086256 191.426945 
L 173.93434 191.390917 
L 175.489517 191.053825 
L 177.352957 190.408468 
L 180.23476 189.150778 
L 185.114213 186.707493 
L 192.539349 182.93661 
L 195.423961 181.676109 
L 197.279495 181.03866 
L 198.811382 180.724857 
L 199.632334 180.715961 
L 200.28274 180.877611 
L 200.757164 181.215243 
L 201.053334 181.73113 
L 201.172221 182.424298 
L 201.118061 183.290515 
L 200.729517 184.897143 
L 200.007269 186.837475 
L 198.617864 189.850992 
L 195.952791 194.952234 
L 191.940256 202.619021 
L 190.659852 205.523537 
L 190.055669 207.345804 
L 189.819538 208.800019 
L 189.887147 209.544466 
L 190.144289 210.09938 
L 190.595072 210.460654 
L 191.239864 210.627917 
L 192.075245 210.604593 
L 193.668924 210.228998 
L 195.634767 209.481238 
L 198.73455 208.005568 
L 204.041168 205.135118 
L 212.026423 200.804115 
L 215.01131 199.443341 
L 216.850759 198.821976 
L 218.279141 198.611678 
L 218.981216 198.721659 
L 219.473699 199.041232 
L 219.753298 199.573689 
L 219.82114 200.317904 
L 219.682806 201.268293 
L 219.111735 203.057449 
L 218.151603 205.235665 
L 216.391017 208.620363 
L 212.609434 215.244142 
L 209.533137 220.756607 
L 208.015656 223.8982 
L 207.313963 225.817978 
L 207.09458 226.849416 
L 207.092663 227.66339 
L 207.319049 228.24906 
L 207.779582 228.600583 
L 208.474905 228.717316 
L 209.400365 228.603912 
L 210.546036 228.270298 
L 212.643162 227.391256 
L 216.029816 225.628713 
L 221.89643 222.198268 
L 229.689555 217.653367 
L 232.915324 216.051711 
L 234.832653 215.352465 
L 235.827077 215.170097 
L 236.574708 215.234522 
L 237.065049 215.556238 
L 237.293724 216.139618 
L 237.262699 216.9827 
L 236.980334 218.077121 
L 236.119281 220.156258 
L 234.801771 222.691852 
L 232.514235 226.603501 
L 225.053266 238.936806 
L 223.805636 241.40252 
L 223.058743 243.367497 
L 222.883557 244.354739 
L 222.988543 245.06181 
L 223.384562 245.477847 
L 224.074899 245.599565 
L 225.05502 245.4315 
L 226.312537 244.98604 
L 228.673021 243.843639 
L 232.544445 241.596328 
L 239.229728 237.347213 
L 245.777373 233.235736 
L 249.391269 231.245953 
L 251.458866 230.39644 
L 252.469609 230.197753 
L 253.160374 230.319044 
L 253.381597 230.503849 
L 253.519002 230.772473 
L 253.542867 231.560663 
L 253.239177 232.676409 
L 252.624992 234.10265 
L 251.182291 236.763436 
L 248.493696 241.076142 
L 238.819939 256.028264 
L 237.582874 258.483413 
L 237.158158 259.720185 
L 237.091483 260.598917 
L 237.199248 260.89718 
L 237.403265 261.09919 
L 237.704217 261.204267 
L 238.595703 261.124837 
L 239.863285 260.669311 
L 241.483836 259.860816 
L 244.495819 258.066917 
L 249.323988 254.86286 
L 262.012469 246.234659 
L 264.951575 244.513638 
L 266.478801 243.798468 
L 267.604158 243.485167 
L 268.005205 243.490148 
L 268.294512 243.606869 
L 268.470324 243.837085 
L 268.531909 244.181528 
L 268.314743 245.21075 
L 267.658375 246.679174 
L 266.595129 248.554477 
L 264.347957 252.019732 
L 260.502448 257.489353 
L 252.607569 268.632457 
L 250.571263 271.886848 
L 249.726445 273.543721 
L 249.365056 274.717166 
L 249.37968 275.10857 
L 249.529453 275.364826 
L 249.816394 275.483913 
L 250.241087 275.465248 
L 251.498564 275.019827 
L 253.276623 274.053824 
L 256.806666 271.741865 
L 262.697107 267.475536 
L 275.119456 258.301411 
L 278.692259 255.946692 
L 280.436367 255.01464 
L 281.575307 254.687756 
L 281.900565 254.768527 
L 282.05755 255.01757 
L 282.044688 255.43646 
L 281.51372 256.779484 
L 280.337894 258.767366 
L 277.515664 262.80768 
L 272.365451 269.582005 
L 263.048653 281.741 
L 260.442145 285.565591 
L 259.545189 287.274604 
L 259.389407 287.836414 
L 259.441026 288.190823 
L 259.705733 288.332144 
L 260.186181 288.257724 
L 260.881855 287.968078 
L 262.900436 286.761553 
L 265.69143 284.782615 
L 271.045867 280.646263 
L 290.458059 265.29435 
L 292.797399 263.767066 
L 293.596813 263.373681 
L 294.125593 263.250929 
L 294.371268 263.411281 
L 294.326198 263.86238 
L 293.98794 264.606666 
L 292.449772 266.95689 
L 289.850192 270.368526 
L 284.391026 277.045776 
L 270.139551 294.139447 
L 267.483949 297.607106 
L 266.159048 299.744063 
L 266.082624 300.226515 
L 266.427963 300.287204 
L 267.206752 299.914443 
L 268.420177 299.107046 
L 272.098615 296.240664 
L 277.238312 291.913023 
L 290.055568 280.719879 
L 299.238803 272.754728 
L 303.696297 269.10929 
L 305.147736 268.06388 
L 305.979813 267.637831 
L 306.136434 267.887238 
L 305.582 268.8477 
L 304.30506 270.530668 
L 299.677381 275.970402 
L 288.719454 288.146414 
L 273.060281 305.429699 
L 268.571341 310.730695 
L 267.905479 311.802586 
L 268.501554 311.612538 
L 270.445383 310.074737 
L 273.744781 307.181367 
L 283.957874 297.78033 
L 313.929618 269.838727 
L 316.363091 267.811282 
L 316.359349 268.221052 
L 313.680878 271.305551 
L 308.403692 276.988765 
L 271.271181 316.151416 
L 270.308625 317.52 
L 273.514522 314.720131 
L 289.76004 299.286669 
L 307.756017 282.102748 
L 312.579839 277.684954 
L 313.122942 277.547879 
L 309.5514 281.525449 
L 285.072104 307.628857 
L 284.527321 308.579669 
L 287.177395 306.335623 
L 304.887396 290.249734 
L 305.28843 290.254728 
L 303.622098 292.327088 
L 295.134002 302.033268 
L 294.069123 303.504175 
L 294.501437 303.47789 
L 296.14176 302.243594 
L 302.252101 297.351337 
L 302.971182 297.038285 
L 302.782162 297.633332 
L 299.347454 302.692153 
L 299.413723 303.031912 
L 300.00823 302.843433 
L 302.799549 301.270198 
L 303.334301 301.141474 
L 303.509446 301.372357 
L 303.389144 301.898687 
L 302.692411 303.813504 
L 302.762803 304.14914 
L 303.048608 304.269364 
L 304.857819 304.084264 
L 305.097884 304.250228 
L 305.247767 304.912401 
L 305.311441 305.660783 
L 305.641229 306.143051 
L 306.548702 306.453662 
L 307.068895 306.745524 
L 307.401426 307.22505 
L 307.832709 308.011851 
L 308.490912 308.571733 
L 309.402238 309.284518 
L 310.963135 310.971846 
L 311.992285 311.972836 
L 313.196728 313.204561 
L 313.196728 313.204561 
" clip-path="url(#p9a845dc9e3)" style="fill: none; stroke: #ffffff; stroke-width: 2; stroke-linecap: square"/>
   </g>
  </g>
 </g>
 <defs>
  <clipPath id="p9a845dc9e3">
   <rect x="0" y="-0" width="332.64" height="332.64"/>
  </clipPath>
 </defs>
</svg>
