<svg width="288" height="64" viewBox="0 0 288 64" fill="none" xmlns="http://www.w3.org/2000/svg">
<path d="M40.2199 22.2424C40.2199 25.188 42.6077 27.5758 45.5532 27.5758C48.4987 27.5758 50.8865 25.188 50.8865 22.2424C50.8865 19.2969 48.4987 16.9091 45.5532 16.9091C42.6077 16.9091 40.2199 19.2969 40.2199 22.2424ZM19 22.2424V23.2424L45.5532 23.2424V22.2424V21.2424L19 21.2424V22.2424Z" fill="white"/>
<path d="M114.381 8.97723C115.854 11.5281 119.116 12.4021 121.667 10.9294C124.218 9.45661 125.092 6.19479 123.619 3.6439C122.146 1.093 118.884 0.219 116.333 1.69176C113.782 3.16452 112.908 6.42633 114.381 8.97723ZM96.0043 19.5872L96.5043 20.4532L119.5 7.17659L119 6.31056L118.5 5.44454L95.5043 18.7211L96.0043 19.5872Z" fill="white"/>
<path d="M114.381 35.5079C112.908 38.0588 113.782 41.3206 116.333 42.7933C118.884 44.2661 122.146 43.3921 123.619 40.8412C125.092 38.2903 124.218 35.0285 121.667 33.5557C119.116 32.083 115.854 32.957 114.381 35.5079ZM96.0043 24.8979L95.5043 25.764L118.5 39.0406L119 38.1745L119.5 37.3085L96.5043 24.0319L96.0043 24.8979Z" fill="white"/>
<path d="M141.896 34.384C140.595 34.384 139.24 34.1387 137.832 33.648C136.424 33.1573 135.155 32.4107 134.024 31.408L137.16 27.632C137.907 28.2293 138.707 28.72 139.56 29.104C140.435 29.4667 141.256 29.648 142.024 29.648C142.856 29.648 143.453 29.52 143.816 29.264C144.2 29.008 144.392 28.6453 144.392 28.176C144.392 27.6853 144.136 27.312 143.624 27.056C143.133 26.8 142.451 26.5013 141.576 26.16L138.984 25.072C137.875 24.624 136.893 23.92 136.04 22.96C135.208 22 134.792 20.7733 134.792 19.28C134.792 18.0853 135.123 17.008 135.784 16.048C136.445 15.0667 137.352 14.288 138.504 13.712C139.677 13.1147 141.021 12.816 142.536 12.816C143.731 12.816 144.936 13.0507 146.152 13.52C147.389 13.968 148.488 14.6613 149.448 15.6L146.696 19.056C145.992 18.5653 145.309 18.192 144.648 17.936C144.008 17.68 143.304 17.552 142.536 17.552C141.875 17.552 141.341 17.6693 140.936 17.904C140.552 18.1387 140.36 18.4907 140.36 18.96C140.36 19.4507 140.637 19.8347 141.192 20.112C141.747 20.368 142.493 20.6773 143.432 21.04L145.96 22.032C147.261 22.544 148.264 23.2587 148.968 24.176C149.672 25.0933 150.024 26.2773 150.024 27.728C150.024 28.9013 149.704 30 149.064 31.024C148.445 32.0267 147.528 32.8373 146.312 33.456C145.096 34.0747 143.624 34.384 141.896 34.384ZM152.919 39.632V18H157.399L157.783 19.472H157.911C158.508 18.9173 159.18 18.4693 159.927 18.128C160.695 17.7867 161.473 17.616 162.263 17.616C163.521 17.616 164.609 17.9573 165.527 18.64C166.465 19.3013 167.191 20.24 167.703 21.456C168.215 22.672 168.471 24.1013 168.471 25.744C168.471 27.5787 168.151 29.1467 167.51 30.448C166.871 31.728 166.039 32.7093 165.015 33.392C164.012 34.0533 162.945 34.384 161.815 34.384C160.492 34.384 159.297 33.8507 158.231 32.784L158.423 35.216V39.632H152.919ZM160.47 29.904C161.111 29.904 161.665 29.6053 162.135 29.008C162.604 28.4107 162.839 27.344 162.839 25.808C162.839 24.4853 162.647 23.536 162.263 22.96C161.9 22.384 161.345 22.096 160.599 22.096C160.193 22.096 159.82 22.1813 159.479 22.352C159.137 22.5227 158.785 22.8213 158.423 23.248V29.136C158.743 29.4133 159.073 29.616 159.415 29.744C159.777 29.8507 160.129 29.904 160.47 29.904ZM176.409 34.384C175.172 34.384 174.19 34.1387 173.465 33.648C172.761 33.136 172.249 32.432 171.929 31.536C171.63 30.6187 171.481 29.5627 171.481 28.368V11.728H176.985V28.56C176.985 29.0933 177.081 29.4667 177.273 29.68C177.486 29.872 177.689 29.968 177.881 29.968C177.988 29.968 178.073 29.968 178.137 29.968C178.222 29.9467 178.329 29.9253 178.457 29.904L179.097 33.936C178.82 34.064 178.457 34.1707 178.009 34.256C177.561 34.3413 177.028 34.384 176.409 34.384ZM181.012 34V18H186.516V34H181.012ZM183.764 16.016C182.868 16.016 182.143 15.7707 181.588 15.28C181.034 14.768 180.756 14.096 180.756 13.264C180.756 12.432 181.034 11.7707 181.588 11.28C182.143 10.768 182.868 10.512 183.764 10.512C184.66 10.512 185.386 10.768 185.94 11.28C186.495 11.7707 186.772 12.432 186.772 13.264C186.772 14.096 186.495 14.768 185.94 15.28C185.386 15.7707 184.66 16.016 183.764 16.016ZM196.823 34.384C194.754 34.384 193.25 33.7867 192.311 32.592C191.394 31.376 190.935 29.7973 190.935 27.856V22.288H188.823V18.192L191.255 18L191.895 13.84H196.439V18H200.087V22.288H196.439V27.76C196.439 28.6347 196.631 29.2427 197.015 29.584C197.399 29.9253 197.847 30.096 198.359 30.096C198.615 30.096 198.86 30.0747 199.095 30.032C199.351 29.968 199.575 29.904 199.767 29.84L200.599 33.808C200.194 33.936 199.682 34.064 199.063 34.192C198.444 34.32 197.698 34.384 196.823 34.384ZM209.01 34.384C206.941 34.384 205.437 33.7867 204.499 32.592C203.581 31.376 203.123 29.7973 203.123 27.856V22.288H201.011V18.192L203.443 18L204.083 13.84H208.627V18H212.275V22.288H208.627V27.76C208.627 28.6347 208.819 29.2427 209.203 29.584C209.587 29.9253 210.035 30.096 210.547 30.096C210.803 30.096 211.048 30.0747 211.283 30.032C211.539 29.968 211.763 29.904 211.955 29.84L212.787 33.808C212.381 33.936 211.869 34.064 211.251 34.192C210.632 34.32 209.885 34.384 209.01 34.384ZM222.03 34.384C220.473 34.384 219.065 34.0533 217.806 33.392C216.569 32.7307 215.587 31.7813 214.862 30.544C214.137 29.2853 213.774 27.7707 213.774 26C213.774 24.272 214.137 22.7893 214.862 21.552C215.609 20.2933 216.569 19.3227 217.742 18.64C218.915 17.9573 220.153 17.616 221.454 17.616C223.033 17.616 224.334 17.968 225.358 18.672C226.403 19.3547 227.171 20.2827 227.662 21.456C228.174 22.6293 228.43 23.9307 228.43 25.36C228.43 25.8293 228.398 26.288 228.334 26.736C228.291 27.1627 228.249 27.472 228.206 27.664H219.086C219.342 28.624 219.801 29.296 220.462 29.68C221.123 30.0427 221.902 30.224 222.798 30.224C223.822 30.224 224.91 29.904 226.062 29.264L227.854 32.528C227.001 33.1253 226.041 33.584 224.974 33.904C223.907 34.224 222.926 34.384 222.03 34.384ZM219.022 24.08H223.758C223.758 23.4613 223.598 22.928 223.278 22.48C222.979 22.0107 222.414 21.776 221.582 21.776C220.985 21.776 220.451 21.9573 219.982 22.32C219.513 22.6827 219.193 23.2693 219.022 24.08ZM231.45 34V18H235.93L236.314 20.752H236.442C237.039 19.664 237.743 18.8747 238.554 18.384C239.386 17.872 240.196 17.616 240.986 17.616C241.476 17.616 241.871 17.648 242.17 17.712C242.49 17.7547 242.756 17.8293 242.97 17.936L242.074 22.672C241.796 22.608 241.519 22.5547 241.242 22.512C240.964 22.448 240.644 22.416 240.282 22.416C239.706 22.416 239.098 22.6187 238.458 23.024C237.839 23.408 237.338 24.1013 236.954 25.104V34H231.45ZM245.849 34V13.008H249.049L253.081 24.208C253.337 24.9333 253.582 25.6693 253.817 26.416C254.073 27.1413 254.329 27.8667 254.585 28.592H254.713C254.969 27.8667 255.203 27.1413 255.417 26.416C255.651 25.6693 255.897 24.9333 256.153 24.208L260.121 13.008H263.353V34H260.857V22.448C260.857 21.5093 260.899 20.4747 260.985 19.344C261.07 18.192 261.145 17.1573 261.209 16.24H261.081L259.417 21.008L255.449 31.888H253.689L249.721 21.008L248.057 16.24H247.929C247.993 17.1573 248.057 18.192 248.121 19.344C248.206 20.4747 248.249 21.5093 248.249 22.448V34H245.849ZM269.099 34V13.008H275.659C277.088 13.008 278.357 13.2 279.467 13.584C280.576 13.9467 281.44 14.5653 282.059 15.44C282.699 16.2933 283.019 17.4453 283.019 18.896C283.019 20.5173 282.592 21.8293 281.739 22.832C280.885 23.8133 279.733 24.4853 278.283 24.848L283.627 34H280.619L275.563 25.136H271.755V34H269.099ZM271.755 22.96H275.275C276.917 22.96 278.176 22.6293 279.051 21.968C279.925 21.2853 280.363 20.2613 280.363 18.896C280.363 17.5093 279.925 16.5387 279.051 15.984C278.176 15.4293 276.917 15.152 275.275 15.152H271.755V22.96Z" fill="white"/>
<path d="M93.3829 60.168C93.0656 60.168 92.7296 60.0933 92.3749 59.944C92.0202 59.7853 91.6842 59.5753 91.3669 59.314H91.3389L91.2689 60H90.7509V49.934H91.3669V52.846L91.3389 54.162C91.6842 53.8727 92.0529 53.6253 92.4449 53.42C92.8462 53.2147 93.2522 53.112 93.6629 53.112C94.5589 53.112 95.2309 53.4247 95.6789 54.05C96.1269 54.666 96.3509 55.4967 96.3509 56.542C96.3509 57.298 96.2109 57.9467 95.9309 58.488C95.6602 59.0293 95.3009 59.4447 94.8529 59.734C94.4049 60.0233 93.9149 60.168 93.3829 60.168ZM93.3549 59.622C93.8122 59.622 94.2136 59.4913 94.5589 59.23C94.9136 58.9687 95.1889 58.6093 95.3849 58.152C95.5902 57.6853 95.6929 57.1487 95.6929 56.542C95.6929 55.9913 95.6229 55.5013 95.4829 55.072C95.3429 54.6333 95.1142 54.288 94.7969 54.036C94.4889 53.784 94.0782 53.658 93.5649 53.658C93.2289 53.658 92.8789 53.756 92.5149 53.952C92.1509 54.1387 91.7682 54.4093 91.3669 54.764V58.754C91.7402 59.0713 92.0996 59.2953 92.4449 59.426C92.7902 59.5567 93.0936 59.622 93.3549 59.622ZM98.0728 63.066C97.8208 63.066 97.5921 63.0193 97.3868 62.926L97.5268 62.38C97.6014 62.408 97.6854 62.4313 97.7788 62.45C97.8814 62.478 97.9794 62.492 98.0728 62.492C98.4834 62.492 98.8288 62.324 99.1088 61.988C99.3981 61.652 99.6268 61.2273 99.7948 60.714L99.9768 60.126L97.2188 53.28H97.8908L99.5148 57.508C99.6174 57.788 99.7341 58.096 99.8648 58.432C99.9954 58.768 100.121 59.0853 100.243 59.384H100.299C100.401 59.0853 100.504 58.768 100.607 58.432C100.719 58.096 100.821 57.788 100.915 57.508L102.357 53.28H102.987L100.327 60.84C100.205 61.2133 100.042 61.568 99.8368 61.904C99.6408 62.2493 99.3981 62.5293 99.1088 62.744C98.8194 62.9587 98.4741 63.066 98.0728 63.066ZM108.583 54.568L107.995 56.29H111.271L110.683 54.568C110.497 54.0173 110.319 53.49 110.151 52.986C109.983 52.482 109.82 51.9453 109.661 51.376H109.605C109.447 51.9453 109.283 52.482 109.115 52.986C108.947 53.49 108.77 54.0173 108.583 54.568ZM106.063 60L109.311 50.774H109.955L113.203 60H112.531L111.453 56.836H107.799L106.707 60H106.063ZM114.608 60V53.28H115.14L115.196 54.316H115.238C115.584 53.9707 115.938 53.686 116.302 53.462C116.676 53.2287 117.091 53.112 117.548 53.112C118.239 53.112 118.748 53.3267 119.074 53.756C119.41 54.176 119.578 54.82 119.578 55.688V60H118.962V55.772C118.962 55.0533 118.841 54.526 118.598 54.19C118.365 53.8447 117.973 53.672 117.422 53.672C117.021 53.672 116.657 53.7793 116.33 53.994C116.004 54.1993 115.635 54.512 115.224 54.932V60H114.608ZM124.285 60.168C123.436 60.168 122.759 59.8647 122.255 59.258C121.751 58.6513 121.499 57.7833 121.499 56.654C121.499 55.926 121.635 55.3007 121.905 54.778C122.185 54.246 122.549 53.8353 122.997 53.546C123.455 53.2567 123.949 53.112 124.481 53.112C124.892 53.112 125.247 53.1867 125.545 53.336C125.853 53.476 126.175 53.6767 126.511 53.938L126.483 52.706V49.934H127.099V60H126.567L126.511 59.132H126.469C126.199 59.4027 125.877 59.6453 125.503 59.86C125.139 60.0653 124.733 60.168 124.285 60.168ZM124.369 59.622C124.743 59.622 125.097 59.5287 125.433 59.342C125.779 59.146 126.129 58.8707 126.483 58.516V54.526C126.129 54.2087 125.793 53.9847 125.475 53.854C125.167 53.7233 124.85 53.658 124.523 53.658C124.075 53.658 123.674 53.7933 123.319 54.064C122.965 54.3253 122.68 54.68 122.465 55.128C122.26 55.576 122.157 56.0847 122.157 56.654C122.157 57.5407 122.349 58.2593 122.731 58.81C123.114 59.3513 123.66 59.622 124.369 59.622ZM129.675 60V53.28H130.207L130.263 54.526H130.305C130.529 54.1153 130.799 53.7793 131.117 53.518C131.443 53.2473 131.807 53.112 132.209 53.112C132.339 53.112 132.456 53.1213 132.559 53.14C132.661 53.1587 132.769 53.196 132.881 53.252L132.741 53.812C132.629 53.7653 132.531 53.7373 132.447 53.728C132.363 53.7093 132.255 53.7 132.125 53.7C131.826 53.7 131.509 53.8307 131.173 54.092C130.846 54.344 130.552 54.7873 130.291 55.422V60H129.675ZM136.529 60.168C135.96 60.168 135.437 60.028 134.961 59.748C134.495 59.468 134.121 59.0667 133.841 58.544C133.561 58.012 133.421 57.382 133.421 56.654C133.421 55.9167 133.561 55.2867 133.841 54.764C134.121 54.232 134.485 53.826 134.933 53.546C135.381 53.2567 135.853 53.112 136.347 53.112C137.15 53.112 137.78 53.3827 138.237 53.924C138.695 54.4653 138.923 55.2307 138.923 56.22C138.923 56.304 138.919 56.388 138.909 56.472C138.909 56.556 138.9 56.64 138.881 56.724H134.051C134.061 57.284 134.168 57.7833 134.373 58.222C134.588 58.6607 134.882 59.006 135.255 59.258C135.638 59.51 136.081 59.636 136.585 59.636C136.949 59.636 137.276 59.58 137.565 59.468C137.864 59.356 138.139 59.2113 138.391 59.034L138.643 59.51C138.382 59.6687 138.088 59.818 137.761 59.958C137.435 60.098 137.024 60.168 136.529 60.168ZM134.051 56.22H138.335C138.335 55.3613 138.158 54.7173 137.803 54.288C137.449 53.8587 136.968 53.644 136.361 53.644C135.979 53.644 135.619 53.7467 135.283 53.952C134.957 54.1573 134.681 54.4513 134.457 54.834C134.233 55.2167 134.098 55.6787 134.051 56.22ZM135.941 51.964L135.605 51.642L137.481 49.444L137.957 49.85L135.941 51.964ZM142.373 60.168C141.878 60.168 141.416 60.0793 140.987 59.902C140.567 59.7153 140.208 59.496 139.909 59.244L140.273 58.782C140.562 59.0153 140.87 59.216 141.197 59.384C141.524 59.552 141.93 59.636 142.415 59.636C142.938 59.636 143.334 59.5053 143.605 59.244C143.876 58.9733 144.011 58.6607 144.011 58.306C144.011 58.026 143.927 57.7927 143.759 57.606C143.591 57.4193 143.381 57.2653 143.129 57.144C142.886 57.0227 142.634 56.9153 142.373 56.822C142.037 56.7007 141.706 56.5653 141.379 56.416C141.062 56.2667 140.8 56.0753 140.595 55.842C140.39 55.5993 140.287 55.2867 140.287 54.904C140.287 54.4093 140.469 53.9893 140.833 53.644C141.206 53.2893 141.743 53.112 142.443 53.112C142.807 53.112 143.157 53.1773 143.493 53.308C143.838 53.4387 144.132 53.6067 144.375 53.812L144.039 54.246C143.806 54.078 143.563 53.938 143.311 53.826C143.059 53.7047 142.765 53.644 142.429 53.644C141.906 53.644 141.519 53.77 141.267 54.022C141.024 54.274 140.903 54.554 140.903 54.862C140.903 55.114 140.973 55.324 141.113 55.492C141.262 55.66 141.454 55.8 141.687 55.912C141.93 56.0147 142.182 56.1173 142.443 56.22C142.798 56.3507 143.143 56.4907 143.479 56.64C143.815 56.7893 144.09 56.99 144.305 57.242C144.529 57.494 144.641 57.8393 144.641 58.278C144.641 58.614 144.552 58.9267 144.375 59.216C144.198 59.496 143.941 59.7247 143.605 59.902C143.269 60.0793 142.858 60.168 142.373 60.168ZM149.296 60V50.774H149.94V54.82H154.882V50.774H155.526V60H154.882V55.38H149.94V60H149.296ZM160.715 60.168C160.146 60.168 159.623 60.028 159.147 59.748C158.68 59.468 158.307 59.0667 158.027 58.544C157.747 58.012 157.607 57.382 157.607 56.654C157.607 55.9167 157.747 55.2867 158.027 54.764C158.307 54.232 158.671 53.826 159.119 53.546C159.567 53.2567 160.038 53.112 160.533 53.112C161.336 53.112 161.966 53.3827 162.423 53.924C162.88 54.4653 163.109 55.2307 163.109 56.22C163.109 56.304 163.104 56.388 163.095 56.472C163.095 56.556 163.086 56.64 163.067 56.724H158.237C158.246 57.284 158.354 57.7833 158.559 58.222C158.774 58.6607 159.068 59.006 159.441 59.258C159.824 59.51 160.267 59.636 160.771 59.636C161.135 59.636 161.462 59.58 161.751 59.468C162.05 59.356 162.325 59.2113 162.577 59.034L162.829 59.51C162.568 59.6687 162.274 59.818 161.947 59.958C161.62 60.098 161.21 60.168 160.715 60.168ZM158.237 56.22H162.521C162.521 55.3613 162.344 54.7173 161.989 54.288C161.634 53.8587 161.154 53.644 160.547 53.644C160.164 53.644 159.805 53.7467 159.469 53.952C159.142 54.1573 158.867 54.4513 158.643 54.834C158.419 55.2167 158.284 55.6787 158.237 56.22ZM164.934 60V53.28H165.466L165.522 54.526H165.564C165.788 54.1153 166.059 53.7793 166.376 53.518C166.703 53.2473 167.067 53.112 167.468 53.112C167.599 53.112 167.716 53.1213 167.818 53.14C167.921 53.1587 168.028 53.196 168.14 53.252L168 53.812C167.888 53.7653 167.79 53.7373 167.706 53.728C167.622 53.7093 167.515 53.7 167.384 53.7C167.086 53.7 166.768 53.8307 166.432 54.092C166.106 54.344 165.812 54.7873 165.55 55.422V60H164.934ZM171.789 60.168C171.22 60.168 170.697 60.028 170.221 59.748C169.754 59.468 169.381 59.0667 169.101 58.544C168.821 58.012 168.681 57.382 168.681 56.654C168.681 55.9167 168.821 55.2867 169.101 54.764C169.381 54.232 169.745 53.826 170.193 53.546C170.641 53.2567 171.112 53.112 171.607 53.112C172.41 53.112 173.04 53.3827 173.497 53.924C173.954 54.4653 174.183 55.2307 174.183 56.22C174.183 56.304 174.178 56.388 174.169 56.472C174.169 56.556 174.16 56.64 174.141 56.724H169.311C169.32 57.284 169.428 57.7833 169.633 58.222C169.848 58.6607 170.142 59.006 170.515 59.258C170.898 59.51 171.341 59.636 171.845 59.636C172.209 59.636 172.536 59.58 172.825 59.468C173.124 59.356 173.399 59.2113 173.651 59.034L173.903 59.51C173.642 59.6687 173.348 59.818 173.021 59.958C172.694 60.098 172.284 60.168 171.789 60.168ZM169.311 56.22H173.595C173.595 55.3613 173.418 54.7173 173.063 54.288C172.708 53.8587 172.228 53.644 171.621 53.644C171.238 53.644 170.879 53.7467 170.543 53.952C170.216 54.1573 169.941 54.4513 169.717 54.834C169.493 55.2167 169.358 55.6787 169.311 56.22ZM176.009 60V53.28H176.541L176.597 54.316H176.639C176.984 53.9707 177.339 53.686 177.703 53.462C178.076 53.2287 178.491 53.112 178.949 53.112C179.639 53.112 180.148 53.3267 180.475 53.756C180.811 54.176 180.979 54.82 180.979 55.688V60H180.363V55.772C180.363 55.0533 180.241 54.526 179.999 54.19C179.765 53.8447 179.373 53.672 178.823 53.672C178.421 53.672 178.057 53.7793 177.731 53.994C177.404 54.1993 177.035 54.512 176.625 54.932V60H176.009ZM185.952 60.168C185.373 60.168 184.851 60.0327 184.384 59.762C183.927 59.482 183.563 59.0807 183.292 58.558C183.031 58.026 182.9 57.3913 182.9 56.654C182.9 55.898 183.04 55.2587 183.32 54.736C183.609 54.204 183.987 53.8027 184.454 53.532C184.921 53.252 185.425 53.112 185.966 53.112C186.433 53.112 186.82 53.196 187.128 53.364C187.436 53.532 187.707 53.7233 187.94 53.938L187.576 54.372C187.361 54.1667 187.123 53.9987 186.862 53.868C186.601 53.728 186.307 53.658 185.98 53.658C185.523 53.658 185.107 53.784 184.734 54.036C184.37 54.288 184.081 54.638 183.866 55.086C183.651 55.534 183.544 56.0567 183.544 56.654C183.544 57.242 183.642 57.76 183.838 58.208C184.043 58.6467 184.328 58.992 184.692 59.244C185.065 59.496 185.495 59.622 185.98 59.622C186.335 59.622 186.661 59.5473 186.96 59.398C187.268 59.2393 187.539 59.0573 187.772 58.852L188.094 59.286C187.805 59.538 187.483 59.748 187.128 59.916C186.773 60.084 186.381 60.168 185.952 60.168ZM189.749 60V53.28H190.365V60H189.749ZM190.071 51.656C189.922 51.656 189.796 51.6047 189.693 51.502C189.59 51.3993 189.539 51.2593 189.539 51.082C189.539 50.9233 189.59 50.7927 189.693 50.69C189.796 50.5873 189.922 50.536 190.071 50.536C190.23 50.536 190.356 50.5873 190.449 50.69C190.552 50.7927 190.603 50.9233 190.603 51.082C190.603 51.2593 190.552 51.3993 190.449 51.502C190.356 51.6047 190.23 51.656 190.071 51.656ZM194.418 60.168C193.886 60.168 193.429 60.0187 193.046 59.72C192.663 59.4213 192.472 58.9547 192.472 58.32C192.472 57.5733 192.822 57.0087 193.522 56.626C194.222 56.234 195.319 55.954 196.812 55.786C196.821 55.4407 196.784 55.1093 196.7 54.792C196.616 54.4653 196.457 54.1947 196.224 53.98C196 53.7653 195.664 53.658 195.216 53.658C194.768 53.658 194.357 53.7467 193.984 53.924C193.611 54.1013 193.307 54.274 193.074 54.442L192.794 53.98C192.953 53.868 193.158 53.7467 193.41 53.616C193.662 53.476 193.947 53.3593 194.264 53.266C194.591 53.1633 194.936 53.112 195.3 53.112C195.832 53.112 196.252 53.2287 196.56 53.462C196.868 53.6953 197.087 54.008 197.218 54.4C197.358 54.7827 197.428 55.2167 197.428 55.702V60H196.896L196.84 59.132H196.798C196.453 59.4027 196.079 59.6453 195.678 59.86C195.277 60.0653 194.857 60.168 194.418 60.168ZM194.53 59.636C194.913 59.636 195.281 59.5427 195.636 59.356C196 59.1693 196.392 58.8987 196.812 58.544V56.262C195.888 56.374 195.155 56.5187 194.614 56.696C194.073 56.8733 193.685 57.0973 193.452 57.368C193.219 57.6293 193.102 57.9373 193.102 58.292C193.102 58.7773 193.242 59.1227 193.522 59.328C193.811 59.5333 194.147 59.636 194.53 59.636Z" fill="white"/>
<path d="M65.9333 20.7333C66.1066 20.7333 66.2788 20.7389 66.45 20.75C66.2313 21.8866 66.3131 23.0605 66.6873 24.1558C67.0615 25.2511 67.715 26.2297 68.5833 26.995C68.4622 27.6683 68.4011 28.3589 68.4 29.0667C68.396 31.7129 69.2956 34.2813 70.95 36.3467C69.4133 36.9501 67.7457 37.1419 66.1121 36.9031C64.4785 36.6643 62.9356 36.0032 61.6359 34.9852C60.3362 33.9672 59.3248 32.6275 58.7017 31.0987C58.0787 29.5698 57.8655 27.9048 58.0833 26.2683C58.6608 24.6485 59.7252 23.247 61.1306 22.2561C62.536 21.2651 64.2136 20.7332 65.9333 20.7333ZM87.3466 24.05C87.9501 25.5867 88.1419 27.2543 87.9031 28.8879C87.6643 30.5214 87.0032 32.0644 85.9852 33.364C84.9671 34.6637 83.6274 35.6751 82.0986 36.2982C80.5698 36.9213 78.9048 37.1345 77.2683 36.9167C75.5651 36.3097 74.1055 35.1653 73.1097 33.656C72.114 32.1468 71.6361 30.3546 71.7483 28.55C72.8849 28.7686 74.0588 28.6868 75.1541 28.3127C76.2494 27.9385 77.228 27.285 77.9933 26.4167C78.6677 26.5378 79.3588 26.5989 80.0666 26.6C82.7129 26.604 85.2812 25.7044 87.3466 24.05ZM73 18.6667C73.884 18.6667 74.7319 19.0179 75.357 19.643C75.9821 20.2681 76.3333 21.1159 76.3333 22C76.3333 22.8841 75.9821 23.7319 75.357 24.357C74.7319 24.9821 73.884 25.3333 73 25.3333C72.1159 25.3333 71.2681 24.9821 70.6429 24.357C70.0178 23.7319 69.6666 22.8841 69.6666 22C69.6666 21.1159 70.0178 20.2681 70.6429 19.643C71.2681 19.0179 72.1159 18.6667 73 18.6667ZM78.5166 7C79.8677 6.99985 81.2031 7.28837 82.4336 7.84624C83.6641 8.40412 84.7611 9.21847 85.6513 10.2348C86.5415 11.251 87.2043 12.4458 87.5953 13.739C87.9862 15.0323 88.0964 16.3941 87.9183 17.7333C87.3107 19.4362 86.1658 20.8953 84.6562 21.8904C83.1467 22.8856 81.3545 23.3627 79.55 23.25C79.7686 22.1134 79.6868 20.9395 79.3126 19.8442C78.9385 18.7489 78.2849 17.7703 77.4166 17.005C77.5377 16.3317 77.5988 15.6411 77.6 14.9333C77.604 12.2871 76.7043 9.71872 75.05 7.65333C76.1546 7.22104 77.3304 6.99944 78.5166 7ZM67.4833 7C67.9066 7 68.3233 7.02722 68.7333 7.08167C70.4362 7.68926 71.8952 8.8342 72.8904 10.3437C73.8855 11.8533 74.3627 13.6455 74.25 15.45C73.1134 15.2314 71.9394 15.3132 70.8442 15.6873C69.7489 16.0615 68.7702 16.715 68.005 17.5833C67.3212 17.4607 66.6279 17.3993 65.9333 17.4C63.287 17.396 60.7187 18.2956 58.6533 19.95C58.0885 18.512 57.8836 16.9577 58.0565 15.4224C58.2293 13.8871 58.7746 12.4173 59.645 11.1408C60.5154 9.86435 61.6845 8.81985 63.0505 8.09817C64.4166 7.3765 65.9383 6.99951 67.4833 7Z" fill="#7588FF"/>
</svg>
