<svg width="269" height="63" viewBox="0 0 269 63" fill="none" xmlns="http://www.w3.org/2000/svg">
<path d="M21.2199 22.2424C21.2199 25.188 23.6077 27.5758 26.5532 27.5758C29.4987 27.5758 31.8865 25.188 31.8865 22.2424C31.8865 19.2969 29.4987 16.9091 26.5532 16.9091C23.6077 16.9091 21.2199 19.2969 21.2199 22.2424ZM0 22.2424L0 23.2424L26.5532 23.2424V22.2424V21.2424L0 21.2424L0 22.2424Z" fill="white"/>
<path d="M95.3812 8.97723C96.854 11.5281 100.116 12.4021 102.667 10.9294C105.218 9.45661 106.092 6.19479 104.619 3.6439C103.146 1.093 99.8842 0.219 97.3333 1.69176C94.7825 3.16452 93.9085 6.42633 95.3812 8.97723ZM77.0043 19.5872L77.5043 20.4532L100.5 7.17659L100 6.31056L99.5 5.44454L76.5043 18.7211L77.0043 19.5872Z" fill="white"/>
<path d="M95.3812 35.5079C93.9085 38.0588 94.7825 41.3206 97.3333 42.7933C99.8842 44.2661 103.146 43.3921 104.619 40.8412C106.092 38.2903 105.218 35.0285 102.667 33.5557C100.116 32.083 96.854 32.957 95.3812 35.5079ZM77.0043 24.8979L76.5043 25.764L99.5 39.0406L100 38.1745L100.5 37.3085L77.5043 24.0319L77.0043 24.8979Z" fill="white"/>
<path d="M122.896 34.384C121.595 34.384 120.24 34.1387 118.832 33.648C117.424 33.1573 116.155 32.4107 115.024 31.408L118.16 27.632C118.907 28.2293 119.707 28.72 120.56 29.104C121.435 29.4667 122.256 29.648 123.024 29.648C123.856 29.648 124.453 29.52 124.816 29.264C125.2 29.008 125.392 28.6453 125.392 28.176C125.392 27.6853 125.136 27.312 124.624 27.056C124.133 26.8 123.451 26.5013 122.576 26.16L119.984 25.072C118.875 24.624 117.893 23.92 117.04 22.96C116.208 22 115.792 20.7733 115.792 19.28C115.792 18.0853 116.123 17.008 116.784 16.048C117.445 15.0667 118.352 14.288 119.504 13.712C120.677 13.1147 122.021 12.816 123.536 12.816C124.731 12.816 125.936 13.0507 127.152 13.52C128.389 13.968 129.488 14.6613 130.448 15.6L127.696 19.056C126.992 18.5653 126.309 18.192 125.648 17.936C125.008 17.68 124.304 17.552 123.536 17.552C122.875 17.552 122.341 17.6693 121.936 17.904C121.552 18.1387 121.36 18.4907 121.36 18.96C121.36 19.4507 121.637 19.8347 122.192 20.112C122.747 20.368 123.493 20.6773 124.432 21.04L126.96 22.032C128.261 22.544 129.264 23.2587 129.968 24.176C130.672 25.0933 131.024 26.2773 131.024 27.728C131.024 28.9013 130.704 30 130.064 31.024C129.445 32.0267 128.528 32.8373 127.312 33.456C126.096 34.0747 124.624 34.384 122.896 34.384ZM133.919 39.632V18H138.399L138.783 19.472H138.911C139.508 18.9173 140.18 18.4693 140.927 18.128C141.695 17.7867 142.473 17.616 143.263 17.616C144.521 17.616 145.609 17.9573 146.527 18.64C147.465 19.3013 148.191 20.24 148.703 21.456C149.215 22.672 149.471 24.1013 149.471 25.744C149.471 27.5787 149.151 29.1467 148.51 30.448C147.871 31.728 147.039 32.7093 146.015 33.392C145.012 34.0533 143.945 34.384 142.815 34.384C141.492 34.384 140.297 33.8507 139.231 32.784L139.423 35.216V39.632H133.919ZM141.47 29.904C142.111 29.904 142.665 29.6053 143.135 29.008C143.604 28.4107 143.839 27.344 143.839 25.808C143.839 24.4853 143.647 23.536 143.263 22.96C142.9 22.384 142.345 22.096 141.599 22.096C141.193 22.096 140.82 22.1813 140.479 22.352C140.137 22.5227 139.785 22.8213 139.423 23.248V29.136C139.743 29.4133 140.073 29.616 140.415 29.744C140.777 29.8507 141.129 29.904 141.47 29.904ZM157.409 34.384C156.172 34.384 155.19 34.1387 154.465 33.648C153.761 33.136 153.249 32.432 152.929 31.536C152.63 30.6187 152.481 29.5627 152.481 28.368V11.728H157.985V28.56C157.985 29.0933 158.081 29.4667 158.273 29.68C158.486 29.872 158.689 29.968 158.881 29.968C158.988 29.968 159.073 29.968 159.137 29.968C159.222 29.9467 159.329 29.9253 159.457 29.904L160.097 33.936C159.82 34.064 159.457 34.1707 159.009 34.256C158.561 34.3413 158.028 34.384 157.409 34.384ZM162.012 34V18H167.516V34H162.012ZM164.764 16.016C163.868 16.016 163.143 15.7707 162.588 15.28C162.034 14.768 161.756 14.096 161.756 13.264C161.756 12.432 162.034 11.7707 162.588 11.28C163.143 10.768 163.868 10.512 164.764 10.512C165.66 10.512 166.386 10.768 166.94 11.28C167.495 11.7707 167.772 12.432 167.772 13.264C167.772 14.096 167.495 14.768 166.94 15.28C166.386 15.7707 165.66 16.016 164.764 16.016ZM177.823 34.384C175.754 34.384 174.25 33.7867 173.311 32.592C172.394 31.376 171.935 29.7973 171.935 27.856V22.288H169.823V18.192L172.255 18L172.895 13.84H177.439V18H181.087V22.288H177.439V27.76C177.439 28.6347 177.631 29.2427 178.015 29.584C178.399 29.9253 178.847 30.096 179.359 30.096C179.615 30.096 179.86 30.0747 180.095 30.032C180.351 29.968 180.575 29.904 180.767 29.84L181.599 33.808C181.194 33.936 180.682 34.064 180.063 34.192C179.444 34.32 178.698 34.384 177.823 34.384ZM190.01 34.384C187.941 34.384 186.437 33.7867 185.499 32.592C184.581 31.376 184.123 29.7973 184.123 27.856V22.288H182.011V18.192L184.443 18L185.083 13.84H189.627V18H193.275V22.288H189.627V27.76C189.627 28.6347 189.819 29.2427 190.203 29.584C190.587 29.9253 191.035 30.096 191.547 30.096C191.803 30.096 192.048 30.0747 192.283 30.032C192.539 29.968 192.763 29.904 192.955 29.84L193.787 33.808C193.381 33.936 192.869 34.064 192.251 34.192C191.632 34.32 190.885 34.384 190.01 34.384ZM203.03 34.384C201.473 34.384 200.065 34.0533 198.806 33.392C197.569 32.7307 196.587 31.7813 195.862 30.544C195.137 29.2853 194.774 27.7707 194.774 26C194.774 24.272 195.137 22.7893 195.862 21.552C196.609 20.2933 197.569 19.3227 198.742 18.64C199.915 17.9573 201.153 17.616 202.454 17.616C204.033 17.616 205.334 17.968 206.358 18.672C207.403 19.3547 208.171 20.2827 208.662 21.456C209.174 22.6293 209.43 23.9307 209.43 25.36C209.43 25.8293 209.398 26.288 209.334 26.736C209.291 27.1627 209.249 27.472 209.206 27.664H200.086C200.342 28.624 200.801 29.296 201.462 29.68C202.123 30.0427 202.902 30.224 203.798 30.224C204.822 30.224 205.91 29.904 207.062 29.264L208.854 32.528C208.001 33.1253 207.041 33.584 205.974 33.904C204.907 34.224 203.926 34.384 203.03 34.384ZM200.022 24.08H204.758C204.758 23.4613 204.598 22.928 204.278 22.48C203.979 22.0107 203.414 21.776 202.582 21.776C201.985 21.776 201.451 21.9573 200.982 22.32C200.513 22.6827 200.193 23.2693 200.022 24.08ZM212.45 34V18H216.93L217.314 20.752H217.442C218.039 19.664 218.743 18.8747 219.554 18.384C220.386 17.872 221.196 17.616 221.986 17.616C222.476 17.616 222.871 17.648 223.17 17.712C223.49 17.7547 223.756 17.8293 223.97 17.936L223.074 22.672C222.796 22.608 222.519 22.5547 222.242 22.512C221.964 22.448 221.644 22.416 221.282 22.416C220.706 22.416 220.098 22.6187 219.458 23.024C218.839 23.408 218.338 24.1013 217.954 25.104V34H212.45ZM226.849 34V13.008H230.049L234.081 24.208C234.337 24.9333 234.582 25.6693 234.817 26.416C235.073 27.1413 235.329 27.8667 235.585 28.592H235.713C235.969 27.8667 236.203 27.1413 236.417 26.416C236.651 25.6693 236.897 24.9333 237.153 24.208L241.121 13.008H244.353V34H241.857V22.448C241.857 21.5093 241.899 20.4747 241.985 19.344C242.07 18.192 242.145 17.1573 242.209 16.24H242.081L240.417 21.008L236.449 31.888H234.689L230.721 21.008L229.057 16.24H228.929C228.993 17.1573 229.057 18.192 229.121 19.344C229.206 20.4747 229.249 21.5093 229.249 22.448V34H226.849ZM250.099 34V13.008H256.659C258.088 13.008 259.357 13.2 260.467 13.584C261.576 13.9467 262.44 14.5653 263.059 15.44C263.699 16.2933 264.019 17.4453 264.019 18.896C264.019 20.5173 263.592 21.8293 262.739 22.832C261.885 23.8133 260.733 24.4853 259.283 24.848L264.627 34H261.619L256.563 25.136H252.755V34H250.099ZM252.755 22.96H256.275C257.917 22.96 259.176 22.6293 260.051 21.968C260.925 21.2853 261.363 20.2613 261.363 18.896C261.363 17.5093 260.925 16.5387 260.051 15.984C259.176 15.4293 257.917 15.152 256.275 15.152H252.755V22.96Z" fill="white"/>
<path d="M16.4097 61.108C15.9237 61.108 15.4917 60.982 15.1137 60.73C14.7417 60.478 14.4507 60.121 14.2407 59.659C14.0307 59.197 13.9257 58.651 13.9257 58.021C13.9257 57.391 14.0307 56.848 14.2407 56.392C14.4567 55.936 14.7537 55.585 15.1317 55.339C15.5097 55.087 15.9507 54.961 16.4547 54.961C16.8027 54.961 17.1087 55.033 17.3727 55.177C17.6367 55.321 17.8467 55.486 18.0027 55.672L17.7597 55.951C17.5977 55.765 17.4087 55.618 17.1927 55.51C16.9767 55.396 16.7337 55.339 16.4637 55.339C16.0317 55.339 15.6567 55.45 15.3387 55.672C15.0267 55.888 14.7837 56.197 14.6097 56.599C14.4417 56.995 14.3577 57.469 14.3577 58.021C14.3577 58.567 14.4417 59.044 14.6097 59.452C14.7777 59.86 15.0147 60.175 15.3207 60.397C15.6327 60.619 16.0017 60.73 16.4277 60.73C16.7337 60.73 17.0067 60.67 17.2467 60.55C17.4867 60.424 17.7147 60.241 17.9307 60.001L18.1737 60.262C17.9457 60.52 17.6907 60.727 17.4087 60.883C17.1267 61.033 16.7937 61.108 16.4097 61.108ZM19.3387 61V54.529H19.7347V57.355C19.9627 57.127 20.1937 56.941 20.4277 56.797C20.6677 56.647 20.9347 56.572 21.2287 56.572C21.6727 56.572 21.9997 56.71 22.2097 56.986C22.4257 57.256 22.5337 57.67 22.5337 58.228V61H22.1377V58.282C22.1377 57.82 22.0597 57.481 21.9037 57.265C21.7537 57.043 21.5017 56.932 21.1477 56.932C20.8897 56.932 20.6557 57.001 20.4457 57.139C20.2357 57.271 19.9987 57.472 19.7347 57.742V61H19.3387ZM25.3356 61.108C24.8916 61.108 24.5616 60.973 24.3456 60.703C24.1356 60.427 24.0306 60.01 24.0306 59.452V56.68H24.4266V59.398C24.4266 59.854 24.5016 60.193 24.6516 60.415C24.8076 60.637 25.0596 60.748 25.4076 60.748C25.6656 60.748 25.8996 60.679 26.1096 60.541C26.3196 60.397 26.5506 60.172 26.8026 59.866V56.68H27.1986V61H26.8656L26.8206 60.28H26.8026C26.5926 60.526 26.3706 60.727 26.1366 60.883C25.9026 61.033 25.6356 61.108 25.3356 61.108ZM28.8573 61V56.68H29.1993L29.2353 57.346H29.2623C29.4843 57.124 29.7123 56.941 29.9463 56.797C30.1863 56.647 30.4533 56.572 30.7473 56.572C31.1913 56.572 31.5183 56.71 31.7283 56.986C31.9443 57.256 32.0523 57.67 32.0523 58.228V61H31.6563V58.282C31.6563 57.82 31.5783 57.481 31.4223 57.265C31.2723 57.043 31.0203 56.932 30.6663 56.932C30.4083 56.932 30.1743 57.001 29.9643 57.139C29.7543 57.271 29.5173 57.472 29.2533 57.742V61H28.8573ZM33.6473 61V54.529H34.0433V59.299H34.0613L36.1943 56.68H36.6533L35.2493 58.39L36.8873 61H36.4463L35.0153 58.687L34.0433 59.821V61H33.6473ZM39.4529 62.971C39.2909 62.971 39.1439 62.941 39.0119 62.881L39.1019 62.53C39.1499 62.548 39.2039 62.563 39.2639 62.575C39.3299 62.593 39.3929 62.602 39.4529 62.602C39.7169 62.602 39.9389 62.494 40.1189 62.278C40.3049 62.062 40.4519 61.789 40.5599 61.459L40.6769 61.081L38.9039 56.68H39.3359L40.3799 59.398C40.4459 59.578 40.5209 59.776 40.6049 59.992C40.6889 60.208 40.7699 60.412 40.8479 60.604H40.8839C40.9499 60.412 41.0159 60.208 41.0819 59.992C41.1539 59.776 41.2199 59.578 41.2799 59.398L42.2069 56.68H42.6119L40.9019 61.54C40.8239 61.78 40.7189 62.008 40.5869 62.224C40.4609 62.446 40.3049 62.626 40.1189 62.764C39.9329 62.902 39.7109 62.971 39.4529 62.971ZM45.1188 61.108C44.7768 61.108 44.4588 61.021 44.1648 60.847C43.8708 60.667 43.6338 60.409 43.4538 60.073C43.2738 59.731 43.1838 59.323 43.1838 58.849C43.1838 58.363 43.2738 57.952 43.4538 57.616C43.6338 57.274 43.8708 57.016 44.1648 56.842C44.4588 56.662 44.7768 56.572 45.1188 56.572C45.4668 56.572 45.7878 56.662 46.0818 56.842C46.3758 57.016 46.6128 57.274 46.7928 57.616C46.9728 57.952 47.0628 58.363 47.0628 58.849C47.0628 59.323 46.9728 59.731 46.7928 60.073C46.6128 60.409 46.3758 60.667 46.0818 60.847C45.7878 61.021 45.4668 61.108 45.1188 61.108ZM45.1188 60.757C45.4128 60.757 45.6738 60.676 45.9018 60.514C46.1298 60.352 46.3098 60.13 46.4418 59.848C46.5798 59.56 46.6488 59.227 46.6488 58.849C46.6488 58.465 46.5798 58.129 46.4418 57.841C46.3098 57.553 46.1298 57.328 45.9018 57.166C45.6738 57.004 45.4128 56.923 45.1188 56.923C44.8308 56.923 44.5698 57.004 44.3358 57.166C44.1078 57.328 43.9278 57.553 43.7958 57.841C43.6638 58.129 43.5978 58.465 43.5978 58.849C43.5978 59.227 43.6638 59.56 43.7958 59.848C43.9278 60.13 44.1078 60.352 44.3358 60.514C44.5698 60.676 44.8308 60.757 45.1188 60.757ZM49.6022 61.108C49.1582 61.108 48.8282 60.973 48.6122 60.703C48.4022 60.427 48.2972 60.01 48.2972 59.452V56.68H48.6932V59.398C48.6932 59.854 48.7682 60.193 48.9182 60.415C49.0742 60.637 49.3262 60.748 49.6742 60.748C49.9322 60.748 50.1662 60.679 50.3762 60.541C50.5862 60.397 50.8172 60.172 51.0692 59.866V56.68H51.4652V61H51.1322L51.0872 60.28H51.0692C50.8592 60.526 50.6372 60.727 50.4032 60.883C50.1692 61.033 49.9022 61.108 49.6022 61.108ZM53.1239 61V56.68H53.4659L53.5019 57.481H53.5289C53.6729 57.217 53.8469 57.001 54.0509 56.833C54.2609 56.659 54.4949 56.572 54.7529 56.572C54.8369 56.572 54.9119 56.578 54.9779 56.59C55.0439 56.602 55.1129 56.626 55.1849 56.662L55.0949 57.022C55.0229 56.992 54.9599 56.974 54.9059 56.968C54.8519 56.956 54.7829 56.95 54.6989 56.95C54.5069 56.95 54.3029 57.034 54.0869 57.202C53.8769 57.364 53.6879 57.649 53.5199 58.057V61H53.1239ZM59.2131 61.108C58.6671 61.108 58.2321 60.913 57.9081 60.523C57.5841 60.133 57.4221 59.575 57.4221 58.849C57.4221 58.381 57.5091 57.979 57.6831 57.643C57.8631 57.301 58.0971 57.037 58.3851 56.851C58.6791 56.665 58.9971 56.572 59.3391 56.572C59.6031 56.572 59.8311 56.62 60.0231 56.716C60.2211 56.806 60.4281 56.935 60.6441 57.103L60.6261 56.311V54.529H61.0221V61H60.6801L60.6441 60.442H60.6171C60.4431 60.616 60.2361 60.772 59.9961 60.91C59.7621 61.042 59.5011 61.108 59.2131 61.108ZM59.2671 60.757C59.5071 60.757 59.7351 60.697 59.9511 60.577C60.1731 60.451 60.3981 60.274 60.6261 60.046V57.481C60.3981 57.277 60.1821 57.133 59.9781 57.049C59.7801 56.965 59.5761 56.923 59.3661 56.923C59.0781 56.923 58.8201 57.01 58.5921 57.184C58.3641 57.352 58.1811 57.58 58.0431 57.868C57.9111 58.156 57.8451 58.483 57.8451 58.849C57.8451 59.419 57.9681 59.881 58.2141 60.235C58.4601 60.583 58.8111 60.757 59.2671 60.757ZM64.2526 61.108C63.9106 61.108 63.5926 61.021 63.2986 60.847C63.0046 60.667 62.7676 60.409 62.5876 60.073C62.4076 59.731 62.3176 59.323 62.3176 58.849C62.3176 58.363 62.4076 57.952 62.5876 57.616C62.7676 57.274 63.0046 57.016 63.2986 56.842C63.5926 56.662 63.9106 56.572 64.2526 56.572C64.6006 56.572 64.9216 56.662 65.2156 56.842C65.5096 57.016 65.7466 57.274 65.9266 57.616C66.1066 57.952 66.1966 58.363 66.1966 58.849C66.1966 59.323 66.1066 59.731 65.9266 60.073C65.7466 60.409 65.5096 60.667 65.2156 60.847C64.9216 61.021 64.6006 61.108 64.2526 61.108ZM64.2526 60.757C64.5466 60.757 64.8076 60.676 65.0356 60.514C65.2636 60.352 65.4436 60.13 65.5756 59.848C65.7136 59.56 65.7826 59.227 65.7826 58.849C65.7826 58.465 65.7136 58.129 65.5756 57.841C65.4436 57.553 65.2636 57.328 65.0356 57.166C64.8076 57.004 64.5466 56.923 64.2526 56.923C63.9646 56.923 63.7036 57.004 63.4696 57.166C63.2416 57.328 63.0616 57.553 62.9296 57.841C62.7976 58.129 62.7316 58.465 62.7316 58.849C62.7316 59.227 62.7976 59.56 62.9296 59.848C63.0616 60.13 63.2416 60.352 63.4696 60.514C63.7036 60.676 63.9646 60.757 64.2526 60.757ZM69.096 61.108C68.724 61.108 68.388 61.021 68.088 60.847C67.794 60.667 67.56 60.409 67.386 60.073C67.218 59.731 67.134 59.323 67.134 58.849C67.134 58.363 67.224 57.952 67.404 57.616C67.59 57.274 67.833 57.016 68.133 56.842C68.433 56.662 68.757 56.572 69.105 56.572C69.405 56.572 69.654 56.626 69.852 56.734C70.05 56.842 70.224 56.965 70.374 57.103L70.14 57.382C70.002 57.25 69.849 57.142 69.681 57.058C69.513 56.968 69.324 56.923 69.114 56.923C68.82 56.923 68.553 57.004 68.313 57.166C68.079 57.328 67.893 57.553 67.755 57.841C67.617 58.129 67.548 58.465 67.548 58.849C67.548 59.227 67.611 59.56 67.737 59.848C67.869 60.13 68.052 60.352 68.286 60.514C68.526 60.676 68.802 60.757 69.114 60.757C69.342 60.757 69.552 60.709 69.744 60.613C69.942 60.511 70.116 60.394 70.266 60.262L70.473 60.541C70.287 60.703 70.08 60.838 69.852 60.946C69.624 61.054 69.372 61.108 69.096 61.108ZM72.779 61.108C72.335 61.108 72.005 60.973 71.789 60.703C71.579 60.427 71.474 60.01 71.474 59.452V56.68H71.87V59.398C71.87 59.854 71.945 60.193 72.095 60.415C72.251 60.637 72.503 60.748 72.851 60.748C73.109 60.748 73.343 60.679 73.553 60.541C73.763 60.397 73.994 60.172 74.246 59.866V56.68H74.642V61H74.309L74.264 60.28H74.246C74.036 60.526 73.814 60.727 73.58 60.883C73.346 61.033 73.079 61.108 72.779 61.108ZM76.3007 61V56.68H76.6427L76.6787 57.346H76.7057C76.8977 57.124 77.1107 56.941 77.3447 56.797C77.5847 56.647 77.8247 56.572 78.0647 56.572C78.4127 56.572 78.6797 56.653 78.8657 56.815C79.0517 56.977 79.1837 57.19 79.2617 57.454C79.5077 57.184 79.7507 56.971 79.9907 56.815C80.2367 56.653 80.4827 56.572 80.7287 56.572C81.5927 56.572 82.0247 57.124 82.0247 58.228V61H81.6197V58.282C81.6197 57.382 81.2987 56.932 80.6567 56.932C80.2727 56.932 79.8407 57.202 79.3607 57.742V61H78.9647V58.282C78.9647 57.82 78.8867 57.481 78.7307 57.265C78.5747 57.043 78.3287 56.932 77.9927 56.932C77.6087 56.932 77.1767 57.202 76.6967 57.742V61H76.3007ZM85.2424 61.108C84.8764 61.108 84.5404 61.018 84.2344 60.838C83.9344 60.658 83.6944 60.4 83.5144 60.064C83.3344 59.722 83.2444 59.317 83.2444 58.849C83.2444 58.375 83.3344 57.97 83.5144 57.634C83.6944 57.292 83.9284 57.031 84.2164 56.851C84.5044 56.665 84.8074 56.572 85.1254 56.572C85.6414 56.572 86.0464 56.746 86.3404 57.094C86.6344 57.442 86.7814 57.934 86.7814 58.57C86.7814 58.624 86.7784 58.678 86.7724 58.732C86.7724 58.786 86.7664 58.84 86.7544 58.894H83.6494C83.6554 59.254 83.7244 59.575 83.8564 59.857C83.9944 60.139 84.1834 60.361 84.4234 60.523C84.6694 60.685 84.9544 60.766 85.2784 60.766C85.5124 60.766 85.7224 60.73 85.9084 60.658C86.1004 60.586 86.2774 60.493 86.4394 60.379L86.6014 60.685C86.4334 60.787 86.2444 60.883 86.0344 60.973C85.8244 61.063 85.5604 61.108 85.2424 61.108ZM83.6494 58.57H86.4034C86.4034 58.018 86.2894 57.604 86.0614 57.328C85.8334 57.052 85.5244 56.914 85.1344 56.914C84.8884 56.914 84.6574 56.98 84.4414 57.112C84.2314 57.244 84.0544 57.433 83.9104 57.679C83.7664 57.925 83.6794 58.222 83.6494 58.57ZM87.955 61V56.68H88.297L88.333 57.346H88.36C88.582 57.124 88.81 56.941 89.044 56.797C89.284 56.647 89.551 56.572 89.845 56.572C90.289 56.572 90.616 56.71 90.826 56.986C91.042 57.256 91.15 57.67 91.15 58.228V61H90.754V58.282C90.754 57.82 90.676 57.481 90.52 57.265C90.37 57.043 90.118 56.932 89.764 56.932C89.506 56.932 89.272 57.001 89.062 57.139C88.852 57.271 88.615 57.472 88.351 57.742V61H87.955ZM93.924 61.108C93.504 61.108 93.219 60.988 93.069 60.748C92.919 60.502 92.844 60.187 92.844 59.803V57.022H92.169V56.716L92.853 56.68L92.907 55.429H93.249V56.68H94.5V57.022H93.249V59.839C93.249 60.115 93.297 60.337 93.393 60.505C93.489 60.673 93.684 60.757 93.978 60.757C94.062 60.757 94.152 60.745 94.248 60.721C94.35 60.691 94.44 60.658 94.518 60.622L94.626 60.946C94.5 60.988 94.371 61.024 94.239 61.054C94.113 61.09 94.008 61.108 93.924 61.108ZM96.5048 61.108C96.1868 61.108 95.8898 61.051 95.6138 60.937C95.3438 60.817 95.1128 60.676 94.9208 60.514L95.1548 60.217C95.3408 60.367 95.5388 60.496 95.7488 60.604C95.9588 60.712 96.2198 60.766 96.5318 60.766C96.8678 60.766 97.1228 60.682 97.2968 60.514C97.4708 60.34 97.5578 60.139 97.5578 59.911C97.5578 59.731 97.5038 59.581 97.3958 59.461C97.2878 59.341 97.1528 59.242 96.9908 59.164C96.8348 59.086 96.6728 59.017 96.5048 58.957C96.2888 58.879 96.0758 58.792 95.8658 58.696C95.6618 58.6 95.4938 58.477 95.3618 58.327C95.2298 58.171 95.1638 57.97 95.1638 57.724C95.1638 57.406 95.2808 57.136 95.5148 56.914C95.7548 56.686 96.0998 56.572 96.5498 56.572C96.7838 56.572 97.0088 56.614 97.2248 56.698C97.4468 56.782 97.6358 56.89 97.7918 57.022L97.5758 57.301C97.4258 57.193 97.2698 57.103 97.1078 57.031C96.9458 56.953 96.7568 56.914 96.5408 56.914C96.2048 56.914 95.9558 56.995 95.7938 57.157C95.6378 57.319 95.5598 57.499 95.5598 57.697C95.5598 57.859 95.6048 57.994 95.6948 58.102C95.7908 58.21 95.9138 58.3 96.0638 58.372C96.2198 58.438 96.3818 58.504 96.5498 58.57C96.7778 58.654 96.9998 58.744 97.2158 58.84C97.4318 58.936 97.6088 59.065 97.7468 59.227C97.8908 59.389 97.9628 59.611 97.9628 59.893C97.9628 60.109 97.9058 60.31 97.7918 60.496C97.6778 60.676 97.5128 60.823 97.2968 60.937C97.0808 61.051 96.8168 61.108 96.5048 61.108ZM102.089 61.108C101.669 61.108 101.384 60.988 101.234 60.748C101.084 60.502 101.009 60.187 101.009 59.803V57.022H100.334V56.716L101.018 56.68L101.072 55.429H101.414V56.68H102.665V57.022H101.414V59.839C101.414 60.115 101.462 60.337 101.558 60.505C101.654 60.673 101.849 60.757 102.143 60.757C102.227 60.757 102.317 60.745 102.413 60.721C102.515 60.691 102.605 60.658 102.683 60.622L102.791 60.946C102.665 60.988 102.536 61.024 102.404 61.054C102.278 61.09 102.173 61.108 102.089 61.108ZM105.255 61.108C104.889 61.108 104.553 61.018 104.247 60.838C103.947 60.658 103.707 60.4 103.527 60.064C103.347 59.722 103.257 59.317 103.257 58.849C103.257 58.375 103.347 57.97 103.527 57.634C103.707 57.292 103.941 57.031 104.229 56.851C104.517 56.665 104.82 56.572 105.138 56.572C105.654 56.572 106.059 56.746 106.353 57.094C106.647 57.442 106.794 57.934 106.794 58.57C106.794 58.624 106.791 58.678 106.785 58.732C106.785 58.786 106.779 58.84 106.767 58.894H103.662C103.668 59.254 103.737 59.575 103.869 59.857C104.007 60.139 104.196 60.361 104.436 60.523C104.682 60.685 104.967 60.766 105.291 60.766C105.525 60.766 105.735 60.73 105.921 60.658C106.113 60.586 106.29 60.493 106.452 60.379L106.614 60.685C106.446 60.787 106.257 60.883 106.047 60.973C105.837 61.063 105.573 61.108 105.255 61.108ZM103.662 58.57H106.416C106.416 58.018 106.302 57.604 106.074 57.328C105.846 57.052 105.537 56.914 105.147 56.914C104.901 56.914 104.67 56.98 104.454 57.112C104.244 57.244 104.067 57.433 103.923 57.679C103.779 57.925 103.692 58.222 103.662 58.57ZM107.266 61L108.733 58.741L107.383 56.68H107.824L108.526 57.778C108.598 57.892 108.673 58.009 108.751 58.129C108.829 58.249 108.907 58.369 108.985 58.489H109.021C109.099 58.369 109.171 58.249 109.237 58.129C109.309 58.009 109.384 57.892 109.462 57.778L110.137 56.68H110.551L109.21 58.777L110.677 61H110.236L109.471 59.821C109.393 59.683 109.309 59.548 109.219 59.416C109.135 59.284 109.048 59.155 108.958 59.029H108.922C108.838 59.155 108.754 59.284 108.67 59.416C108.592 59.548 108.511 59.683 108.427 59.821L107.689 61H107.266ZM112.618 61.108C112.198 61.108 111.913 60.988 111.763 60.748C111.613 60.502 111.538 60.187 111.538 59.803V57.022H110.863V56.716L111.547 56.68L111.601 55.429H111.943V56.68H113.194V57.022H111.943V59.839C111.943 60.115 111.991 60.337 112.087 60.505C112.183 60.673 112.378 60.757 112.672 60.757C112.756 60.757 112.846 60.745 112.942 60.721C113.044 60.691 113.134 60.658 113.212 60.622L113.32 60.946C113.194 60.988 113.065 61.024 112.933 61.054C112.807 61.09 112.702 61.108 112.618 61.108ZM116.108 61V57.022H115.514V56.716L116.108 56.68V55.717C116.108 55.291 116.201 54.97 116.387 54.754C116.573 54.532 116.837 54.421 117.179 54.421C117.389 54.421 117.599 54.469 117.809 54.565L117.701 54.889C117.611 54.841 117.521 54.808 117.431 54.79C117.347 54.772 117.263 54.763 117.179 54.763C116.951 54.763 116.78 54.847 116.666 55.015C116.558 55.183 116.504 55.426 116.504 55.744V56.68H117.503V57.022H116.504V61H116.108ZM119.896 61.108C119.554 61.108 119.236 61.021 118.942 60.847C118.648 60.667 118.411 60.409 118.231 60.073C118.051 59.731 117.961 59.323 117.961 58.849C117.961 58.363 118.051 57.952 118.231 57.616C118.411 57.274 118.648 57.016 118.942 56.842C119.236 56.662 119.554 56.572 119.896 56.572C120.244 56.572 120.565 56.662 120.859 56.842C121.153 57.016 121.39 57.274 121.57 57.616C121.75 57.952 121.84 58.363 121.84 58.849C121.84 59.323 121.75 59.731 121.57 60.073C121.39 60.409 121.153 60.667 120.859 60.847C120.565 61.021 120.244 61.108 119.896 61.108ZM119.896 60.757C120.19 60.757 120.451 60.676 120.679 60.514C120.907 60.352 121.087 60.13 121.219 59.848C121.357 59.56 121.426 59.227 121.426 58.849C121.426 58.465 121.357 58.129 121.219 57.841C121.087 57.553 120.907 57.328 120.679 57.166C120.451 57.004 120.19 56.923 119.896 56.923C119.608 56.923 119.347 57.004 119.113 57.166C118.885 57.328 118.705 57.553 118.573 57.841C118.441 58.129 118.375 58.465 118.375 58.849C118.375 59.227 118.441 59.56 118.573 59.848C118.705 60.13 118.885 60.352 119.113 60.514C119.347 60.676 119.608 60.757 119.896 60.757ZM123.138 61V56.68H123.48L123.516 57.481H123.543C123.687 57.217 123.861 57.001 124.065 56.833C124.275 56.659 124.509 56.572 124.767 56.572C124.851 56.572 124.926 56.578 124.992 56.59C125.058 56.602 125.127 56.626 125.199 56.662L125.109 57.022C125.037 56.992 124.974 56.974 124.92 56.968C124.866 56.956 124.797 56.95 124.713 56.95C124.521 56.95 124.317 57.034 124.101 57.202C123.891 57.364 123.702 57.649 123.534 58.057V61H123.138ZM127.796 62.953V56.68H128.138L128.174 57.22H128.201C128.411 57.052 128.642 56.902 128.894 56.77C129.146 56.638 129.404 56.572 129.668 56.572C130.244 56.572 130.676 56.773 130.964 57.175C131.252 57.571 131.396 58.105 131.396 58.777C131.396 59.263 131.306 59.68 131.126 60.028C130.952 60.376 130.721 60.643 130.433 60.829C130.145 61.015 129.83 61.108 129.488 61.108C129.284 61.108 129.074 61.063 128.858 60.973C128.642 60.877 128.42 60.745 128.192 60.577V62.953H127.796ZM129.47 60.757C129.764 60.757 130.022 60.673 130.244 60.505C130.472 60.337 130.649 60.106 130.775 59.812C130.907 59.512 130.973 59.167 130.973 58.777C130.973 58.423 130.928 58.108 130.838 57.832C130.748 57.55 130.601 57.328 130.397 57.166C130.199 57.004 129.935 56.923 129.605 56.923C129.389 56.923 129.164 56.986 128.93 57.112C128.702 57.232 128.456 57.406 128.192 57.634V60.199C128.438 60.403 128.669 60.547 128.885 60.631C129.107 60.715 129.302 60.757 129.47 60.757ZM132.691 61V56.68H133.033L133.069 57.481H133.096C133.24 57.217 133.414 57.001 133.618 56.833C133.828 56.659 134.062 56.572 134.32 56.572C134.404 56.572 134.479 56.578 134.545 56.59C134.611 56.602 134.68 56.626 134.752 56.662L134.662 57.022C134.59 56.992 134.527 56.974 134.473 56.968C134.419 56.956 134.35 56.95 134.266 56.95C134.074 56.95 133.87 57.034 133.654 57.202C133.444 57.364 133.255 57.649 133.087 58.057V61H132.691ZM137.035 61.108C136.693 61.108 136.375 61.021 136.081 60.847C135.787 60.667 135.55 60.409 135.37 60.073C135.19 59.731 135.1 59.323 135.1 58.849C135.1 58.363 135.19 57.952 135.37 57.616C135.55 57.274 135.787 57.016 136.081 56.842C136.375 56.662 136.693 56.572 137.035 56.572C137.383 56.572 137.704 56.662 137.998 56.842C138.292 57.016 138.529 57.274 138.709 57.616C138.889 57.952 138.979 58.363 138.979 58.849C138.979 59.323 138.889 59.731 138.709 60.073C138.529 60.409 138.292 60.667 137.998 60.847C137.704 61.021 137.383 61.108 137.035 61.108ZM137.035 60.757C137.329 60.757 137.59 60.676 137.818 60.514C138.046 60.352 138.226 60.13 138.358 59.848C138.496 59.56 138.565 59.227 138.565 58.849C138.565 58.465 138.496 58.129 138.358 57.841C138.226 57.553 138.046 57.328 137.818 57.166C137.59 57.004 137.329 56.923 137.035 56.923C136.747 56.923 136.486 57.004 136.252 57.166C136.024 57.328 135.844 57.553 135.712 57.841C135.58 58.129 135.514 58.465 135.514 58.849C135.514 59.227 135.58 59.56 135.712 59.848C135.844 60.13 136.024 60.352 136.252 60.514C136.486 60.676 136.747 60.757 137.035 60.757ZM141.707 61.108C141.161 61.108 140.726 60.913 140.402 60.523C140.078 60.133 139.916 59.575 139.916 58.849C139.916 58.381 140.003 57.979 140.177 57.643C140.357 57.301 140.591 57.037 140.879 56.851C141.173 56.665 141.491 56.572 141.833 56.572C142.097 56.572 142.325 56.62 142.517 56.716C142.715 56.806 142.922 56.935 143.138 57.103L143.12 56.311V54.529H143.516V61H143.174L143.138 60.442H143.111C142.937 60.616 142.73 60.772 142.49 60.91C142.256 61.042 141.995 61.108 141.707 61.108ZM141.761 60.757C142.001 60.757 142.229 60.697 142.445 60.577C142.667 60.451 142.892 60.274 143.12 60.046V57.481C142.892 57.277 142.676 57.133 142.472 57.049C142.274 56.965 142.07 56.923 141.86 56.923C141.572 56.923 141.314 57.01 141.086 57.184C140.858 57.352 140.675 57.58 140.537 57.868C140.405 58.156 140.339 58.483 140.339 58.849C140.339 59.419 140.462 59.881 140.708 60.235C140.954 60.583 141.305 60.757 141.761 60.757ZM146.414 61.108C145.97 61.108 145.64 60.973 145.424 60.703C145.214 60.427 145.109 60.01 145.109 59.452V56.68H145.505V59.398C145.505 59.854 145.58 60.193 145.73 60.415C145.886 60.637 146.138 60.748 146.486 60.748C146.744 60.748 146.978 60.679 147.188 60.541C147.398 60.397 147.629 60.172 147.881 59.866V56.68H148.277V61H147.944L147.899 60.28H147.881C147.671 60.526 147.449 60.727 147.215 60.883C146.981 61.033 146.714 61.108 146.414 61.108ZM151.537 61.108C151.165 61.108 150.829 61.021 150.529 60.847C150.235 60.667 150.001 60.409 149.827 60.073C149.659 59.731 149.575 59.323 149.575 58.849C149.575 58.363 149.665 57.952 149.845 57.616C150.031 57.274 150.274 57.016 150.574 56.842C150.874 56.662 151.198 56.572 151.546 56.572C151.846 56.572 152.095 56.626 152.293 56.734C152.491 56.842 152.665 56.965 152.815 57.103L152.581 57.382C152.443 57.25 152.29 57.142 152.122 57.058C151.954 56.968 151.765 56.923 151.555 56.923C151.261 56.923 150.994 57.004 150.754 57.166C150.52 57.328 150.334 57.553 150.196 57.841C150.058 58.129 149.989 58.465 149.989 58.849C149.989 59.227 150.052 59.56 150.178 59.848C150.31 60.13 150.493 60.352 150.727 60.514C150.967 60.676 151.243 60.757 151.555 60.757C151.783 60.757 151.993 60.709 152.185 60.613C152.383 60.511 152.557 60.394 152.707 60.262L152.914 60.541C152.728 60.703 152.521 60.838 152.293 60.946C152.065 61.054 151.813 61.108 151.537 61.108ZM155.07 61.108C154.65 61.108 154.365 60.988 154.215 60.748C154.065 60.502 153.99 60.187 153.99 59.803V57.022H153.315V56.716L153.999 56.68L154.053 55.429H154.395V56.68H155.646V57.022H154.395V59.839C154.395 60.115 154.443 60.337 154.539 60.505C154.635 60.673 154.83 60.757 155.124 60.757C155.208 60.757 155.298 60.745 155.394 60.721C155.496 60.691 155.586 60.658 155.664 60.622L155.772 60.946C155.646 60.988 155.517 61.024 155.385 61.054C155.259 61.09 155.154 61.108 155.07 61.108ZM156.694 61V56.68H157.09V61H156.694ZM156.901 55.636C156.805 55.636 156.724 55.603 156.658 55.537C156.592 55.471 156.559 55.381 156.559 55.267C156.559 55.165 156.592 55.081 156.658 55.015C156.724 54.949 156.805 54.916 156.901 54.916C157.003 54.916 157.084 54.949 157.144 55.015C157.21 55.081 157.243 55.165 157.243 55.267C157.243 55.381 157.21 55.471 157.144 55.537C157.084 55.603 157.003 55.636 156.901 55.636ZM160.326 61.108C159.984 61.108 159.666 61.021 159.372 60.847C159.078 60.667 158.841 60.409 158.661 60.073C158.481 59.731 158.391 59.323 158.391 58.849C158.391 58.363 158.481 57.952 158.661 57.616C158.841 57.274 159.078 57.016 159.372 56.842C159.666 56.662 159.984 56.572 160.326 56.572C160.674 56.572 160.995 56.662 161.289 56.842C161.583 57.016 161.82 57.274 162 57.616C162.18 57.952 162.27 58.363 162.27 58.849C162.27 59.323 162.18 59.731 162 60.073C161.82 60.409 161.583 60.667 161.289 60.847C160.995 61.021 160.674 61.108 160.326 61.108ZM160.326 60.757C160.62 60.757 160.881 60.676 161.109 60.514C161.337 60.352 161.517 60.13 161.649 59.848C161.787 59.56 161.856 59.227 161.856 58.849C161.856 58.465 161.787 58.129 161.649 57.841C161.517 57.553 161.337 57.328 161.109 57.166C160.881 57.004 160.62 56.923 160.326 56.923C160.038 56.923 159.777 57.004 159.543 57.166C159.315 57.328 159.135 57.553 159.003 57.841C158.871 58.129 158.805 58.465 158.805 58.849C158.805 59.227 158.871 59.56 159.003 59.848C159.135 60.13 159.315 60.352 159.543 60.514C159.777 60.676 160.038 60.757 160.326 60.757ZM163.567 61V56.68H163.909L163.945 57.346H163.972C164.194 57.124 164.422 56.941 164.656 56.797C164.896 56.647 165.163 56.572 165.457 56.572C165.901 56.572 166.228 56.71 166.438 56.986C166.654 57.256 166.762 57.67 166.762 58.228V61H166.366V58.282C166.366 57.82 166.288 57.481 166.132 57.265C165.982 57.043 165.73 56.932 165.376 56.932C165.118 56.932 164.884 57.001 164.674 57.139C164.464 57.271 164.227 57.472 163.963 57.742V61H163.567ZM167.889 58.93V58.579H169.869V58.93H167.889ZM171.047 61V56.68H171.389L171.425 57.481H171.452C171.596 57.217 171.77 57.001 171.974 56.833C172.184 56.659 172.418 56.572 172.676 56.572C172.76 56.572 172.835 56.578 172.901 56.59C172.967 56.602 173.036 56.626 173.108 56.662L173.018 57.022C172.946 56.992 172.883 56.974 172.829 56.968C172.775 56.956 172.706 56.95 172.622 56.95C172.43 56.95 172.226 57.034 172.01 57.202C171.8 57.364 171.611 57.649 171.443 58.057V61H171.047ZM175.453 61.108C175.087 61.108 174.751 61.018 174.445 60.838C174.145 60.658 173.905 60.4 173.725 60.064C173.545 59.722 173.455 59.317 173.455 58.849C173.455 58.375 173.545 57.97 173.725 57.634C173.905 57.292 174.139 57.031 174.427 56.851C174.715 56.665 175.018 56.572 175.336 56.572C175.852 56.572 176.257 56.746 176.551 57.094C176.845 57.442 176.992 57.934 176.992 58.57C176.992 58.624 176.989 58.678 176.983 58.732C176.983 58.786 176.977 58.84 176.965 58.894H173.86C173.866 59.254 173.935 59.575 174.067 59.857C174.205 60.139 174.394 60.361 174.634 60.523C174.88 60.685 175.165 60.766 175.489 60.766C175.723 60.766 175.933 60.73 176.119 60.658C176.311 60.586 176.488 60.493 176.65 60.379L176.812 60.685C176.644 60.787 176.455 60.883 176.245 60.973C176.035 61.063 175.771 61.108 175.453 61.108ZM173.86 58.57H176.614C176.614 58.018 176.5 57.604 176.272 57.328C176.044 57.052 175.735 56.914 175.345 56.914C175.099 56.914 174.868 56.98 174.652 57.112C174.442 57.244 174.265 57.433 174.121 57.679C173.977 57.925 173.89 58.222 173.86 58.57ZM178.979 61.108C178.637 61.108 178.343 61.012 178.097 60.82C177.851 60.628 177.728 60.328 177.728 59.92C177.728 59.44 177.953 59.077 178.403 58.831C178.853 58.579 179.558 58.399 180.518 58.291C180.524 58.069 180.5 57.856 180.446 57.652C180.392 57.442 180.29 57.268 180.14 57.13C179.996 56.992 179.78 56.923 179.492 56.923C179.204 56.923 178.94 56.98 178.7 57.094C178.46 57.208 178.265 57.319 178.115 57.427L177.935 57.13C178.037 57.058 178.169 56.98 178.331 56.896C178.493 56.806 178.676 56.731 178.88 56.671C179.09 56.605 179.312 56.572 179.546 56.572C179.888 56.572 180.158 56.647 180.356 56.797C180.554 56.947 180.695 57.148 180.779 57.4C180.869 57.646 180.914 57.925 180.914 58.237V61H180.572L180.536 60.442H180.509C180.287 60.616 180.047 60.772 179.789 60.91C179.531 61.042 179.261 61.108 178.979 61.108ZM179.051 60.766C179.297 60.766 179.534 60.706 179.762 60.586C179.996 60.466 180.248 60.292 180.518 60.064V58.597C179.924 58.669 179.453 58.762 179.105 58.876C178.757 58.99 178.508 59.134 178.358 59.308C178.208 59.476 178.133 59.674 178.133 59.902C178.133 60.214 178.223 60.436 178.403 60.568C178.589 60.7 178.805 60.766 179.051 60.766ZM183.886 61.108C183.34 61.108 182.905 60.913 182.581 60.523C182.257 60.133 182.095 59.575 182.095 58.849C182.095 58.381 182.182 57.979 182.356 57.643C182.536 57.301 182.77 57.037 183.058 56.851C183.352 56.665 183.67 56.572 184.012 56.572C184.276 56.572 184.504 56.62 184.696 56.716C184.894 56.806 185.101 56.935 185.317 57.103L185.299 56.311V54.529H185.695V61H185.353L185.317 60.442H185.29C185.116 60.616 184.909 60.772 184.669 60.91C184.435 61.042 184.174 61.108 183.886 61.108ZM183.94 60.757C184.18 60.757 184.408 60.697 184.624 60.577C184.846 60.451 185.071 60.274 185.299 60.046V57.481C185.071 57.277 184.855 57.133 184.651 57.049C184.453 56.965 184.249 56.923 184.039 56.923C183.751 56.923 183.493 57.01 183.265 57.184C183.037 57.352 182.854 57.58 182.716 57.868C182.584 58.156 182.518 58.483 182.518 58.849C182.518 59.419 182.641 59.881 182.887 60.235C183.133 60.583 183.484 60.757 183.94 60.757ZM187.179 62.971C187.017 62.971 186.87 62.941 186.738 62.881L186.828 62.53C186.876 62.548 186.93 62.563 186.99 62.575C187.056 62.593 187.119 62.602 187.179 62.602C187.443 62.602 187.665 62.494 187.845 62.278C188.031 62.062 188.178 61.789 188.286 61.459L188.403 61.081L186.63 56.68H187.062L188.106 59.398C188.172 59.578 188.247 59.776 188.331 59.992C188.415 60.208 188.496 60.412 188.574 60.604H188.61C188.676 60.412 188.742 60.208 188.808 59.992C188.88 59.776 188.946 59.578 189.006 59.398L189.933 56.68H190.338L188.628 61.54C188.55 61.78 188.445 62.008 188.313 62.224C188.187 62.446 188.031 62.626 187.845 62.764C187.659 62.902 187.437 62.971 187.179 62.971ZM193.117 61V55.069H193.531V60.64H196.267V61H193.117ZM197.318 61V55.069H197.732V60.64H200.468V61H197.318ZM201.519 61V55.069H202.104L203.346 58.552C203.424 58.768 203.502 58.987 203.58 59.209C203.658 59.425 203.736 59.644 203.814 59.866H203.85C203.928 59.644 204.003 59.425 204.075 59.209C204.147 58.987 204.222 58.768 204.3 58.552L205.533 55.069H206.127V61H205.722V57.103C205.722 56.857 205.728 56.59 205.74 56.302C205.752 56.014 205.764 55.747 205.776 55.501H205.74L205.281 56.824L204.003 60.352H203.643L202.356 56.824L201.888 55.501H201.852C201.864 55.747 201.876 56.014 201.888 56.302C201.9 56.59 201.906 56.857 201.906 57.103V61H201.519ZM210.576 61.108C210.234 61.108 209.94 61.012 209.694 60.82C209.448 60.628 209.325 60.328 209.325 59.92C209.325 59.44 209.55 59.077 210 58.831C210.45 58.579 211.155 58.399 212.115 58.291C212.121 58.069 212.097 57.856 212.043 57.652C211.989 57.442 211.887 57.268 211.737 57.13C211.593 56.992 211.377 56.923 211.089 56.923C210.801 56.923 210.537 56.98 210.297 57.094C210.057 57.208 209.862 57.319 209.712 57.427L209.532 57.13C209.634 57.058 209.766 56.98 209.928 56.896C210.09 56.806 210.273 56.731 210.477 56.671C210.687 56.605 210.909 56.572 211.143 56.572C211.485 56.572 211.755 56.647 211.953 56.797C212.151 56.947 212.292 57.148 212.376 57.4C212.466 57.646 212.511 57.925 212.511 58.237V61H212.169L212.133 60.442H212.106C211.884 60.616 211.644 60.772 211.386 60.91C211.128 61.042 210.858 61.108 210.576 61.108ZM210.648 60.766C210.894 60.766 211.131 60.706 211.359 60.586C211.593 60.466 211.845 60.292 212.115 60.064V58.597C211.521 58.669 211.05 58.762 210.702 58.876C210.354 58.99 210.105 59.134 209.955 59.308C209.805 59.476 209.73 59.674 209.73 59.902C209.73 60.214 209.82 60.436 210 60.568C210.186 60.7 210.402 60.766 210.648 60.766ZM214.052 62.953V56.68H214.394L214.43 57.22H214.457C214.667 57.052 214.898 56.902 215.15 56.77C215.402 56.638 215.66 56.572 215.924 56.572C216.5 56.572 216.932 56.773 217.22 57.175C217.508 57.571 217.652 58.105 217.652 58.777C217.652 59.263 217.562 59.68 217.382 60.028C217.208 60.376 216.977 60.643 216.689 60.829C216.401 61.015 216.086 61.108 215.744 61.108C215.54 61.108 215.33 61.063 215.114 60.973C214.898 60.877 214.676 60.745 214.448 60.577V62.953H214.052ZM215.726 60.757C216.02 60.757 216.278 60.673 216.5 60.505C216.728 60.337 216.905 60.106 217.031 59.812C217.163 59.512 217.229 59.167 217.229 58.777C217.229 58.423 217.184 58.108 217.094 57.832C217.004 57.55 216.857 57.328 216.653 57.166C216.455 57.004 216.191 56.923 215.861 56.923C215.645 56.923 215.42 56.986 215.186 57.112C214.958 57.232 214.712 57.406 214.448 57.634V60.199C214.694 60.403 214.925 60.547 215.141 60.631C215.363 60.715 215.558 60.757 215.726 60.757ZM218.947 62.953V56.68H219.289L219.325 57.22H219.352C219.562 57.052 219.793 56.902 220.045 56.77C220.297 56.638 220.555 56.572 220.819 56.572C221.395 56.572 221.827 56.773 222.115 57.175C222.403 57.571 222.547 58.105 222.547 58.777C222.547 59.263 222.457 59.68 222.277 60.028C222.103 60.376 221.872 60.643 221.584 60.829C221.296 61.015 220.981 61.108 220.639 61.108C220.435 61.108 220.225 61.063 220.009 60.973C219.793 60.877 219.571 60.745 219.343 60.577V62.953H218.947ZM220.621 60.757C220.915 60.757 221.173 60.673 221.395 60.505C221.623 60.337 221.8 60.106 221.926 59.812C222.058 59.512 222.124 59.167 222.124 58.777C222.124 58.423 222.079 58.108 221.989 57.832C221.899 57.55 221.752 57.328 221.548 57.166C221.35 57.004 221.086 56.923 220.756 56.923C220.54 56.923 220.315 56.986 220.081 57.112C219.853 57.232 219.607 57.406 219.343 57.634V60.199C219.589 60.403 219.82 60.547 220.036 60.631C220.258 60.715 220.453 60.757 220.621 60.757ZM224.374 61.108C224.02 61.108 223.843 60.88 223.843 60.424V54.529H224.239V60.478C224.239 60.664 224.302 60.757 224.428 60.757C224.446 60.757 224.467 60.757 224.491 60.757C224.515 60.751 224.548 60.745 224.59 60.739L224.662 61.063C224.62 61.075 224.578 61.084 224.536 61.09C224.494 61.102 224.44 61.108 224.374 61.108ZM225.978 61V56.68H226.374V61H225.978ZM226.185 55.636C226.089 55.636 226.008 55.603 225.942 55.537C225.876 55.471 225.843 55.381 225.843 55.267C225.843 55.165 225.876 55.081 225.942 55.015C226.008 54.949 226.089 54.916 226.185 54.916C226.287 54.916 226.368 54.949 226.428 55.015C226.494 55.081 226.527 55.165 226.527 55.267C226.527 55.381 226.494 55.471 226.428 55.537C226.368 55.603 226.287 55.636 226.185 55.636ZM229.637 61.108C229.265 61.108 228.929 61.021 228.629 60.847C228.335 60.667 228.101 60.409 227.927 60.073C227.759 59.731 227.675 59.323 227.675 58.849C227.675 58.363 227.765 57.952 227.945 57.616C228.131 57.274 228.374 57.016 228.674 56.842C228.974 56.662 229.298 56.572 229.646 56.572C229.946 56.572 230.195 56.626 230.393 56.734C230.591 56.842 230.765 56.965 230.915 57.103L230.681 57.382C230.543 57.25 230.39 57.142 230.222 57.058C230.054 56.968 229.865 56.923 229.655 56.923C229.361 56.923 229.094 57.004 228.854 57.166C228.62 57.328 228.434 57.553 228.296 57.841C228.158 58.129 228.089 58.465 228.089 58.849C228.089 59.227 228.152 59.56 228.278 59.848C228.41 60.13 228.593 60.352 228.827 60.514C229.067 60.676 229.343 60.757 229.655 60.757C229.883 60.757 230.093 60.709 230.285 60.613C230.483 60.511 230.657 60.394 230.807 60.262L231.014 60.541C230.828 60.703 230.621 60.838 230.393 60.946C230.165 61.054 229.913 61.108 229.637 61.108ZM232.935 61.108C232.593 61.108 232.299 61.012 232.053 60.82C231.807 60.628 231.684 60.328 231.684 59.92C231.684 59.44 231.909 59.077 232.359 58.831C232.809 58.579 233.514 58.399 234.474 58.291C234.48 58.069 234.456 57.856 234.402 57.652C234.348 57.442 234.246 57.268 234.096 57.13C233.952 56.992 233.736 56.923 233.448 56.923C233.16 56.923 232.896 56.98 232.656 57.094C232.416 57.208 232.221 57.319 232.071 57.427L231.891 57.13C231.993 57.058 232.125 56.98 232.287 56.896C232.449 56.806 232.632 56.731 232.836 56.671C233.046 56.605 233.268 56.572 233.502 56.572C233.844 56.572 234.114 56.647 234.312 56.797C234.51 56.947 234.651 57.148 234.735 57.4C234.825 57.646 234.87 57.925 234.87 58.237V61H234.528L234.492 60.442H234.465C234.243 60.616 234.003 60.772 233.745 60.91C233.487 61.042 233.217 61.108 232.935 61.108ZM233.007 60.766C233.253 60.766 233.49 60.706 233.718 60.586C233.952 60.466 234.204 60.292 234.474 60.064V58.597C233.88 58.669 233.409 58.762 233.061 58.876C232.713 58.99 232.464 59.134 232.314 59.308C232.164 59.476 232.089 59.674 232.089 59.902C232.089 60.214 232.179 60.436 232.359 60.568C232.545 60.7 232.761 60.766 233.007 60.766ZM237.493 61.108C237.073 61.108 236.788 60.988 236.638 60.748C236.488 60.502 236.413 60.187 236.413 59.803V57.022H235.738V56.716L236.422 56.68L236.476 55.429H236.818V56.68H238.069V57.022H236.818V59.839C236.818 60.115 236.866 60.337 236.962 60.505C237.058 60.673 237.253 60.757 237.547 60.757C237.631 60.757 237.721 60.745 237.817 60.721C237.919 60.691 238.009 60.658 238.087 60.622L238.195 60.946C238.069 60.988 237.94 61.024 237.808 61.054C237.682 61.09 237.577 61.108 237.493 61.108ZM239.118 61V56.68H239.514V61H239.118ZM239.325 55.636C239.229 55.636 239.148 55.603 239.082 55.537C239.016 55.471 238.983 55.381 238.983 55.267C238.983 55.165 239.016 55.081 239.082 55.015C239.148 54.949 239.229 54.916 239.325 54.916C239.427 54.916 239.508 54.949 239.568 55.015C239.634 55.081 239.667 55.165 239.667 55.267C239.667 55.381 239.634 55.471 239.568 55.537C239.508 55.603 239.427 55.636 239.325 55.636ZM242.75 61.108C242.408 61.108 242.09 61.021 241.796 60.847C241.502 60.667 241.265 60.409 241.085 60.073C240.905 59.731 240.815 59.323 240.815 58.849C240.815 58.363 240.905 57.952 241.085 57.616C241.265 57.274 241.502 57.016 241.796 56.842C242.09 56.662 242.408 56.572 242.75 56.572C243.098 56.572 243.419 56.662 243.713 56.842C244.007 57.016 244.244 57.274 244.424 57.616C244.604 57.952 244.694 58.363 244.694 58.849C244.694 59.323 244.604 59.731 244.424 60.073C244.244 60.409 244.007 60.667 243.713 60.847C243.419 61.021 243.098 61.108 242.75 61.108ZM242.75 60.757C243.044 60.757 243.305 60.676 243.533 60.514C243.761 60.352 243.941 60.13 244.073 59.848C244.211 59.56 244.28 59.227 244.28 58.849C244.28 58.465 244.211 58.129 244.073 57.841C243.941 57.553 243.761 57.328 243.533 57.166C243.305 57.004 243.044 56.923 242.75 56.923C242.462 56.923 242.201 57.004 241.967 57.166C241.739 57.328 241.559 57.553 241.427 57.841C241.295 58.129 241.229 58.465 241.229 58.849C241.229 59.227 241.295 59.56 241.427 59.848C241.559 60.13 241.739 60.352 241.967 60.514C242.201 60.676 242.462 60.757 242.75 60.757ZM245.991 61V56.68H246.333L246.369 57.346H246.396C246.618 57.124 246.846 56.941 247.08 56.797C247.32 56.647 247.587 56.572 247.881 56.572C248.325 56.572 248.652 56.71 248.862 56.986C249.078 57.256 249.186 57.67 249.186 58.228V61H248.79V58.282C248.79 57.82 248.712 57.481 248.556 57.265C248.406 57.043 248.154 56.932 247.8 56.932C247.542 56.932 247.308 57.001 247.098 57.139C246.888 57.271 246.651 57.472 246.387 57.742V61H245.991ZM251.825 61.108C251.507 61.108 251.21 61.051 250.934 60.937C250.664 60.817 250.433 60.676 250.241 60.514L250.475 60.217C250.661 60.367 250.859 60.496 251.069 60.604C251.279 60.712 251.54 60.766 251.852 60.766C252.188 60.766 252.443 60.682 252.617 60.514C252.791 60.34 252.878 60.139 252.878 59.911C252.878 59.731 252.824 59.581 252.716 59.461C252.608 59.341 252.473 59.242 252.311 59.164C252.155 59.086 251.993 59.017 251.825 58.957C251.609 58.879 251.396 58.792 251.186 58.696C250.982 58.6 250.814 58.477 250.682 58.327C250.55 58.171 250.484 57.97 250.484 57.724C250.484 57.406 250.601 57.136 250.835 56.914C251.075 56.686 251.42 56.572 251.87 56.572C252.104 56.572 252.329 56.614 252.545 56.698C252.767 56.782 252.956 56.89 253.112 57.022L252.896 57.301C252.746 57.193 252.59 57.103 252.428 57.031C252.266 56.953 252.077 56.914 251.861 56.914C251.525 56.914 251.276 56.995 251.114 57.157C250.958 57.319 250.88 57.499 250.88 57.697C250.88 57.859 250.925 57.994 251.015 58.102C251.111 58.21 251.234 58.3 251.384 58.372C251.54 58.438 251.702 58.504 251.87 58.57C252.098 58.654 252.32 58.744 252.536 58.84C252.752 58.936 252.929 59.065 253.067 59.227C253.211 59.389 253.283 59.611 253.283 59.893C253.283 60.109 253.226 60.31 253.112 60.496C252.998 60.676 252.833 60.823 252.617 60.937C252.401 61.051 252.137 61.108 251.825 61.108ZM254.591 61.108C254.495 61.108 254.405 61.072 254.321 61C254.243 60.928 254.204 60.829 254.204 60.703C254.204 60.571 254.243 60.469 254.321 60.397C254.405 60.325 254.495 60.289 254.591 60.289C254.693 60.289 254.78 60.325 254.852 60.397C254.93 60.469 254.969 60.571 254.969 60.703C254.969 60.829 254.93 60.928 254.852 61C254.78 61.072 254.693 61.108 254.591 61.108Z" fill="white"/>
<path d="M46.9333 20.7333C47.1066 20.7333 47.2788 20.7389 47.45 20.75C47.2313 21.8866 47.3131 23.0605 47.6873 24.1558C48.0615 25.2511 48.715 26.2297 49.5833 26.995C49.4622 27.6683 49.4011 28.3589 49.4 29.0667C49.396 31.7129 50.2956 34.2813 51.95 36.3467C50.4133 36.9501 48.7457 37.1419 47.1121 36.9031C45.4785 36.6643 43.9356 36.0032 42.6359 34.9852C41.3362 33.9672 40.3248 32.6275 39.7017 31.0987C39.0787 29.5698 38.8655 27.9048 39.0833 26.2683C39.6608 24.6485 40.7252 23.247 42.1306 22.2561C43.536 21.2651 45.2136 20.7332 46.9333 20.7333ZM68.3466 24.05C68.9501 25.5867 69.1419 27.2543 68.9031 28.8879C68.6643 30.5214 68.0032 32.0644 66.9852 33.364C65.9671 34.6637 64.6274 35.6751 63.0986 36.2982C61.5698 36.9213 59.9048 37.1345 58.2683 36.9167C56.5651 36.3097 55.1055 35.1653 54.1097 33.656C53.114 32.1468 52.6361 30.3546 52.7483 28.55C53.8849 28.7686 55.0588 28.6868 56.1541 28.3127C57.2494 27.9385 58.228 27.285 58.9933 26.4167C59.6677 26.5378 60.3588 26.5989 61.0666 26.6C63.7129 26.604 66.2812 25.7044 68.3466 24.05ZM54 18.6667C54.884 18.6667 55.7319 19.0179 56.357 19.643C56.9821 20.2681 57.3333 21.1159 57.3333 22C57.3333 22.8841 56.9821 23.7319 56.357 24.357C55.7319 24.9821 54.884 25.3333 54 25.3333C53.1159 25.3333 52.2681 24.9821 51.6429 24.357C51.0178 23.7319 50.6666 22.8841 50.6666 22C50.6666 21.1159 51.0178 20.2681 51.6429 19.643C52.2681 19.0179 53.1159 18.6667 54 18.6667ZM59.5166 7C60.8677 6.99985 62.2031 7.28837 63.4336 7.84624C64.6641 8.40412 65.7611 9.21847 66.6513 10.2348C67.5415 11.251 68.2043 12.4458 68.5953 13.739C68.9862 15.0323 69.0964 16.3941 68.9183 17.7333C68.3107 19.4362 67.1658 20.8953 65.6562 21.8904C64.1467 22.8856 62.3545 23.3627 60.55 23.25C60.7686 22.1134 60.6868 20.9395 60.3126 19.8442C59.9385 18.7489 59.2849 17.7703 58.4166 17.005C58.5377 16.3317 58.5988 15.6411 58.6 14.9333C58.604 12.2871 57.7043 9.71872 56.05 7.65333C57.1546 7.22104 58.3304 6.99944 59.5166 7ZM48.4833 7C48.9066 7 49.3233 7.02722 49.7333 7.08167C51.4362 7.68926 52.8952 8.8342 53.8904 10.3437C54.8855 11.8533 55.3627 13.6455 55.25 15.45C54.1134 15.2314 52.9394 15.3132 51.8442 15.6873C50.7489 16.0615 49.7702 16.715 49.005 17.5833C48.3212 17.4607 47.6279 17.3993 46.9333 17.4C44.287 17.396 41.7187 18.2956 39.6533 19.95C39.0885 18.512 38.8836 16.9577 39.0565 15.4224C39.2293 13.8871 39.7746 12.4173 40.645 11.1408C41.5154 9.86435 42.6845 8.81985 44.0505 8.09817C45.4166 7.3765 46.9383 6.99951 48.4833 7Z" fill="#939DFF"/>
</svg>
