<?xml version="1.0" encoding="utf-8" ?>
<svg xmlns="http://www.w3.org/2000/svg" xmlns:xlink="http://www.w3.org/1999/xlink" width="700" height="700">
	<path d="M202.755 122.5C217.188 122.164 231.719 122.607 246.162 122.642L329.637 122.686L399.526 122.634C413.34 122.581 427.259 122.127 441.063 122.568C444.099 122.665 448.077 122.749 450.803 124.219C451.01 124.683 451.029 124.669 451.142 125.247C451.666 127.927 436.99 175.27 434.839 178.507C433.149 179.436 430.777 179.608 428.866 179.717C423.552 180.022 418.099 179.739 412.772 179.729L382.132 179.737L287.678 179.703C271.518 179.633 254.92 178.829 238.802 180.035C235.673 187.669 233.494 195.564 231.079 203.438L222.507 230.948L192.399 327.561L180.063 366.665C178.828 370.657 175.935 377.778 175.832 381.76C175.784 383.577 176.149 384.572 177.39 385.87C181.736 387.648 215.582 386.747 222.604 386.748L309.753 386.624C314.297 376.544 317.868 362.074 321.234 351.264L341.389 286.821C344.382 277.054 347.117 263.486 352.08 254.921C359.611 254.404 367.207 254.556 374.752 254.551L407.37 254.55L508.591 254.533L569.613 254.532C580.372 254.532 594.599 253.534 604.986 255.55C605.195 255.863 605.316 256.016 605.472 256.333C607.27 259.973 601.996 272.68 600.605 276.774C595.823 289.31 592.661 302.733 588.648 315.548L561.664 401.937L554.394 425.287C552.588 431.293 551.087 437.646 548.49 443.364C541.572 443.987 534.539 443.749 527.598 443.718L497.592 443.639Q448.669 443.949 399.745 443.666L372.873 443.606C366.174 443.588 359.271 443.024 352.679 444.372C348.179 453.644 345.867 464.506 342.832 474.379Q334.715 500.854 326.283 527.23C323.768 535.148 321.673 544.444 317.529 551.634C313.013 552.248 264.19 552.058 261.897 551.22C258.919 550.132 262.11 540.414 262.798 538.211Q272.519 507.828 281.925 477.346C284.534 468.977 287.935 460.49 289.949 451.978C290.455 449.838 290.953 447.529 290.186 445.406C288.94 444.13 287.03 444.015 285.336 443.895C279.066 443.45 272.67 443.672 266.382 443.671L234.766 443.674L134.968 443.67C128.56 443.672 103.888 444.497 99.9798 443.194C98.9514 442.852 98.508 442.448 98.0541 441.483C98.1112 438.117 98.9797 434.847 99.895 431.627C104.653 414.885 110.187 398.335 115.455 381.748L136.207 315.426L177.726 182.799C182.607 167.193 187.024 151.439 192.043 135.879C193 132.913 194.691 125.938 196.715 123.763C198.112 122.263 200.878 122.542 202.755 122.5ZM504.66 386.7C506.431 385.957 506.859 384.914 507.548 383.201C511.221 374.061 513.41 364.086 516.387 354.685C520.009 343.248 524.514 331.837 527.313 320.178C527.806 318.124 528.313 315.908 527.797 313.822C526.68 312.357 524.906 312.005 523.159 311.785C518.155 311.155 512.808 311.573 507.76 311.572L478.486 311.54L428.212 311.482C417.506 311.474 406.724 311.257 396.028 311.771C394.354 312.307 393.786 313.159 392.975 314.687C390.492 319.368 389.04 325.166 387.505 330.232L381.264 350.877C378.451 360.024 374.903 369.181 372.721 378.49C372.299 380.29 371.677 382.794 372.271 384.576C372.484 385.215 372.679 385.379 373.308 385.675C375.052 386.497 377.988 386.595 379.899 386.671C394.805 387.26 409.924 386.687 424.86 386.67L504.66 386.7Z"/>
</svg>
