<svg width="269" height="63" viewBox="0 0 269 63" fill="none" xmlns="http://www.w3.org/2000/svg">
<path d="M21.2199 22.2424C21.2199 25.188 23.6077 27.5758 26.5532 27.5758C29.4987 27.5758 31.8865 25.188 31.8865 22.2424C31.8865 19.2969 29.4987 16.9091 26.5532 16.9091C23.6077 16.9091 21.2199 19.2969 21.2199 22.2424ZM0 22.2424L0 23.2424L26.5532 23.2424V22.2424V21.2424L0 21.2424L0 22.2424Z" fill="white"/>
<path d="M95.3812 8.97723C96.854 11.5281 100.116 12.4021 102.667 10.9294C105.218 9.45661 106.092 6.19479 104.619 3.6439C103.146 1.093 99.8842 0.219 97.3333 1.69176C94.7825 3.16452 93.9085 6.42633 95.3812 8.97723ZM77.0043 19.5872L77.5043 20.4532L100.5 7.17659L100 6.31056L99.5 5.44454L76.5043 18.7211L77.0043 19.5872Z" fill="white"/>
<path d="M95.3812 35.5079C93.9085 38.0588 94.7825 41.3206 97.3333 42.7933C99.8842 44.2661 103.146 43.3921 104.619 40.8412C106.092 38.2903 105.218 35.0285 102.667 33.5557C100.116 32.083 96.854 32.957 95.3812 35.5079ZM77.0043 24.8979L76.5043 25.764L99.5 39.0406L100 38.1745L100.5 37.3085L77.5043 24.0319L77.0043 24.8979Z" fill="white"/>
<path d="M127.453 26.9531C127.453 26.599 127.401 26.2812 127.297 26C127.193 25.7083 127 25.4375 126.719 25.1875C126.438 24.9375 126.031 24.6875 125.5 24.4375C124.979 24.1771 124.292 23.9062 123.438 23.625C122.438 23.2917 121.474 22.9167 120.547 22.5C119.62 22.0729 118.792 21.5781 118.062 21.0156C117.333 20.4427 116.755 19.776 116.328 19.0156C115.901 18.2448 115.688 17.349 115.688 16.3281C115.688 15.349 115.906 14.4688 116.344 13.6875C116.781 12.8958 117.391 12.224 118.172 11.6719C118.964 11.1094 119.891 10.6823 120.953 10.3906C122.016 10.0885 123.177 9.9375 124.438 9.9375C126.104 9.9375 127.573 10.2292 128.844 10.8125C130.125 11.3854 131.125 12.2031 131.844 13.2656C132.573 14.3177 132.938 15.5625 132.938 17H127.484C127.484 16.4271 127.365 15.9219 127.125 15.4844C126.896 15.0469 126.547 14.7031 126.078 14.4531C125.609 14.2031 125.021 14.0781 124.312 14.0781C123.625 14.0781 123.047 14.1823 122.578 14.3906C122.109 14.599 121.755 14.8802 121.516 15.2344C121.276 15.5781 121.156 15.9583 121.156 16.375C121.156 16.7188 121.25 17.0312 121.438 17.3125C121.635 17.5833 121.911 17.8385 122.266 18.0781C122.63 18.3177 123.068 18.5469 123.578 18.7656C124.099 18.9844 124.682 19.1979 125.328 19.4062C126.536 19.7917 127.609 20.224 128.547 20.7031C129.495 21.1719 130.292 21.7083 130.938 22.3125C131.594 22.9062 132.089 23.5833 132.422 24.3438C132.766 25.1042 132.938 25.9635 132.938 26.9219C132.938 27.9427 132.74 28.849 132.344 29.6406C131.948 30.4323 131.38 31.1042 130.641 31.6562C129.901 32.1979 129.016 32.6094 127.984 32.8906C126.953 33.1719 125.802 33.3125 124.531 33.3125C123.365 33.3125 122.214 33.1667 121.078 32.875C119.953 32.5729 118.932 32.1146 118.016 31.5C117.099 30.875 116.365 30.0781 115.812 29.1094C115.271 28.1302 115 26.9688 115 25.625H120.5C120.5 26.2917 120.589 26.8542 120.766 27.3125C120.943 27.7708 121.203 28.1406 121.547 28.4219C121.891 28.6927 122.312 28.8906 122.812 29.0156C123.312 29.1302 123.885 29.1875 124.531 29.1875C125.229 29.1875 125.792 29.0885 126.219 28.8906C126.646 28.6823 126.958 28.4115 127.156 28.0781C127.354 27.7344 127.453 27.3594 127.453 26.9531ZM140.828 19.3438V39.5H135.562V16.0938H140.469L140.828 19.3438ZM151.203 24.3438V24.6719C151.203 25.901 151.062 27.0417 150.781 28.0938C150.5 29.1458 150.083 30.0625 149.531 30.8438C148.979 31.625 148.292 32.2344 147.469 32.6719C146.656 33.099 145.714 33.3125 144.641 33.3125C143.63 33.3125 142.76 33.0885 142.031 32.6406C141.302 32.1927 140.693 31.5729 140.203 30.7812C139.714 29.9896 139.318 29.0833 139.016 28.0625C138.714 27.0417 138.474 25.9635 138.297 24.8281V24.4062C138.474 23.1875 138.714 22.0573 139.016 21.0156C139.318 19.9635 139.714 19.0469 140.203 18.2656C140.693 17.4844 141.297 16.875 142.016 16.4375C142.745 16 143.615 15.7812 144.625 15.7812C145.698 15.7812 146.641 15.9844 147.453 16.3906C148.276 16.7969 148.964 17.3802 149.516 18.1406C150.078 18.8906 150.5 19.7917 150.781 20.8438C151.062 21.8958 151.203 23.0625 151.203 24.3438ZM145.938 24.6719V24.3438C145.938 23.6875 145.891 23.0885 145.797 22.5469C145.703 21.9948 145.552 21.5156 145.344 21.1094C145.146 20.7031 144.88 20.3906 144.547 20.1719C144.214 19.9531 143.802 19.8438 143.312 19.8438C142.75 19.8438 142.276 19.9323 141.891 20.1094C141.516 20.276 141.214 20.5365 140.984 20.8906C140.766 21.2344 140.609 21.6667 140.516 22.1875C140.432 22.6979 140.396 23.2969 140.406 23.9844V25.2656C140.385 26.0573 140.464 26.7552 140.641 27.3594C140.818 27.9531 141.125 28.4167 141.562 28.75C142 29.0833 142.594 29.25 143.344 29.25C143.844 29.25 144.26 29.1354 144.594 28.9062C144.927 28.6667 145.193 28.3385 145.391 27.9219C145.589 27.4948 145.729 27.0052 145.812 26.4531C145.896 25.901 145.938 25.3073 145.938 24.6719ZM159.109 9V33H153.828V9H159.109ZM167.922 16.0938V33H162.641V16.0938H167.922ZM162.328 11.7344C162.328 10.9844 162.599 10.3698 163.141 9.89062C163.682 9.41146 164.385 9.17188 165.25 9.17188C166.115 9.17188 166.818 9.41146 167.359 9.89062C167.901 10.3698 168.172 10.9844 168.172 11.7344C168.172 12.4844 167.901 13.099 167.359 13.5781C166.818 14.0573 166.115 14.2969 165.25 14.2969C164.385 14.2969 163.682 14.0573 163.141 13.5781C162.599 13.099 162.328 12.4844 162.328 11.7344ZM180.078 16.0938V19.75H169.891V16.0938H180.078ZM172.031 11.8906H177.297V27.4844C177.297 27.9323 177.349 28.2812 177.453 28.5312C177.557 28.7708 177.734 28.9427 177.984 29.0469C178.245 29.1406 178.589 29.1875 179.016 29.1875C179.318 29.1875 179.568 29.1823 179.766 29.1719C179.964 29.151 180.151 29.125 180.328 29.0938V32.8594C179.88 33.0052 179.411 33.1146 178.922 33.1875C178.432 33.2708 177.911 33.3125 177.359 33.3125C176.234 33.3125 175.271 33.1354 174.469 32.7812C173.677 32.4271 173.073 31.8698 172.656 31.1094C172.24 30.349 172.031 29.3594 172.031 28.1406V11.8906ZM191.078 16.0938V19.75H180.891V16.0938H191.078ZM183.031 11.8906H188.297V27.4844C188.297 27.9323 188.349 28.2812 188.453 28.5312C188.557 28.7708 188.734 28.9427 188.984 29.0469C189.245 29.1406 189.589 29.1875 190.016 29.1875C190.318 29.1875 190.568 29.1823 190.766 29.1719C190.964 29.151 191.151 29.125 191.328 29.0938V32.8594C190.88 33.0052 190.411 33.1146 189.922 33.1875C189.432 33.2708 188.911 33.3125 188.359 33.3125C187.234 33.3125 186.271 33.1354 185.469 32.7812C184.677 32.4271 184.073 31.8698 183.656 31.1094C183.24 30.349 183.031 29.3594 183.031 28.1406V11.8906ZM201.359 33.3125C199.984 33.3125 198.755 33.099 197.672 32.6719C196.589 32.2344 195.672 31.6354 194.922 30.875C194.182 30.1146 193.615 29.2396 193.219 28.25C192.833 27.2604 192.641 26.2135 192.641 25.1094V24.5156C192.641 23.276 192.812 22.1302 193.156 21.0781C193.5 20.0156 194.01 19.0885 194.688 18.2969C195.365 17.5052 196.214 16.8906 197.234 16.4531C198.255 16.0052 199.443 15.7812 200.797 15.7812C201.995 15.7812 203.068 15.974 204.016 16.3594C204.964 16.7448 205.766 17.2969 206.422 18.0156C207.089 18.7344 207.594 19.6042 207.938 20.625C208.292 21.6458 208.469 22.7917 208.469 24.0625V26.2031H194.656V22.9062H203.328V22.5C203.339 21.9375 203.24 21.4583 203.031 21.0625C202.833 20.6667 202.542 20.3646 202.156 20.1562C201.771 19.9479 201.302 19.8438 200.75 19.8438C200.177 19.8438 199.703 19.9688 199.328 20.2188C198.964 20.4688 198.677 20.8125 198.469 21.25C198.271 21.6771 198.13 22.1719 198.047 22.7344C197.964 23.2969 197.922 23.8906 197.922 24.5156V25.1094C197.922 25.7344 198.005 26.3021 198.172 26.8125C198.349 27.3229 198.599 27.7604 198.922 28.125C199.255 28.4792 199.651 28.7552 200.109 28.9531C200.578 29.151 201.109 29.25 201.703 29.25C202.422 29.25 203.13 29.1146 203.828 28.8438C204.526 28.5729 205.125 28.125 205.625 27.5L208.016 30.3438C207.672 30.8333 207.182 31.3073 206.547 31.7656C205.922 32.224 205.172 32.599 204.297 32.8906C203.422 33.1719 202.443 33.3125 201.359 33.3125ZM215.922 20.2812V33H210.656V16.0938H215.578L215.922 20.2812ZM220.922 15.9688L220.828 20.8594C220.62 20.8385 220.339 20.8125 219.984 20.7812C219.63 20.75 219.333 20.7344 219.094 20.7344C218.479 20.7344 217.948 20.8073 217.5 20.9531C217.062 21.0885 216.698 21.2969 216.406 21.5781C216.125 21.849 215.917 22.1927 215.781 22.6094C215.656 23.026 215.599 23.5104 215.609 24.0625L214.656 23.4375C214.656 22.3021 214.766 21.2708 214.984 20.3438C215.214 19.4062 215.536 18.599 215.953 17.9219C216.37 17.2344 216.875 16.7083 217.469 16.3438C218.062 15.9688 218.729 15.7812 219.469 15.7812C219.729 15.7812 219.984 15.7969 220.234 15.8281C220.495 15.8594 220.724 15.9062 220.922 15.9688ZM224.844 10.25H227.766L235.219 28.7969L242.656 10.25H245.594L236.344 33H234.062L224.844 10.25ZM223.891 10.25H226.469L226.891 24.125V33H223.891V10.25ZM243.953 10.25H246.531V33H243.531V24.125L243.953 10.25ZM251.828 10.25H259.359C261.068 10.25 262.51 10.5104 263.688 11.0312C264.875 11.5521 265.776 12.3229 266.391 13.3438C267.016 14.3542 267.328 15.599 267.328 17.0781C267.328 18.1198 267.115 19.0729 266.688 19.9375C266.271 20.7917 265.667 21.5208 264.875 22.125C264.094 22.7188 263.156 23.1615 262.062 23.4531L261.219 23.7812H254.141L254.109 21.3281H259.453C260.536 21.3281 261.438 21.1406 262.156 20.7656C262.875 20.3802 263.417 19.8646 263.781 19.2188C264.146 18.5729 264.328 17.8594 264.328 17.0781C264.328 16.2031 264.156 15.4375 263.812 14.7812C263.469 14.125 262.927 13.6198 262.188 13.2656C261.458 12.901 260.516 12.7188 259.359 12.7188H254.844V33H251.828V10.25ZM265.125 33L259.594 22.6875L262.734 22.6719L268.344 32.8125V33H265.125Z" fill="white"/>
<path d="M8.14844 59.0049H8.68896C8.64502 59.4355 8.52637 59.8076 8.33301 60.1211C8.13965 60.4316 7.87598 60.6704 7.54199 60.8374C7.20801 61.0044 6.80518 61.0879 6.3335 61.0879C5.97021 61.0879 5.64062 61.019 5.34473 60.8813C5.05176 60.7437 4.7998 60.5488 4.58887 60.2969C4.37793 60.042 4.21533 59.7373 4.10107 59.3828C3.98682 59.0283 3.92969 58.6343 3.92969 58.2007V57.4009C3.92969 56.9673 3.98682 56.5747 4.10107 56.2231C4.21533 55.8687 4.37939 55.564 4.59326 55.3091C4.80713 55.0542 5.06348 54.8579 5.3623 54.7202C5.66113 54.5825 5.99805 54.5137 6.37305 54.5137C6.82715 54.5137 7.21973 54.5972 7.55078 54.7642C7.88184 54.9282 8.14258 55.1655 8.33301 55.4761C8.52637 55.7866 8.64502 56.1616 8.68896 56.6011H8.14844C8.10742 56.2554 8.0166 55.9624 7.87598 55.7222C7.73535 55.4819 7.54053 55.2988 7.2915 55.1729C7.04541 55.0439 6.73926 54.9795 6.37305 54.9795C6.07422 54.9795 5.80762 55.0366 5.57324 55.1509C5.33887 55.2651 5.13965 55.4292 4.97559 55.6431C4.81152 55.854 4.68555 56.1074 4.59766 56.4033C4.5127 56.6992 4.47021 57.0288 4.47021 57.3921V58.2007C4.47021 58.5522 4.51123 58.876 4.59326 59.1719C4.67529 59.4678 4.79541 59.7241 4.95361 59.9409C5.11475 60.1577 5.31104 60.3262 5.54248 60.4463C5.77393 60.5664 6.0376 60.6265 6.3335 60.6265C6.71143 60.6265 7.02637 60.5664 7.27832 60.4463C7.5332 60.3232 7.73096 60.1416 7.87158 59.9014C8.01221 59.6611 8.10449 59.3623 8.14844 59.0049ZM10.4072 54.25V61H9.88428V54.25H10.4072ZM10.2886 58.3281L10.0557 58.1963C10.0732 57.915 10.1304 57.6514 10.2271 57.4053C10.3237 57.1592 10.4541 56.9424 10.6182 56.7549C10.7852 56.5674 10.98 56.4209 11.2026 56.3154C11.4282 56.21 11.6772 56.1572 11.9497 56.1572C12.187 56.1572 12.3994 56.1895 12.5869 56.2539C12.7744 56.3184 12.9341 56.4209 13.0659 56.5615C13.1978 56.7021 13.2974 56.8823 13.3647 57.1021C13.4351 57.3218 13.4702 57.5898 13.4702 57.9062V61H12.9429V57.9019C12.9429 57.5737 12.8975 57.3174 12.8066 57.1328C12.7158 56.9453 12.5869 56.812 12.4199 56.7329C12.2529 56.6538 12.0552 56.6143 11.8267 56.6143C11.5747 56.6143 11.3535 56.6699 11.1631 56.7812C10.9756 56.8896 10.8174 57.0317 10.6885 57.2075C10.5625 57.3804 10.4658 57.5664 10.3984 57.7656C10.3311 57.9619 10.2944 58.1494 10.2886 58.3281ZM17.8691 59.9014V56.2451H18.3965V61H17.8911L17.8691 59.9014ZM17.9658 59.0225L18.2383 59.0137C18.2383 59.3125 18.2031 59.5879 18.1328 59.8398C18.0625 60.0918 17.9526 60.3115 17.8032 60.499C17.6538 60.6865 17.4604 60.8315 17.2231 60.9341C16.9858 61.0366 16.7002 61.0879 16.3662 61.0879C16.1348 61.0879 15.9224 61.0557 15.729 60.9912C15.5386 60.9238 15.3745 60.8184 15.2368 60.6748C15.0991 60.5312 14.9922 60.3452 14.916 60.1167C14.8428 59.8882 14.8062 59.6113 14.8062 59.2861V56.2451H15.3291V59.2949C15.3291 59.5498 15.3569 59.7622 15.4126 59.9321C15.4712 60.1021 15.5503 60.2383 15.6499 60.3408C15.7524 60.4434 15.8696 60.5166 16.0015 60.5605C16.1333 60.6045 16.2754 60.6265 16.4277 60.6265C16.8145 60.6265 17.1191 60.5518 17.3418 60.4023C17.5674 60.2529 17.7271 60.0566 17.8208 59.8135C17.9175 59.5674 17.9658 59.3037 17.9658 59.0225ZM20.2949 57.2603V61H19.772V56.2451H20.2729L20.2949 57.2603ZM20.1763 58.3281L19.9434 58.1963C19.9609 57.915 20.0181 57.6514 20.1147 57.4053C20.2114 57.1592 20.3418 56.9424 20.5059 56.7549C20.6729 56.5674 20.8677 56.4209 21.0903 56.3154C21.3159 56.21 21.5649 56.1572 21.8374 56.1572C22.0747 56.1572 22.2871 56.1895 22.4746 56.2539C22.6621 56.3184 22.8218 56.4209 22.9536 56.5615C23.0854 56.7021 23.1851 56.8823 23.2524 57.1021C23.3228 57.3218 23.3579 57.5898 23.3579 57.9062V61H22.8306V57.9019C22.8306 57.5737 22.7852 57.3174 22.6943 57.1328C22.6035 56.9453 22.4746 56.812 22.3076 56.7329C22.1406 56.6538 21.9429 56.6143 21.7144 56.6143C21.4624 56.6143 21.2412 56.6699 21.0508 56.7812C20.8633 56.8896 20.7051 57.0317 20.5762 57.2075C20.4502 57.3804 20.3535 57.5664 20.2861 57.7656C20.2188 57.9619 20.1821 58.1494 20.1763 58.3281ZM25.2432 54.25V61H24.7202V54.25H25.2432ZM28.2271 56.2451L26.0034 58.4512L25.0586 59.3652L24.9795 58.8511L25.7397 58.0293L27.5635 56.2451H28.2271ZM27.77 61L25.7837 58.5303L26.0737 58.0776L28.4028 61H27.77ZM32.7402 60.5254L34.2212 56.2451H34.7881L32.7754 61.7646C32.7344 61.873 32.6816 61.9932 32.6172 62.125C32.5557 62.2568 32.4736 62.3828 32.3711 62.5029C32.2715 62.626 32.1455 62.7256 31.9932 62.8018C31.8438 62.8809 31.6606 62.9204 31.4438 62.9204C31.3882 62.9204 31.3164 62.9131 31.2285 62.8984C31.1436 62.8867 31.082 62.875 31.0439 62.8633L31.0396 62.4194C31.0718 62.4282 31.1187 62.4355 31.1802 62.4414C31.2417 62.4473 31.2842 62.4502 31.3076 62.4502C31.498 62.4502 31.6577 62.418 31.7866 62.3535C31.9185 62.2891 32.0283 62.1924 32.1162 62.0635C32.2041 61.9375 32.2817 61.7793 32.3491 61.5889L32.7402 60.5254ZM31.356 56.2451L32.8721 60.3276L33.0127 60.877L32.6304 61.0923L30.7847 56.2451H31.356ZM35.2495 58.6973V58.5522C35.2495 58.2065 35.2993 57.8872 35.3989 57.5942C35.4985 57.3013 35.6406 57.0479 35.8252 56.834C36.0127 56.6201 36.2368 56.4546 36.4976 56.3374C36.7583 56.2173 37.0483 56.1572 37.3677 56.1572C37.6899 56.1572 37.9814 56.2173 38.2422 56.3374C38.5029 56.4546 38.7271 56.6201 38.9146 56.834C39.1021 57.0479 39.2456 57.3013 39.3452 57.5942C39.4448 57.8872 39.4946 58.2065 39.4946 58.5522V58.6973C39.4946 59.043 39.4448 59.3623 39.3452 59.6553C39.2456 59.9453 39.1021 60.1973 38.9146 60.4111C38.73 60.625 38.5073 60.792 38.2466 60.9121C37.9858 61.0293 37.6958 61.0879 37.3765 61.0879C37.0542 61.0879 36.7627 61.0293 36.502 60.9121C36.2412 60.792 36.0171 60.625 35.8296 60.4111C35.6421 60.1973 35.4985 59.9453 35.3989 59.6553C35.2993 59.3623 35.2495 59.043 35.2495 58.6973ZM35.7725 58.5522V58.6973C35.7725 58.958 35.8076 59.2056 35.8779 59.4399C35.9482 59.6714 36.0508 59.8779 36.1855 60.0596C36.3203 60.2383 36.4873 60.3789 36.6865 60.4814C36.8857 60.584 37.1157 60.6353 37.3765 60.6353C37.6343 60.6353 37.8613 60.584 38.0576 60.4814C38.2568 60.3789 38.4238 60.2383 38.5586 60.0596C38.6934 59.8779 38.7944 59.6714 38.8618 59.4399C38.9321 59.2056 38.9673 58.958 38.9673 58.6973V58.5522C38.9673 58.2944 38.9321 58.0498 38.8618 57.8184C38.7944 57.5869 38.6919 57.3804 38.5542 57.1987C38.4194 57.0171 38.2524 56.8735 38.0532 56.7681C37.854 56.6626 37.6255 56.6099 37.3677 56.6099C37.1099 56.6099 36.8813 56.6626 36.6821 56.7681C36.4858 56.8735 36.3188 57.0171 36.1812 57.1987C36.0464 57.3804 35.9438 57.5869 35.8735 57.8184C35.8062 58.0498 35.7725 58.2944 35.7725 58.5522ZM43.6299 59.9014V56.2451H44.1572V61H43.6519L43.6299 59.9014ZM43.7266 59.0225L43.999 59.0137C43.999 59.3125 43.9639 59.5879 43.8936 59.8398C43.8232 60.0918 43.7134 60.3115 43.564 60.499C43.4146 60.6865 43.2212 60.8315 42.9839 60.9341C42.7466 61.0366 42.4609 61.0879 42.127 61.0879C41.8955 61.0879 41.6831 61.0557 41.4897 60.9912C41.2993 60.9238 41.1353 60.8184 40.9976 60.6748C40.8599 60.5312 40.7529 60.3452 40.6768 60.1167C40.6035 59.8882 40.5669 59.6113 40.5669 59.2861V56.2451H41.0898V59.2949C41.0898 59.5498 41.1177 59.7622 41.1733 59.9321C41.2319 60.1021 41.311 60.2383 41.4106 60.3408C41.5132 60.4434 41.6304 60.5166 41.7622 60.5605C41.894 60.6045 42.0361 60.6265 42.1885 60.6265C42.5752 60.6265 42.8799 60.5518 43.1025 60.4023C43.3281 60.2529 43.4878 60.0566 43.5815 59.8135C43.6782 59.5674 43.7266 59.3037 43.7266 59.0225ZM46.0557 57.0317V61H45.5327V56.2451H46.0425L46.0557 57.0317ZM47.7388 56.21L47.7256 56.6934C47.667 56.6846 47.6099 56.6772 47.5542 56.6714C47.4985 56.6655 47.4385 56.6626 47.374 56.6626C47.1455 56.6626 46.9448 56.7051 46.772 56.79C46.6021 56.8721 46.4585 56.9878 46.3413 57.1372C46.2241 57.2837 46.1348 57.4565 46.0732 57.6558C46.0117 57.8521 45.9766 58.063 45.9678 58.2886L45.7744 58.3633C45.7744 58.0527 45.8066 57.7642 45.8711 57.4976C45.9355 57.231 46.0337 56.998 46.1655 56.7988C46.3003 56.5967 46.4688 56.4399 46.6709 56.3286C46.876 56.2144 47.1162 56.1572 47.3916 56.1572C47.459 56.1572 47.5249 56.1631 47.5894 56.1748C47.6567 56.1836 47.7065 56.1953 47.7388 56.21ZM53.8516 60.0771V54.25H54.3789V61H53.8867L53.8516 60.0771ZM50.5513 58.6709V58.5786C50.5513 58.2095 50.5938 57.877 50.6787 57.5811C50.7637 57.2822 50.8853 57.0273 51.0435 56.8164C51.2046 56.6025 51.3979 56.4399 51.6235 56.3286C51.8491 56.2144 52.104 56.1572 52.3882 56.1572C52.6665 56.1572 52.9126 56.2026 53.1265 56.2935C53.3403 56.3843 53.5234 56.5146 53.6758 56.6846C53.8311 56.8545 53.9556 57.0566 54.0493 57.291C54.146 57.5254 54.2163 57.7861 54.2603 58.0732V59.2466C54.2251 59.5161 54.1606 59.7637 54.0669 59.9893C53.9731 60.2119 53.8486 60.4067 53.6934 60.5737C53.5381 60.7378 53.3506 60.8652 53.1309 60.9561C52.9141 61.0439 52.6636 61.0879 52.3794 61.0879C52.0981 61.0879 51.8447 61.0293 51.6191 60.9121C51.3936 60.7949 51.2017 60.6294 51.0435 60.4155C50.8853 60.1987 50.7637 59.9424 50.6787 59.6465C50.5938 59.3506 50.5513 59.0254 50.5513 58.6709ZM51.0786 58.5786V58.6709C51.0786 58.9492 51.1064 59.207 51.1621 59.4443C51.2178 59.6816 51.3027 59.8882 51.417 60.064C51.5312 60.2397 51.6763 60.3774 51.8521 60.4771C52.0278 60.5767 52.2358 60.6265 52.4761 60.6265C52.7778 60.6265 53.0312 60.5693 53.2363 60.4551C53.4414 60.3379 53.6055 60.1841 53.7285 59.9937C53.8516 59.8003 53.9409 59.5894 53.9966 59.3608V57.9941C53.9614 57.8389 53.9102 57.6807 53.8428 57.5195C53.7754 57.3584 53.6831 57.2104 53.5659 57.0757C53.4517 56.938 53.3052 56.8281 53.1265 56.7461C52.9507 56.6611 52.7368 56.6187 52.4849 56.6187C52.2417 56.6187 52.0322 56.6685 51.8564 56.7681C51.6807 56.8677 51.5342 57.0068 51.417 57.1855C51.3027 57.3613 51.2178 57.5679 51.1621 57.8052C51.1064 58.0425 51.0786 58.3003 51.0786 58.5786ZM55.4731 58.6973V58.5522C55.4731 58.2065 55.5229 57.8872 55.6226 57.5942C55.7222 57.3013 55.8643 57.0479 56.0488 56.834C56.2363 56.6201 56.4604 56.4546 56.7212 56.3374C56.9819 56.2173 57.272 56.1572 57.5913 56.1572C57.9136 56.1572 58.2051 56.2173 58.4658 56.3374C58.7266 56.4546 58.9507 56.6201 59.1382 56.834C59.3257 57.0479 59.4692 57.3013 59.5688 57.5942C59.6685 57.8872 59.7183 58.2065 59.7183 58.5522V58.6973C59.7183 59.043 59.6685 59.3623 59.5688 59.6553C59.4692 59.9453 59.3257 60.1973 59.1382 60.4111C58.9536 60.625 58.731 60.792 58.4702 60.9121C58.2095 61.0293 57.9194 61.0879 57.6001 61.0879C57.2778 61.0879 56.9863 61.0293 56.7256 60.9121C56.4648 60.792 56.2407 60.625 56.0532 60.4111C55.8657 60.1973 55.7222 59.9453 55.6226 59.6553C55.5229 59.3623 55.4731 59.043 55.4731 58.6973ZM55.9961 58.5522V58.6973C55.9961 58.958 56.0312 59.2056 56.1016 59.4399C56.1719 59.6714 56.2744 59.8779 56.4092 60.0596C56.5439 60.2383 56.7109 60.3789 56.9102 60.4814C57.1094 60.584 57.3394 60.6353 57.6001 60.6353C57.8579 60.6353 58.085 60.584 58.2812 60.4814C58.4805 60.3789 58.6475 60.2383 58.7822 60.0596C58.917 59.8779 59.0181 59.6714 59.0854 59.4399C59.1558 59.2056 59.1909 58.958 59.1909 58.6973V58.5522C59.1909 58.2944 59.1558 58.0498 59.0854 57.8184C59.0181 57.5869 58.9155 57.3804 58.7778 57.1987C58.6431 57.0171 58.4761 56.8735 58.2769 56.7681C58.0776 56.6626 57.8491 56.6099 57.5913 56.6099C57.3335 56.6099 57.105 56.6626 56.9058 56.7681C56.7095 56.8735 56.5425 57.0171 56.4048 57.1987C56.27 57.3804 56.1675 57.5869 56.0972 57.8184C56.0298 58.0498 55.9961 58.2944 55.9961 58.5522ZM62.5615 60.6353C62.7842 60.6353 62.9922 60.5942 63.1855 60.5122C63.3818 60.4272 63.543 60.3027 63.6689 60.1387C63.7979 59.9717 63.8711 59.7681 63.8887 59.5278H64.3896C64.375 59.8296 64.2827 60.0991 64.1128 60.3364C63.9458 60.5708 63.7261 60.7554 63.4536 60.8901C63.1841 61.022 62.8867 61.0879 62.5615 61.0879C62.2305 61.0879 61.9375 61.0278 61.6826 60.9077C61.4307 60.7876 61.2197 60.6206 61.0498 60.4067C60.8799 60.1899 60.751 59.938 60.6631 59.6509C60.5781 59.3608 60.5356 59.0488 60.5356 58.7148V58.5303C60.5356 58.1963 60.5781 57.8857 60.6631 57.5986C60.751 57.3086 60.8799 57.0566 61.0498 56.8428C61.2197 56.626 61.4307 56.4575 61.6826 56.3374C61.9346 56.2173 62.2261 56.1572 62.5571 56.1572C62.897 56.1572 63.2017 56.2261 63.4712 56.3638C63.7437 56.5015 63.9604 56.6963 64.1216 56.9482C64.2856 57.2002 64.375 57.499 64.3896 57.8447H63.8887C63.874 57.5898 63.8066 57.3701 63.6865 57.1855C63.5664 57.001 63.4082 56.8589 63.2119 56.7593C63.0156 56.6597 62.7974 56.6099 62.5571 56.6099C62.2876 56.6099 62.0576 56.6626 61.8672 56.7681C61.6768 56.8706 61.5215 57.0127 61.4014 57.1943C61.2842 57.373 61.1978 57.5781 61.1421 57.8096C61.0864 58.0381 61.0586 58.2783 61.0586 58.5303V58.7148C61.0586 58.9697 61.085 59.2129 61.1377 59.4443C61.1934 59.6729 61.2798 59.8765 61.397 60.0552C61.5171 60.2339 61.6724 60.376 61.8628 60.4814C62.0562 60.584 62.2891 60.6353 62.5615 60.6353ZM68.4941 59.9014V56.2451H69.0215V61H68.5161L68.4941 59.9014ZM68.5908 59.0225L68.8633 59.0137C68.8633 59.3125 68.8281 59.5879 68.7578 59.8398C68.6875 60.0918 68.5776 60.3115 68.4282 60.499C68.2788 60.6865 68.0854 60.8315 67.8481 60.9341C67.6108 61.0366 67.3252 61.0879 66.9912 61.0879C66.7598 61.0879 66.5474 61.0557 66.354 60.9912C66.1636 60.9238 65.9995 60.8184 65.8618 60.6748C65.7241 60.5312 65.6172 60.3452 65.541 60.1167C65.4678 59.8882 65.4312 59.6113 65.4312 59.2861V56.2451H65.9541V59.2949C65.9541 59.5498 65.9819 59.7622 66.0376 59.9321C66.0962 60.1021 66.1753 60.2383 66.2749 60.3408C66.3774 60.4434 66.4946 60.5166 66.6265 60.5605C66.7583 60.6045 66.9004 60.6265 67.0527 60.6265C67.4395 60.6265 67.7441 60.5518 67.9668 60.4023C68.1924 60.2529 68.3521 60.0566 68.4458 59.8135C68.5425 59.5674 68.5908 59.3037 68.5908 59.0225ZM70.8936 57.2295V61H70.3662V56.2451H70.8716L70.8936 57.2295ZM70.7969 58.3281L70.542 58.1963C70.5596 57.915 70.6123 57.6514 70.7002 57.4053C70.791 57.1592 70.917 56.9424 71.0781 56.7549C71.2393 56.5674 71.4326 56.4209 71.6582 56.3154C71.8838 56.21 72.1401 56.1572 72.4272 56.1572C72.6587 56.1572 72.8682 56.1895 73.0557 56.2539C73.2461 56.3154 73.4072 56.4136 73.5391 56.5483C73.6738 56.6802 73.7778 56.853 73.8511 57.0669C73.9243 57.2808 73.9609 57.5371 73.9609 57.8359V61H73.438V57.8535C73.438 57.5371 73.3882 57.2896 73.2886 57.1108C73.1919 56.9321 73.0557 56.8047 72.8799 56.7285C72.707 56.6523 72.5063 56.6143 72.2778 56.6143C72.0083 56.6143 71.7798 56.6699 71.5923 56.7812C71.4077 56.8896 71.2568 57.0317 71.1396 57.2075C71.0254 57.3804 70.9404 57.5664 70.8848 57.7656C70.8291 57.9619 70.7998 58.1494 70.7969 58.3281ZM73.9565 57.915L73.605 57.9238C73.6196 57.6924 73.6724 57.4712 73.7632 57.2603C73.8569 57.0493 73.9844 56.8618 74.1455 56.6978C74.3066 56.5308 74.4985 56.3989 74.7212 56.3022C74.9468 56.2056 75.2002 56.1572 75.4814 56.1572C75.7275 56.1572 75.9473 56.1909 76.1406 56.2583C76.334 56.3228 76.4966 56.4268 76.6284 56.5703C76.7632 56.7109 76.8657 56.8911 76.936 57.1108C77.0063 57.3306 77.0415 57.5942 77.0415 57.9019V61H76.5142V57.8975C76.5142 57.5605 76.4644 57.2998 76.3647 57.1152C76.2681 56.9277 76.1333 56.7974 75.9604 56.7241C75.7876 56.6509 75.5854 56.6143 75.354 56.6143C75.1255 56.6172 74.9248 56.6597 74.752 56.7417C74.5791 56.8208 74.4341 56.9263 74.3169 57.0581C74.2026 57.187 74.1147 57.3262 74.0532 57.4756C73.9946 57.625 73.9624 57.7715 73.9565 57.915ZM80.2144 61.0879C79.9038 61.0879 79.6182 61.0308 79.3574 60.9165C79.0996 60.8022 78.874 60.6411 78.6807 60.4331C78.4902 60.2251 78.3423 59.979 78.2368 59.6948C78.1343 59.4077 78.083 59.0942 78.083 58.7544V58.5654C78.083 58.1992 78.1372 57.8682 78.2456 57.5723C78.354 57.2764 78.5034 57.0229 78.6938 56.812C78.8843 56.6011 79.1011 56.4399 79.3442 56.3286C79.5903 56.2144 79.8481 56.1572 80.1177 56.1572C80.4194 56.1572 80.6875 56.2114 80.9219 56.3198C81.1562 56.4253 81.3525 56.5762 81.5107 56.7725C81.6719 56.9658 81.7935 57.1958 81.8755 57.4624C81.9575 57.7261 81.9985 58.0176 81.9985 58.3369V58.6577H78.3994V58.2095H81.4756V58.1479C81.4697 57.8813 81.4155 57.6323 81.313 57.4009C81.2134 57.1665 81.064 56.9761 80.8647 56.8296C80.6655 56.6831 80.4165 56.6099 80.1177 56.6099C79.895 56.6099 79.6899 56.6567 79.5024 56.7505C79.3179 56.8442 79.1582 56.979 79.0234 57.1548C78.8916 57.3276 78.7891 57.5342 78.7158 57.7744C78.6455 58.0117 78.6104 58.2754 78.6104 58.5654V58.7544C78.6104 59.0181 78.6484 59.2642 78.7246 59.4927C78.8037 59.7183 78.915 59.9175 79.0586 60.0903C79.2051 60.2632 79.3779 60.3979 79.5771 60.4946C79.7764 60.5913 79.9961 60.6396 80.2363 60.6396C80.5176 60.6396 80.7666 60.5884 80.9834 60.4858C81.2002 60.3804 81.395 60.2148 81.5679 59.9893L81.8975 60.2441C81.7949 60.3965 81.666 60.5371 81.5107 60.666C81.3584 60.7949 81.1753 60.8975 80.9614 60.9736C80.7476 61.0498 80.4985 61.0879 80.2144 61.0879ZM83.5586 57.2603V61H83.0356V56.2451H83.5366L83.5586 57.2603ZM83.4399 58.3281L83.207 58.1963C83.2246 57.915 83.2817 57.6514 83.3784 57.4053C83.4751 57.1592 83.6055 56.9424 83.7695 56.7549C83.9365 56.5674 84.1313 56.4209 84.354 56.3154C84.5796 56.21 84.8286 56.1572 85.1011 56.1572C85.3384 56.1572 85.5508 56.1895 85.7383 56.2539C85.9258 56.3184 86.0854 56.4209 86.2173 56.5615C86.3491 56.7021 86.4487 56.8823 86.5161 57.1021C86.5864 57.3218 86.6216 57.5898 86.6216 57.9062V61H86.0942V57.9019C86.0942 57.5737 86.0488 57.3174 85.958 57.1328C85.8672 56.9453 85.7383 56.812 85.5713 56.7329C85.4043 56.6538 85.2065 56.6143 84.978 56.6143C84.7261 56.6143 84.5049 56.6699 84.3145 56.7812C84.127 56.8896 83.9688 57.0317 83.8398 57.2075C83.7139 57.3804 83.6172 57.5664 83.5498 57.7656C83.4824 57.9619 83.4458 58.1494 83.4399 58.3281ZM89.7812 56.2451V56.6758H87.3994V56.2451H89.7812ZM88.2739 55.0234H88.7969V59.8442C88.7969 60.064 88.8262 60.2295 88.8848 60.3408C88.9434 60.4521 89.0195 60.5269 89.1133 60.5649C89.207 60.603 89.3081 60.6221 89.4165 60.6221C89.4956 60.6221 89.5718 60.6177 89.645 60.6089C89.7183 60.5972 89.7842 60.5854 89.8428 60.5737L89.8647 61.0176C89.8003 61.0381 89.7168 61.0542 89.6143 61.0659C89.5117 61.0806 89.4092 61.0879 89.3066 61.0879C89.1045 61.0879 88.9258 61.0513 88.7705 60.978C88.6152 60.9019 88.4937 60.7729 88.4058 60.5913C88.3179 60.4067 88.2739 60.1562 88.2739 59.8398V55.0234ZM93.7319 59.7871C93.7319 59.6582 93.6997 59.5308 93.6353 59.4048C93.5708 59.2788 93.4463 59.1631 93.2617 59.0576C93.0801 58.9521 92.812 58.8628 92.4575 58.7896C92.1938 58.731 91.958 58.665 91.75 58.5918C91.5449 58.5186 91.3721 58.4307 91.2314 58.3281C91.0908 58.2256 90.9839 58.1025 90.9106 57.959C90.8374 57.8154 90.8008 57.6455 90.8008 57.4492C90.8008 57.2734 90.8389 57.1079 90.915 56.9526C90.9941 56.7944 91.1055 56.6567 91.249 56.5396C91.3955 56.4194 91.5713 56.3257 91.7764 56.2583C91.9844 56.1909 92.2173 56.1572 92.4751 56.1572C92.8413 56.1572 93.1548 56.2202 93.4155 56.3462C93.6792 56.4692 93.8799 56.6377 94.0176 56.8516C94.1582 57.0654 94.2285 57.3071 94.2285 57.5767H93.7056C93.7056 57.4126 93.6572 57.2573 93.5605 57.1108C93.4668 56.9644 93.3276 56.8442 93.1431 56.7505C92.9614 56.6567 92.7388 56.6099 92.4751 56.6099C92.2026 56.6099 91.9814 56.6509 91.8115 56.7329C91.6416 56.8149 91.5171 56.9189 91.438 57.0449C91.3618 57.1709 91.3237 57.3013 91.3237 57.436C91.3237 57.5415 91.3398 57.6382 91.3721 57.7261C91.4072 57.811 91.4688 57.8901 91.5566 57.9634C91.6475 58.0366 91.7764 58.1055 91.9434 58.1699C92.1104 58.2344 92.3271 58.2974 92.5938 58.3589C92.9775 58.4438 93.291 58.5479 93.5342 58.6709C93.7803 58.791 93.9619 58.9404 94.0791 59.1191C94.1963 59.2949 94.2549 59.5088 94.2549 59.7607C94.2549 59.957 94.2139 60.1372 94.1318 60.3013C94.0498 60.4624 93.9312 60.6016 93.7759 60.7188C93.6235 60.8359 93.439 60.9268 93.2222 60.9912C93.0083 61.0557 92.7681 61.0879 92.5015 61.0879C92.1001 61.0879 91.7603 61.022 91.4819 60.8901C91.2065 60.7554 90.9971 60.5796 90.8535 60.3628C90.7129 60.1431 90.6426 59.9102 90.6426 59.6641H91.1655C91.1831 59.9102 91.2607 60.105 91.3984 60.2485C91.5361 60.3892 91.7046 60.4888 91.9038 60.5474C92.106 60.606 92.3052 60.6353 92.5015 60.6353C92.771 60.6353 92.9966 60.5957 93.1782 60.5166C93.3599 60.4375 93.4976 60.3335 93.5913 60.2046C93.6851 60.0757 93.7319 59.9365 93.7319 59.7871ZM99.4404 56.2451V56.6758H97.0586V56.2451H99.4404ZM97.9331 55.0234H98.4561V59.8442C98.4561 60.064 98.4854 60.2295 98.5439 60.3408C98.6025 60.4521 98.6787 60.5269 98.7725 60.5649C98.8662 60.603 98.9673 60.6221 99.0757 60.6221C99.1548 60.6221 99.231 60.6177 99.3042 60.6089C99.3774 60.5972 99.4434 60.5854 99.502 60.5737L99.5239 61.0176C99.4595 61.0381 99.376 61.0542 99.2734 61.0659C99.1709 61.0806 99.0684 61.0879 98.9658 61.0879C98.7637 61.0879 98.585 61.0513 98.4297 60.978C98.2744 60.9019 98.1528 60.7729 98.0649 60.5913C97.9771 60.4067 97.9331 60.1562 97.9331 59.8398V55.0234ZM102.38 61.0879C102.07 61.0879 101.784 61.0308 101.523 60.9165C101.266 60.8022 101.04 60.6411 100.847 60.4331C100.656 60.2251 100.508 59.979 100.403 59.6948C100.3 59.4077 100.249 59.0942 100.249 58.7544V58.5654C100.249 58.1992 100.303 57.8682 100.412 57.5723C100.52 57.2764 100.669 57.0229 100.86 56.812C101.05 56.6011 101.267 56.4399 101.51 56.3286C101.756 56.2144 102.014 56.1572 102.284 56.1572C102.585 56.1572 102.854 56.2114 103.088 56.3198C103.322 56.4253 103.519 56.5762 103.677 56.7725C103.838 56.9658 103.959 57.1958 104.042 57.4624C104.124 57.7261 104.165 58.0176 104.165 58.3369V58.6577H100.565V58.2095H103.642V58.1479C103.636 57.8813 103.582 57.6323 103.479 57.4009C103.379 57.1665 103.23 56.9761 103.031 56.8296C102.832 56.6831 102.583 56.6099 102.284 56.6099C102.061 56.6099 101.856 56.6567 101.668 56.7505C101.484 56.8442 101.324 56.979 101.189 57.1548C101.058 57.3276 100.955 57.5342 100.882 57.7744C100.812 58.0117 100.776 58.2754 100.776 58.5654V58.7544C100.776 59.0181 100.814 59.2642 100.891 59.4927C100.97 59.7183 101.081 59.9175 101.225 60.0903C101.371 60.2632 101.544 60.3979 101.743 60.4946C101.942 60.5913 102.162 60.6396 102.402 60.6396C102.684 60.6396 102.933 60.5884 103.149 60.4858C103.366 60.3804 103.561 60.2148 103.734 59.9893L104.063 60.2441C103.961 60.3965 103.832 60.5371 103.677 60.666C103.524 60.7949 103.341 60.8975 103.127 60.9736C102.914 61.0498 102.665 61.0879 102.38 61.0879ZM105.408 56.2451L106.691 58.1655L107.979 56.2451H108.603L106.99 58.5742L108.669 61H108.054L106.696 58.9917L105.342 61H104.727L106.406 58.5742L104.793 56.2451H105.408ZM111.385 56.2451V56.6758H109.003V56.2451H111.385ZM109.877 55.0234H110.4V59.8442C110.4 60.064 110.43 60.2295 110.488 60.3408C110.547 60.4521 110.623 60.5269 110.717 60.5649C110.811 60.603 110.912 60.6221 111.02 60.6221C111.099 60.6221 111.175 60.6177 111.249 60.6089C111.322 60.5972 111.388 60.5854 111.446 60.5737L111.468 61.0176C111.404 61.0381 111.32 61.0542 111.218 61.0659C111.115 61.0806 111.013 61.0879 110.91 61.0879C110.708 61.0879 110.529 61.0513 110.374 60.978C110.219 60.9019 110.097 60.7729 110.009 60.5913C109.921 60.4067 109.877 60.1562 109.877 59.8398V55.0234ZM115.586 61H115.063V55.6562C115.063 55.3311 115.119 55.0571 115.23 54.8345C115.344 54.6118 115.505 54.4434 115.713 54.3291C115.924 54.2148 116.175 54.1577 116.465 54.1577C116.556 54.1577 116.649 54.1636 116.746 54.1753C116.843 54.1841 116.937 54.2031 117.027 54.2324L116.988 54.6763C116.915 54.6558 116.84 54.6426 116.764 54.6367C116.69 54.6279 116.604 54.6235 116.504 54.6235C116.314 54.6235 116.15 54.6646 116.012 54.7466C115.875 54.8257 115.769 54.9414 115.696 55.0938C115.623 55.2461 115.586 55.4336 115.586 55.6562V61ZM116.72 56.2451V56.6758H114.276V56.2451H116.72ZM117.375 58.6973V58.5522C117.375 58.2065 117.424 57.8872 117.524 57.5942C117.624 57.3013 117.766 57.0479 117.95 56.834C118.138 56.6201 118.362 56.4546 118.623 56.3374C118.883 56.2173 119.173 56.1572 119.493 56.1572C119.815 56.1572 120.106 56.2173 120.367 56.3374C120.628 56.4546 120.852 56.6201 121.04 56.834C121.227 57.0479 121.371 57.3013 121.47 57.5942C121.57 57.8872 121.62 58.2065 121.62 58.5522V58.6973C121.62 59.043 121.57 59.3623 121.47 59.6553C121.371 59.9453 121.227 60.1973 121.04 60.4111C120.855 60.625 120.632 60.792 120.372 60.9121C120.111 61.0293 119.821 61.0879 119.501 61.0879C119.179 61.0879 118.888 61.0293 118.627 60.9121C118.366 60.792 118.142 60.625 117.955 60.4111C117.767 60.1973 117.624 59.9453 117.524 59.6553C117.424 59.3623 117.375 59.043 117.375 58.6973ZM117.897 58.5522V58.6973C117.897 58.958 117.933 59.2056 118.003 59.4399C118.073 59.6714 118.176 59.8779 118.311 60.0596C118.445 60.2383 118.612 60.3789 118.812 60.4814C119.011 60.584 119.241 60.6353 119.501 60.6353C119.759 60.6353 119.986 60.584 120.183 60.4814C120.382 60.3789 120.549 60.2383 120.684 60.0596C120.818 59.8779 120.919 59.6714 120.987 59.4399C121.057 59.2056 121.092 58.958 121.092 58.6973V58.5522C121.092 58.2944 121.057 58.0498 120.987 57.8184C120.919 57.5869 120.817 57.3804 120.679 57.1987C120.544 57.0171 120.377 56.8735 120.178 56.7681C119.979 56.6626 119.75 56.6099 119.493 56.6099C119.235 56.6099 119.006 56.6626 118.807 56.7681C118.611 56.8735 118.444 57.0171 118.306 57.1987C118.171 57.3804 118.069 57.5869 117.999 57.8184C117.931 58.0498 117.897 58.2944 117.897 58.5522ZM123.232 57.0317V61H122.709V56.2451H123.219L123.232 57.0317ZM124.916 56.21L124.902 56.6934C124.844 56.6846 124.787 56.6772 124.731 56.6714C124.675 56.6655 124.615 56.6626 124.551 56.6626C124.322 56.6626 124.122 56.7051 123.949 56.79C123.779 56.8721 123.635 56.9878 123.518 57.1372C123.401 57.2837 123.312 57.4565 123.25 57.6558C123.188 57.8521 123.153 58.063 123.145 58.2886L122.951 58.3633C122.951 58.0527 122.983 57.7642 123.048 57.4976C123.112 57.231 123.21 56.998 123.342 56.7988C123.477 56.5967 123.646 56.4399 123.848 56.3286C124.053 56.2144 124.293 56.1572 124.568 56.1572C124.636 56.1572 124.702 56.1631 124.766 56.1748C124.833 56.1836 124.883 56.1953 124.916 56.21ZM128.458 57.1592V62.8281H127.93V56.2451H128.422L128.458 57.1592ZM131.762 58.5786V58.6709C131.762 59.0254 131.721 59.3506 131.639 59.6465C131.557 59.9424 131.438 60.1987 131.283 60.4155C131.131 60.6294 130.942 60.7949 130.716 60.9121C130.491 61.0293 130.234 61.0879 129.947 61.0879C129.663 61.0879 129.41 61.0439 129.187 60.9561C128.964 60.8682 128.772 60.7437 128.611 60.5825C128.453 60.4185 128.326 60.228 128.229 60.0112C128.135 59.7915 128.069 59.5513 128.031 59.2905V58.0732C128.075 57.7861 128.147 57.5254 128.247 57.291C128.346 57.0566 128.474 56.8545 128.629 56.6846C128.787 56.5146 128.975 56.3843 129.191 56.2935C129.408 56.2026 129.656 56.1572 129.934 56.1572C130.224 56.1572 130.482 56.2144 130.708 56.3286C130.936 56.4399 131.128 56.6025 131.283 56.8164C131.441 57.0273 131.56 57.2822 131.639 57.5811C131.721 57.877 131.762 58.2095 131.762 58.5786ZM131.235 58.6709V58.5786C131.235 58.3003 131.206 58.0425 131.147 57.8052C131.091 57.5679 131.005 57.3613 130.888 57.1855C130.773 57.0068 130.627 56.8677 130.448 56.7681C130.272 56.6685 130.063 56.6187 129.82 56.6187C129.568 56.6187 129.353 56.6611 129.174 56.7461C128.998 56.8281 128.852 56.938 128.734 57.0757C128.617 57.2104 128.525 57.3584 128.458 57.5195C128.39 57.6807 128.34 57.8389 128.308 57.9941V59.396C128.364 59.6187 128.453 59.8252 128.576 60.0156C128.699 60.2031 128.863 60.354 129.068 60.4683C129.276 60.5796 129.53 60.6353 129.829 60.6353C130.069 60.6353 130.277 60.5854 130.453 60.4858C130.628 60.3862 130.773 60.2471 130.888 60.0684C131.005 59.8896 131.091 59.6816 131.147 59.4443C131.206 59.207 131.235 58.9492 131.235 58.6709ZM133.454 57.0317V61H132.931V56.2451H133.441L133.454 57.0317ZM135.137 56.21L135.124 56.6934C135.065 56.6846 135.008 56.6772 134.953 56.6714C134.897 56.6655 134.837 56.6626 134.772 56.6626C134.544 56.6626 134.343 56.7051 134.17 56.79C134 56.8721 133.857 56.9878 133.74 57.1372C133.623 57.2837 133.533 57.4565 133.472 57.6558C133.41 57.8521 133.375 58.063 133.366 58.2886L133.173 58.3633C133.173 58.0527 133.205 57.7642 133.27 57.4976C133.334 57.231 133.432 56.998 133.564 56.7988C133.699 56.5967 133.867 56.4399 134.069 56.3286C134.274 56.2144 134.515 56.1572 134.79 56.1572C134.857 56.1572 134.923 56.1631 134.988 56.1748C135.055 56.1836 135.105 56.1953 135.137 56.21ZM135.585 58.6973V58.5522C135.585 58.2065 135.635 57.8872 135.735 57.5942C135.834 57.3013 135.977 57.0479 136.161 56.834C136.349 56.6201 136.573 56.4546 136.833 56.3374C137.094 56.2173 137.384 56.1572 137.704 56.1572C138.026 56.1572 138.317 56.2173 138.578 56.3374C138.839 56.4546 139.063 56.6201 139.25 56.834C139.438 57.0479 139.582 57.3013 139.681 57.5942C139.781 57.8872 139.831 58.2065 139.831 58.5522V58.6973C139.831 59.043 139.781 59.3623 139.681 59.6553C139.582 59.9453 139.438 60.1973 139.25 60.4111C139.066 60.625 138.843 60.792 138.583 60.9121C138.322 61.0293 138.032 61.0879 137.712 61.0879C137.39 61.0879 137.099 61.0293 136.838 60.9121C136.577 60.792 136.353 60.625 136.166 60.4111C135.978 60.1973 135.834 59.9453 135.735 59.6553C135.635 59.3623 135.585 59.043 135.585 58.6973ZM136.108 58.5522V58.6973C136.108 58.958 136.144 59.2056 136.214 59.4399C136.284 59.6714 136.387 59.8779 136.521 60.0596C136.656 60.2383 136.823 60.3789 137.022 60.4814C137.222 60.584 137.452 60.6353 137.712 60.6353C137.97 60.6353 138.197 60.584 138.394 60.4814C138.593 60.3789 138.76 60.2383 138.895 60.0596C139.029 59.8779 139.13 59.6714 139.198 59.4399C139.268 59.2056 139.303 58.958 139.303 58.6973V58.5522C139.303 58.2944 139.268 58.0498 139.198 57.8184C139.13 57.5869 139.028 57.3804 138.89 57.1987C138.755 57.0171 138.588 56.8735 138.389 56.7681C138.19 56.6626 137.961 56.6099 137.704 56.6099C137.446 56.6099 137.217 56.6626 137.018 56.7681C136.822 56.8735 136.655 57.0171 136.517 57.1987C136.382 57.3804 136.28 57.5869 136.209 57.8184C136.142 58.0498 136.108 58.2944 136.108 58.5522ZM144.01 60.0771V54.25H144.537V61H144.045L144.01 60.0771ZM140.709 58.6709V58.5786C140.709 58.2095 140.752 57.877 140.837 57.5811C140.922 57.2822 141.043 57.0273 141.202 56.8164C141.363 56.6025 141.556 56.4399 141.782 56.3286C142.007 56.2144 142.262 56.1572 142.546 56.1572C142.825 56.1572 143.071 56.2026 143.285 56.2935C143.499 56.3843 143.682 56.5146 143.834 56.6846C143.989 56.8545 144.114 57.0566 144.208 57.291C144.304 57.5254 144.375 57.7861 144.418 58.0732V59.2466C144.383 59.5161 144.319 59.7637 144.225 59.9893C144.131 60.2119 144.007 60.4067 143.852 60.5737C143.696 60.7378 143.509 60.8652 143.289 60.9561C143.072 61.0439 142.822 61.0879 142.538 61.0879C142.256 61.0879 142.003 61.0293 141.777 60.9121C141.552 60.7949 141.36 60.6294 141.202 60.4155C141.043 60.1987 140.922 59.9424 140.837 59.6465C140.752 59.3506 140.709 59.0254 140.709 58.6709ZM141.237 58.5786V58.6709C141.237 58.9492 141.265 59.207 141.32 59.4443C141.376 59.6816 141.461 59.8882 141.575 60.064C141.689 60.2397 141.834 60.3774 142.01 60.4771C142.186 60.5767 142.394 60.6265 142.634 60.6265C142.936 60.6265 143.189 60.5693 143.395 60.4551C143.6 60.3379 143.764 60.1841 143.887 59.9937C144.01 59.8003 144.099 59.5894 144.155 59.3608V57.9941C144.12 57.8389 144.068 57.6807 144.001 57.5195C143.934 57.3584 143.841 57.2104 143.724 57.0757C143.61 56.938 143.463 56.8281 143.285 56.7461C143.109 56.6611 142.895 56.6187 142.643 56.6187C142.4 56.6187 142.19 56.6685 142.015 56.7681C141.839 56.8677 141.692 57.0068 141.575 57.1855C141.461 57.3613 141.376 57.5679 141.32 57.8052C141.265 58.0425 141.237 58.3003 141.237 58.5786ZM148.967 59.9014V56.2451H149.494V61H148.989L148.967 59.9014ZM149.063 59.0225L149.336 59.0137C149.336 59.3125 149.301 59.5879 149.23 59.8398C149.16 60.0918 149.05 60.3115 148.901 60.499C148.751 60.6865 148.558 60.8315 148.321 60.9341C148.083 61.0366 147.798 61.0879 147.464 61.0879C147.232 61.0879 147.02 61.0557 146.827 60.9912C146.636 60.9238 146.472 60.8184 146.334 60.6748C146.197 60.5312 146.09 60.3452 146.014 60.1167C145.94 59.8882 145.904 59.6113 145.904 59.2861V56.2451H146.427V59.2949C146.427 59.5498 146.455 59.7622 146.51 59.9321C146.569 60.1021 146.648 60.2383 146.748 60.3408C146.85 60.4434 146.967 60.5166 147.099 60.5605C147.231 60.6045 147.373 60.6265 147.525 60.6265C147.912 60.6265 148.217 60.5518 148.439 60.4023C148.665 60.2529 148.825 60.0566 148.918 59.8135C149.015 59.5674 149.063 59.3037 149.063 59.0225ZM152.623 60.6353C152.846 60.6353 153.054 60.5942 153.247 60.5122C153.443 60.4272 153.604 60.3027 153.73 60.1387C153.859 59.9717 153.933 59.7681 153.95 59.5278H154.451C154.437 59.8296 154.344 60.0991 154.174 60.3364C154.007 60.5708 153.788 60.7554 153.515 60.8901C153.246 61.022 152.948 61.0879 152.623 61.0879C152.292 61.0879 151.999 61.0278 151.744 60.9077C151.492 60.7876 151.281 60.6206 151.111 60.4067C150.941 60.1899 150.812 59.938 150.725 59.6509C150.64 59.3608 150.597 59.0488 150.597 58.7148V58.5303C150.597 58.1963 150.64 57.8857 150.725 57.5986C150.812 57.3086 150.941 57.0566 151.111 56.8428C151.281 56.626 151.492 56.4575 151.744 56.3374C151.996 56.2173 152.288 56.1572 152.619 56.1572C152.958 56.1572 153.263 56.2261 153.533 56.3638C153.805 56.5015 154.022 56.6963 154.183 56.9482C154.347 57.2002 154.437 57.499 154.451 57.8447H153.95C153.936 57.5898 153.868 57.3701 153.748 57.1855C153.628 57.001 153.47 56.8589 153.273 56.7593C153.077 56.6597 152.859 56.6099 152.619 56.6099C152.349 56.6099 152.119 56.6626 151.929 56.7681C151.738 56.8706 151.583 57.0127 151.463 57.1943C151.346 57.373 151.259 57.5781 151.204 57.8096C151.148 58.0381 151.12 58.2783 151.12 58.5303V58.7148C151.12 58.9697 151.146 59.2129 151.199 59.4443C151.255 59.6729 151.341 59.8765 151.458 60.0552C151.579 60.2339 151.734 60.376 151.924 60.4814C152.118 60.584 152.351 60.6353 152.623 60.6353ZM157.308 56.2451V56.6758H154.926V56.2451H157.308ZM155.8 55.0234H156.323V59.8442C156.323 60.064 156.353 60.2295 156.411 60.3408C156.47 60.4521 156.546 60.5269 156.64 60.5649C156.733 60.603 156.834 60.6221 156.943 60.6221C157.022 60.6221 157.098 60.6177 157.171 60.6089C157.245 60.5972 157.311 60.5854 157.369 60.5737L157.391 61.0176C157.327 61.0381 157.243 61.0542 157.141 61.0659C157.038 61.0806 156.936 61.0879 156.833 61.0879C156.631 61.0879 156.452 61.0513 156.297 60.978C156.142 60.9019 156.02 60.7729 155.932 60.5913C155.844 60.4067 155.8 60.1562 155.8 59.8398V55.0234ZM158.995 56.2451V61H158.472V56.2451H158.995ZM158.38 54.8696C158.38 54.77 158.411 54.6865 158.472 54.6191C158.537 54.5488 158.625 54.5137 158.736 54.5137C158.847 54.5137 158.935 54.5488 159 54.6191C159.067 54.6865 159.101 54.77 159.101 54.8696C159.101 54.9663 159.067 55.0498 159 55.1201C158.935 55.1875 158.847 55.2212 158.736 55.2212C158.625 55.2212 158.537 55.1875 158.472 55.1201C158.411 55.0498 158.38 54.9663 158.38 54.8696ZM160.142 58.6973V58.5522C160.142 58.2065 160.192 57.8872 160.292 57.5942C160.391 57.3013 160.533 57.0479 160.718 56.834C160.905 56.6201 161.129 56.4546 161.39 56.3374C161.651 56.2173 161.941 56.1572 162.26 56.1572C162.583 56.1572 162.874 56.2173 163.135 56.3374C163.396 56.4546 163.62 56.6201 163.807 56.834C163.995 57.0479 164.138 57.3013 164.238 57.5942C164.337 57.8872 164.387 58.2065 164.387 58.5522V58.6973C164.387 59.043 164.337 59.3623 164.238 59.6553C164.138 59.9453 163.995 60.1973 163.807 60.4111C163.623 60.625 163.4 60.792 163.139 60.9121C162.878 61.0293 162.588 61.0879 162.269 61.0879C161.947 61.0879 161.655 61.0293 161.395 60.9121C161.134 60.792 160.91 60.625 160.722 60.4111C160.535 60.1973 160.391 59.9453 160.292 59.6553C160.192 59.3623 160.142 59.043 160.142 58.6973ZM160.665 58.5522V58.6973C160.665 58.958 160.7 59.2056 160.771 59.4399C160.841 59.6714 160.943 59.8779 161.078 60.0596C161.213 60.2383 161.38 60.3789 161.579 60.4814C161.778 60.584 162.008 60.6353 162.269 60.6353C162.527 60.6353 162.754 60.584 162.95 60.4814C163.149 60.3789 163.316 60.2383 163.451 60.0596C163.586 59.8779 163.687 59.6714 163.754 59.4399C163.825 59.2056 163.86 58.958 163.86 58.6973V58.5522C163.86 58.2944 163.825 58.0498 163.754 57.8184C163.687 57.5869 163.584 57.3804 163.447 57.1987C163.312 57.0171 163.145 56.8735 162.946 56.7681C162.747 56.6626 162.518 56.6099 162.26 56.6099C162.002 56.6099 161.774 56.6626 161.575 56.7681C161.378 56.8735 161.211 57.0171 161.074 57.1987C160.939 57.3804 160.836 57.5869 160.766 57.8184C160.699 58.0498 160.665 58.2944 160.665 58.5522ZM166 57.2603V61H165.477V56.2451H165.978L166 57.2603ZM165.881 58.3281L165.648 58.1963C165.666 57.915 165.723 57.6514 165.82 57.4053C165.917 57.1592 166.047 56.9424 166.211 56.7549C166.378 56.5674 166.573 56.4209 166.795 56.3154C167.021 56.21 167.27 56.1572 167.542 56.1572C167.78 56.1572 167.992 56.1895 168.18 56.2539C168.367 56.3184 168.527 56.4209 168.659 56.5615C168.791 56.7021 168.89 56.8823 168.958 57.1021C169.028 57.3218 169.063 57.5898 169.063 57.9062V61H168.536V57.9019C168.536 57.5737 168.49 57.3174 168.399 57.1328C168.309 56.9453 168.18 56.812 168.013 56.7329C167.846 56.6538 167.648 56.6143 167.419 56.6143C167.167 56.6143 166.946 56.6699 166.756 56.7812C166.568 56.8896 166.41 57.0317 166.281 57.2075C166.155 57.3804 166.059 57.5664 165.991 57.7656C165.924 57.9619 165.887 58.1494 165.881 58.3281ZM172.06 57.9502V58.4028H169.955V57.9502H172.06ZM173.532 57.0317V61H173.009V56.2451H173.519L173.532 57.0317ZM175.215 56.21L175.202 56.6934C175.144 56.6846 175.086 56.6772 175.031 56.6714C174.975 56.6655 174.915 56.6626 174.851 56.6626C174.622 56.6626 174.421 56.7051 174.249 56.79C174.079 56.8721 173.935 56.9878 173.818 57.1372C173.701 57.2837 173.611 57.4565 173.55 57.6558C173.488 57.8521 173.453 58.063 173.444 58.2886L173.251 58.3633C173.251 58.0527 173.283 57.7642 173.348 57.4976C173.412 57.231 173.51 56.998 173.642 56.7988C173.777 56.5967 173.945 56.4399 174.147 56.3286C174.353 56.2144 174.593 56.1572 174.868 56.1572C174.936 56.1572 175.001 56.1631 175.066 56.1748C175.133 56.1836 175.183 56.1953 175.215 56.21ZM177.791 61.0879C177.48 61.0879 177.194 61.0308 176.934 60.9165C176.676 60.8022 176.45 60.6411 176.257 60.4331C176.066 60.2251 175.918 59.979 175.813 59.6948C175.71 59.4077 175.659 59.0942 175.659 58.7544V58.5654C175.659 58.1992 175.713 57.8682 175.822 57.5723C175.93 57.2764 176.08 57.0229 176.27 56.812C176.46 56.6011 176.677 56.4399 176.92 56.3286C177.167 56.2144 177.424 56.1572 177.694 56.1572C177.996 56.1572 178.264 56.2114 178.498 56.3198C178.732 56.4253 178.929 56.5762 179.087 56.7725C179.248 56.9658 179.37 57.1958 179.452 57.4624C179.534 57.7261 179.575 58.0176 179.575 58.3369V58.6577H175.976V58.2095H179.052V58.1479C179.046 57.8813 178.992 57.6323 178.889 57.4009C178.79 57.1665 178.64 56.9761 178.441 56.8296C178.242 56.6831 177.993 56.6099 177.694 56.6099C177.471 56.6099 177.266 56.6567 177.079 56.7505C176.894 56.8442 176.734 56.979 176.6 57.1548C176.468 57.3276 176.365 57.5342 176.292 57.7744C176.222 58.0117 176.187 58.2754 176.187 58.5654V58.7544C176.187 59.0181 176.225 59.2642 176.301 59.4927C176.38 59.7183 176.491 59.9175 176.635 60.0903C176.781 60.2632 176.954 60.3979 177.153 60.4946C177.353 60.5913 177.572 60.6396 177.812 60.6396C178.094 60.6396 178.343 60.5884 178.56 60.4858C178.776 60.3804 178.971 60.2148 179.144 59.9893L179.474 60.2441C179.371 60.3965 179.242 60.5371 179.087 60.666C178.935 60.7949 178.751 60.8975 178.538 60.9736C178.324 61.0498 178.075 61.0879 177.791 61.0879ZM183.503 60.1475V57.6953C183.503 57.4697 183.457 57.2749 183.363 57.1108C183.269 56.9468 183.131 56.8208 182.95 56.7329C182.768 56.645 182.544 56.6011 182.277 56.6011C182.031 56.6011 181.812 56.645 181.618 56.7329C181.428 56.8179 181.277 56.9336 181.166 57.0801C181.057 57.2236 181.003 57.3833 181.003 57.5591L180.476 57.5547C180.476 57.376 180.52 57.2031 180.607 57.0361C180.695 56.8691 180.82 56.7197 180.981 56.5879C181.142 56.4561 181.334 56.3521 181.557 56.2759C181.782 56.1968 182.03 56.1572 182.299 56.1572C182.639 56.1572 182.938 56.2144 183.196 56.3286C183.457 56.4429 183.66 56.6143 183.807 56.8428C183.953 57.0713 184.026 57.3584 184.026 57.7041V60.0024C184.026 60.1665 184.038 60.3364 184.062 60.5122C184.088 60.688 184.125 60.833 184.171 60.9473V61H183.613C183.578 60.8945 183.55 60.7627 183.53 60.6045C183.512 60.4434 183.503 60.291 183.503 60.1475ZM183.626 58.2314L183.635 58.6357H182.603C182.333 58.6357 182.091 58.6606 181.877 58.7104C181.667 58.7573 181.488 58.8276 181.341 58.9214C181.195 59.0122 181.082 59.1221 181.003 59.251C180.927 59.3799 180.889 59.5264 180.889 59.6904C180.889 59.8604 180.931 60.0156 181.016 60.1562C181.104 60.2969 181.227 60.4097 181.385 60.4946C181.546 60.5767 181.737 60.6177 181.957 60.6177C182.25 60.6177 182.507 60.5635 182.73 60.4551C182.956 60.3467 183.142 60.2046 183.288 60.0288C183.435 59.853 183.533 59.6611 183.583 59.4531L183.811 59.7563C183.773 59.9028 183.703 60.0537 183.6 60.209C183.5 60.3613 183.37 60.5049 183.209 60.6396C183.048 60.7715 182.857 60.8799 182.638 60.9648C182.421 61.0469 182.175 61.0879 181.899 61.0879C181.589 61.0879 181.318 61.0293 181.086 60.9121C180.858 60.7949 180.679 60.6353 180.55 60.4331C180.424 60.228 180.361 59.9966 180.361 59.7388C180.361 59.5044 180.411 59.2949 180.511 59.1104C180.61 58.9229 180.754 58.7646 180.941 58.6357C181.132 58.5039 181.36 58.4043 181.627 58.3369C181.896 58.2666 182.198 58.2314 182.532 58.2314H183.626ZM188.526 60.0771V54.25H189.054V61H188.562L188.526 60.0771ZM185.226 58.6709V58.5786C185.226 58.2095 185.269 57.877 185.354 57.5811C185.438 57.2822 185.56 57.0273 185.718 56.8164C185.879 56.6025 186.073 56.4399 186.298 56.3286C186.524 56.2144 186.779 56.1572 187.063 56.1572C187.341 56.1572 187.587 56.2026 187.801 56.2935C188.015 56.3843 188.198 56.5146 188.351 56.6846C188.506 56.8545 188.63 57.0566 188.724 57.291C188.821 57.5254 188.891 57.7861 188.935 58.0732V59.2466C188.9 59.5161 188.835 59.7637 188.742 59.9893C188.648 60.2119 188.523 60.4067 188.368 60.5737C188.213 60.7378 188.025 60.8652 187.806 60.9561C187.589 61.0439 187.338 61.0879 187.054 61.0879C186.773 61.0879 186.52 61.0293 186.294 60.9121C186.068 60.7949 185.876 60.6294 185.718 60.4155C185.56 60.1987 185.438 59.9424 185.354 59.6465C185.269 59.3506 185.226 59.0254 185.226 58.6709ZM185.753 58.5786V58.6709C185.753 58.9492 185.781 59.207 185.837 59.4443C185.893 59.6816 185.978 59.8882 186.092 60.064C186.206 60.2397 186.351 60.3774 186.527 60.4771C186.703 60.5767 186.911 60.6265 187.151 60.6265C187.453 60.6265 187.706 60.5693 187.911 60.4551C188.116 60.3379 188.28 60.1841 188.403 59.9937C188.526 59.8003 188.616 59.5894 188.671 59.3608V57.9941C188.636 57.8389 188.585 57.6807 188.518 57.5195C188.45 57.3584 188.358 57.2104 188.241 57.0757C188.126 56.938 187.98 56.8281 187.801 56.7461C187.625 56.6611 187.412 56.6187 187.16 56.6187C186.917 56.6187 186.707 56.6685 186.531 56.7681C186.355 56.8677 186.209 57.0068 186.092 57.1855C185.978 57.3613 185.893 57.5679 185.837 57.8052C185.781 58.0425 185.753 58.3003 185.753 58.5786ZM191.849 60.5254L193.33 56.2451H193.896L191.884 61.7646C191.843 61.873 191.79 61.9932 191.726 62.125C191.664 62.2568 191.582 62.3828 191.479 62.5029C191.38 62.626 191.254 62.7256 191.102 62.8018C190.952 62.8809 190.769 62.9204 190.552 62.9204C190.497 62.9204 190.425 62.9131 190.337 62.8984C190.252 62.8867 190.19 62.875 190.152 62.8633L190.148 62.4194C190.18 62.4282 190.227 62.4355 190.289 62.4414C190.35 62.4473 190.393 62.4502 190.416 62.4502C190.606 62.4502 190.766 62.418 190.895 62.3535C191.027 62.2891 191.137 62.1924 191.225 62.0635C191.312 61.9375 191.39 61.7793 191.458 61.5889L191.849 60.5254ZM190.464 56.2451L191.98 60.3276L192.121 60.877L191.739 61.0923L189.893 56.2451H190.464ZM200.739 60.5386V61H197.421V60.5386H200.739ZM197.579 54.6016V61H197.039V54.6016H197.579ZM205.485 60.5386V61H202.167V60.5386H205.485ZM202.325 54.6016V61H201.785V54.6016H202.325ZM206.698 54.6016H207.243L209.607 60.2354L211.976 54.6016H212.516L209.813 61H209.4L206.698 54.6016ZM206.531 54.6016H207.01L207.067 58.2051V61H206.531V54.6016ZM212.213 54.6016H212.692V61H212.151V58.2051L212.213 54.6016ZM219.284 60.1475V57.6953C219.284 57.4697 219.237 57.2749 219.143 57.1108C219.049 56.9468 218.912 56.8208 218.73 56.7329C218.548 56.645 218.324 56.6011 218.058 56.6011C217.812 56.6011 217.592 56.645 217.398 56.7329C217.208 56.8179 217.057 56.9336 216.946 57.0801C216.837 57.2236 216.783 57.3833 216.783 57.5591L216.256 57.5547C216.256 57.376 216.3 57.2031 216.388 57.0361C216.476 56.8691 216.6 56.7197 216.761 56.5879C216.922 56.4561 217.114 56.3521 217.337 56.2759C217.562 56.1968 217.81 56.1572 218.08 56.1572C218.419 56.1572 218.718 56.2144 218.976 56.3286C219.237 56.4429 219.44 56.6143 219.587 56.8428C219.733 57.0713 219.807 57.3584 219.807 57.7041V60.0024C219.807 60.1665 219.818 60.3364 219.842 60.5122C219.868 60.688 219.905 60.833 219.952 60.9473V61H219.394C219.358 60.8945 219.331 60.7627 219.31 60.6045C219.292 60.4434 219.284 60.291 219.284 60.1475ZM219.407 58.2314L219.416 58.6357H218.383C218.113 58.6357 217.872 58.6606 217.658 58.7104C217.447 58.7573 217.268 58.8276 217.122 58.9214C216.975 59.0122 216.862 59.1221 216.783 59.251C216.707 59.3799 216.669 59.5264 216.669 59.6904C216.669 59.8604 216.711 60.0156 216.796 60.1562C216.884 60.2969 217.007 60.4097 217.166 60.4946C217.327 60.5767 217.517 60.6177 217.737 60.6177C218.03 60.6177 218.288 60.5635 218.51 60.4551C218.736 60.3467 218.922 60.2046 219.068 60.0288C219.215 59.853 219.313 59.6611 219.363 59.4531L219.591 59.7563C219.553 59.9028 219.483 60.0537 219.38 60.209C219.281 60.3613 219.15 60.5049 218.989 60.6396C218.828 60.7715 218.638 60.8799 218.418 60.9648C218.201 61.0469 217.955 61.0879 217.68 61.0879C217.369 61.0879 217.098 61.0293 216.867 60.9121C216.638 60.7949 216.459 60.6353 216.331 60.4331C216.205 60.228 216.142 59.9966 216.142 59.7388C216.142 59.5044 216.191 59.2949 216.291 59.1104C216.391 58.9229 216.534 58.7646 216.722 58.6357C216.912 58.5039 217.141 58.4043 217.407 58.3369C217.677 58.2666 217.979 58.2314 218.312 58.2314H219.407ZM221.736 57.1592V62.8281H221.208V56.2451H221.701L221.736 57.1592ZM225.041 58.5786V58.6709C225.041 59.0254 225 59.3506 224.917 59.6465C224.835 59.9424 224.717 60.1987 224.562 60.4155C224.409 60.6294 224.22 60.7949 223.995 60.9121C223.769 61.0293 223.513 61.0879 223.226 61.0879C222.941 61.0879 222.688 61.0439 222.465 60.9561C222.243 60.8682 222.051 60.7437 221.89 60.5825C221.731 60.4185 221.604 60.228 221.507 60.0112C221.414 59.7915 221.348 59.5513 221.31 59.2905V58.0732C221.354 57.7861 221.425 57.5254 221.525 57.291C221.625 57.0566 221.752 56.8545 221.907 56.6846C222.065 56.5146 222.253 56.3843 222.47 56.2935C222.687 56.2026 222.934 56.1572 223.212 56.1572C223.502 56.1572 223.76 56.2144 223.986 56.3286C224.214 56.4399 224.406 56.6025 224.562 56.8164C224.72 57.0273 224.838 57.2822 224.917 57.5811C225 57.877 225.041 58.2095 225.041 58.5786ZM224.513 58.6709V58.5786C224.513 58.3003 224.484 58.0425 224.425 57.8052C224.37 57.5679 224.283 57.3613 224.166 57.1855C224.052 57.0068 223.905 56.8677 223.727 56.7681C223.551 56.6685 223.341 56.6187 223.098 56.6187C222.846 56.6187 222.631 56.6611 222.452 56.7461C222.276 56.8281 222.13 56.938 222.013 57.0757C221.896 57.2104 221.803 57.3584 221.736 57.5195C221.668 57.6807 221.619 57.8389 221.586 57.9941V59.396C221.642 59.6187 221.731 59.8252 221.854 60.0156C221.978 60.2031 222.142 60.354 222.347 60.4683C222.555 60.5796 222.808 60.6353 223.107 60.6353C223.347 60.6353 223.555 60.5854 223.731 60.4858C223.907 60.3862 224.052 60.2471 224.166 60.0684C224.283 59.8896 224.37 59.6816 224.425 59.4443C224.484 59.207 224.513 58.9492 224.513 58.6709ZM226.728 57.1592V62.8281H226.201V56.2451H226.693L226.728 57.1592ZM230.033 58.5786V58.6709C230.033 59.0254 229.992 59.3506 229.91 59.6465C229.828 59.9424 229.709 60.1987 229.554 60.4155C229.401 60.6294 229.212 60.7949 228.987 60.9121C228.761 61.0293 228.505 61.0879 228.218 61.0879C227.934 61.0879 227.68 61.0439 227.458 60.9561C227.235 60.8682 227.043 60.7437 226.882 60.5825C226.724 60.4185 226.596 60.228 226.5 60.0112C226.406 59.7915 226.34 59.5513 226.302 59.2905V58.0732C226.346 57.7861 226.417 57.5254 226.517 57.291C226.617 57.0566 226.744 56.8545 226.899 56.6846C227.058 56.5146 227.245 56.3843 227.462 56.2935C227.679 56.2026 227.926 56.1572 228.205 56.1572C228.495 56.1572 228.752 56.2144 228.978 56.3286C229.207 56.4399 229.398 56.6025 229.554 56.8164C229.712 57.0273 229.831 57.2822 229.91 57.5811C229.992 57.877 230.033 58.2095 230.033 58.5786ZM229.505 58.6709V58.5786C229.505 58.3003 229.476 58.0425 229.417 57.8052C229.362 57.5679 229.275 57.3613 229.158 57.1855C229.044 57.0068 228.897 56.8677 228.719 56.7681C228.543 56.6685 228.333 56.6187 228.09 56.6187C227.838 56.6187 227.623 56.6611 227.444 56.7461C227.269 56.8281 227.122 56.938 227.005 57.0757C226.888 57.2104 226.795 57.3584 226.728 57.5195C226.661 57.6807 226.611 57.8389 226.579 57.9941V59.396C226.634 59.6187 226.724 59.8252 226.847 60.0156C226.97 60.2031 227.134 60.354 227.339 60.4683C227.547 60.5796 227.8 60.6353 228.099 60.6353C228.339 60.6353 228.547 60.5854 228.723 60.4858C228.899 60.3862 229.044 60.2471 229.158 60.0684C229.275 59.8896 229.362 59.6816 229.417 59.4443C229.476 59.207 229.505 58.9492 229.505 58.6709ZM231.786 54.25V61H231.263V54.25H231.786ZM233.808 56.2451V61H233.285V56.2451H233.808ZM233.192 54.8696C233.192 54.77 233.223 54.6865 233.285 54.6191C233.349 54.5488 233.437 54.5137 233.548 54.5137C233.66 54.5137 233.748 54.5488 233.812 54.6191C233.879 54.6865 233.913 54.77 233.913 54.8696C233.913 54.9663 233.879 55.0498 233.812 55.1201C233.748 55.1875 233.66 55.2212 233.548 55.2212C233.437 55.2212 233.349 55.1875 233.285 55.1201C233.223 55.0498 233.192 54.9663 233.192 54.8696ZM236.998 60.6353C237.221 60.6353 237.429 60.5942 237.622 60.5122C237.818 60.4272 237.979 60.3027 238.105 60.1387C238.234 59.9717 238.308 59.7681 238.325 59.5278H238.826C238.812 59.8296 238.719 60.0991 238.549 60.3364C238.382 60.5708 238.163 60.7554 237.89 60.8901C237.621 61.022 237.323 61.0879 236.998 61.0879C236.667 61.0879 236.374 61.0278 236.119 60.9077C235.867 60.7876 235.656 60.6206 235.486 60.4067C235.316 60.1899 235.188 59.938 235.1 59.6509C235.015 59.3608 234.972 59.0488 234.972 58.7148V58.5303C234.972 58.1963 235.015 57.8857 235.1 57.5986C235.188 57.3086 235.316 57.0566 235.486 56.8428C235.656 56.626 235.867 56.4575 236.119 56.3374C236.371 56.2173 236.663 56.1572 236.994 56.1572C237.333 56.1572 237.638 56.2261 237.908 56.3638C238.18 56.5015 238.397 56.6963 238.558 56.9482C238.722 57.2002 238.812 57.499 238.826 57.8447H238.325C238.311 57.5898 238.243 57.3701 238.123 57.1855C238.003 57.001 237.845 56.8589 237.648 56.7593C237.452 56.6597 237.234 56.6099 236.994 56.6099C236.724 56.6099 236.494 56.6626 236.304 56.7681C236.113 56.8706 235.958 57.0127 235.838 57.1943C235.721 57.373 235.634 57.5781 235.579 57.8096C235.523 58.0381 235.495 58.2783 235.495 58.5303V58.7148C235.495 58.9697 235.521 59.2129 235.574 59.4443C235.63 59.6729 235.716 59.8765 235.833 60.0552C235.954 60.2339 236.109 60.376 236.299 60.4814C236.493 60.584 236.726 60.6353 236.998 60.6353ZM242.777 60.1475V57.6953C242.777 57.4697 242.73 57.2749 242.636 57.1108C242.542 56.9468 242.405 56.8208 242.223 56.7329C242.042 56.645 241.817 56.6011 241.551 56.6011C241.305 56.6011 241.085 56.645 240.892 56.7329C240.701 56.8179 240.55 56.9336 240.439 57.0801C240.331 57.2236 240.276 57.3833 240.276 57.5591L239.749 57.5547C239.749 57.376 239.793 57.2031 239.881 57.0361C239.969 56.8691 240.093 56.7197 240.254 56.5879C240.416 56.4561 240.607 56.3521 240.83 56.2759C241.056 56.1968 241.303 56.1572 241.573 56.1572C241.913 56.1572 242.211 56.2144 242.469 56.3286C242.73 56.4429 242.934 56.6143 243.08 56.8428C243.227 57.0713 243.3 57.3584 243.3 57.7041V60.0024C243.3 60.1665 243.312 60.3364 243.335 60.5122C243.361 60.688 243.398 60.833 243.445 60.9473V61H242.887C242.852 60.8945 242.824 60.7627 242.803 60.6045C242.786 60.4434 242.777 60.291 242.777 60.1475ZM242.9 58.2314L242.909 58.6357H241.876C241.606 58.6357 241.365 58.6606 241.151 58.7104C240.94 58.7573 240.761 58.8276 240.615 58.9214C240.468 59.0122 240.355 59.1221 240.276 59.251C240.2 59.3799 240.162 59.5264 240.162 59.6904C240.162 59.8604 240.205 60.0156 240.29 60.1562C240.377 60.2969 240.5 60.4097 240.659 60.4946C240.82 60.5767 241.01 60.6177 241.23 60.6177C241.523 60.6177 241.781 60.5635 242.003 60.4551C242.229 60.3467 242.415 60.2046 242.562 60.0288C242.708 59.853 242.806 59.6611 242.856 59.4531L243.084 59.7563C243.046 59.9028 242.976 60.0537 242.874 60.209C242.774 60.3613 242.644 60.5049 242.482 60.6396C242.321 60.7715 242.131 60.8799 241.911 60.9648C241.694 61.0469 241.448 61.0879 241.173 61.0879C240.862 61.0879 240.591 61.0293 240.36 60.9121C240.131 60.7949 239.953 60.6353 239.824 60.4331C239.698 60.228 239.635 59.9966 239.635 59.7388C239.635 59.5044 239.685 59.2949 239.784 59.1104C239.884 58.9229 240.027 58.7646 240.215 58.6357C240.405 58.5039 240.634 58.4043 240.9 58.3369C241.17 58.2666 241.472 58.2314 241.806 58.2314H242.9ZM246.508 56.2451V56.6758H244.126V56.2451H246.508ZM245 55.0234H245.523V59.8442C245.523 60.064 245.553 60.2295 245.611 60.3408C245.67 60.4521 245.746 60.5269 245.84 60.5649C245.934 60.603 246.035 60.6221 246.143 60.6221C246.222 60.6221 246.298 60.6177 246.372 60.6089C246.445 60.5972 246.511 60.5854 246.569 60.5737L246.591 61.0176C246.527 61.0381 246.443 61.0542 246.341 61.0659C246.238 61.0806 246.136 61.0879 246.033 61.0879C245.831 61.0879 245.652 61.0513 245.497 60.978C245.342 60.9019 245.22 60.7729 245.132 60.5913C245.044 60.4067 245 60.1562 245 59.8398V55.0234ZM248.195 56.2451V61H247.672V56.2451H248.195ZM247.58 54.8696C247.58 54.77 247.611 54.6865 247.672 54.6191C247.737 54.5488 247.825 54.5137 247.936 54.5137C248.047 54.5137 248.135 54.5488 248.2 54.6191C248.267 54.6865 248.301 54.77 248.301 54.8696C248.301 54.9663 248.267 55.0498 248.2 55.1201C248.135 55.1875 248.047 55.2212 247.936 55.2212C247.825 55.2212 247.737 55.1875 247.672 55.1201C247.611 55.0498 247.58 54.9663 247.58 54.8696ZM249.342 58.6973V58.5522C249.342 58.2065 249.392 57.8872 249.492 57.5942C249.591 57.3013 249.733 57.0479 249.918 56.834C250.105 56.6201 250.33 56.4546 250.59 56.3374C250.851 56.2173 251.141 56.1572 251.46 56.1572C251.783 56.1572 252.074 56.2173 252.335 56.3374C252.596 56.4546 252.82 56.6201 253.007 56.834C253.195 57.0479 253.338 57.3013 253.438 57.5942C253.538 57.8872 253.587 58.2065 253.587 58.5522V58.6973C253.587 59.043 253.538 59.3623 253.438 59.6553C253.338 59.9453 253.195 60.1973 253.007 60.4111C252.823 60.625 252.6 60.792 252.339 60.9121C252.079 61.0293 251.789 61.0879 251.469 61.0879C251.147 61.0879 250.855 61.0293 250.595 60.9121C250.334 60.792 250.11 60.625 249.922 60.4111C249.735 60.1973 249.591 59.9453 249.492 59.6553C249.392 59.3623 249.342 59.043 249.342 58.6973ZM249.865 58.5522V58.6973C249.865 58.958 249.9 59.2056 249.971 59.4399C250.041 59.6714 250.144 59.8779 250.278 60.0596C250.413 60.2383 250.58 60.3789 250.779 60.4814C250.979 60.584 251.208 60.6353 251.469 60.6353C251.727 60.6353 251.954 60.584 252.15 60.4814C252.35 60.3789 252.517 60.2383 252.651 60.0596C252.786 59.8779 252.887 59.6714 252.955 59.4399C253.025 59.2056 253.06 58.958 253.06 58.6973V58.5522C253.06 58.2944 253.025 58.0498 252.955 57.8184C252.887 57.5869 252.785 57.3804 252.647 57.1987C252.512 57.0171 252.345 56.8735 252.146 56.7681C251.947 56.6626 251.718 56.6099 251.46 56.6099C251.203 56.6099 250.974 56.6626 250.775 56.7681C250.579 56.8735 250.412 57.0171 250.274 57.1987C250.139 57.3804 250.037 57.5869 249.966 57.8184C249.899 58.0498 249.865 58.2944 249.865 58.5522ZM255.2 57.2603V61H254.677V56.2451H255.178L255.2 57.2603ZM255.082 58.3281L254.849 58.1963C254.866 57.915 254.923 57.6514 255.02 57.4053C255.117 57.1592 255.247 56.9424 255.411 56.7549C255.578 56.5674 255.773 56.4209 255.996 56.3154C256.221 56.21 256.47 56.1572 256.743 56.1572C256.98 56.1572 257.192 56.1895 257.38 56.2539C257.567 56.3184 257.727 56.4209 257.859 56.5615C257.991 56.7021 258.09 56.8823 258.158 57.1021C258.228 57.3218 258.263 57.5898 258.263 57.9062V61H257.736V57.9019C257.736 57.5737 257.69 57.3174 257.6 57.1328C257.509 56.9453 257.38 56.812 257.213 56.7329C257.046 56.6538 256.848 56.6143 256.62 56.6143C256.368 56.6143 256.146 56.6699 255.956 56.7812C255.769 56.8896 255.61 57.0317 255.481 57.2075C255.355 57.3804 255.259 57.5664 255.191 57.7656C255.124 57.9619 255.087 58.1494 255.082 58.3281ZM262.473 59.7871C262.473 59.6582 262.441 59.5308 262.376 59.4048C262.312 59.2788 262.188 59.1631 262.003 59.0576C261.821 58.9521 261.553 58.8628 261.199 58.7896C260.935 58.731 260.699 58.665 260.491 58.5918C260.286 58.5186 260.113 58.4307 259.973 58.3281C259.832 58.2256 259.725 58.1025 259.652 57.959C259.579 57.8154 259.542 57.6455 259.542 57.4492C259.542 57.2734 259.58 57.1079 259.656 56.9526C259.735 56.7944 259.847 56.6567 259.99 56.5396C260.137 56.4194 260.312 56.3257 260.518 56.2583C260.726 56.1909 260.958 56.1572 261.216 56.1572C261.583 56.1572 261.896 56.2202 262.157 56.3462C262.42 56.4692 262.621 56.6377 262.759 56.8516C262.899 57.0654 262.97 57.3071 262.97 57.5767H262.447C262.447 57.4126 262.398 57.2573 262.302 57.1108C262.208 56.9644 262.069 56.8442 261.884 56.7505C261.703 56.6567 261.48 56.6099 261.216 56.6099C260.944 56.6099 260.723 56.6509 260.553 56.7329C260.383 56.8149 260.258 56.9189 260.179 57.0449C260.103 57.1709 260.065 57.3013 260.065 57.436C260.065 57.5415 260.081 57.6382 260.113 57.7261C260.148 57.811 260.21 57.8901 260.298 57.9634C260.389 58.0366 260.518 58.1055 260.685 58.1699C260.852 58.2344 261.068 58.2974 261.335 58.3589C261.719 58.4438 262.032 58.5479 262.275 58.6709C262.521 58.791 262.703 58.9404 262.82 59.1191C262.938 59.2949 262.996 59.5088 262.996 59.7607C262.996 59.957 262.955 60.1372 262.873 60.3013C262.791 60.4624 262.672 60.6016 262.517 60.7188C262.365 60.8359 262.18 60.9268 261.963 60.9912C261.75 61.0557 261.509 61.0879 261.243 61.0879C260.841 61.0879 260.501 61.022 260.223 60.8901C259.948 60.7554 259.738 60.5796 259.595 60.3628C259.454 60.1431 259.384 59.9102 259.384 59.6641H259.907C259.924 59.9102 260.002 60.105 260.14 60.2485C260.277 60.3892 260.446 60.4888 260.645 60.5474C260.847 60.606 261.046 60.6353 261.243 60.6353C261.512 60.6353 261.738 60.5957 261.919 60.5166C262.101 60.4375 262.239 60.3335 262.333 60.2046C262.426 60.0757 262.473 59.9365 262.473 59.7871ZM264.139 60.6792C264.139 60.5767 264.171 60.4902 264.235 60.4199C264.303 60.3467 264.394 60.3101 264.508 60.3101C264.625 60.3101 264.717 60.3467 264.785 60.4199C264.852 60.4902 264.886 60.5767 264.886 60.6792C264.886 60.7788 264.852 60.8638 264.785 60.9341C264.717 61.0044 264.625 61.0396 264.508 61.0396C264.394 61.0396 264.303 61.0044 264.235 60.9341C264.171 60.8638 264.139 60.7788 264.139 60.6792Z" fill="white"/>
<path d="M46.9334 20.7333C47.1067 20.7333 47.2789 20.7389 47.45 20.75C47.2314 21.8866 47.3132 23.0605 47.6874 24.1558C48.0615 25.2511 48.715 26.2297 49.5834 26.995C49.4622 27.6683 49.4011 28.3589 49.4 29.0667C49.396 31.7129 50.2956 34.2813 51.95 36.3467C50.4133 36.9501 48.7457 37.1419 47.1122 36.9031C45.4786 36.6643 43.9357 36.0032 42.636 34.9852C41.3363 33.9672 40.3249 32.6275 39.7018 31.0987C39.0787 29.5698 38.8655 27.9048 39.0834 26.2683C39.6608 24.6485 40.7253 23.247 42.1307 22.2561C43.5361 21.2651 45.2137 20.7332 46.9334 20.7333ZM68.3467 24.05C68.9501 25.5867 69.1419 27.2543 68.9031 28.8879C68.6644 30.5214 68.0033 32.0644 66.9852 33.364C65.9672 34.6637 64.6275 35.6751 63.0987 36.2982C61.5699 36.9213 59.9048 37.1345 58.2684 36.9167C56.5651 36.3097 55.1055 35.1653 54.1098 33.656C53.1141 32.1468 52.6362 30.3546 52.7484 28.55C53.8849 28.7686 55.0589 28.6868 56.1542 28.3127C57.2494 27.9385 58.2281 27.285 58.9934 26.4167C59.6678 26.5378 60.3589 26.5989 61.0667 26.6C63.713 26.604 66.2813 25.7044 68.3467 24.05ZM54 18.6667C54.8841 18.6667 55.7319 19.0179 56.357 19.643C56.9822 20.2681 57.3334 21.1159 57.3334 22C57.3334 22.8841 56.9822 23.7319 56.357 24.357C55.7319 24.9821 54.8841 25.3333 54 25.3333C53.116 25.3333 52.2681 24.9821 51.643 24.357C51.0179 23.7319 50.6667 22.8841 50.6667 22C50.6667 21.1159 51.0179 20.2681 51.643 19.643C52.2681 19.0179 53.116 18.6667 54 18.6667ZM59.5167 7C60.8677 6.99985 62.2032 7.28837 63.4337 7.84624C64.6641 8.40412 65.7612 9.21847 66.6514 10.2348C67.5416 11.251 68.2044 12.4458 68.5953 13.739C68.9863 15.0323 69.0964 16.3941 68.9184 17.7333C68.3108 19.4362 67.1658 20.8953 65.6563 21.8904C64.1468 22.8856 62.3545 23.3627 60.55 23.25C60.7686 22.1134 60.6868 20.9395 60.3127 19.8442C59.9385 18.7489 59.285 17.7703 58.4167 17.005C58.5378 16.3317 58.5989 15.6411 58.6 14.9333C58.604 12.2871 57.7044 9.71872 56.05 7.65333C57.1546 7.22104 58.3305 6.99944 59.5167 7ZM48.4834 7C48.9067 7 49.3234 7.02722 49.7334 7.08167C51.4362 7.68926 52.8953 8.8342 53.8904 10.3437C54.8856 11.8533 55.3628 13.6455 55.25 15.45C54.1134 15.2314 52.9395 15.3132 51.8442 15.6873C50.7489 16.0615 49.7703 16.715 49.005 17.5833C48.3213 17.4607 47.628 17.3993 46.9334 17.4C44.2871 17.396 41.7187 18.2956 39.6534 19.95C39.0886 18.512 38.8837 16.9577 39.0565 15.4224C39.2294 13.8871 39.7747 12.4173 40.6451 11.1408C41.5155 9.86435 42.6845 8.81985 44.0506 8.09817C45.4167 7.3765 46.9384 6.99951 48.4834 7Z" fill="#939DFF"/>
</svg>
