<svg width="340" height="120" viewBox="0 0 340 120" fill="none" xmlns="http://www.w3.org/2000/svg">
<rect x="20" y="20" width="80" height="80" fill="#00074D"/>
<path d="M41.1595 56.6188C41.6216 56.6188 42.0808 56.6336 42.537 56.6632C41.9541 59.6938 42.1722 62.824 43.1698 65.7445C44.1673 68.6649 45.9097 71.2744 48.2247 73.315C47.9018 75.1103 47.7389 76.9517 47.7359 78.8389C47.7253 85.895 50.1238 92.7432 54.5346 98.2504C50.4376 99.8594 45.9915 100.371 41.6362 99.7341C37.2808 99.0974 33.1672 97.3346 29.702 94.6202C26.2369 91.9057 23.5403 88.3335 21.8791 84.257C20.2178 80.1805 19.6495 75.7409 20.2302 71.3774C21.7698 67.0583 24.6077 63.3213 28.3548 60.679C32.1019 58.0367 36.5746 56.6185 41.1595 56.6188ZM98.2505 65.4624C99.8594 69.5598 100.371 74.0064 99.7341 78.3621C99.0975 82.7179 97.3349 86.832 94.6207 90.2975C91.9065 93.763 88.3347 96.4598 84.2586 98.1212C80.1825 99.7826 75.7434 100.351 71.3802 99.7702C66.8392 98.1519 62.9477 95.1003 60.2929 91.0761C57.6381 87.0518 56.3641 82.2732 56.6631 77.4612C59.6934 78.0442 62.8233 77.826 65.7435 76.8284C68.6636 75.8307 71.2728 74.0881 73.3132 71.7729C75.1114 72.0958 76.954 72.2588 78.841 72.2617C85.8964 72.2724 92.7439 69.8736 98.2505 65.4624ZM60.0002 51.1082C62.3572 51.1082 64.6177 52.0446 66.2844 53.7114C67.9511 55.3783 68.8874 57.639 68.8874 59.9962C68.8874 62.3535 67.9511 64.6142 66.2844 66.281C64.6177 67.9479 62.3572 68.8843 60.0002 68.8843C57.6432 68.8843 55.3827 67.9479 53.7161 66.281C52.0494 64.6142 51.1131 62.3535 51.1131 59.9962C51.1131 57.639 52.0494 55.3783 53.7161 53.7114C55.3827 52.0446 57.6432 51.1082 60.0002 51.1082ZM74.7085 20C78.3105 19.9996 81.8711 20.7689 85.1517 22.2564C88.4323 23.744 91.3573 25.9154 93.7307 28.6252C96.1041 31.335 97.8711 34.5208 98.9135 37.969C99.9559 41.4173 100.249 45.0485 99.7747 48.6195C98.1548 53.1601 95.1022 57.0506 91.0776 59.704C87.0529 62.3575 82.2746 63.6299 77.4635 63.3292C78.0464 60.2987 77.8282 57.1684 76.8307 54.248C75.8332 51.3275 74.0907 48.718 71.7757 46.6775C72.0986 44.8821 72.2615 43.0408 72.2645 41.1536C72.2752 34.0975 69.8766 27.2492 65.4658 21.7421C68.4109 20.5894 71.5459 19.9985 74.7085 20ZM45.292 20C46.4206 20 47.5315 20.0726 48.6247 20.2178C53.1648 21.8379 57.0549 24.8907 59.7081 28.9158C62.3612 32.9408 63.6335 37.7196 63.3329 42.5312C60.3026 41.9483 57.1727 42.1664 54.2525 43.1641C51.3324 44.1617 48.7232 45.9043 46.6828 48.2196C44.8599 47.8925 43.0115 47.7289 41.1595 47.7307C34.1041 47.72 27.2565 50.1188 21.7499 54.5301C20.2441 50.6956 19.6979 46.5513 20.1587 42.4576C20.6195 38.3639 22.0735 34.4448 24.394 31.0412C26.7146 27.6375 29.8315 24.8525 33.4736 22.9282C37.1158 21.0039 41.1728 19.9987 45.292 20Z" fill="white"/>
<rect x="200" y="20" width="80" height="80" fill="#00074D"/>
<rect x="280" y="20" width="40" height="80" fill="#00074D"/>
<rect x="120" y="20" width="80" height="80" fill="#00074D"/>
<rect y="10" width="330" height="10" fill="#00074D"/>
<rect y="100" width="330" height="10" fill="#00074D"/>
<rect y="110" width="330" height="10" fill="#00074D"/>
<rect width="330" height="10" fill="#00074D"/>
<rect x="10" width="10" height="120" fill="#00074D"/>
<rect x="320" width="10" height="120" fill="#00074D"/>
<rect x="330" width="10" height="120" fill="#00074D"/>
<rect x="100" width="10" height="120" fill="#00074D"/>
<rect width="10" height="120" fill="#00074D"/>
<rect x="110" width="10" height="120" fill="#00074D"/>
<path d="M132.637 44.9707L137.963 25.4062H144.871L136.24 51H131.775L132.637 44.9707ZM127.803 25.4062L133.129 44.9707L134.025 51H129.508L120.93 25.4062H127.803ZM155.541 46.2188V38.3789C155.541 37.8398 155.465 37.377 155.312 36.9902C155.16 36.6035 154.92 36.3047 154.592 36.0938C154.264 35.8711 153.824 35.7598 153.273 35.7598C152.828 35.7598 152.447 35.8359 152.131 35.9883C151.814 36.1406 151.574 36.3691 151.41 36.6738C151.246 36.9785 151.164 37.3652 151.164 37.834H145.24C145.24 36.9551 145.434 36.1406 145.82 35.3906C146.219 34.6289 146.781 33.9668 147.508 33.4043C148.246 32.8418 149.125 32.4082 150.145 32.1035C151.176 31.7871 152.324 31.6289 153.59 31.6289C155.102 31.6289 156.449 31.8809 157.633 32.3848C158.828 32.8887 159.771 33.6445 160.463 34.6523C161.154 35.6484 161.5 36.9023 161.5 38.4141V46.2012C161.5 47.4434 161.57 48.3867 161.711 49.0312C161.852 49.6641 162.051 50.2207 162.309 50.7012V51H156.367C156.086 50.4141 155.875 49.6992 155.734 48.8555C155.605 48 155.541 47.1211 155.541 46.2188ZM156.262 39.3809L156.297 42.5449H153.678C153.127 42.5449 152.658 42.6211 152.271 42.7734C151.896 42.9258 151.592 43.1367 151.357 43.4062C151.135 43.6641 150.971 43.957 150.865 44.2852C150.771 44.6133 150.725 44.959 150.725 45.3223C150.725 45.6738 150.807 45.9902 150.971 46.2715C151.146 46.541 151.381 46.752 151.674 46.9043C151.967 47.0566 152.295 47.1328 152.658 47.1328C153.314 47.1328 153.871 47.0098 154.328 46.7637C154.797 46.5059 155.154 46.1953 155.4 45.832C155.646 45.4688 155.77 45.1289 155.77 44.8125L157.07 47.2383C156.836 47.707 156.566 48.1816 156.262 48.6621C155.969 49.1426 155.6 49.5879 155.154 49.998C154.721 50.3965 154.188 50.7246 153.555 50.9824C152.922 51.2285 152.154 51.3516 151.252 51.3516C150.08 51.3516 149.002 51.1113 148.018 50.6309C147.045 50.1504 146.266 49.4824 145.68 48.627C145.094 47.7598 144.801 46.7637 144.801 45.6387C144.801 44.6543 144.977 43.7754 145.328 43.002C145.691 42.2285 146.236 41.5723 146.963 41.0332C147.689 40.4941 148.615 40.084 149.74 39.8027C150.865 39.5215 152.189 39.3809 153.713 39.3809H156.262ZM170.605 36.041V51H164.682V31.9805H170.236L170.605 36.041ZM169.902 40.8398L168.514 40.875C168.514 39.4219 168.689 38.127 169.041 36.9902C169.393 35.8418 169.891 34.8691 170.535 34.0723C171.18 33.2754 171.947 32.6719 172.838 32.2617C173.74 31.8398 174.742 31.6289 175.844 31.6289C176.723 31.6289 177.525 31.7578 178.252 32.0156C178.99 32.2734 179.623 32.6895 180.15 33.2637C180.689 33.8379 181.1 34.5996 181.381 35.5488C181.674 36.4863 181.82 37.6465 181.82 39.0293V51H175.861V39.0117C175.861 38.25 175.756 37.6699 175.545 37.2715C175.334 36.8613 175.029 36.5801 174.631 36.4277C174.232 36.2754 173.746 36.1992 173.172 36.1992C172.562 36.1992 172.047 36.3164 171.625 36.5508C171.203 36.7852 170.863 37.1133 170.605 37.5352C170.359 37.9453 170.178 38.4316 170.061 38.9941C169.955 39.5566 169.902 40.1719 169.902 40.8398ZM191.365 31.9805V51H185.424V31.9805H191.365ZM185.072 27.0762C185.072 26.2324 185.377 25.541 185.986 25.002C186.596 24.4629 187.387 24.1934 188.359 24.1934C189.332 24.1934 190.123 24.4629 190.732 25.002C191.342 25.541 191.646 26.2324 191.646 27.0762C191.646 27.9199 191.342 28.6113 190.732 29.1504C190.123 29.6895 189.332 29.959 188.359 29.959C187.387 29.959 186.596 29.6895 185.986 29.1504C185.377 28.6113 185.072 27.9199 185.072 27.0762ZM201.279 24V51H195.338V24H201.279ZM211.193 24V51H205.252V24H211.193ZM224.729 46.2188V38.3789C224.729 37.8398 224.652 37.377 224.5 36.9902C224.348 36.6035 224.107 36.3047 223.779 36.0938C223.451 35.8711 223.012 35.7598 222.461 35.7598C222.016 35.7598 221.635 35.8359 221.318 35.9883C221.002 36.1406 220.762 36.3691 220.598 36.6738C220.434 36.9785 220.352 37.3652 220.352 37.834H214.428C214.428 36.9551 214.621 36.1406 215.008 35.3906C215.406 34.6289 215.969 33.9668 216.695 33.4043C217.434 32.8418 218.312 32.4082 219.332 32.1035C220.363 31.7871 221.512 31.6289 222.777 31.6289C224.289 31.6289 225.637 31.8809 226.82 32.3848C228.016 32.8887 228.959 33.6445 229.65 34.6523C230.342 35.6484 230.688 36.9023 230.688 38.4141V46.2012C230.688 47.4434 230.758 48.3867 230.898 49.0312C231.039 49.6641 231.238 50.2207 231.496 50.7012V51H225.555C225.273 50.4141 225.062 49.6992 224.922 48.8555C224.793 48 224.729 47.1211 224.729 46.2188ZM225.449 39.3809L225.484 42.5449H222.865C222.314 42.5449 221.846 42.6211 221.459 42.7734C221.084 42.9258 220.779 43.1367 220.545 43.4062C220.322 43.6641 220.158 43.957 220.053 44.2852C219.959 44.6133 219.912 44.959 219.912 45.3223C219.912 45.6738 219.994 45.9902 220.158 46.2715C220.334 46.541 220.568 46.752 220.861 46.9043C221.154 47.0566 221.482 47.1328 221.846 47.1328C222.502 47.1328 223.059 47.0098 223.516 46.7637C223.984 46.5059 224.342 46.1953 224.588 45.832C224.834 45.4688 224.957 45.1289 224.957 44.8125L226.258 47.2383C226.023 47.707 225.754 48.1816 225.449 48.6621C225.156 49.1426 224.787 49.5879 224.342 49.998C223.908 50.3965 223.375 50.7246 222.742 50.9824C222.109 51.2285 221.342 51.3516 220.439 51.3516C219.268 51.3516 218.189 51.1113 217.205 50.6309C216.232 50.1504 215.453 49.4824 214.867 48.627C214.281 47.7598 213.988 46.7637 213.988 45.6387C213.988 44.6543 214.164 43.7754 214.516 43.002C214.879 42.2285 215.424 41.5723 216.15 41.0332C216.877 40.4941 217.803 40.084 218.928 39.8027C220.053 39.5215 221.377 39.3809 222.9 39.3809H225.449ZM124.199 67.4062H132.514C134.283 67.4062 135.818 67.6934 137.119 68.2676C138.42 68.8418 139.422 69.6914 140.125 70.8164C140.84 71.9297 141.197 73.3008 141.197 74.9297C141.197 76.1367 140.939 77.2324 140.424 78.2168C139.92 79.2012 139.223 80.0273 138.332 80.6953C137.441 81.3516 136.41 81.8027 135.238 82.0488L134.482 82.3301H125.605L125.57 80.4844H133.006C134.342 80.4844 135.455 80.2266 136.346 79.7109C137.236 79.1953 137.904 78.5156 138.35 77.6719C138.807 76.8164 139.035 75.9023 139.035 74.9297C139.035 73.7695 138.783 72.7676 138.279 71.9238C137.787 71.0684 137.055 70.4121 136.082 69.9551C135.109 69.498 133.92 69.2695 132.514 69.2695H126.361V93H124.199V67.4062ZM140.002 93L133.375 81.5566L135.695 81.5391L142.305 92.7715V93H140.002ZM153.994 93.3516C152.752 93.3516 151.609 93.123 150.566 92.666C149.535 92.209 148.633 91.5645 147.859 90.7324C147.098 89.9004 146.506 88.916 146.084 87.7793C145.674 86.6309 145.469 85.377 145.469 84.0176V83.2617C145.469 81.7969 145.686 80.4727 146.119 79.2891C146.553 78.1055 147.15 77.0918 147.912 76.248C148.674 75.4043 149.541 74.7598 150.514 74.3145C151.498 73.8574 152.529 73.6289 153.607 73.6289C154.814 73.6289 155.887 73.8457 156.824 74.2793C157.762 74.7012 158.547 75.3047 159.18 76.0898C159.824 76.8633 160.311 77.7832 160.639 78.8496C160.967 79.9043 161.131 81.0703 161.131 82.3477V83.6309H146.734V81.8379H159.039V81.5918C159.016 80.5254 158.799 79.5293 158.389 78.6035C157.99 77.666 157.393 76.9043 156.596 76.3184C155.799 75.7324 154.803 75.4395 153.607 75.4395C152.717 75.4395 151.896 75.627 151.146 76.002C150.408 76.377 149.77 76.916 149.23 77.6191C148.703 78.3105 148.293 79.1367 148 80.0977C147.719 81.0469 147.578 82.1016 147.578 83.2617V84.0176C147.578 85.0723 147.73 86.0566 148.035 86.9707C148.352 87.873 148.797 88.6699 149.371 89.3613C149.957 90.0527 150.648 90.5918 151.445 90.9785C152.242 91.3652 153.121 91.5586 154.082 91.5586C155.207 91.5586 156.203 91.3535 157.07 90.9434C157.938 90.5215 158.717 89.8594 159.408 88.957L160.727 89.9766C160.316 90.5859 159.801 91.1484 159.18 91.6641C158.57 92.1797 157.838 92.5898 156.982 92.8945C156.127 93.1992 155.131 93.3516 153.994 93.3516ZM176.846 89.5898V79.7812C176.846 78.8789 176.658 78.0996 176.283 77.4434C175.908 76.7871 175.357 76.2832 174.631 75.9316C173.904 75.5801 173.008 75.4043 171.941 75.4043C170.957 75.4043 170.078 75.5801 169.305 75.9316C168.543 76.2715 167.939 76.7344 167.494 77.3203C167.061 77.8945 166.844 78.5332 166.844 79.2363L164.734 79.2188C164.734 78.5039 164.91 77.8125 165.262 77.1445C165.613 76.4766 166.111 75.8789 166.756 75.3516C167.4 74.8242 168.168 74.4082 169.059 74.1035C169.961 73.7871 170.951 73.6289 172.029 73.6289C173.389 73.6289 174.584 73.8574 175.615 74.3145C176.658 74.7715 177.473 75.457 178.059 76.3711C178.645 77.2852 178.938 78.4336 178.938 79.8164V89.0098C178.938 89.666 178.984 90.3457 179.078 91.0488C179.184 91.752 179.33 92.332 179.518 92.7891V93H177.285C177.145 92.5781 177.033 92.0508 176.951 91.418C176.881 90.7734 176.846 90.1641 176.846 89.5898ZM177.338 81.9258L177.373 83.543H173.242C172.164 83.543 171.197 83.6426 170.342 83.8418C169.498 84.0293 168.783 84.3105 168.197 84.6855C167.611 85.0488 167.16 85.4883 166.844 86.0039C166.539 86.5195 166.387 87.1055 166.387 87.7617C166.387 88.4414 166.557 89.0625 166.896 89.625C167.248 90.1875 167.74 90.6387 168.373 90.9785C169.018 91.3066 169.779 91.4707 170.658 91.4707C171.83 91.4707 172.861 91.2539 173.752 90.8203C174.654 90.3867 175.398 89.8184 175.984 89.1152C176.57 88.4121 176.963 87.6445 177.162 86.8125L178.076 88.0254C177.924 88.6113 177.643 89.2148 177.232 89.8359C176.834 90.4453 176.312 91.0195 175.668 91.5586C175.023 92.0859 174.262 92.5195 173.383 92.8594C172.516 93.1875 171.531 93.3516 170.43 93.3516C169.188 93.3516 168.104 93.1172 167.178 92.6484C166.264 92.1797 165.549 91.541 165.033 90.7324C164.529 89.9121 164.277 88.9863 164.277 87.9551C164.277 87.0176 164.477 86.1797 164.875 85.4414C165.273 84.6914 165.848 84.0586 166.598 83.543C167.359 83.0156 168.273 82.6172 169.34 82.3477C170.418 82.0664 171.625 81.9258 172.961 81.9258H177.338ZM196.938 89.3086V66H199.047V93H197.078L196.938 89.3086ZM183.736 83.6836V83.3145C183.736 81.8379 183.906 80.5078 184.246 79.3242C184.586 78.1289 185.072 77.1094 185.705 76.2656C186.35 75.4102 187.123 74.7598 188.025 74.3145C188.928 73.8574 189.947 73.6289 191.084 73.6289C192.197 73.6289 193.182 73.8105 194.037 74.1738C194.893 74.5371 195.625 75.0586 196.234 75.7383C196.855 76.418 197.354 77.2266 197.729 78.1641C198.115 79.1016 198.396 80.1445 198.572 81.293V85.9863C198.432 87.0645 198.174 88.0547 197.799 88.957C197.424 89.8477 196.926 90.627 196.305 91.2949C195.684 91.9512 194.934 92.4609 194.055 92.8242C193.188 93.1758 192.186 93.3516 191.049 93.3516C189.924 93.3516 188.91 93.1172 188.008 92.6484C187.105 92.1797 186.338 91.5176 185.705 90.6621C185.072 89.7949 184.586 88.7695 184.246 87.5859C183.906 86.4023 183.736 85.1016 183.736 83.6836ZM185.846 83.3145V83.6836C185.846 84.7969 185.957 85.8281 186.18 86.7773C186.402 87.7266 186.742 88.5527 187.199 89.2559C187.656 89.959 188.236 90.5098 188.939 90.9082C189.643 91.3066 190.475 91.5059 191.436 91.5059C192.643 91.5059 193.656 91.2773 194.477 90.8203C195.297 90.3516 195.953 89.7363 196.445 88.9746C196.938 88.2012 197.295 87.3574 197.518 86.4434V80.9766C197.377 80.3555 197.172 79.7227 196.902 79.0781C196.633 78.4336 196.264 77.8418 195.795 77.3027C195.338 76.752 194.752 76.3125 194.037 75.9844C193.334 75.6445 192.479 75.4746 191.471 75.4746C190.498 75.4746 189.66 75.6738 188.957 76.0723C188.254 76.4707 187.668 77.0273 187.199 77.7422C186.742 78.4453 186.402 79.2715 186.18 80.2207C185.957 81.1699 185.846 82.2012 185.846 83.3145ZM211.932 93.3516C210.689 93.3516 209.547 93.123 208.504 92.666C207.473 92.209 206.57 91.5645 205.797 90.7324C205.035 89.9004 204.443 88.916 204.021 87.7793C203.611 86.6309 203.406 85.377 203.406 84.0176V83.2617C203.406 81.7969 203.623 80.4727 204.057 79.2891C204.49 78.1055 205.088 77.0918 205.85 76.248C206.611 75.4043 207.479 74.7598 208.451 74.3145C209.436 73.8574 210.467 73.6289 211.545 73.6289C212.752 73.6289 213.824 73.8457 214.762 74.2793C215.699 74.7012 216.484 75.3047 217.117 76.0898C217.762 76.8633 218.248 77.7832 218.576 78.8496C218.904 79.9043 219.068 81.0703 219.068 82.3477V83.6309H204.672V81.8379H216.977V81.5918C216.953 80.5254 216.736 79.5293 216.326 78.6035C215.928 77.666 215.33 76.9043 214.533 76.3184C213.736 75.7324 212.74 75.4395 211.545 75.4395C210.654 75.4395 209.834 75.627 209.084 76.002C208.346 76.377 207.707 76.916 207.168 77.6191C206.641 78.3105 206.23 79.1367 205.938 80.0977C205.656 81.0469 205.516 82.1016 205.516 83.2617V84.0176C205.516 85.0723 205.668 86.0566 205.973 86.9707C206.289 87.873 206.734 88.6699 207.309 89.3613C207.895 90.0527 208.586 90.5918 209.383 90.9785C210.18 91.3652 211.059 91.5586 212.02 91.5586C213.145 91.5586 214.141 91.3535 215.008 90.9434C215.875 90.5215 216.654 89.8594 217.346 88.957L218.664 89.9766C218.254 90.5859 217.738 91.1484 217.117 91.6641C216.508 92.1797 215.775 92.5898 214.92 92.8945C214.064 93.1992 213.068 93.3516 211.932 93.3516ZM225.309 77.127V93H223.217V73.9805H225.256L225.309 77.127ZM232.041 73.8398L231.988 75.7734C231.754 75.7383 231.525 75.709 231.303 75.6855C231.08 75.6621 230.84 75.6504 230.582 75.6504C229.668 75.6504 228.865 75.8203 228.174 76.1602C227.494 76.4883 226.92 76.9512 226.451 77.5488C225.982 78.1348 225.625 78.8262 225.379 79.623C225.133 80.4082 224.992 81.252 224.957 82.1543L224.184 82.4531C224.184 81.2109 224.312 80.0566 224.57 78.9902C224.828 77.9238 225.221 76.9922 225.748 76.1953C226.287 75.3867 226.961 74.7598 227.77 74.3145C228.59 73.8574 229.551 73.6289 230.652 73.6289C230.922 73.6289 231.186 73.6523 231.443 73.6992C231.713 73.7344 231.912 73.7812 232.041 73.8398Z" fill="white"/>
</svg>
