<svg width="313" height="54" viewBox="0 0 313 54" fill="none" xmlns="http://www.w3.org/2000/svg">
<path d="M188.948 48.9238H187.146L187.137 48.4668H188.688C189.005 48.4668 189.274 48.4214 189.497 48.3306C189.72 48.2397 189.888 48.105 190.002 47.9263C190.12 47.7446 190.178 47.522 190.178 47.2583C190.178 46.9888 190.121 46.7661 190.007 46.5903C189.893 46.4116 189.721 46.2798 189.493 46.1948C189.264 46.1099 188.977 46.0674 188.631 46.0674H187.287V52H186.746V45.6016H188.631C188.957 45.6016 189.248 45.6338 189.506 45.6982C189.764 45.7627 189.983 45.8638 190.165 46.0015C190.347 46.1392 190.484 46.3135 190.578 46.5244C190.675 46.7324 190.723 46.9814 190.723 47.2715C190.723 47.5352 190.665 47.7739 190.547 47.9878C190.43 48.1987 190.265 48.3716 190.051 48.5063C189.84 48.6382 189.586 48.7202 189.291 48.7524L188.948 48.9238ZM188.908 52H186.975L187.251 51.5386H188.908C189.225 51.5386 189.494 51.4858 189.717 51.3804C189.942 51.272 190.115 51.1182 190.235 50.9189C190.355 50.7197 190.416 50.4824 190.416 50.207C190.416 49.9639 190.363 49.7456 190.257 49.5522C190.152 49.3589 189.991 49.2065 189.774 49.0952C189.557 48.981 189.282 48.9238 188.948 48.9238H187.827L187.836 48.4668H189.422L189.519 48.6294C189.806 48.6587 190.057 48.748 190.271 48.8975C190.487 49.0439 190.654 49.23 190.771 49.4556C190.892 49.6812 190.952 49.9287 190.952 50.1982C190.952 50.585 190.865 50.9131 190.692 51.1826C190.522 51.4492 190.284 51.6528 189.976 51.7935C189.671 51.9312 189.315 52 188.908 52ZM193.553 51.5254L195.034 47.2451H195.601L193.588 52.7646C193.547 52.873 193.495 52.9932 193.43 53.125C193.369 53.2568 193.287 53.3828 193.184 53.5029C193.084 53.626 192.958 53.7256 192.806 53.8018C192.657 53.8809 192.474 53.9204 192.257 53.9204C192.201 53.9204 192.129 53.9131 192.042 53.8984C191.957 53.8867 191.895 53.875 191.857 53.8633L191.853 53.4194C191.885 53.4282 191.932 53.4355 191.993 53.4414C192.055 53.4473 192.097 53.4502 192.121 53.4502C192.311 53.4502 192.471 53.418 192.6 53.3535C192.731 53.2891 192.841 53.1924 192.929 53.0635C193.017 52.9375 193.095 52.7793 193.162 52.5889L193.553 51.5254ZM192.169 47.2451L193.685 51.3276L193.826 51.877L193.443 52.0923L191.598 47.2451H192.169ZM201.833 50.3257C201.833 50.2114 201.815 50.1089 201.78 50.0181C201.748 49.9243 201.686 49.8394 201.595 49.7632C201.504 49.6841 201.377 49.6064 201.213 49.5303C201.049 49.4541 200.836 49.375 200.576 49.293C200.286 49.1992 200.01 49.0938 199.75 48.9766C199.492 48.8594 199.263 48.7231 199.064 48.5679C198.868 48.4097 198.712 48.2266 198.598 48.0186C198.487 47.8105 198.431 47.5688 198.431 47.2935C198.431 47.0269 198.49 46.7852 198.607 46.5684C198.724 46.3486 198.888 46.1611 199.099 46.0059C199.31 45.8477 199.559 45.7261 199.846 45.6411C200.136 45.5562 200.454 45.5137 200.8 45.5137C201.271 45.5137 201.683 45.5986 202.035 45.7686C202.386 45.9385 202.659 46.1714 202.852 46.4673C203.048 46.7632 203.146 47.1016 203.146 47.4824H201.837C201.837 47.2949 201.797 47.1309 201.718 46.9902C201.642 46.8467 201.525 46.7339 201.367 46.6519C201.211 46.5698 201.015 46.5288 200.778 46.5288C200.549 46.5288 200.359 46.564 200.207 46.6343C200.054 46.7017 199.94 46.7939 199.864 46.9111C199.788 47.0254 199.75 47.1543 199.75 47.2979C199.75 47.4062 199.776 47.5044 199.829 47.5923C199.884 47.6802 199.966 47.7622 200.075 47.8384C200.183 47.9146 200.316 47.9863 200.475 48.0537C200.633 48.1211 200.816 48.187 201.024 48.2515C201.373 48.3569 201.679 48.4756 201.942 48.6074C202.209 48.7393 202.432 48.8872 202.61 49.0513C202.789 49.2153 202.924 49.4014 203.015 49.6094C203.105 49.8174 203.151 50.0532 203.151 50.3169C203.151 50.5952 203.097 50.8442 202.988 51.064C202.88 51.2837 202.723 51.4697 202.518 51.6221C202.313 51.7744 202.068 51.8901 201.784 51.9692C201.5 52.0483 201.182 52.0879 200.831 52.0879C200.514 52.0879 200.202 52.0469 199.895 51.9648C199.587 51.8799 199.307 51.7524 199.055 51.5825C198.806 51.4126 198.607 51.1958 198.458 50.9321C198.308 50.6685 198.233 50.3564 198.233 49.9961H199.556C199.556 50.1953 199.587 50.3638 199.648 50.5015C199.71 50.6392 199.796 50.7505 199.908 50.8354C200.022 50.9204 200.157 50.9819 200.312 51.02C200.47 51.0581 200.643 51.0771 200.831 51.0771C201.059 51.0771 201.247 51.0449 201.393 50.9805C201.542 50.916 201.652 50.8267 201.723 50.7124C201.796 50.5981 201.833 50.4692 201.833 50.3257ZM205.234 48.1592V53.8281H203.968V47.2451H205.142L205.234 48.1592ZM208.244 49.5698V49.6621C208.244 50.0078 208.203 50.3286 208.121 50.6245C208.042 50.9204 207.925 51.1782 207.77 51.3979C207.614 51.6147 207.421 51.7847 207.189 51.9077C206.961 52.0278 206.697 52.0879 206.398 52.0879C206.108 52.0879 205.856 52.0293 205.643 51.9121C205.429 51.7949 205.249 51.6309 205.102 51.4199C204.958 51.2061 204.843 50.9585 204.755 50.6772C204.667 50.396 204.6 50.0942 204.553 49.772V49.5303C204.6 49.1846 204.667 48.8682 204.755 48.5811C204.843 48.291 204.958 48.0405 205.102 47.8296C205.249 47.6157 205.427 47.4502 205.638 47.333C205.852 47.2158 206.103 47.1572 206.39 47.1572C206.691 47.1572 206.957 47.2144 207.185 47.3286C207.417 47.4429 207.61 47.6069 207.765 47.8208C207.923 48.0347 208.042 48.2896 208.121 48.5854C208.203 48.8813 208.244 49.2095 208.244 49.5698ZM206.974 49.6621V49.5698C206.974 49.3677 206.957 49.1816 206.921 49.0117C206.889 48.8389 206.836 48.688 206.763 48.5591C206.693 48.4302 206.599 48.3306 206.482 48.2603C206.368 48.187 206.229 48.1504 206.064 48.1504C205.892 48.1504 205.744 48.1782 205.621 48.2339C205.5 48.2896 205.402 48.3701 205.326 48.4756C205.25 48.5811 205.193 48.707 205.155 48.8535C205.117 49 205.093 49.1655 205.084 49.3501V49.9609C205.099 50.1777 205.14 50.3726 205.208 50.5454C205.275 50.7153 205.379 50.8501 205.52 50.9497C205.66 51.0493 205.845 51.0991 206.073 51.0991C206.24 51.0991 206.381 51.0625 206.495 50.9893C206.609 50.9131 206.702 50.8091 206.772 50.6772C206.845 50.5454 206.896 50.3931 206.926 50.2202C206.958 50.0474 206.974 49.8613 206.974 49.6621ZM210.367 45.25V52H209.097V45.25H210.367ZM212.749 47.2451V52H211.479V47.2451H212.749ZM211.399 46.0059C211.399 45.8213 211.464 45.6689 211.593 45.5488C211.722 45.4287 211.895 45.3687 212.111 45.3687C212.325 45.3687 212.497 45.4287 212.625 45.5488C212.757 45.6689 212.823 45.8213 212.823 46.0059C212.823 46.1904 212.757 46.3428 212.625 46.4629C212.497 46.583 212.325 46.6431 212.111 46.6431C211.895 46.6431 211.722 46.583 211.593 46.4629C211.464 46.3428 211.399 46.1904 211.399 46.0059ZM216.124 47.2451V48.1416H213.355V47.2451H216.124ZM214.041 46.0718H215.306V50.5674C215.306 50.7051 215.324 50.8105 215.359 50.8838C215.397 50.957 215.453 51.0083 215.526 51.0376C215.599 51.064 215.691 51.0771 215.803 51.0771C215.882 51.0771 215.952 51.0742 216.014 51.0684C216.078 51.0596 216.132 51.0508 216.176 51.042L216.181 51.9736C216.072 52.0088 215.955 52.0366 215.829 52.0571C215.703 52.0776 215.564 52.0879 215.412 52.0879C215.133 52.0879 214.89 52.0425 214.682 51.9517C214.477 51.8579 214.319 51.7085 214.208 51.5034C214.096 51.2983 214.041 51.0288 214.041 50.6948V46.0718ZM219.173 47.2451V48.1416H216.405V47.2451H219.173ZM217.09 46.0718H218.356V50.5674C218.356 50.7051 218.374 50.8105 218.409 50.8838C218.447 50.957 218.502 51.0083 218.576 51.0376C218.649 51.064 218.741 51.0771 218.853 51.0771C218.932 51.0771 219.002 51.0742 219.063 51.0684C219.128 51.0596 219.182 51.0508 219.226 51.042L219.23 51.9736C219.122 52.0088 219.005 52.0366 218.879 52.0571C218.753 52.0776 218.614 52.0879 218.461 52.0879C218.183 52.0879 217.94 52.0425 217.732 51.9517C217.527 51.8579 217.369 51.7085 217.257 51.5034C217.146 51.2983 217.09 51.0288 217.09 50.6948V46.0718ZM222.083 52.0879C221.713 52.0879 221.382 52.0293 221.089 51.9121C220.796 51.792 220.547 51.6265 220.342 51.4155C220.14 51.2046 219.985 50.96 219.876 50.6816C219.768 50.4004 219.714 50.1016 219.714 49.7852V49.6094C219.714 49.249 219.765 48.9194 219.868 48.6206C219.97 48.3218 220.117 48.0625 220.307 47.8428C220.5 47.623 220.735 47.4546 221.01 47.3374C221.286 47.2173 221.596 47.1572 221.942 47.1572C222.279 47.1572 222.578 47.2129 222.838 47.3242C223.099 47.4355 223.317 47.5938 223.493 47.7988C223.672 48.0039 223.807 48.25 223.897 48.5371C223.988 48.8213 224.034 49.1377 224.034 49.4863V50.0137H220.254V49.1699H222.79V49.0732C222.79 48.8975 222.758 48.7407 222.693 48.603C222.632 48.4624 222.538 48.3511 222.412 48.269C222.286 48.187 222.125 48.146 221.929 48.146C221.762 48.146 221.618 48.1826 221.498 48.2559C221.378 48.3291 221.28 48.4316 221.204 48.5635C221.13 48.6953 221.075 48.8506 221.037 49.0293C221.001 49.2051 220.984 49.3984 220.984 49.6094V49.7852C220.984 49.9756 221.01 50.1514 221.063 50.3125C221.119 50.4736 221.196 50.6128 221.296 50.73C221.398 50.8472 221.521 50.938 221.665 51.0024C221.812 51.0669 221.977 51.0991 222.162 51.0991C222.39 51.0991 222.603 51.0552 222.799 50.9673C222.998 50.8765 223.169 50.7402 223.313 50.5586L223.928 51.2266C223.829 51.3701 223.692 51.5078 223.52 51.6396C223.35 51.7715 223.145 51.8799 222.904 51.9648C222.664 52.0469 222.39 52.0879 222.083 52.0879ZM226.02 48.2822V52H224.754V47.2451H225.945L226.02 48.2822ZM227.453 47.2144L227.431 48.3877C227.369 48.3789 227.294 48.3716 227.207 48.3657C227.122 48.3569 227.044 48.3525 226.974 48.3525C226.795 48.3525 226.64 48.376 226.508 48.4229C226.379 48.4668 226.271 48.5327 226.183 48.6206C226.098 48.7085 226.033 48.8154 225.989 48.9414C225.948 49.0674 225.925 49.2109 225.919 49.3721L225.664 49.293C225.664 48.9854 225.695 48.7026 225.756 48.4448C225.818 48.1841 225.907 47.957 226.024 47.7637C226.145 47.5703 226.291 47.4209 226.464 47.3154C226.637 47.21 226.834 47.1572 227.057 47.1572C227.127 47.1572 227.199 47.1631 227.272 47.1748C227.346 47.1836 227.406 47.1968 227.453 47.2144ZM228.538 45.6016H229.083L231.447 51.2354L233.816 45.6016H234.356L231.654 52H231.241L228.538 45.6016ZM228.371 45.6016H228.85L228.907 49.2051V52H228.371V45.6016ZM234.053 45.6016H234.532V52H233.992V49.2051L234.053 45.6016ZM236.145 45.6016H238.224C238.666 45.6016 239.05 45.6733 239.375 45.8169C239.7 45.9604 239.951 46.1729 240.126 46.4541C240.305 46.7324 240.395 47.0752 240.395 47.4824C240.395 47.7842 240.33 48.0581 240.201 48.3042C240.075 48.5503 239.901 48.7568 239.678 48.9238C239.456 49.0879 239.198 49.2007 238.905 49.2622L238.716 49.3325H236.497L236.488 48.8711H238.347C238.681 48.8711 238.959 48.8066 239.182 48.6777C239.404 48.5488 239.571 48.3789 239.683 48.168C239.797 47.9541 239.854 47.7256 239.854 47.4824C239.854 47.1924 239.791 46.9419 239.665 46.731C239.542 46.5171 239.359 46.353 239.116 46.2388C238.873 46.1245 238.575 46.0674 238.224 46.0674H236.686V52H236.145V45.6016ZM240.096 52L238.439 49.1392L239.019 49.1348L240.671 51.9429V52H240.096Z" fill="black"/>
<path d="M26.5532 21.2424L16.5532 15.4689V27.0159L26.5532 21.2424ZM0 21.2424L0 22.2424L17.5532 22.2424V21.2424V20.2424L0 20.2424L0 21.2424Z" fill="#7588FF"/>
<path d="M105 2.42381L97.1133 0.310562L95 8.19731L102.887 10.3106L105 2.42381ZM77.0043 18.5872L77.5043 19.4532L100.5 6.17659L100 5.31056L99.5 4.44454L76.5043 17.7211L77.0043 18.5872Z" fill="#7588FF"/>
<path d="M105 40.0613L102.887 32.1745L95 34.2878L97.1133 42.1745L105 40.0613ZM77.0043 23.8979L76.5043 24.764L99.5 38.0406L100 37.1745L100.5 36.3085L77.5043 23.0319L77.0043 23.8979Z" fill="#7588FF"/>
<path d="M124.344 26.6406L129.078 9.25H135.219L127.547 32H123.578L124.344 26.6406ZM120.047 9.25L124.781 26.6406L125.578 32H121.562L113.938 9.25H120.047ZM144.703 27.75V20.7812C144.703 20.3021 144.635 19.8906 144.5 19.5469C144.365 19.2031 144.151 18.9375 143.859 18.75C143.568 18.5521 143.177 18.4531 142.688 18.4531C142.292 18.4531 141.953 18.5208 141.672 18.6562C141.391 18.7917 141.177 18.9948 141.031 19.2656C140.885 19.5365 140.812 19.8802 140.812 20.2969H135.547C135.547 19.5156 135.719 18.7917 136.062 18.125C136.417 17.4479 136.917 16.8594 137.562 16.3594C138.219 15.8594 139 15.474 139.906 15.2031C140.823 14.9219 141.844 14.7812 142.969 14.7812C144.312 14.7812 145.51 15.0052 146.562 15.4531C147.625 15.901 148.464 16.5729 149.078 17.4688C149.693 18.3542 150 19.4688 150 20.8125V27.7344C150 28.8385 150.062 29.6771 150.188 30.25C150.312 30.8125 150.49 31.3073 150.719 31.7344V32H145.438C145.188 31.4792 145 30.8438 144.875 30.0938C144.76 29.3333 144.703 28.5521 144.703 27.75ZM145.344 21.6719L145.375 24.4844H143.047C142.557 24.4844 142.141 24.5521 141.797 24.6875C141.464 24.8229 141.193 25.0104 140.984 25.25C140.786 25.4792 140.641 25.7396 140.547 26.0312C140.464 26.3229 140.422 26.6302 140.422 26.9531C140.422 27.2656 140.495 27.5469 140.641 27.7969C140.797 28.0365 141.005 28.224 141.266 28.3594C141.526 28.4948 141.818 28.5625 142.141 28.5625C142.724 28.5625 143.219 28.4531 143.625 28.2344C144.042 28.0052 144.359 27.7292 144.578 27.4062C144.797 27.0833 144.906 26.7812 144.906 26.5L146.062 28.6562C145.854 29.0729 145.615 29.4948 145.344 29.9219C145.083 30.349 144.755 30.7448 144.359 31.1094C143.974 31.4635 143.5 31.7552 142.938 31.9844C142.375 32.2031 141.693 32.3125 140.891 32.3125C139.849 32.3125 138.891 32.099 138.016 31.6719C137.151 31.2448 136.458 30.651 135.938 29.8906C135.417 29.1198 135.156 28.2344 135.156 27.2344C135.156 26.3594 135.312 25.5781 135.625 24.8906C135.948 24.2031 136.432 23.6198 137.078 23.1406C137.724 22.6615 138.547 22.2969 139.547 22.0469C140.547 21.7969 141.724 21.6719 143.078 21.6719H145.344ZM158.094 18.7031V32H152.828V15.0938H157.766L158.094 18.7031ZM157.469 22.9688L156.234 23C156.234 21.7083 156.391 20.5573 156.703 19.5469C157.016 18.526 157.458 17.6615 158.031 16.9531C158.604 16.2448 159.286 15.7083 160.078 15.3438C160.88 14.9688 161.771 14.7812 162.75 14.7812C163.531 14.7812 164.245 14.8958 164.891 15.125C165.547 15.3542 166.109 15.724 166.578 16.2344C167.057 16.7448 167.422 17.4219 167.672 18.2656C167.932 19.099 168.062 20.1302 168.062 21.3594V32H162.766V21.3438C162.766 20.6667 162.672 20.151 162.484 19.7969C162.297 19.4323 162.026 19.1823 161.672 19.0469C161.318 18.9115 160.885 18.8438 160.375 18.8438C159.833 18.8438 159.375 18.9479 159 19.1562C158.625 19.3646 158.323 19.6562 158.094 20.0312C157.875 20.3958 157.714 20.8281 157.609 21.3281C157.516 21.8281 157.469 22.375 157.469 22.9688ZM176.547 15.0938V32H171.266V15.0938H176.547ZM170.953 10.7344C170.953 9.98438 171.224 9.36979 171.766 8.89062C172.307 8.41146 173.01 8.17188 173.875 8.17188C174.74 8.17188 175.443 8.41146 175.984 8.89062C176.526 9.36979 176.797 9.98438 176.797 10.7344C176.797 11.4844 176.526 12.099 175.984 12.5781C175.443 13.0573 174.74 13.2969 173.875 13.2969C173.01 13.2969 172.307 13.0573 171.766 12.5781C171.224 12.099 170.953 11.4844 170.953 10.7344ZM185.359 8V32H180.078V8H185.359ZM194.172 8V32H188.891V8H194.172ZM206.203 27.75V20.7812C206.203 20.3021 206.135 19.8906 206 19.5469C205.865 19.2031 205.651 18.9375 205.359 18.75C205.068 18.5521 204.677 18.4531 204.188 18.4531C203.792 18.4531 203.453 18.5208 203.172 18.6562C202.891 18.7917 202.677 18.9948 202.531 19.2656C202.385 19.5365 202.312 19.8802 202.312 20.2969H197.047C197.047 19.5156 197.219 18.7917 197.562 18.125C197.917 17.4479 198.417 16.8594 199.062 16.3594C199.719 15.8594 200.5 15.474 201.406 15.2031C202.323 14.9219 203.344 14.7812 204.469 14.7812C205.812 14.7812 207.01 15.0052 208.062 15.4531C209.125 15.901 209.964 16.5729 210.578 17.4688C211.193 18.3542 211.5 19.4688 211.5 20.8125V27.7344C211.5 28.8385 211.562 29.6771 211.688 30.25C211.812 30.8125 211.99 31.3073 212.219 31.7344V32H206.938C206.688 31.4792 206.5 30.8438 206.375 30.0938C206.26 29.3333 206.203 28.5521 206.203 27.75ZM206.844 21.6719L206.875 24.4844H204.547C204.057 24.4844 203.641 24.5521 203.297 24.6875C202.964 24.8229 202.693 25.0104 202.484 25.25C202.286 25.4792 202.141 25.7396 202.047 26.0312C201.964 26.3229 201.922 26.6302 201.922 26.9531C201.922 27.2656 201.995 27.5469 202.141 27.7969C202.297 28.0365 202.505 28.224 202.766 28.3594C203.026 28.4948 203.318 28.5625 203.641 28.5625C204.224 28.5625 204.719 28.4531 205.125 28.2344C205.542 28.0052 205.859 27.7292 206.078 27.4062C206.297 27.0833 206.406 26.7812 206.406 26.5L207.562 28.6562C207.354 29.0729 207.115 29.4948 206.844 29.9219C206.583 30.349 206.255 30.7448 205.859 31.1094C205.474 31.4635 205 31.7552 204.438 31.9844C203.875 32.2031 203.193 32.3125 202.391 32.3125C201.349 32.3125 200.391 32.099 199.516 31.6719C198.651 31.2448 197.958 30.651 197.438 29.8906C196.917 29.1198 196.656 28.2344 196.656 27.2344C196.656 26.3594 196.812 25.5781 197.125 24.8906C197.448 24.2031 197.932 23.6198 198.578 23.1406C199.224 22.6615 200.047 22.2969 201.047 22.0469C202.047 21.7969 203.224 21.6719 204.578 21.6719H206.844ZM215.578 9.25H223.109C224.818 9.25 226.26 9.51042 227.438 10.0312C228.625 10.5521 229.526 11.3229 230.141 12.3438C230.766 13.3542 231.078 14.599 231.078 16.0781C231.078 17.1198 230.865 18.0729 230.438 18.9375C230.021 19.7917 229.417 20.5208 228.625 21.125C227.844 21.7188 226.906 22.1615 225.812 22.4531L224.969 22.7812H217.891L217.859 20.3281H223.203C224.286 20.3281 225.188 20.1406 225.906 19.7656C226.625 19.3802 227.167 18.8646 227.531 18.2188C227.896 17.5729 228.078 16.8594 228.078 16.0781C228.078 15.2031 227.906 14.4375 227.562 13.7812C227.219 13.125 226.677 12.6198 225.938 12.2656C225.208 11.901 224.266 11.7188 223.109 11.7188H218.594V32H215.578V9.25ZM228.875 32L223.344 21.6875L226.484 21.6719L232.094 31.8125V32H228.875ZM241.875 32.3125C240.698 32.3125 239.63 32.1146 238.672 31.7188C237.724 31.3125 236.906 30.7448 236.219 30.0156C235.542 29.2865 235.021 28.4219 234.656 27.4219C234.292 26.4219 234.109 25.3281 234.109 24.1406V23.4844C234.109 22.1094 234.312 20.8854 234.719 19.8125C235.125 18.7292 235.677 17.8125 236.375 17.0625C237.073 16.3125 237.865 15.7448 238.75 15.3594C239.635 14.974 240.552 14.7812 241.5 14.7812C242.708 14.7812 243.75 14.9896 244.625 15.4062C245.51 15.8229 246.234 16.4062 246.797 17.1562C247.359 17.8958 247.776 18.7708 248.047 19.7812C248.318 20.7812 248.453 21.875 248.453 23.0625V24.3594H235.828V22H245.562V21.7812C245.521 21.0312 245.365 20.3021 245.094 19.5938C244.833 18.8854 244.417 18.3021 243.844 17.8438C243.271 17.3854 242.49 17.1562 241.5 17.1562C240.844 17.1562 240.24 17.2969 239.688 17.5781C239.135 17.849 238.661 18.2552 238.266 18.7969C237.87 19.3385 237.562 20 237.344 20.7812C237.125 21.5625 237.016 22.4635 237.016 23.4844V24.1406C237.016 24.9427 237.125 25.6979 237.344 26.4062C237.573 27.1042 237.901 27.7188 238.328 28.25C238.766 28.7812 239.292 29.1979 239.906 29.5C240.531 29.8021 241.24 29.9531 242.031 29.9531C243.052 29.9531 243.917 29.7448 244.625 29.3281C245.333 28.9115 245.953 28.3542 246.484 27.6562L248.234 29.0469C247.87 29.599 247.406 30.125 246.844 30.625C246.281 31.125 245.589 31.5312 244.766 31.8438C243.953 32.1562 242.99 32.3125 241.875 32.3125ZM261.797 29.1094V20.4062C261.797 19.7396 261.661 19.1615 261.391 18.6719C261.13 18.1719 260.734 17.7865 260.203 17.5156C259.672 17.2448 259.016 17.1094 258.234 17.1094C257.505 17.1094 256.865 17.2344 256.312 17.4844C255.771 17.7344 255.344 18.0625 255.031 18.4688C254.729 18.875 254.578 19.3125 254.578 19.7812H251.688C251.688 19.1771 251.844 18.5781 252.156 17.9844C252.469 17.3906 252.917 16.8542 253.5 16.375C254.094 15.8854 254.802 15.5 255.625 15.2188C256.458 14.9271 257.385 14.7812 258.406 14.7812C259.635 14.7812 260.719 14.9896 261.656 15.4062C262.604 15.8229 263.344 16.4531 263.875 17.2969C264.417 18.1302 264.688 19.1771 264.688 20.4375V28.3125C264.688 28.875 264.734 29.474 264.828 30.1094C264.932 30.7448 265.083 31.2917 265.281 31.75V32H262.266C262.12 31.6667 262.005 31.224 261.922 30.6719C261.839 30.1094 261.797 29.5885 261.797 29.1094ZM262.297 21.75L262.328 23.7812H259.406C258.583 23.7812 257.849 23.849 257.203 23.9844C256.557 24.1094 256.016 24.3021 255.578 24.5625C255.141 24.8229 254.807 25.151 254.578 25.5469C254.349 25.9323 254.234 26.3854 254.234 26.9062C254.234 27.4375 254.354 27.9219 254.594 28.3594C254.833 28.7969 255.193 29.1458 255.672 29.4062C256.161 29.6562 256.76 29.7812 257.469 29.7812C258.354 29.7812 259.135 29.5938 259.812 29.2188C260.49 28.8438 261.026 28.3854 261.422 27.8438C261.828 27.3021 262.047 26.776 262.078 26.2656L263.312 27.6562C263.24 28.0938 263.042 28.5781 262.719 29.1094C262.396 29.6406 261.964 30.151 261.422 30.6406C260.891 31.1198 260.255 31.5208 259.516 31.8438C258.786 32.1562 257.964 32.3125 257.047 32.3125C255.901 32.3125 254.896 32.0885 254.031 31.6406C253.177 31.1927 252.51 30.5938 252.031 29.8438C251.562 29.0833 251.328 28.2344 251.328 27.2969C251.328 26.3906 251.505 25.5938 251.859 24.9062C252.214 24.2083 252.724 23.6302 253.391 23.1719C254.057 22.7031 254.859 22.349 255.797 22.1094C256.734 21.8698 257.781 21.75 258.938 21.75H262.297ZM279.891 28.7188V8H282.797V32H280.141L279.891 28.7188ZM268.516 23.7344V23.4062C268.516 22.1146 268.672 20.9427 268.984 19.8906C269.307 18.8281 269.76 17.9167 270.344 17.1562C270.938 16.3958 271.641 15.8125 272.453 15.4062C273.276 14.9896 274.193 14.7812 275.203 14.7812C276.266 14.7812 277.193 14.9688 277.984 15.3438C278.786 15.7083 279.464 16.2448 280.016 16.9531C280.578 17.651 281.021 18.4948 281.344 19.4844C281.667 20.474 281.891 21.5938 282.016 22.8438V24.2812C281.901 25.5208 281.677 26.6354 281.344 27.625C281.021 28.6146 280.578 29.4583 280.016 30.1562C279.464 30.8542 278.786 31.3906 277.984 31.7656C277.182 32.1302 276.245 32.3125 275.172 32.3125C274.182 32.3125 273.276 32.099 272.453 31.6719C271.641 31.2448 270.938 30.6458 270.344 29.875C269.76 29.1042 269.307 28.1979 268.984 27.1562C268.672 26.1042 268.516 24.9635 268.516 23.7344ZM271.422 23.4062V23.7344C271.422 24.5781 271.505 25.3698 271.672 26.1094C271.849 26.849 272.12 27.5 272.484 28.0625C272.849 28.625 273.312 29.0677 273.875 29.3906C274.438 29.7031 275.109 29.8594 275.891 29.8594C276.849 29.8594 277.635 29.6562 278.25 29.25C278.875 28.8438 279.375 28.3073 279.75 27.6406C280.125 26.974 280.417 26.25 280.625 25.4688V21.7031C280.5 21.1302 280.318 20.5781 280.078 20.0469C279.849 19.5052 279.547 19.026 279.172 18.6094C278.807 18.1823 278.354 17.8438 277.812 17.5938C277.281 17.3438 276.651 17.2188 275.922 17.2188C275.13 17.2188 274.448 17.3854 273.875 17.7188C273.312 18.0417 272.849 18.4896 272.484 19.0625C272.12 19.625 271.849 20.2812 271.672 21.0312C271.505 21.7708 271.422 22.5625 271.422 23.4062ZM294.312 32.3125C293.135 32.3125 292.068 32.1146 291.109 31.7188C290.161 31.3125 289.344 30.7448 288.656 30.0156C287.979 29.2865 287.458 28.4219 287.094 27.4219C286.729 26.4219 286.547 25.3281 286.547 24.1406V23.4844C286.547 22.1094 286.75 20.8854 287.156 19.8125C287.562 18.7292 288.115 17.8125 288.812 17.0625C289.51 16.3125 290.302 15.7448 291.188 15.3594C292.073 14.974 292.99 14.7812 293.938 14.7812C295.146 14.7812 296.188 14.9896 297.062 15.4062C297.948 15.8229 298.672 16.4062 299.234 17.1562C299.797 17.8958 300.214 18.7708 300.484 19.7812C300.755 20.7812 300.891 21.875 300.891 23.0625V24.3594H288.266V22H298V21.7812C297.958 21.0312 297.802 20.3021 297.531 19.5938C297.271 18.8854 296.854 18.3021 296.281 17.8438C295.708 17.3854 294.927 17.1562 293.938 17.1562C293.281 17.1562 292.677 17.2969 292.125 17.5781C291.573 17.849 291.099 18.2552 290.703 18.7969C290.307 19.3385 290 20 289.781 20.7812C289.562 21.5625 289.453 22.4635 289.453 23.4844V24.1406C289.453 24.9427 289.562 25.6979 289.781 26.4062C290.01 27.1042 290.339 27.7188 290.766 28.25C291.203 28.7812 291.729 29.1979 292.344 29.5C292.969 29.8021 293.677 29.9531 294.469 29.9531C295.49 29.9531 296.354 29.7448 297.062 29.3281C297.771 28.9115 298.391 28.3542 298.922 27.6562L300.672 29.0469C300.307 29.599 299.844 30.125 299.281 30.625C298.719 31.125 298.026 31.5312 297.203 31.8438C296.391 32.1562 295.427 32.3125 294.312 32.3125ZM307.156 17.75V32H304.266V15.0938H307.078L307.156 17.75ZM312.438 15L312.422 17.6875C312.182 17.6354 311.953 17.6042 311.734 17.5938C311.526 17.5729 311.286 17.5625 311.016 17.5625C310.349 17.5625 309.76 17.6667 309.25 17.875C308.74 18.0833 308.307 18.375 307.953 18.75C307.599 19.125 307.318 19.5729 307.109 20.0938C306.911 20.6042 306.781 21.1667 306.719 21.7812L305.906 22.25C305.906 21.2292 306.005 20.2708 306.203 19.375C306.411 18.4792 306.729 17.6875 307.156 17C307.583 16.3021 308.125 15.7604 308.781 15.375C309.448 14.9792 310.24 14.7812 311.156 14.7812C311.365 14.7812 311.604 14.8073 311.875 14.8594C312.146 14.901 312.333 14.9479 312.438 15Z" fill="black"/>
<path d="M46.9334 19.7333C47.1067 19.7333 47.2789 19.7389 47.45 19.75C47.2314 20.8866 47.3132 22.0605 47.6874 23.1558C48.0615 24.2511 48.715 25.2297 49.5834 25.995C49.4622 26.6683 49.4011 27.3589 49.4 28.0667C49.396 30.7129 50.2956 33.2813 51.95 35.3467C50.4133 35.9501 48.7457 36.1419 47.1122 35.9031C45.4786 35.6643 43.9357 35.0032 42.636 33.9852C41.3363 32.9672 40.3249 31.6275 39.7018 30.0987C39.0787 28.5698 38.8655 26.9048 39.0834 25.2683C39.6608 23.6485 40.7253 22.247 42.1307 21.2561C43.5361 20.2651 45.2137 19.7332 46.9334 19.7333ZM68.3467 23.05C68.9501 24.5867 69.1419 26.2543 68.9031 27.8879C68.6644 29.5214 68.0033 31.0644 66.9852 32.364C65.9672 33.6637 64.6275 34.6751 63.0987 35.2982C61.5699 35.9213 59.9048 36.1345 58.2684 35.9167C56.5651 35.3097 55.1055 34.1653 54.1098 32.656C53.1141 31.1468 52.6362 29.3546 52.7484 27.55C53.8849 27.7686 55.0589 27.6868 56.1542 27.3127C57.2494 26.9385 58.2281 26.285 58.9934 25.4167C59.6678 25.5378 60.3589 25.5989 61.0667 25.6C63.713 25.604 66.2813 24.7044 68.3467 23.05ZM54 17.6667C54.8841 17.6667 55.7319 18.0179 56.357 18.643C56.9822 19.2681 57.3334 20.1159 57.3334 21C57.3334 21.8841 56.9822 22.7319 56.357 23.357C55.7319 23.9821 54.8841 24.3333 54 24.3333C53.116 24.3333 52.2681 23.9821 51.643 23.357C51.0179 22.7319 50.6667 21.8841 50.6667 21C50.6667 20.1159 51.0179 19.2681 51.643 18.643C52.2681 18.0179 53.116 17.6667 54 17.6667ZM59.5167 6C60.8677 5.99985 62.2032 6.28837 63.4337 6.84624C64.6641 7.40412 65.7612 8.21847 66.6514 9.23475C67.5416 10.251 68.2044 11.4458 68.5953 12.739C68.9863 14.0323 69.0964 15.3941 68.9184 16.7333C68.3108 18.4362 67.1658 19.8953 65.6563 20.8904C64.1468 21.8856 62.3545 22.3627 60.55 22.25C60.7686 21.1134 60.6868 19.9395 60.3127 18.8442C59.9385 17.7489 59.285 16.7703 58.4167 16.005C58.5378 15.3317 58.5989 14.6411 58.6 13.9333C58.604 11.2871 57.7044 8.71872 56.05 6.65333C57.1546 6.22104 58.3305 5.99944 59.5167 6ZM48.4834 6C48.9067 6 49.3234 6.02722 49.7334 6.08167C51.4362 6.68926 52.8953 7.8342 53.8904 9.34373C54.8856 10.8533 55.3628 12.6455 55.25 14.45C54.1134 14.2314 52.9395 14.3132 51.8442 14.6873C50.7489 15.0615 49.7703 15.715 49.005 16.5833C48.3213 16.4607 47.628 16.3993 46.9334 16.4C44.2871 16.396 41.7187 17.2956 39.6534 18.95C39.0886 17.512 38.8837 15.9577 39.0565 14.4224C39.2294 12.8871 39.7747 11.4173 40.6451 10.1408C41.5155 8.86435 42.6845 7.81985 44.0506 7.09817C45.4167 6.3765 46.9384 5.99951 48.4834 6Z" fill="#16017D"/>
</svg>
