<?xml version="1.0" encoding="UTF-8" standalone="no"?>
<svg
   width="1024"
   height="1024"
   viewBox="0 0 1024 1024"
   version="1.1"
   id="svg5"
   sodipodi:docname="py-slug.svg"
   inkscape:version="1.4 (e7c3feb1, 2024-10-09)"
   inkscape:export-filename="py-slug.png"
   inkscape:export-xdpi="96"
   inkscape:export-ydpi="96"
   xmlns:inkscape="http://www.inkscape.org/namespaces/inkscape"
   xmlns:sodipodi="http://sodipodi.sourceforge.net/DTD/sodipodi-0.dtd"
   xmlns="http://www.w3.org/2000/svg"
   xmlns:svg="http://www.w3.org/2000/svg">
  <defs
     id="defs5" />
  <sodipodi:namedview
     id="namedview5"
     pagecolor="#ffffff"
     bordercolor="#000000"
     borderopacity="0.25"
     inkscape:showpageshadow="2"
     inkscape:pageopacity="0.0"
     inkscape:pagecheckerboard="0"
     inkscape:deskcolor="#d1d1d1"
     inkscape:zoom="0.20977669"
     inkscape:cx="526.75061"
     inkscape:cy="414.72673"
     inkscape:window-width="1696"
     inkscape:window-height="889"
     inkscape:window-x="2631"
     inkscape:window-y="1667"
     inkscape:window-maximized="0"
     inkscape:current-layer="svg5" />
  <path
     fill="#fe9342"
     d="m 569.06404,65.1084 c -6.335,-0.3599 -11.273,-0.1687 -17.191,2.4315 -18.499,8.128 -28.653,30.9925 -19.984,49.7701 6.507,14.095 14.614,17.244 28.183,22.442 7.146,24.834 16.451,49.895 23.703,75.247 -18.591,9.62 -33.158,19.094 -47.473,35.004 -26.646,29.617 -35.832,68.229 -33.774,107.14 3.098,58.585 30.416,114.685 68.843,158.259 10.141,11.5 20.609,21.335 32.07,31.528 -1.814,-0.209 -4.232,-0.297 -6.069,-0.304 l -182.792,0.773 -47.337,0.156 c -30.974,0.027 -55.025,-2.576 -78.451,21.28 -22.258,22.667 -20.288,51.066 -20.194,80.252 l 0.476,49.671 c -28.269,1.776 -58.984,18.179 -77.919,38.654 -42.168,45.598 -37.336,118.372 9.033,159.314 48.81,43.098 116.718,41.627 177.843,41.763 l 85.461,0.026 160.044,-1.855 c 88.145,-1.613 186.688,3.051 251.24,-68.563 36.95,-42.536 41.534,-97.727 29.937,-150.852 -12.786,-58.573 -42.033,-111.861 -80.854,-157.264 -15.773,-18.448 -34.166,-35.768 -51.575,-52.664 l -40.291,-39.762 c -20.947,-20.579 -47.286,-46.384 -58.499,-73.692 38.315,10.063 90.7,17.943 129.986,10.828 21.808,20.545 34.672,48.705 47.025,75.373 2.023,4.368 6.787,7.839 11.737,6.098 14.167,-4.983 2.175,-30.584 -1.252,-39.943 9.686,3.811 27.284,15.192 38.226,11.205 3.771,-1.374 5.586,-5.518 6.888,-9.143 -4.515,-9.844 -15.974,-12.298 -25.468,-16.198 -18.483,-7.594 -33.903,-19.285 -44.119,-36.697 13.275,-7.584 32.464,-19.446 39.042,-33.635 4.75,-10.246 4.439,-24.706 0.479,-35.174 -5.795,-15.32 -22.619,-23.307 -33.524,-34.481 -11.328,-11.222 -20.432,-23.089 -30.899,-34.67 -14.897,-16.483 -40.141,-33.616 -60.504,-42.743 2.316,-6.162 4.18,-14.161 6.221,-20.561 5.597,-17.551 10.192,-36.605 16.217,-53.932 14.046,-5.026 25.578,-11.733 29.828,-27.061 2.649,-9.734 1.725,-21.1614 -3.495,-29.9004 -16.899,-28.2891 -60.477,-21.6164 -67.897,10.6953 -3.112,13.5551 0.775,23.1151 7.688,34.3141 -0.643,2.678 -1.454,5.32 -2.232,7.962 -6.464,21.962 -12.792,44.005 -20.006,65.734 -20.414,-2.876 -79.484,-4.354 -98.8,1.716 -3.386,-9.558 -6.574,-20.464 -9.708,-30.171 -5.043,-15.617 -10.085,-31.489 -14.724,-47.228 15.496,-20.339 9.947,-49.4137 -14.999,-58.5637 -3.617,-1.3268 -6.335,-1.9108 -10.14,-2.5789 z m -106.881,780.7566 -65.869,-0.004 c -14.225,0.003 -30.76,1.13 -44.502,-1.669 -14.921,-3.039 -28.682,-18.169 -31.198,-33.024 -1.175,-6.932 -0.956,-15.183 -0.969,-22.262 l -0.008,-30.874 0.053,-105.696 c 0.136,-14.831 1.99,-24.663 12.671,-35.496 13.425,-13.617 30.692,-11.774 48.263,-11.77 l 39.803,-0.002 c 47.975,-0.071 97.673,-0.773 145.458,0.132 l 1.978,0.043 c 19.912,0.52 40.02,-0.179 59.923,0.701 25.956,1.148 58.217,-6.533 75.394,18.66 8.368,12.272 7.44,23.274 7.454,37.302 l 0.014,33.775 c 10e-4,35.27 0.043,70.543 -0.082,105.811 -0.032,8.929 -1.334,15.087 -5.788,22.774 -13.536,23.362 -36.569,21.697 -59.861,21.653 l -39.752,-0.078 z m 228.156,-529.633 c -12.356,-2.499 -20.324,-14.571 -17.763,-26.915 2.56,-12.344 14.671,-20.251 27.003,-17.63 12.245,2.603 20.085,14.612 17.542,26.869 -2.542,12.258 -14.511,20.158 -26.782,17.676 z"
     id="path1" />
  <path
     fill="#FE9342"
     d="M463.261 645.693C488.597 642.955 511.36 661.264 514.118 686.598C516.875 711.932 498.584 734.709 473.252 737.487C447.892 740.267 425.085 721.951 422.324 696.589C419.563 671.227 437.897 648.434 463.261 645.693Z"
     id="path2" />
  <path
     fill="#FE9342"
     d="M677.159 655.248C684.759 655.231 692.188 654.883 698.187 660.46C709.969 671.412 705.644 693.111 688.383 694.843C679.102 695.775 669.844 695.571 660.502 695.804L592.875 697.001C585.963 697.024 576.123 697.837 570.737 692.946C560.069 683.258 562.96 659.201 579.269 657.225C583.395 656.418 587.465 656.435 591.65 656.33C600.689 656.103 609.889 656.303 618.912 656.05C638.293 655.509 657.808 655.864 677.159 655.248Z"
     id="path3" />
  <path
     fill="#FE9342"
     d="M448.764 754.214C455.303 754.069 463.308 754.505 470.033 754.579C486.803 755.13 499.975 751.428 514.12 763.605C521.951 769.884 531.922 792.307 525.268 800.881C522.331 804.666 492.723 803.109 487.125 803.023L436.257 803.586C429.05 803.598 421.474 803.758 414.31 803.251C409.311 802.897 406.818 799.762 406.586 794.738C406.168 785.704 411.252 774.02 417.296 767.569C425.468 758.845 437.03 754.978 448.764 754.214Z"
     id="path4" />
  <path
     fill="#FE9342"
     d="M596.227 728.75C604.791 728.381 614.97 728.716 623.69 728.63C633.841 728.775 642.974 728.136 653.115 729.728C673.066 732.859 674.155 762.854 654.618 767.119C649.384 768.262 640.972 767.952 635.375 768.036C616.948 768.094 596.203 769.651 578.02 768.218C562.57 766.999 559.466 744.311 569.84 734.592C577.313 727.59 586.614 728.886 596.227 728.75Z"
     id="path5" />
</svg>
