<?xml version="1.0" encoding="UTF-8" standalone="no"?>
<!-- Created with Inkscape (http://www.inkscape.org/) -->

<svg
   width="256"
   height="256"
   viewBox="0 0 67.733333 67.733335"
   version="1.1"
   id="svg5"
   inkscape:version="1.2.2 (b0a8486541, 2022-12-01)"
   sodipodi:docname="icon_clerk.svg"
   xmlns:inkscape="http://www.inkscape.org/namespaces/inkscape"
   xmlns:sodipodi="http://sodipodi.sourceforge.net/DTD/sodipodi-0.dtd"
   xmlns="http://www.w3.org/2000/svg"
   xmlns:svg="http://www.w3.org/2000/svg">
  <sodipodi:namedview
     id="namedview7"
     pagecolor="#ffffff"
     bordercolor="#000000"
     borderopacity="0.25"
     inkscape:showpageshadow="2"
     inkscape:pageopacity="0.0"
     inkscape:pagecheckerboard="0"
     inkscape:deskcolor="#d1d1d1"
     inkscape:document-units="px"
     showgrid="false"
     inkscape:zoom="3.3638608"
     inkscape:cx="96.615175"
     inkscape:cy="16.944815"
     inkscape:window-width="3440"
     inkscape:window-height="1371"
     inkscape:window-x="1920"
     inkscape:window-y="32"
     inkscape:window-maximized="1"
     inkscape:current-layer="layer1"
     showguides="true" />
  <defs
     id="defs2" />
  <g
     inkscape:label="Calque 1"
     inkscape:groupmode="layer"
     id="layer1"
     transform="translate(-78.475264,27.253781)">
    <path
       id="path5439"
       style="fill:#cccccc;stroke:#364e59;stroke-width:0.362864;stroke-linejoin:round;stroke-dasharray:none;paint-order:fill markers stroke;stop-color:#000000"
       d="m 143.76112,5.8563137 -0.002,0.522954 -36.2129,26.5624163 -23.709034,-15.740157 -0.0036,-0.512581 M 109.72568,5.2433067 120.93181,-0.26078213 143.76112,5.8563137 107.5461,32.258963 83.833506,16.688946 91.207855,13.319703" />
    <path
       style="display:inline;fill:#999999;stroke:none;stroke-width:3.29077;stroke-linejoin:round;stroke-dasharray:none;paint-order:fill markers stroke;stop-color:#000000"
       id="path18552"
       sodipodi:type="arc"
       sodipodi:cx="-99.321732"
       sodipodi:cy="11.012508"
       sodipodi:rx="11.771577"
       sodipodi:ry="15.688986"
       sodipodi:start="3.5275336"
       sodipodi:end="0.29053386"
       sodipodi:arc-type="arc"
       d="m -110.22745,5.1066872 a 11.771577,15.688986 0 0 1 14.811821,-8.8942424 11.771577,15.688986 0 0 1 7.37214,19.2943892"
       transform="scale(-1,1)"
       sodipodi:open="true" />
    <ellipse
       style="display:inline;fill:#666666;stroke:none;stroke-width:2.15931;stroke-linejoin:round;stroke-dasharray:none;paint-order:fill markers stroke;stop-color:#000000"
       id="ellipse18550"
       cx="-102.74496"
       cy="20.002602"
       rx="6.8039103"
       ry="9.1854076"
       transform="matrix(-0.96039579,0.27863942,0.27115942,0.96253445,0,0)" />
    <ellipse
       style="display:inline;fill:#b3b3b3;stroke:none;stroke-width:0.411414;stroke-linejoin:round;stroke-dasharray:none;paint-order:fill markers stroke;stop-color:#000000"
       id="ellipse18554"
       cx="20.017382"
       cy="104.32151"
       rx="1.2963699"
       ry="1.7501237"
       transform="matrix(0.27369012,0.96181792,0.96391804,-0.2661992,0,0)" />
    <ellipse
       style="display:inline;fill:#b3b3b3;stroke:none;stroke-width:0.327859;stroke-linejoin:round;stroke-dasharray:none;paint-order:fill markers stroke;stop-color:#000000"
       id="ellipse18556"
       cx="19.743046"
       cy="108.78556"
       rx="1.0481079"
       ry="1.3746938"
       transform="matrix(0.26928299,0.96306109,0.96487488,-0.26270984,0,0)" />
    <path
       style="fill:#ffffff;stroke:#364e59;stroke-width:0.362864;stroke-linejoin:round;stroke-dasharray:none;paint-order:fill markers stroke;stop-color:#000000"
       d="m 100.03039,13.125302 13.07409,6.424709 8.3439,-5.287071 -12.87478,-5.2126393 z"
       id="path5344"
       sodipodi:nodetypes="ccccc" />
    <ellipse
       style="font-variation-settings:normal;opacity:1;vector-effect:none;fill:#666666;fill-opacity:1;stroke:none;stroke-width:2.15928;stroke-linecap:butt;stroke-linejoin:round;stroke-miterlimit:4;stroke-dasharray:none;stroke-dashoffset:0;stroke-opacity:1;-inkscape-stroke:none;paint-order:fill markers stroke;stop-color:#000000;stop-opacity:1"
       id="path5722"
       cx="95.452766"
       cy="-31.29693"
       rx="4.633635"
       ry="2.2028649"
       transform="rotate(24.437613)" />
    <path
       style="fill:none;stroke:#364e59;stroke-width:0.145146;stroke-linejoin:round;paint-order:fill markers stroke;stop-color:#000000"
       d="m 107.5461,32.258963 v 0.682721"
       id="path5469" />
    <g
       id="g5668"
       transform="matrix(0.34849103,-0.19252486,0.02482238,0.42180963,9.8200292,0.70564027)">
      <ellipse
         style="fill:#cccccc;stroke:#364e59;stroke-width:0.244119;stroke-linejoin:round;paint-order:fill markers stroke;stop-color:#000000"
         id="path5026"
         cx="288.155"
         cy="80.988029"
         rx="15.92819"
         ry="1.542807"
         transform="matrix(0.70710678,0.70710678,0.70710678,-0.70710678,0,0)" />
      <ellipse
         style="fill:#364e59;stroke:#364e59;stroke-width:0.0241621;stroke-linejoin:round;paint-order:fill markers stroke;stop-color:#000000"
         id="ellipse5028"
         cx="303.81265"
         cy="80.940117"
         rx="0.53865665"
         ry="0.44696262"
         transform="matrix(0.70710678,0.70710678,0.70710678,-0.70710678,0,0)" />
      <path
         style="fill:#cccccc;stroke:#364e59;stroke-width:0.216788;stroke-linejoin:round;paint-order:fill markers stroke;stop-color:#000000"
         d="m 267.44861,154.63329 c 0.0772,-0.91017 0.56747,-1.52616 1.69161,-1.69162"
         id="path5084"
         sodipodi:nodetypes="cc" />
      <path
         style="fill:#cccccc;stroke:#364e59;stroke-width:0.216788;stroke-linejoin:round;paint-order:fill markers stroke;stop-color:#000000"
         d="m 267.92321,155.10789 c 0.23122,-0.66664 0.57814,-1.29114 1.6503,-1.6503"
         id="path5086"
         sodipodi:nodetypes="cc" />
      <path
         style="fill:#cccccc;stroke:#364e59;stroke-width:0.272588;stroke-linejoin:round;paint-order:fill markers stroke;stop-color:#000000"
         d="m 257.08131,144.66906 c 0.097,-1.14432 0.71357,-1.91889 2.12686,-2.12686"
         id="path5310"
         sodipodi:nodetypes="cc" />
      <path
         style="fill:#009100;stroke:#364e59;stroke-width:0.420414;stroke-linejoin:round;paint-order:fill markers stroke;stop-color:#000000"
         d="m 967.22429,541.12514 c -12.78964,-13.82365 -21.74685,-25.17339 -22.72768,-28.79835 -0.20769,-0.7676 -0.19856,-0.78821 0.34784,-0.78562 1.25633,0.006 6.39221,3.33527 11.70209,7.58589 5.27757,4.22474 12.45121,10.50119 19.29252,16.87965 l 2.47597,2.30845 -1.2383,0.44838 c -3.09777,1.12167 -5.12161,3.20034 -5.64012,5.79293 -0.0677,0.33833 -0.20077,0.61515 -0.29578,0.61515 -0.095,0 -1.85745,-1.82092 -3.91654,-4.04648 z"
         id="path5634"
         transform="scale(0.26458333)" />
    </g>
    <path
       style="font-variation-settings:normal;opacity:1;fill:#bdcdd4;fill-opacity:1;stroke:none;stroke-width:1.32292;stroke-linecap:butt;stroke-linejoin:round;stroke-miterlimit:4;stroke-dasharray:none;stroke-dashoffset:0;stroke-opacity:1;paint-order:fill markers stroke;stop-color:#000000;stop-opacity:1"
       d="m 101.90861,-13.000606 c 1.88077,-0.488251 6.26591,-1.126722 6.60088,-2.425622 -0.19716,-0.255021 -0.28261,-0.361686 -0.6652,-0.767874 1.92792,0.368465 3.03218,0.977612 4.28224,1.637941 2.72176,1.437741 -3.63481,4.7377807 -5.66907,4.025052 -1.9591,-1.378127 -4.54885,-2.469497 -4.54885,-2.469497 z"
       id="path8664"
       sodipodi:nodetypes="cccscc" />
    <path
       id="ellipse8780"
       style="display:inline;fill:#9ade00;stroke-width:2.15931;stroke-linejoin:round;paint-order:fill markers stroke;stop-color:#000000"
       transform="matrix(-0.96039579,0.27863942,0.27115942,0.96253445,0,0)"
       d="m -108.68271,15.517718 c 0.97077,-3.110707 3.784,-4.844256 6.16979,-4.94592 2.38579,-0.101663 4.388299,1.564531 5.68282,4.271936 -0.505367,0.351094 -1.540116,0.504406 -4.76148,1.046611 -2.11935,0.35672 -5.78018,0.72219 -7.09113,-0.372627 z"
       sodipodi:nodetypes="cscsc" />
  </g>
</svg>
