<?xml version="1.0" encoding="UTF-8" standalone="no"?>
<!-- Created with Inkscape (http://www.inkscape.org/) -->

<svg
   width="64"
   height="64"
   viewBox="0 0 16.933333 16.933334"
   version="1.1"
   id="svg5"
   inkscape:version="1.2.2 (b0a8486541, 2022-12-01)"
   sodipodi:docname="icon_manifest.svg"
   xmlns:inkscape="http://www.inkscape.org/namespaces/inkscape"
   xmlns:sodipodi="http://sodipodi.sourceforge.net/DTD/sodipodi-0.dtd"
   xmlns="http://www.w3.org/2000/svg"
   xmlns:svg="http://www.w3.org/2000/svg">
  <sodipodi:namedview
     id="namedview7"
     pagecolor="#ffffff"
     bordercolor="#000000"
     borderopacity="0.25"
     inkscape:showpageshadow="2"
     inkscape:pageopacity="0.0"
     inkscape:pagecheckerboard="0"
     inkscape:deskcolor="#d1d1d1"
     inkscape:document-units="px"
     showgrid="false"
     inkscape:zoom="3.0058258"
     inkscape:cx="-11.976742"
     inkscape:cy="-4.9903091"
     inkscape:window-width="1920"
     inkscape:window-height="1211"
     inkscape:window-x="0"
     inkscape:window-y="32"
     inkscape:window-maximized="1"
     inkscape:current-layer="layer1" />
  <defs
     id="defs2">
    <marker
       style="overflow:visible"
       id="TriangleStart-36"
       refX="0"
       refY="0"
       orient="auto-start-reverse"
       inkscape:stockid="TriangleStart"
       markerWidth="5.3244081"
       markerHeight="6.155385"
       viewBox="0 0 5.3244081 6.1553851"
       inkscape:isstock="true"
       inkscape:collect="always"
       preserveAspectRatio="xMidYMid">
      <path
         transform="scale(0.5)"
         style="fill:context-stroke;fill-rule:evenodd;stroke:context-stroke;stroke-width:1pt"
         d="M 5.77,0 -2.88,5 V -5 Z"
         id="path135-1" />
    </marker>
  </defs>
  <g
     inkscape:label="Calque 1"
     inkscape:groupmode="layer"
     id="layer1"
     transform="translate(-138.76902,-94.857837)">
    <rect
       style="fill:#bdcdd4;fill-opacity:1;stroke:#555753;stroke-width:0.224816;stroke-linecap:round;stroke-linejoin:miter;stroke-miterlimit:4;stroke-dasharray:none;stroke-dashoffset:0;stroke-opacity:1;paint-order:fill markers stroke;stop-color:#000000"
       id="rect252359"
       width="9.1693478"
       height="13.932392"
       x="142.63451"
       y="96.353966"
       ry="0.33934104" />
    <path
       style="fill:none;fill-opacity:1;stroke:#666666;stroke-width:0.224816;stroke-linecap:round;stroke-linejoin:miter;stroke-miterlimit:4;stroke-dasharray:none;stroke-dashoffset:0;stroke-opacity:1;paint-order:fill markers stroke;stop-color:#000000"
       d="m 143.7553,99.313105 h 6.39294"
       id="path252361" />
    <path
       style="fill:none;fill-opacity:1;stroke:#666666;stroke-width:0.224816;stroke-linecap:round;stroke-linejoin:miter;stroke-miterlimit:4;stroke-dasharray:none;stroke-dashoffset:0;stroke-opacity:1;paint-order:fill markers stroke;stop-color:#000000"
       d="m 143.7553,100.34407 h 3.64064"
       id="path252363"
       sodipodi:nodetypes="cc" />
    <path
       style="fill:none;fill-opacity:1;stroke:#666666;stroke-width:0.224816;stroke-linecap:round;stroke-linejoin:miter;stroke-miterlimit:4;stroke-dasharray:none;stroke-dashoffset:0;stroke-opacity:1;paint-order:fill markers stroke;stop-color:#000000"
       d="m 143.7553,101.37501 h 5.56725"
       id="path252365"
       sodipodi:nodetypes="cc" />
    <path
       style="fill:none;fill-opacity:1;stroke:#666666;stroke-width:0.224816;stroke-linecap:round;stroke-linejoin:miter;stroke-miterlimit:4;stroke-dasharray:none;stroke-dashoffset:0;stroke-opacity:1;paint-order:fill markers stroke;stop-color:#000000"
       d="m 143.7553,102.40597 h 2.26448"
       id="path252367"
       sodipodi:nodetypes="cc" />
    <path
       style="fill:none;fill-opacity:1;stroke:#666666;stroke-width:0.224816;stroke-linecap:round;stroke-linejoin:miter;stroke-miterlimit:4;stroke-dasharray:none;stroke-dashoffset:0;stroke-opacity:1;paint-order:fill markers stroke;stop-color:#000000"
       d="m 143.7553,103.43691 h 2.53971"
       id="path252369"
       sodipodi:nodetypes="cc" />
    <path
       style="fill:none;fill-opacity:1;stroke:#666666;stroke-width:0.224816;stroke-linecap:round;stroke-linejoin:miter;stroke-miterlimit:4;stroke-dasharray:none;stroke-dashoffset:0;stroke-opacity:1;paint-order:fill markers stroke;stop-color:#000000"
       d="m 143.7553,104.46786 h 2.81494"
       id="path252371"
       sodipodi:nodetypes="cc" />
    <path
       style="fill:none;fill-opacity:1;stroke:#666666;stroke-width:0.224816;stroke-linecap:round;stroke-linejoin:miter;stroke-miterlimit:4;stroke-dasharray:none;stroke-dashoffset:0;stroke-opacity:1;paint-order:fill markers stroke;stop-color:#000000"
       d="m 143.7553,105.49881 h 2.53971"
       id="path252373"
       sodipodi:nodetypes="cc" />
    <rect
       style="fill:#ccff42;fill-opacity:1;stroke:#666666;stroke-width:0.224816;stroke-linecap:round;stroke-linejoin:miter;stroke-miterlimit:4;stroke-dasharray:none;stroke-dashoffset:0;stroke-opacity:1;paint-order:fill markers stroke;stop-color:#000000"
       id="rect252377"
       width="2.9324846"
       height="2.7856805"
       x="143.68895"
       y="106.86195"
       ry="0.10251336"
       rx="0.12177192" />
    <rect
       style="fill:#ff9900;fill-opacity:1;stroke:#666666;stroke-width:0.224816;stroke-linecap:round;stroke-linejoin:miter;stroke-miterlimit:4;stroke-dasharray:none;stroke-dashoffset:0;stroke-opacity:1;paint-order:fill markers stroke;stop-color:#000000"
       id="rect252379"
       width="2.9324846"
       height="2.7856805"
       x="147.28603"
       y="106.86195"
       ry="0.10251336"
       rx="0.12177192" />
    <path
       style="fill:none;fill-opacity:1;stroke:#666666;stroke-width:0.224816;stroke-linecap:round;stroke-linejoin:miter;stroke-miterlimit:4;stroke-dasharray:none;stroke-dashoffset:0;stroke-opacity:1;marker-end:url(#TriangleStart-36);paint-order:fill markers stroke;stop-color:#000000"
       d="m 148.75229,107.24308 v 1.33757"
       id="path252381"
       sodipodi:nodetypes="cc" />
    <path
       style="fill:#009100;fill-opacity:1;stroke:none;stroke-width:0.224816;stroke-linecap:round;stroke-linejoin:miter;stroke-miterlimit:4;stroke-dasharray:none;stroke-dashoffset:0;stroke-opacity:1;paint-order:fill markers stroke;stop-color:#000000"
       id="path252383"
       d="m 143.97273,107.64968 c 0.0892,0.0862 0.16935,0.18132 0.24789,0.27718 0.0701,0.0863 0.13406,0.17734 0.19511,0.2702 0.0469,0.0687 0.0845,0.14282 0.11863,0.21854 0.0483,0.10301 0.0909,0.20839 0.12554,0.31678 0.025,0.0871 0.0464,0.17535 0.063,0.26446 4.5e-4,0.005 0.005,0.0277 0.005,0.0359 -2.9e-4,0.005 -0.002,0.009 -0.002,0.0132 0.16232,0.0779 0.32073,0.16445 0.48696,0.23354 0.009,0.004 0.006,-0.0182 0.009,-0.0274 0.003,-0.011 0.006,-0.0222 0.009,-0.0334 0.0177,-0.066 0.0322,-0.13287 0.0519,-0.19839 0.0103,-0.0346 0.0257,-0.0797 0.0371,-0.11389 0.031,-0.0958 0.0728,-0.18752 0.12123,-0.27562 0.0384,-0.0728 0.0871,-0.13906 0.13606,-0.20492 0.0433,-0.0567 0.0882,-0.11222 0.13275,-0.16793 0.0324,-0.0408 0.0657,-0.0805 0.10282,-0.11698 0.0296,-0.0307 0.0622,-0.0582 0.0934,-0.0872 0.0318,-0.0266 0.0649,-0.0514 0.0959,-0.0789 0.0291,-0.0248 0.0596,-0.0477 0.0914,-0.0688 0.0235,-0.0157 0.0455,-0.0335 0.0683,-0.0503 0.0189,-0.0155 0.0362,-0.0327 0.0584,-0.0436 0.017,-0.0118 0.0349,-0.0208 0.0553,-0.0242 0.0115,-10e-4 0.023,3.3e-4 0.0344,0.001 0.0117,0.001 0.021,-0.008 0.0285,-0.0156 0,0 -0.45483,-0.29394 -0.45483,-0.29394 v 0 c 0.001,-0.006 1.5e-4,-0.004 -0.005,-0.006 -0.008,-0.002 0.004,-0.002 -0.008,-0.001 -0.0145,0.002 -0.0287,0.006 -0.042,0.0124 -0.0214,0.0101 -0.0414,0.0227 -0.0614,0.0354 -0.0208,0.0153 -0.0406,0.032 -0.0612,0.0475 -0.0215,0.0168 -0.042,0.0347 -0.0648,0.0497 -0.0324,0.0233 -0.0635,0.0485 -0.094,0.0743 -0.0318,0.0271 -0.0648,0.0526 -0.0958,0.0805 -0.0325,0.0292 -0.0654,0.058 -0.0953,0.0899 -0.0362,0.0395 -0.0696,0.0808 -0.10156,0.1238 -0.0443,0.0565 -0.0885,0.11305 -0.13129,0.17066 -0.0505,0.0679 -0.0981,0.13841 -0.13939,0.21233 -0.0469,0.0924 -0.0866,0.18823 -0.119,0.28665 -0.0191,0.0572 -0.0386,0.11438 -0.0567,0.17195 -0.0101,0.0322 -0.0187,0.0649 -0.029,0.0971 -0.004,0.0129 -0.009,0.0256 -0.0133,0.0384 -0.004,0.01 -0.007,0.0195 -0.0114,0.0292 -0.002,0.005 -0.0115,0.012 -0.007,0.0146 0.15561,0.0888 0.31773,0.16564 0.47458,0.25218 0.003,0.002 -0.006,0.006 -0.009,0.005 -0.0114,-0.006 -0.001,-0.0334 -0.0123,-0.0368 -0.0225,-0.0914 -0.0458,-0.18253 -0.0711,-0.27319 -0.0143,-0.0485 -0.0189,-0.0665 -0.0357,-0.1141 -0.0246,-0.0701 -0.0552,-0.13772 -0.0833,-0.20641 -0.0334,-0.0771 -0.0641,-0.15614 -0.11208,-0.22571 -0.0653,-0.0952 -0.13346,-0.18851 -0.20467,-0.2794 -0.02,-0.025 -0.0684,-0.0854 -0.089,-0.11042 -0.0454,-0.055 -0.0942,-0.10715 -0.13771,-0.16367 0,0 -0.49408,-0.20478 -0.49408,-0.20478 z" />
  </g>
</svg>
