<?xml version="1.0" encoding="UTF-8" standalone="no"?>
<!-- Created with Inkscape (http://www.inkscape.org/) -->

<svg
   width="64"
   height="64"
   viewBox="0 0 16.933333 16.933334"
   version="1.1"
   id="svg5"
   inkscape:version="1.2.2 (b0a8486541, 2022-12-01)"
   sodipodi:docname="icon_manifest_checked.svg"
   xmlns:inkscape="http://www.inkscape.org/namespaces/inkscape"
   xmlns:sodipodi="http://sodipodi.sourceforge.net/DTD/sodipodi-0.dtd"
   xmlns="http://www.w3.org/2000/svg"
   xmlns:svg="http://www.w3.org/2000/svg">
  <sodipodi:namedview
     id="namedview7"
     pagecolor="#ffffff"
     bordercolor="#000000"
     borderopacity="0.25"
     inkscape:showpageshadow="2"
     inkscape:pageopacity="0.0"
     inkscape:pagecheckerboard="0"
     inkscape:deskcolor="#d1d1d1"
     inkscape:document-units="px"
     showgrid="false"
     inkscape:zoom="1.4318877"
     inkscape:cx="98.122221"
     inkscape:cy="-22.348121"
     inkscape:window-width="948"
     inkscape:window-height="1195"
     inkscape:window-x="8"
     inkscape:window-y="40"
     inkscape:window-maximized="0"
     inkscape:current-layer="layer1" />
  <defs
     id="defs2" />
  <g
     inkscape:label="Calque 1"
     inkscape:groupmode="layer"
     id="layer1"
     transform="translate(-138.76902,-94.857837)">
    <rect
       style="fill:#bdcdd4;fill-opacity:1;stroke:#555753;stroke-width:0.218111;stroke-linecap:round;stroke-linejoin:miter;stroke-miterlimit:4;stroke-dasharray:none;stroke-dashoffset:0;stroke-opacity:1;paint-order:fill markers stroke;stop-color:#000000"
       id="rect247868"
       width="13.23321"
       height="9.0866909"
       x="140.88876"
       y="99.450478"
       ry="0.22131789" />
    <path
       style="fill:none;fill-opacity:1;stroke:#666666;stroke-width:0.147761;stroke-linecap:round;stroke-linejoin:miter;stroke-miterlimit:4;stroke-dasharray:none;stroke-dashoffset:0;stroke-opacity:1;paint-order:fill markers stroke;stop-color:#000000"
       d="m 141.59019,101.36025 4.20173,1e-5"
       id="path247870" />
    <path
       style="fill:none;fill-opacity:1;stroke:#666666;stroke-width:0.147761;stroke-linecap:round;stroke-linejoin:miter;stroke-miterlimit:4;stroke-dasharray:none;stroke-dashoffset:0;stroke-opacity:1;paint-order:fill markers stroke;stop-color:#000000"
       d="m 141.59017,102.03783 2.39281,-1e-5"
       id="path247872"
       sodipodi:nodetypes="cc" />
    <path
       style="fill:none;fill-opacity:1;stroke:#666666;stroke-width:0.147761;stroke-linecap:round;stroke-linejoin:miter;stroke-miterlimit:4;stroke-dasharray:none;stroke-dashoffset:0;stroke-opacity:1;paint-order:fill markers stroke;stop-color:#000000"
       d="m 141.59018,102.71541 3.65905,-1e-5"
       id="path247874"
       sodipodi:nodetypes="cc" />
    <path
       style="fill:none;fill-opacity:1;stroke:#666666;stroke-width:0.147761;stroke-linecap:round;stroke-linejoin:miter;stroke-miterlimit:4;stroke-dasharray:none;stroke-dashoffset:0;stroke-opacity:1;paint-order:fill markers stroke;stop-color:#000000"
       d="m 141.59018,103.39307 h 1.48833"
       id="path247876"
       sodipodi:nodetypes="cc" />
    <path
       style="fill:none;fill-opacity:1;stroke:#666666;stroke-width:0.147761;stroke-linecap:round;stroke-linejoin:miter;stroke-miterlimit:4;stroke-dasharray:none;stroke-dashoffset:0;stroke-opacity:1;paint-order:fill markers stroke;stop-color:#000000"
       d="m 141.59019,104.07059 1.66918,1e-5"
       id="path247878"
       sodipodi:nodetypes="cc" />
    <path
       style="fill:none;fill-opacity:1;stroke:#666666;stroke-width:0.147761;stroke-linecap:round;stroke-linejoin:miter;stroke-miterlimit:4;stroke-dasharray:none;stroke-dashoffset:0;stroke-opacity:1;paint-order:fill markers stroke;stop-color:#000000"
       d="m 141.59019,104.74821 h 1.8501"
       id="path247880"
       sodipodi:nodetypes="cc" />
    <path
       style="fill:none;fill-opacity:1;stroke:#666666;stroke-width:0.147761;stroke-linecap:round;stroke-linejoin:miter;stroke-miterlimit:4;stroke-dasharray:none;stroke-dashoffset:0;stroke-opacity:1;paint-order:fill markers stroke;stop-color:#000000"
       d="m 141.59018,105.42578 1.66919,-1e-5"
       id="path247882"
       sodipodi:nodetypes="cc" />
    <rect
       style="fill:#ccff42;fill-opacity:1;stroke:#666666;stroke-width:0.147761;stroke-linecap:round;stroke-linejoin:miter;stroke-miterlimit:4;stroke-dasharray:none;stroke-dashoffset:0;stroke-opacity:1;paint-order:fill markers stroke;stop-color:#000000"
       id="rect247886"
       width="1.9273709"
       height="1.8308841"
       x="141.5466"
       y="106.32185"
       ry="0.067376748"
       rx="0.080034405" />
    <path
       style="fill:#009100;fill-opacity:1;stroke:none;stroke-width:0.147761;stroke-linecap:round;stroke-linejoin:miter;stroke-miterlimit:4;stroke-dasharray:none;stroke-dashoffset:0;stroke-opacity:1;paint-order:fill markers stroke;stop-color:#000000"
       id="path247892"
       d="m 141.7331,106.83949 c 0.0583,0.0567 0.11134,0.11925 0.16291,0.18212 0.0459,0.0567 0.0883,0.11656 0.1284,0.17762 0.0311,0.045 0.0555,0.0939 0.0779,0.14383 0.0312,0.068 0.0601,0.13686 0.0828,0.2082 0.0162,0.0568 0.0304,0.11532 0.0408,0.17411 6.7e-4,0.003 0.002,0.0183 0.003,0.0236 -0.002,0.001 -7.3e-4,0.005 -0.002,0.008 0.1068,0.0512 0.21079,0.10767 0.32005,0.15349 0.005,0.004 0.003,-0.009 0.005,-0.0181 0.003,-0.006 0.003,-0.015 0.005,-0.022 0.009,-0.0435 0.021,-0.0872 0.0347,-0.13024 0.006,-0.0228 0.0161,-0.0526 0.0236,-0.075 0.0204,-0.0632 0.0479,-0.123 0.0799,-0.18119 0.0251,-0.048 0.0579,-0.091 0.0895,-0.13456 0.028,-0.0377 0.0579,-0.0738 0.0871,-0.11055 0.0208,-0.0273 0.0434,-0.053 0.067,-0.077 0.0195,-0.0203 0.0411,-0.0379 0.0609,-0.0576 0.0207,-0.0174 0.0428,-0.0338 0.0631,-0.0516 0.0183,-0.0172 0.0388,-0.0314 0.0601,-0.0451 0.0162,-0.009 0.0299,-0.0225 0.0453,-0.0327 0.0135,-0.007 0.0229,-0.0224 0.0384,-0.0286 0.009,-0.006 0.0232,-0.0135 0.0362,-0.0156 0.007,1.5e-4 0.0151,6.6e-4 0.0228,-2.5e-4 0.007,0.001 0.0144,-0.004 0.0184,-0.009 0,0 -0.29896,-0.19316 -0.29896,-0.19316 v 0 c 10e-4,-0.003 2.3e-4,-0.003 -0.003,-0.003 -0.005,-7.5e-4 0.001,0.002 -0.004,1.5e-4 -0.008,0.001 -0.0186,0.004 -0.0275,0.007 -0.0144,0.006 -0.0277,0.0145 -0.0404,0.0232 -0.0135,0.009 -0.0272,0.0206 -0.0403,0.031 -0.0135,0.009 -0.0278,0.0226 -0.0428,0.0327 -0.0205,0.016 -0.0416,0.0314 -0.0618,0.049 -0.0211,0.0176 -0.0425,0.035 -0.0629,0.0531 -0.0212,0.0187 -0.043,0.0382 -0.0627,0.0591 -0.0242,0.0257 -0.0454,0.0533 -0.0667,0.0813 -0.0288,0.0373 -0.0582,0.0741 -0.0863,0.11226 -0.0333,0.0442 -0.0643,0.0911 -0.0912,0.1397 -0.0301,0.061 -0.0572,0.12374 -0.0782,0.18846 -0.009,0.0376 -0.026,0.0748 -0.0374,0.11292 -0.005,0.0219 -0.009,0.0431 -0.0194,0.0637 -0.002,0.007 -0.005,0.0171 -0.008,0.0253 -0.003,0.006 -0.005,0.009 -0.006,0.0195 -0.001,0.003 -0.007,0.007 -0.004,0.008 0.10222,0.0584 0.20885,0.10885 0.31192,0.16569 0.001,0.002 -0.003,0.003 -0.006,0.003 -0.007,-0.002 -10e-4,-0.0221 -0.007,-0.0247 -0.0149,-0.0602 -0.0299,-0.12 -0.0466,-0.17948 -0.008,-0.0319 -0.009,-0.044 -0.0235,-0.0748 -0.0158,-0.0461 -0.0362,-0.0907 -0.0547,-0.13566 -0.0212,-0.0506 -0.0415,-0.10253 -0.0738,-0.14832 -0.0428,-0.0622 -0.0874,-0.12386 -0.13455,-0.18359 -0.0135,-0.0159 -0.0455,-0.056 -0.0584,-0.0729 -0.03,-0.0359 -0.0618,-0.0702 -0.0906,-0.10756 0,0 -0.32471,-0.13457 -0.32471,-0.13457 z" />
    <rect
       style="fill:#ccff42;fill-opacity:1;stroke:#666666;stroke-width:0.147761;stroke-linecap:round;stroke-linejoin:miter;stroke-miterlimit:4;stroke-dasharray:none;stroke-dashoffset:0;stroke-opacity:1;paint-order:fill markers stroke;stop-color:#000000"
       id="rect248182"
       width="1.9273709"
       height="1.8308841"
       x="146.41576"
       y="106.32185"
       ry="0.067376748"
       rx="0.080034405" />
    <path
       style="fill:#009100;fill-opacity:1;stroke:none;stroke-width:0.147761;stroke-linecap:round;stroke-linejoin:miter;stroke-miterlimit:4;stroke-dasharray:none;stroke-dashoffset:0;stroke-opacity:1;paint-order:fill markers stroke;stop-color:#000000"
       id="path248188"
       d="m 146.60222,106.83949 c 0.0583,0.0567 0.11134,0.11925 0.16291,0.18213 0.0458,0.0566 0.0876,0.11666 0.1284,0.17763 0.0311,0.045 0.0556,0.0939 0.0776,0.14381 0.0312,0.068 0.0595,0.13703 0.0822,0.20821 0.0166,0.0577 0.0304,0.11532 0.0408,0.1741 6.8e-4,0.003 0.002,0.0183 0.003,0.0236 -0.002,0.001 -7e-4,0.005 -0.002,0.008 0.10681,0.0512 0.21084,0.10767 0.32009,0.15349 0.005,0.004 0.003,-0.009 0.005,-0.0181 0.003,-0.006 0.003,-0.0149 0.005,-0.022 0.009,-0.0435 0.0211,-0.0876 0.0345,-0.13038 0.006,-0.0228 0.0169,-0.0526 0.0236,-0.0746 0.0203,-0.0631 0.0479,-0.12324 0.0796,-0.1812 0.0251,-0.0481 0.0565,-0.0915 0.0895,-0.13454 0.028,-0.0377 0.0579,-0.0738 0.0871,-0.11088 0.0207,-0.0273 0.0434,-0.053 0.0671,-0.077 0.0193,-0.0203 0.0411,-0.0379 0.061,-0.0577 0.0207,-0.0174 0.0428,-0.0338 0.0632,-0.0517 0.0182,-0.0172 0.0388,-0.0319 0.06,-0.0453 0.0169,-0.009 0.0299,-0.0225 0.0453,-0.0327 0.009,-0.009 0.0228,-0.0224 0.0383,-0.0286 0.009,-0.006 0.0232,-0.0135 0.0362,-0.0156 0.007,1e-4 0.0153,-6.2e-4 0.0228,-2.5e-4 0.008,10e-4 0.0143,-0.004 0.0184,-0.009 0,0 -0.29895,-0.19313 -0.29895,-0.19313 v 0 c 0.001,-0.003 2.2e-4,-0.003 -0.003,-0.003 -0.005,-7.4e-4 10e-4,0.002 -0.004,1.9e-4 -0.009,0.002 -0.0187,0.004 -0.0275,0.007 -0.0145,0.006 -0.0277,0.0146 -0.0404,0.0232 -0.0135,0.009 -0.0272,0.0207 -0.0404,0.0311 -0.0135,0.009 -0.0279,0.0226 -0.0428,0.0326 -0.0205,0.016 -0.0415,0.0319 -0.0616,0.0487 -0.0212,0.0175 -0.0425,0.035 -0.0629,0.0531 -0.0213,0.0189 -0.043,0.0382 -0.0627,0.0591 -0.0247,0.0257 -0.0454,0.0533 -0.0668,0.0813 -0.029,0.0373 -0.0582,0.0741 -0.0862,0.11214 -0.0333,0.0448 -0.0643,0.0912 -0.0913,0.13973 -0.0301,0.061 -0.0568,0.12375 -0.0782,0.18843 -0.009,0.0376 -0.026,0.0751 -0.0374,0.11338 -0.005,0.0212 -0.009,0.0431 -0.0196,0.0637 -0.002,0.007 -0.005,0.0171 -0.008,0.0253 -0.003,0.006 -0.005,0.009 -0.006,0.0196 -0.001,0.003 -0.007,0.007 -0.004,0.008 0.10222,0.0584 0.20887,0.10884 0.31189,0.16579 10e-4,0.002 -0.003,0.003 -0.006,0.003 -0.007,-0.003 -0.001,-0.0221 -0.007,-0.0247 -0.015,-0.0602 -0.0299,-0.12 -0.0466,-0.17954 -0.008,-0.0315 -0.009,-0.0439 -0.0235,-0.0746 -0.0158,-0.0461 -0.0362,-0.0907 -0.0545,-0.13565 -0.0218,-0.0508 -0.0424,-0.10254 -0.0739,-0.14829 -0.0428,-0.0627 -0.0874,-0.12387 -0.13456,-0.18363 -0.0135,-0.016 -0.0455,-0.056 -0.0584,-0.0726 -0.03,-0.0359 -0.0627,-0.0704 -0.0907,-0.10756 0,0 -0.32473,-0.13456 -0.32473,-0.13456 z" />
    <rect
       style="fill:#ccff42;fill-opacity:1;stroke:#666666;stroke-width:0.147761;stroke-linecap:round;stroke-linejoin:miter;stroke-miterlimit:4;stroke-dasharray:none;stroke-dashoffset:0;stroke-opacity:1;paint-order:fill markers stroke;stop-color:#000000"
       id="rect248270"
       width="1.9273709"
       height="1.8308841"
       x="143.98117"
       y="106.32185"
       ry="0.067376748"
       rx="0.080034405" />
    <path
       style="fill:#009100;fill-opacity:1;stroke:none;stroke-width:0.147761;stroke-linecap:round;stroke-linejoin:miter;stroke-miterlimit:4;stroke-dasharray:none;stroke-dashoffset:0;stroke-opacity:1;paint-order:fill markers stroke;stop-color:#000000"
       id="path248272"
       d="m 144.16762,106.83949 c 0.0584,0.0567 0.11135,0.11925 0.16292,0.18212 0.0459,0.0567 0.0882,0.11666 0.12816,0.17762 0.0311,0.045 0.0555,0.0939 0.078,0.14383 0.0312,0.068 0.0594,0.13686 0.0821,0.20824 0.0161,0.0577 0.0304,0.11522 0.0408,0.17407 6.9e-4,0.003 0.002,0.0183 0.003,0.0237 -0.002,10e-4 -7.2e-4,0.005 -0.002,0.008 0.1068,0.0512 0.21088,0.10811 0.32006,0.1535 0.005,0.004 0.003,-0.009 0.005,-0.0181 0.003,-0.006 0.003,-0.0149 0.005,-0.0221 0.009,-0.0434 0.021,-0.0872 0.0346,-0.13038 0.006,-0.0228 0.0165,-0.0526 0.0235,-0.0746 0.0204,-0.0632 0.0479,-0.12299 0.0796,-0.18121 0.025,-0.0479 0.0566,-0.0915 0.0895,-0.13454 0.028,-0.0377 0.0579,-0.0738 0.0871,-0.11044 0.0208,-0.0273 0.0434,-0.053 0.0671,-0.077 0.0195,-0.0203 0.0411,-0.0379 0.0609,-0.0579 0.0207,-0.0173 0.0428,-0.0337 0.0631,-0.0517 0.0182,-0.0172 0.0388,-0.0313 0.0602,-0.0453 0.0169,-0.009 0.0299,-0.0225 0.0453,-0.0327 0.0135,-0.007 0.023,-0.0225 0.0384,-0.0286 0.009,-0.006 0.0232,-0.0135 0.0363,-0.0156 0.007,1.7e-4 0.0151,6.8e-4 0.0227,-2.1e-4 0.007,0.001 0.014,-0.004 0.0184,-0.009 0,0 -0.29896,-0.19315 -0.29896,-0.19315 v 0 c 0.001,-0.003 2.3e-4,-0.003 -0.003,-0.003 -0.005,-7.3e-4 0.001,0.002 -0.004,1.4e-4 -0.008,0.001 -0.0186,0.004 -0.0275,0.007 -0.0142,0.006 -0.0277,0.0146 -0.0404,0.0232 -0.0135,0.009 -0.0265,0.0207 -0.0404,0.0311 -0.0135,0.009 -0.0278,0.0226 -0.0428,0.0326 -0.0204,0.016 -0.0415,0.0317 -0.0617,0.049 -0.0211,0.0176 -0.0425,0.035 -0.0629,0.0531 -0.0212,0.019 -0.043,0.0381 -0.0619,0.0591 -0.0243,0.0257 -0.0453,0.0533 -0.0668,0.0813 -0.0295,0.0374 -0.0582,0.0741 -0.0863,0.11225 -0.0333,0.0449 -0.0643,0.0911 -0.0912,0.13982 -0.0301,0.061 -0.0573,0.12374 -0.0783,0.1884 -0.009,0.0376 -0.026,0.0745 -0.0374,0.1127 -0.005,0.0221 -0.009,0.0431 -0.0189,0.0637 -0.002,0.007 -0.005,0.0171 -0.008,0.0253 -0.003,0.006 -0.005,0.009 -0.006,0.0195 -0.001,0.003 -0.007,0.007 -0.004,0.008 0.10222,0.0584 0.20889,0.10885 0.3119,0.16583 0.001,0.002 -0.003,0.003 -0.006,0.003 -0.007,-0.002 -0.001,-0.0221 -0.007,-0.0247 -0.015,-0.0602 -0.0299,-0.12012 -0.0465,-0.17951 -0.008,-0.0315 -0.009,-0.0439 -0.0235,-0.0747 -0.0158,-0.0461 -0.0362,-0.0907 -0.055,-0.13551 -0.0212,-0.0507 -0.0424,-0.10253 -0.0738,-0.14827 -0.0428,-0.0627 -0.0874,-0.12387 -0.13456,-0.18366 -0.0135,-0.016 -0.0455,-0.056 -0.0584,-0.0728 -0.03,-0.036 -0.0624,-0.0703 -0.0907,-0.10756 0,0 -0.3247,-0.13456 -0.3247,-0.13456 z" />
    <rect
       style="fill:#ccff42;fill-opacity:1;stroke:#666666;stroke-width:0.147761;stroke-linecap:round;stroke-linejoin:miter;stroke-miterlimit:4;stroke-dasharray:none;stroke-dashoffset:0;stroke-opacity:1;paint-order:fill markers stroke;stop-color:#000000"
       id="rect248274"
       width="1.9273709"
       height="1.8308841"
       x="148.85028"
       y="106.32185"
       ry="0.067376748"
       rx="0.080034405" />
    <path
       style="fill:#009100;fill-opacity:1;stroke:none;stroke-width:0.147761;stroke-linecap:round;stroke-linejoin:miter;stroke-miterlimit:4;stroke-dasharray:none;stroke-dashoffset:0;stroke-opacity:1;paint-order:fill markers stroke;stop-color:#000000"
       id="path248276"
       d="m 149.03676,106.83949 c 0.0584,0.0567 0.11134,0.11925 0.16292,0.18213 0.0459,0.0567 0.0882,0.11666 0.12814,0.17761 0.0311,0.0444 0.0555,0.0939 0.0778,0.14383 0.0312,0.068 0.0602,0.13703 0.0822,0.20818 0.0162,0.0568 0.0304,0.11532 0.0408,0.17401 7.1e-4,0.003 0.002,0.0183 0.003,0.0237 -0.002,0.001 -7.3e-4,0.005 -0.002,0.008 0.10681,0.0512 0.21083,0.10811 0.32009,0.15351 0.005,0.004 0.003,-0.009 0.005,-0.0181 0.003,-0.006 0.003,-0.0149 0.005,-0.0215 0.009,-0.0435 0.021,-0.0872 0.0344,-0.13037 0.006,-0.0228 0.0169,-0.0526 0.0235,-0.0747 0.0203,-0.063 0.0479,-0.1231 0.0796,-0.18116 0.025,-0.0479 0.0579,-0.091 0.0895,-0.13456 0.028,-0.0377 0.0579,-0.0738 0.0871,-0.11042 0.0208,-0.0274 0.0434,-0.053 0.0678,-0.077 0.019,-0.0203 0.0411,-0.0379 0.061,-0.0579 0.0207,-0.0173 0.0429,-0.034 0.0631,-0.0524 0.0183,-0.0172 0.0388,-0.0313 0.0602,-0.0452 0.0168,-0.009 0.0299,-0.0225 0.0452,-0.0327 0.0135,-0.007 0.0242,-0.0206 0.0385,-0.0287 0.009,-0.006 0.0232,-0.0135 0.0363,-0.0156 0.007,1.3e-4 0.0152,-5.5e-4 0.0227,-2.1e-4 0.008,0.001 0.0144,-0.004 0.0184,-0.009 0,0 -0.29895,-0.19313 -0.29895,-0.19313 v 0 c 0.001,-0.003 2e-4,-0.003 -0.003,-0.003 -0.005,-7.3e-4 0.001,0.002 -0.004,1.6e-4 -0.009,0.002 -0.0186,0.004 -0.0275,0.007 -0.0144,0.006 -0.0277,0.0146 -0.0404,0.0232 -0.0135,0.009 -0.027,0.0207 -0.0403,0.031 -0.0135,0.009 -0.0278,0.0226 -0.0427,0.0325 -0.0205,0.016 -0.0417,0.032 -0.0617,0.049 -0.0213,0.0175 -0.0425,0.035 -0.0629,0.0531 -0.0208,0.0199 -0.043,0.0381 -0.0627,0.0591 -0.0247,0.0257 -0.0453,0.0533 -0.0668,0.0813 -0.0292,0.0372 -0.0582,0.0741 -0.0863,0.11224 -0.0333,0.0443 -0.0643,0.0911 -0.0912,0.13981 -0.0301,0.061 -0.0572,0.12374 -0.0783,0.18841 -0.009,0.0376 -0.0259,0.0748 -0.0374,0.1128 -0.005,0.0216 -0.009,0.0431 -0.0194,0.0637 -0.002,0.007 -0.005,0.0171 -0.008,0.0253 -0.003,0.006 -0.005,0.009 -0.006,0.0195 -0.001,0.003 -0.007,0.007 -0.004,0.008 0.10223,0.0584 0.20888,0.10885 0.31194,0.16569 10e-4,0.002 -0.003,0.003 -0.006,0.003 -0.007,-0.002 -0.001,-0.0216 -0.007,-0.0247 -0.015,-0.06 -0.0299,-0.12013 -0.0473,-0.17948 -0.008,-0.032 -0.009,-0.0439 -0.0235,-0.0752 -0.0158,-0.0461 -0.0362,-0.0908 -0.0549,-0.13564 -0.0216,-0.0507 -0.0425,-0.10253 -0.0739,-0.14826 -0.0428,-0.0626 -0.0873,-0.12387 -0.13457,-0.18361 -0.0135,-0.0161 -0.0455,-0.056 -0.0584,-0.073 -0.03,-0.036 -0.0618,-0.0701 -0.0905,-0.10756 0,0 -0.32474,-0.13453 -0.32474,-0.13453 z" />
  </g>
</svg>
