<?xml version="1.0" encoding="UTF-8" standalone="no"?>
<!-- Created with Inkscape (http://www.inkscape.org/) -->

<svg
   width="64"
   height="64"
   viewBox="0 0 16.933333 16.933333"
   version="1.1"
   id="svg5"
   inkscape:version="1.2.2 (b0a8486541, 2022-12-01)"
   sodipodi:docname="icon_store_omero.svg"
   xmlns:inkscape="http://www.inkscape.org/namespaces/inkscape"
   xmlns:sodipodi="http://sodipodi.sourceforge.net/DTD/sodipodi-0.dtd"
   xmlns="http://www.w3.org/2000/svg"
   xmlns:svg="http://www.w3.org/2000/svg">
  <sodipodi:namedview
     id="namedview7"
     pagecolor="#ffffff"
     bordercolor="#000000"
     borderopacity="0.25"
     inkscape:showpageshadow="2"
     inkscape:pageopacity="0.0"
     inkscape:pagecheckerboard="0"
     inkscape:deskcolor="#d1d1d1"
     inkscape:document-units="px"
     showgrid="false"
     inkscape:zoom="3.0415781"
     inkscape:cx="3.287767"
     inkscape:cy="31.562563"
     inkscape:window-width="1920"
     inkscape:window-height="1211"
     inkscape:window-x="0"
     inkscape:window-y="32"
     inkscape:window-maximized="1"
     inkscape:current-layer="layer1" />
  <defs
     id="defs2" />
  <g
     inkscape:label="Calque 1"
     inkscape:groupmode="layer"
     id="layer1"
     transform="translate(-182.97835,-57.039117)">
    <rect
       style="vector-effect:none;fill:#5fbcd3;fill-opacity:1;stroke:#364e59;stroke-width:0.480694;stroke-linecap:butt;stroke-linejoin:round;stroke-miterlimit:4;stroke-dasharray:none;stroke-dashoffset:0;stroke-opacity:1;-inkscape-stroke:none;paint-order:fill markers stroke;stop-color:#000000"
       id="rect274121"
       width="11.767268"
       height="12.110434"
       x="-197.61702"
       y="60.087875"
       rx="0.042162575"
       ry="0.090872385"
       transform="scale(-1,1)" />
    <g
       id="g274141"
       transform="matrix(-0.42335667,0,0,0.42335667,220.22028,-20.242516)">
      <g
         id="g274135"
         transform="matrix(0.01054635,0,0,0.01054635,64.93768,205.15728)">
        <path
           id="path274123"
           d="M 256,448 C 256,518.7 198.7,576 128,576 57.3,576 0,518.7 0,448 0,377.3 57.3,320 128,320 c 70.7,0 128,57.3 128,128 z"
           class="st0"
           style="fill:#df283f" />
        <path
           id="path274125"
           d="m 1024,448 c 0,70.7 -57.3,128 -128,128 -70.7,0 -128,-57.3 -128,-128 0,-70.7 57.3,-128 128,-128 70.7,0 128,57.3 128,128 z"
           class="st1"
           style="fill:#1c4a87" />
        <path
           id="path274127"
           d="M 832,128 C 832,198.7 774.7,256 704,256 633.3,256 576,198.7 576,128 576,57.3 633.3,0 704,0 774.7,0 832,57.3 832,128 Z"
           class="st2"
           style="fill:#128669" />
        <path
           id="path274129"
           d="M 448,128 C 448,198.7 390.7,256 320,256 249.3,256 192,198.7 192,128 192,57.3 249.3,0 320,0 390.7,0 448,57.3 448,128 Z"
           class="st1"
           style="fill:#1c4a87" />
        <path
           id="path274131"
           d="m 832,768 c 0,70.7 -57.3,128 -128,128 -70.7,0 -128,-57.3 -128,-128 0,-70.7 57.3,-128 128,-128 70.7,0 128,57.3 128,128 z"
           class="st3"
           style="fill:#1d8dcd" />
        <path
           id="path274133"
           d="m 448,768 c 0,70.7 -57.3,128 -128,128 -70.7,0 -128,-57.3 -128,-128 0,-70.7 57.3,-128 128,-128 70.7,0 128,57.3 128,128 z"
           class="st1"
           style="fill:#1c4a87" />
      </g>
    </g>
  </g>
</svg>
