<svg width="288" height="63" viewBox="0 0 288 63" fill="none" xmlns="http://www.w3.org/2000/svg">
<path d="M40.2199 22.2424C40.2199 25.188 42.6077 27.5758 45.5532 27.5758C48.4987 27.5758 50.8865 25.188 50.8865 22.2424C50.8865 19.2969 48.4987 16.9091 45.5532 16.9091C42.6077 16.9091 40.2199 19.2969 40.2199 22.2424ZM19 22.2424V23.2424L45.5532 23.2424V22.2424V21.2424L19 21.2424V22.2424Z" fill="white"/>
<path d="M114.381 8.97723C115.854 11.5281 119.116 12.4021 121.667 10.9294C124.218 9.45661 125.092 6.19479 123.619 3.6439C122.146 1.093 118.884 0.219 116.333 1.69176C113.782 3.16452 112.908 6.42633 114.381 8.97723ZM96.0043 19.5872L96.5043 20.4532L119.5 7.17659L119 6.31056L118.5 5.44454L95.5043 18.7211L96.0043 19.5872Z" fill="white"/>
<path d="M114.381 35.5079C112.908 38.0588 113.782 41.3206 116.333 42.7933C118.884 44.2661 122.146 43.3921 123.619 40.8412C125.092 38.2903 124.218 35.0285 121.667 33.5557C119.116 32.083 115.854 32.957 114.381 35.5079ZM96.0043 24.8979L95.5043 25.764L118.5 39.0406L119 38.1745L119.5 37.3085L96.5043 24.0319L96.0043 24.8979Z" fill="white"/>
<path d="M146.453 26.9531C146.453 26.599 146.401 26.2812 146.297 26C146.193 25.7083 146 25.4375 145.719 25.1875C145.438 24.9375 145.031 24.6875 144.5 24.4375C143.979 24.1771 143.292 23.9062 142.438 23.625C141.438 23.2917 140.474 22.9167 139.547 22.5C138.62 22.0729 137.792 21.5781 137.062 21.0156C136.333 20.4427 135.755 19.776 135.328 19.0156C134.901 18.2448 134.688 17.349 134.688 16.3281C134.688 15.349 134.906 14.4688 135.344 13.6875C135.781 12.8958 136.391 12.224 137.172 11.6719C137.964 11.1094 138.891 10.6823 139.953 10.3906C141.016 10.0885 142.177 9.9375 143.438 9.9375C145.104 9.9375 146.573 10.2292 147.844 10.8125C149.125 11.3854 150.125 12.2031 150.844 13.2656C151.573 14.3177 151.938 15.5625 151.938 17H146.484C146.484 16.4271 146.365 15.9219 146.125 15.4844C145.896 15.0469 145.547 14.7031 145.078 14.4531C144.609 14.2031 144.021 14.0781 143.312 14.0781C142.625 14.0781 142.047 14.1823 141.578 14.3906C141.109 14.599 140.755 14.8802 140.516 15.2344C140.276 15.5781 140.156 15.9583 140.156 16.375C140.156 16.7188 140.25 17.0312 140.438 17.3125C140.635 17.5833 140.911 17.8385 141.266 18.0781C141.63 18.3177 142.068 18.5469 142.578 18.7656C143.099 18.9844 143.682 19.1979 144.328 19.4062C145.536 19.7917 146.609 20.224 147.547 20.7031C148.495 21.1719 149.292 21.7083 149.938 22.3125C150.594 22.9062 151.089 23.5833 151.422 24.3438C151.766 25.1042 151.938 25.9635 151.938 26.9219C151.938 27.9427 151.74 28.849 151.344 29.6406C150.948 30.4323 150.38 31.1042 149.641 31.6562C148.901 32.1979 148.016 32.6094 146.984 32.8906C145.953 33.1719 144.802 33.3125 143.531 33.3125C142.365 33.3125 141.214 33.1667 140.078 32.875C138.953 32.5729 137.932 32.1146 137.016 31.5C136.099 30.875 135.365 30.0781 134.812 29.1094C134.271 28.1302 134 26.9688 134 25.625H139.5C139.5 26.2917 139.589 26.8542 139.766 27.3125C139.943 27.7708 140.203 28.1406 140.547 28.4219C140.891 28.6927 141.312 28.8906 141.812 29.0156C142.312 29.1302 142.885 29.1875 143.531 29.1875C144.229 29.1875 144.792 29.0885 145.219 28.8906C145.646 28.6823 145.958 28.4115 146.156 28.0781C146.354 27.7344 146.453 27.3594 146.453 26.9531ZM159.828 19.3438V39.5H154.562V16.0938H159.469L159.828 19.3438ZM170.203 24.3438V24.6719C170.203 25.901 170.062 27.0417 169.781 28.0938C169.5 29.1458 169.083 30.0625 168.531 30.8438C167.979 31.625 167.292 32.2344 166.469 32.6719C165.656 33.099 164.714 33.3125 163.641 33.3125C162.63 33.3125 161.76 33.0885 161.031 32.6406C160.302 32.1927 159.693 31.5729 159.203 30.7812C158.714 29.9896 158.318 29.0833 158.016 28.0625C157.714 27.0417 157.474 25.9635 157.297 24.8281V24.4062C157.474 23.1875 157.714 22.0573 158.016 21.0156C158.318 19.9635 158.714 19.0469 159.203 18.2656C159.693 17.4844 160.297 16.875 161.016 16.4375C161.745 16 162.615 15.7812 163.625 15.7812C164.698 15.7812 165.641 15.9844 166.453 16.3906C167.276 16.7969 167.964 17.3802 168.516 18.1406C169.078 18.8906 169.5 19.7917 169.781 20.8438C170.062 21.8958 170.203 23.0625 170.203 24.3438ZM164.938 24.6719V24.3438C164.938 23.6875 164.891 23.0885 164.797 22.5469C164.703 21.9948 164.552 21.5156 164.344 21.1094C164.146 20.7031 163.88 20.3906 163.547 20.1719C163.214 19.9531 162.802 19.8438 162.312 19.8438C161.75 19.8438 161.276 19.9323 160.891 20.1094C160.516 20.276 160.214 20.5365 159.984 20.8906C159.766 21.2344 159.609 21.6667 159.516 22.1875C159.432 22.6979 159.396 23.2969 159.406 23.9844V25.2656C159.385 26.0573 159.464 26.7552 159.641 27.3594C159.818 27.9531 160.125 28.4167 160.562 28.75C161 29.0833 161.594 29.25 162.344 29.25C162.844 29.25 163.26 29.1354 163.594 28.9062C163.927 28.6667 164.193 28.3385 164.391 27.9219C164.589 27.4948 164.729 27.0052 164.812 26.4531C164.896 25.901 164.938 25.3073 164.938 24.6719ZM178.109 9V33H172.828V9H178.109ZM186.922 16.0938V33H181.641V16.0938H186.922ZM181.328 11.7344C181.328 10.9844 181.599 10.3698 182.141 9.89062C182.682 9.41146 183.385 9.17188 184.25 9.17188C185.115 9.17188 185.818 9.41146 186.359 9.89062C186.901 10.3698 187.172 10.9844 187.172 11.7344C187.172 12.4844 186.901 13.099 186.359 13.5781C185.818 14.0573 185.115 14.2969 184.25 14.2969C183.385 14.2969 182.682 14.0573 182.141 13.5781C181.599 13.099 181.328 12.4844 181.328 11.7344ZM199.078 16.0938V19.75H188.891V16.0938H199.078ZM191.031 11.8906H196.297V27.4844C196.297 27.9323 196.349 28.2812 196.453 28.5312C196.557 28.7708 196.734 28.9427 196.984 29.0469C197.245 29.1406 197.589 29.1875 198.016 29.1875C198.318 29.1875 198.568 29.1823 198.766 29.1719C198.964 29.151 199.151 29.125 199.328 29.0938V32.8594C198.88 33.0052 198.411 33.1146 197.922 33.1875C197.432 33.2708 196.911 33.3125 196.359 33.3125C195.234 33.3125 194.271 33.1354 193.469 32.7812C192.677 32.4271 192.073 31.8698 191.656 31.1094C191.24 30.349 191.031 29.3594 191.031 28.1406V11.8906ZM210.078 16.0938V19.75H199.891V16.0938H210.078ZM202.031 11.8906H207.297V27.4844C207.297 27.9323 207.349 28.2812 207.453 28.5312C207.557 28.7708 207.734 28.9427 207.984 29.0469C208.245 29.1406 208.589 29.1875 209.016 29.1875C209.318 29.1875 209.568 29.1823 209.766 29.1719C209.964 29.151 210.151 29.125 210.328 29.0938V32.8594C209.88 33.0052 209.411 33.1146 208.922 33.1875C208.432 33.2708 207.911 33.3125 207.359 33.3125C206.234 33.3125 205.271 33.1354 204.469 32.7812C203.677 32.4271 203.073 31.8698 202.656 31.1094C202.24 30.349 202.031 29.3594 202.031 28.1406V11.8906ZM220.359 33.3125C218.984 33.3125 217.755 33.099 216.672 32.6719C215.589 32.2344 214.672 31.6354 213.922 30.875C213.182 30.1146 212.615 29.2396 212.219 28.25C211.833 27.2604 211.641 26.2135 211.641 25.1094V24.5156C211.641 23.276 211.812 22.1302 212.156 21.0781C212.5 20.0156 213.01 19.0885 213.688 18.2969C214.365 17.5052 215.214 16.8906 216.234 16.4531C217.255 16.0052 218.443 15.7812 219.797 15.7812C220.995 15.7812 222.068 15.974 223.016 16.3594C223.964 16.7448 224.766 17.2969 225.422 18.0156C226.089 18.7344 226.594 19.6042 226.938 20.625C227.292 21.6458 227.469 22.7917 227.469 24.0625V26.2031H213.656V22.9062H222.328V22.5C222.339 21.9375 222.24 21.4583 222.031 21.0625C221.833 20.6667 221.542 20.3646 221.156 20.1562C220.771 19.9479 220.302 19.8438 219.75 19.8438C219.177 19.8438 218.703 19.9688 218.328 20.2188C217.964 20.4688 217.677 20.8125 217.469 21.25C217.271 21.6771 217.13 22.1719 217.047 22.7344C216.964 23.2969 216.922 23.8906 216.922 24.5156V25.1094C216.922 25.7344 217.005 26.3021 217.172 26.8125C217.349 27.3229 217.599 27.7604 217.922 28.125C218.255 28.4792 218.651 28.7552 219.109 28.9531C219.578 29.151 220.109 29.25 220.703 29.25C221.422 29.25 222.13 29.1146 222.828 28.8438C223.526 28.5729 224.125 28.125 224.625 27.5L227.016 30.3438C226.672 30.8333 226.182 31.3073 225.547 31.7656C224.922 32.224 224.172 32.599 223.297 32.8906C222.422 33.1719 221.443 33.3125 220.359 33.3125ZM234.922 20.2812V33H229.656V16.0938H234.578L234.922 20.2812ZM239.922 15.9688L239.828 20.8594C239.62 20.8385 239.339 20.8125 238.984 20.7812C238.63 20.75 238.333 20.7344 238.094 20.7344C237.479 20.7344 236.948 20.8073 236.5 20.9531C236.062 21.0885 235.698 21.2969 235.406 21.5781C235.125 21.849 234.917 22.1927 234.781 22.6094C234.656 23.026 234.599 23.5104 234.609 24.0625L233.656 23.4375C233.656 22.3021 233.766 21.2708 233.984 20.3438C234.214 19.4062 234.536 18.599 234.953 17.9219C235.37 17.2344 235.875 16.7083 236.469 16.3438C237.062 15.9688 237.729 15.7812 238.469 15.7812C238.729 15.7812 238.984 15.7969 239.234 15.8281C239.495 15.8594 239.724 15.9062 239.922 15.9688ZM243.844 10.25H246.766L254.219 28.7969L261.656 10.25H264.594L255.344 33H253.062L243.844 10.25ZM242.891 10.25H245.469L245.891 24.125V33H242.891V10.25ZM262.953 10.25H265.531V33H262.531V24.125L262.953 10.25ZM270.828 10.25H278.359C280.068 10.25 281.51 10.5104 282.688 11.0312C283.875 11.5521 284.776 12.3229 285.391 13.3438C286.016 14.3542 286.328 15.599 286.328 17.0781C286.328 18.1198 286.115 19.0729 285.688 19.9375C285.271 20.7917 284.667 21.5208 283.875 22.125C283.094 22.7188 282.156 23.1615 281.062 23.4531L280.219 23.7812H273.141L273.109 21.3281H278.453C279.536 21.3281 280.438 21.1406 281.156 20.7656C281.875 20.3802 282.417 19.8646 282.781 19.2188C283.146 18.5729 283.328 17.8594 283.328 17.0781C283.328 16.2031 283.156 15.4375 282.812 14.7812C282.469 14.125 281.927 13.6198 281.188 13.2656C280.458 12.901 279.516 12.7188 278.359 12.7188H273.844V33H270.828V10.25ZM284.125 33L278.594 22.6875L281.734 22.6719L287.344 32.8125V33H284.125Z" fill="white"/>
<path d="M85.6211 48.5H86.4414V57.5645L86.3867 59H85.6211V48.5ZM91.5889 55.2334V55.377C91.5889 55.9284 91.5251 56.4342 91.3975 56.8945C91.2699 57.3548 91.0853 57.7536 90.8438 58.0908C90.6022 58.4235 90.306 58.681 89.9551 58.8633C89.6087 59.0456 89.21 59.1367 88.7588 59.1367C88.3167 59.1367 87.9248 59.0684 87.583 58.9316C87.2412 58.7904 86.9495 58.5921 86.708 58.3369C86.4665 58.0771 86.2728 57.7741 86.127 57.4277C85.9811 57.0768 85.8786 56.6917 85.8193 56.2725V54.4473C85.8877 54.0007 85.9971 53.5951 86.1475 53.2305C86.2979 52.8659 86.4915 52.5514 86.7285 52.2871C86.9701 52.0228 87.2572 51.82 87.5898 51.6787C87.9271 51.5374 88.3122 51.4668 88.7451 51.4668C89.1963 51.4668 89.5973 51.5557 89.9482 51.7334C90.3037 51.9066 90.6022 52.1595 90.8438 52.4922C91.0853 52.8203 91.2699 53.2168 91.3975 53.6816C91.5251 54.1419 91.5889 54.6592 91.5889 55.2334ZM90.7617 55.377V55.2334C90.7617 54.8005 90.7207 54.3994 90.6387 54.0303C90.5566 53.6611 90.4268 53.3398 90.249 53.0664C90.0758 52.7884 89.8525 52.5719 89.5791 52.417C89.3057 52.262 88.9775 52.1846 88.5947 52.1846C88.2028 52.1846 87.8678 52.2507 87.5898 52.3828C87.3164 52.5104 87.0885 52.6813 86.9062 52.8955C86.7285 53.1051 86.5872 53.3353 86.4824 53.5859C86.3776 53.8366 86.3001 54.0827 86.25 54.3242V56.4502C86.3275 56.792 86.4619 57.1133 86.6533 57.4141C86.8447 57.7148 87.1022 57.9587 87.4258 58.1455C87.7493 58.3278 88.1436 58.4189 88.6084 58.4189C88.9821 58.4189 89.3034 58.3415 89.5723 58.1865C89.8457 58.0316 90.069 57.8174 90.2422 57.5439C90.4199 57.2705 90.5498 56.9492 90.6318 56.5801C90.7184 56.2109 90.7617 55.8099 90.7617 55.377ZM95.5127 58.2617L97.8164 51.6035H98.6982L95.5674 60.1895C95.5036 60.3581 95.4215 60.5449 95.3213 60.75C95.2256 60.9551 95.098 61.151 94.9385 61.3379C94.7835 61.5293 94.5876 61.6842 94.3506 61.8027C94.1182 61.9258 93.8333 61.9873 93.4961 61.9873C93.4095 61.9873 93.2979 61.9759 93.1611 61.9531C93.029 61.9349 92.9333 61.9167 92.874 61.8984L92.8672 61.208C92.9173 61.2217 92.9902 61.2331 93.0859 61.2422C93.1816 61.2513 93.2477 61.2559 93.2842 61.2559C93.5804 61.2559 93.8288 61.2057 94.0293 61.1055C94.2344 61.0052 94.4053 60.8548 94.542 60.6543C94.6787 60.4583 94.7995 60.2122 94.9043 59.916L95.5127 58.2617ZM93.3594 51.6035L95.7178 57.9541L95.9365 58.8086L95.3418 59.1436L92.4707 51.6035H93.3594ZM106.854 49.6416L103.408 59H102.533L106.293 49.0469H106.901L106.854 49.6416ZM109.984 59L106.532 49.6416L106.484 49.0469H107.093L110.859 59H109.984ZM109.369 55.4863V56.2109H104.085V55.4863H109.369ZM112.958 53.1826V59H112.145V51.6035H112.924L112.958 53.1826ZM112.773 54.8438L112.411 54.6387C112.438 54.2012 112.527 53.791 112.678 53.4082C112.828 53.0254 113.031 52.6882 113.286 52.3965C113.546 52.1048 113.849 51.877 114.195 51.7129C114.546 51.5488 114.934 51.4668 115.357 51.4668C115.727 51.4668 116.057 51.5169 116.349 51.6172C116.64 51.7174 116.889 51.877 117.094 52.0957C117.299 52.3145 117.454 52.5947 117.559 52.9365C117.668 53.2783 117.723 53.6953 117.723 54.1875V59H116.902V54.1807C116.902 53.6702 116.832 53.2715 116.69 52.9844C116.549 52.6927 116.349 52.4854 116.089 52.3623C115.829 52.2393 115.521 52.1777 115.166 52.1777C114.774 52.1777 114.43 52.2643 114.134 52.4375C113.842 52.6061 113.596 52.8271 113.396 53.1006C113.2 53.3695 113.049 53.6589 112.944 53.9688C112.84 54.2741 112.783 54.5658 112.773 54.8438ZM124.647 57.5645V48.5H125.468V59H124.702L124.647 57.5645ZM119.514 55.377V55.2334C119.514 54.6592 119.58 54.1419 119.712 53.6816C119.844 53.2168 120.033 52.8203 120.279 52.4922C120.53 52.1595 120.831 51.9066 121.182 51.7334C121.533 51.5557 121.929 51.4668 122.371 51.4668C122.804 51.4668 123.187 51.5374 123.52 51.6787C123.852 51.82 124.137 52.0228 124.374 52.2871C124.616 52.5514 124.809 52.8659 124.955 53.2305C125.105 53.5951 125.215 54.0007 125.283 54.4473V56.2725C125.229 56.6917 125.128 57.0768 124.982 57.4277C124.837 57.7741 124.643 58.0771 124.401 58.3369C124.16 58.5921 123.868 58.7904 123.526 58.9316C123.189 59.0684 122.799 59.1367 122.357 59.1367C121.92 59.1367 121.526 59.0456 121.175 58.8633C120.824 58.681 120.525 58.4235 120.279 58.0908C120.033 57.7536 119.844 57.3548 119.712 56.8945C119.58 56.4342 119.514 55.9284 119.514 55.377ZM120.334 55.2334V55.377C120.334 55.8099 120.377 56.2109 120.464 56.5801C120.55 56.9492 120.683 57.2705 120.86 57.5439C121.038 57.8174 121.264 58.0316 121.537 58.1865C121.811 58.3415 122.134 58.4189 122.508 58.4189C122.977 58.4189 123.371 58.3301 123.69 58.1523C124.009 57.9701 124.265 57.7308 124.456 57.4346C124.647 57.1338 124.786 56.8057 124.873 56.4502V54.3242C124.818 54.0827 124.739 53.8366 124.634 53.5859C124.529 53.3353 124.385 53.1051 124.203 52.8955C124.025 52.6813 123.798 52.5104 123.52 52.3828C123.246 52.2507 122.913 52.1846 122.521 52.1846C122.143 52.1846 121.817 52.262 121.544 52.417C121.271 52.5719 121.043 52.7884 120.86 53.0664C120.683 53.3398 120.55 53.6611 120.464 54.0303C120.377 54.3994 120.334 54.8005 120.334 55.2334ZM128.435 52.8271V59H127.621V51.6035H128.414L128.435 52.8271ZM131.053 51.5488L131.032 52.3008C130.941 52.2871 130.852 52.2757 130.766 52.2666C130.679 52.2575 130.586 52.2529 130.485 52.2529C130.13 52.2529 129.818 52.319 129.549 52.4512C129.285 52.5788 129.061 52.7588 128.879 52.9912C128.697 53.2191 128.558 53.488 128.462 53.7979C128.366 54.1032 128.312 54.4313 128.298 54.7822L127.997 54.8984C127.997 54.4154 128.047 53.9665 128.147 53.5518C128.248 53.137 128.4 52.7747 128.605 52.4648C128.815 52.1504 129.077 51.9066 129.392 51.7334C129.711 51.5557 130.084 51.4668 130.513 51.4668C130.618 51.4668 130.72 51.4759 130.82 51.4941C130.925 51.5078 131.003 51.526 131.053 51.5488ZM135.059 59.1367C134.576 59.1367 134.131 59.0479 133.726 58.8701C133.325 58.6924 132.974 58.4417 132.673 58.1182C132.377 57.7946 132.146 57.4118 131.982 56.9697C131.823 56.5231 131.743 56.0355 131.743 55.5068V55.2129C131.743 54.6432 131.827 54.1283 131.996 53.668C132.165 53.2077 132.397 52.8135 132.693 52.4854C132.99 52.1572 133.327 51.9066 133.705 51.7334C134.088 51.5557 134.489 51.4668 134.908 51.4668C135.378 51.4668 135.795 51.5511 136.159 51.7197C136.524 51.8838 136.829 52.1185 137.075 52.4238C137.326 52.7246 137.515 53.0824 137.643 53.4971C137.77 53.9072 137.834 54.3607 137.834 54.8574V55.3564H132.235V54.6592H137.021V54.5635C137.011 54.1488 136.927 53.7614 136.768 53.4014C136.613 53.0368 136.38 52.7406 136.07 52.5127C135.76 52.2848 135.373 52.1709 134.908 52.1709C134.562 52.1709 134.243 52.2438 133.951 52.3896C133.664 52.5355 133.416 52.7451 133.206 53.0186C133.001 53.2874 132.841 53.6087 132.728 53.9824C132.618 54.3516 132.563 54.7617 132.563 55.2129V55.5068C132.563 55.917 132.623 56.2998 132.741 56.6553C132.864 57.0062 133.037 57.3161 133.261 57.585C133.489 57.8538 133.757 58.0635 134.067 58.2139C134.377 58.3643 134.719 58.4395 135.093 58.4395C135.53 58.4395 135.918 58.3597 136.255 58.2002C136.592 58.0361 136.895 57.7786 137.164 57.4277L137.677 57.8242C137.517 58.0612 137.317 58.2799 137.075 58.4805C136.838 58.681 136.553 58.8405 136.221 58.959C135.888 59.0775 135.501 59.1367 135.059 59.1367ZM134.519 50.4209L135.824 48.5068H136.809L135.229 50.4209H134.519ZM143.877 57.1133C143.877 56.9128 143.827 56.7145 143.727 56.5186C143.626 56.3226 143.433 56.1426 143.146 55.9785C142.863 55.8145 142.446 55.6755 141.895 55.5615C141.484 55.4704 141.118 55.3678 140.794 55.2539C140.475 55.14 140.206 55.0033 139.987 54.8438C139.769 54.6842 139.602 54.4928 139.488 54.2695C139.374 54.0462 139.317 53.7819 139.317 53.4766C139.317 53.2031 139.377 52.9456 139.495 52.7041C139.618 52.458 139.791 52.2438 140.015 52.0615C140.243 51.8747 140.516 51.7288 140.835 51.624C141.159 51.5192 141.521 51.4668 141.922 51.4668C142.492 51.4668 142.979 51.5648 143.385 51.7607C143.795 51.9521 144.107 52.2142 144.321 52.5469C144.54 52.8796 144.649 53.2555 144.649 53.6748H143.836C143.836 53.4196 143.761 53.1781 143.61 52.9502C143.465 52.7223 143.248 52.5355 142.961 52.3896C142.678 52.2438 142.332 52.1709 141.922 52.1709C141.498 52.1709 141.154 52.2347 140.89 52.3623C140.625 52.4899 140.432 52.6517 140.309 52.8477C140.19 53.0436 140.131 53.2464 140.131 53.4561C140.131 53.6201 140.156 53.7705 140.206 53.9072C140.261 54.0394 140.356 54.1624 140.493 54.2764C140.634 54.3903 140.835 54.4974 141.095 54.5977C141.354 54.6979 141.692 54.7959 142.106 54.8916C142.703 55.0238 143.191 55.1855 143.569 55.377C143.952 55.5638 144.235 55.7962 144.417 56.0742C144.599 56.3477 144.69 56.6803 144.69 57.0723C144.69 57.3776 144.627 57.6579 144.499 57.9131C144.371 58.1637 144.187 58.3802 143.945 58.5625C143.708 58.7448 143.421 58.8861 143.084 58.9863C142.751 59.0866 142.378 59.1367 141.963 59.1367C141.339 59.1367 140.81 59.0342 140.377 58.8291C139.949 58.6195 139.623 58.346 139.399 58.0088C139.181 57.667 139.071 57.3047 139.071 56.9219H139.885C139.912 57.3047 140.033 57.6077 140.247 57.8311C140.461 58.0498 140.723 58.2048 141.033 58.2959C141.348 58.387 141.658 58.4326 141.963 58.4326C142.382 58.4326 142.733 58.3711 143.016 58.248C143.298 58.125 143.512 57.9632 143.658 57.7627C143.804 57.5622 143.877 57.3457 143.877 57.1133ZM156.845 53.5107V54.2285H150.795V53.5107H156.845ZM150.993 49.0469V59H150.152V49.0469H150.993ZM157.521 49.0469V59H156.681V49.0469H157.521ZM162.73 59.1367C162.247 59.1367 161.803 59.0479 161.397 58.8701C160.996 58.6924 160.646 58.4417 160.345 58.1182C160.049 57.7946 159.818 57.4118 159.654 56.9697C159.495 56.5231 159.415 56.0355 159.415 55.5068V55.2129C159.415 54.6432 159.499 54.1283 159.668 53.668C159.837 53.2077 160.069 52.8135 160.365 52.4854C160.661 52.1572 160.999 51.9066 161.377 51.7334C161.76 51.5557 162.161 51.4668 162.58 51.4668C163.049 51.4668 163.466 51.5511 163.831 51.7197C164.196 51.8838 164.501 52.1185 164.747 52.4238C164.998 52.7246 165.187 53.0824 165.314 53.4971C165.442 53.9072 165.506 54.3607 165.506 54.8574V55.3564H159.907V54.6592H164.692V54.5635C164.683 54.1488 164.599 53.7614 164.439 53.4014C164.285 53.0368 164.052 52.7406 163.742 52.5127C163.432 52.2848 163.045 52.1709 162.58 52.1709C162.234 52.1709 161.915 52.2438 161.623 52.3896C161.336 52.5355 161.088 52.7451 160.878 53.0186C160.673 53.2874 160.513 53.6087 160.399 53.9824C160.29 54.3516 160.235 54.7617 160.235 55.2129V55.5068C160.235 55.917 160.295 56.2998 160.413 56.6553C160.536 57.0062 160.709 57.3161 160.933 57.585C161.16 57.8538 161.429 58.0635 161.739 58.2139C162.049 58.3643 162.391 58.4395 162.765 58.4395C163.202 58.4395 163.59 58.3597 163.927 58.2002C164.264 58.0361 164.567 57.7786 164.836 57.4277L165.349 57.8242C165.189 58.0612 164.989 58.2799 164.747 58.4805C164.51 58.681 164.225 58.8405 163.893 58.959C163.56 59.0775 163.173 59.1367 162.73 59.1367ZM167.933 52.8271V59H167.119V51.6035H167.912L167.933 52.8271ZM170.551 51.5488L170.53 52.3008C170.439 52.2871 170.35 52.2757 170.264 52.2666C170.177 52.2575 170.084 52.2529 169.983 52.2529C169.628 52.2529 169.316 52.319 169.047 52.4512C168.783 52.5788 168.559 52.7588 168.377 52.9912C168.195 53.2191 168.056 53.488 167.96 53.7979C167.864 54.1032 167.81 54.4313 167.796 54.7822L167.495 54.8984C167.495 54.4154 167.545 53.9665 167.646 53.5518C167.746 53.137 167.898 52.7747 168.104 52.4648C168.313 52.1504 168.575 51.9066 168.89 51.7334C169.209 51.5557 169.582 51.4668 170.011 51.4668C170.116 51.4668 170.218 51.4759 170.318 51.4941C170.423 51.5078 170.501 51.526 170.551 51.5488ZM174.557 59.1367C174.074 59.1367 173.629 59.0479 173.224 58.8701C172.823 58.6924 172.472 58.4417 172.171 58.1182C171.875 57.7946 171.645 57.4118 171.48 56.9697C171.321 56.5231 171.241 56.0355 171.241 55.5068V55.2129C171.241 54.6432 171.326 54.1283 171.494 53.668C171.663 53.2077 171.895 52.8135 172.191 52.4854C172.488 52.1572 172.825 51.9066 173.203 51.7334C173.586 51.5557 173.987 51.4668 174.406 51.4668C174.876 51.4668 175.293 51.5511 175.657 51.7197C176.022 51.8838 176.327 52.1185 176.573 52.4238C176.824 52.7246 177.013 53.0824 177.141 53.4971C177.268 53.9072 177.332 54.3607 177.332 54.8574V55.3564H171.733V54.6592H176.519V54.5635C176.509 54.1488 176.425 53.7614 176.266 53.4014C176.111 53.0368 175.878 52.7406 175.568 52.5127C175.258 52.2848 174.871 52.1709 174.406 52.1709C174.06 52.1709 173.741 52.2438 173.449 52.3896C173.162 52.5355 172.914 52.7451 172.704 53.0186C172.499 53.2874 172.34 53.6087 172.226 53.9824C172.116 54.3516 172.062 54.7617 172.062 55.2129V55.5068C172.062 55.917 172.121 56.2998 172.239 56.6553C172.362 57.0062 172.535 57.3161 172.759 57.585C172.987 57.8538 173.256 58.0635 173.565 58.2139C173.875 58.3643 174.217 58.4395 174.591 58.4395C175.028 58.4395 175.416 58.3597 175.753 58.2002C176.09 58.0361 176.393 57.7786 176.662 57.4277L177.175 57.8242C177.015 58.0612 176.815 58.2799 176.573 58.4805C176.336 58.681 176.051 58.8405 175.719 58.959C175.386 59.0775 174.999 59.1367 174.557 59.1367ZM179.759 53.1826V59H178.945V51.6035H179.725L179.759 53.1826ZM179.574 54.8438L179.212 54.6387C179.239 54.2012 179.328 53.791 179.479 53.4082C179.629 53.0254 179.832 52.6882 180.087 52.3965C180.347 52.1048 180.65 51.877 180.996 51.7129C181.347 51.5488 181.734 51.4668 182.158 51.4668C182.527 51.4668 182.858 51.5169 183.149 51.6172C183.441 51.7174 183.689 51.877 183.895 52.0957C184.1 52.3145 184.255 52.5947 184.359 52.9365C184.469 53.2783 184.523 53.6953 184.523 54.1875V59H183.703V54.1807C183.703 53.6702 183.632 53.2715 183.491 52.9844C183.35 52.6927 183.149 52.4854 182.89 52.3623C182.63 52.2393 182.322 52.1777 181.967 52.1777C181.575 52.1777 181.231 52.2643 180.935 52.4375C180.643 52.6061 180.397 52.8271 180.196 53.1006C180 53.3695 179.85 53.6589 179.745 53.9688C179.64 54.2741 179.583 54.5658 179.574 54.8438ZM189.37 58.4326C189.716 58.4326 190.04 58.3688 190.341 58.2412C190.646 58.109 190.897 57.9154 191.093 57.6602C191.293 57.4004 191.407 57.0837 191.435 56.71H192.214C192.191 57.1794 192.048 57.5986 191.783 57.9678C191.523 58.3324 191.182 58.6195 190.758 58.8291C190.339 59.0342 189.876 59.1367 189.37 59.1367C188.855 59.1367 188.399 59.0433 188.003 58.8564C187.611 58.6696 187.283 58.4098 187.019 58.0771C186.754 57.7399 186.554 57.348 186.417 56.9014C186.285 56.4502 186.219 55.9648 186.219 55.4453V55.1582C186.219 54.6387 186.285 54.1556 186.417 53.709C186.554 53.2578 186.754 52.8659 187.019 52.5332C187.283 52.196 187.611 51.9339 188.003 51.7471C188.395 51.5602 188.848 51.4668 189.363 51.4668C189.892 51.4668 190.366 51.5739 190.785 51.7881C191.209 52.0023 191.546 52.3053 191.797 52.6973C192.052 53.0892 192.191 53.554 192.214 54.0918H191.435C191.412 53.6953 191.307 53.3535 191.12 53.0664C190.933 52.7793 190.687 52.5583 190.382 52.4033C190.076 52.2484 189.737 52.1709 189.363 52.1709C188.944 52.1709 188.586 52.2529 188.29 52.417C187.994 52.5765 187.752 52.7975 187.565 53.0801C187.383 53.3581 187.249 53.6771 187.162 54.0371C187.076 54.3926 187.032 54.7663 187.032 55.1582V55.4453C187.032 55.8418 187.073 56.2201 187.155 56.5801C187.242 56.9355 187.376 57.2523 187.559 57.5303C187.745 57.8083 187.987 58.0293 188.283 58.1934C188.584 58.3529 188.946 58.4326 189.37 58.4326ZM194.771 51.6035V59H193.957V51.6035H194.771ZM193.813 49.4639C193.813 49.3089 193.861 49.179 193.957 49.0742C194.057 48.9648 194.194 48.9102 194.367 48.9102C194.54 48.9102 194.677 48.9648 194.777 49.0742C194.882 49.179 194.935 49.3089 194.935 49.4639C194.935 49.6143 194.882 49.7441 194.777 49.8535C194.677 49.9583 194.54 50.0107 194.367 50.0107C194.194 50.0107 194.057 49.9583 193.957 49.8535C193.861 49.7441 193.813 49.6143 193.813 49.4639ZM201.504 57.6738V53.8594C201.504 53.5085 201.431 53.2054 201.285 52.9502C201.139 52.695 200.925 52.499 200.643 52.3623C200.36 52.2256 200.011 52.1572 199.597 52.1572C199.214 52.1572 198.872 52.2256 198.571 52.3623C198.275 52.4945 198.04 52.6745 197.867 52.9023C197.699 53.1257 197.614 53.374 197.614 53.6475L196.794 53.6406C196.794 53.3626 196.862 53.0938 196.999 52.834C197.136 52.5742 197.329 52.3418 197.58 52.1367C197.831 51.9316 198.129 51.7699 198.476 51.6514C198.826 51.5283 199.212 51.4668 199.631 51.4668C200.16 51.4668 200.624 51.5557 201.025 51.7334C201.431 51.9111 201.748 52.1777 201.976 52.5332C202.203 52.8887 202.317 53.3353 202.317 53.873V57.4482C202.317 57.7035 202.336 57.9678 202.372 58.2412C202.413 58.5146 202.47 58.7402 202.543 58.918V59H201.675C201.62 58.8359 201.577 58.6309 201.545 58.3848C201.518 58.1341 201.504 57.8971 201.504 57.6738ZM201.695 54.6934L201.709 55.3223H200.103C199.683 55.3223 199.307 55.361 198.975 55.4385C198.646 55.5114 198.368 55.6208 198.141 55.7666C197.913 55.9079 197.737 56.0788 197.614 56.2793C197.496 56.4798 197.437 56.7077 197.437 56.9629C197.437 57.2272 197.503 57.4688 197.635 57.6875C197.771 57.9062 197.963 58.0817 198.209 58.2139C198.46 58.3415 198.756 58.4053 199.098 58.4053C199.553 58.4053 199.954 58.321 200.301 58.1523C200.652 57.9837 200.941 57.7627 201.169 57.4893C201.397 57.2158 201.549 56.9173 201.627 56.5938L201.982 57.0654C201.923 57.2933 201.814 57.528 201.654 57.7695C201.499 58.0065 201.297 58.2298 201.046 58.4395C200.795 58.6445 200.499 58.8132 200.157 58.9453C199.82 59.0729 199.437 59.1367 199.009 59.1367C198.526 59.1367 198.104 59.0456 197.744 58.8633C197.389 58.681 197.111 58.4326 196.91 58.1182C196.714 57.7992 196.616 57.4391 196.616 57.0381C196.616 56.6735 196.694 56.3477 196.849 56.0605C197.004 55.7689 197.227 55.5228 197.519 55.3223C197.815 55.1172 198.17 54.9622 198.585 54.8574C199.004 54.748 199.474 54.6934 199.993 54.6934H201.695Z" fill="white"/>
<path d="M65.9333 20.7333C66.1067 20.7333 66.2789 20.7389 66.45 20.75C66.2314 21.8866 66.3132 23.0605 66.6873 24.1558C67.0615 25.2511 67.715 26.2297 68.5833 26.995C68.4622 27.6683 68.4011 28.3589 68.4 29.0667C68.396 31.7129 69.2956 34.2813 70.95 36.3467C69.4133 36.9501 67.7457 37.1419 66.1121 36.9031C64.4786 36.6643 62.9356 36.0032 61.636 34.9852C60.3363 33.9672 59.3249 32.6275 58.7018 31.0987C58.0787 29.5698 57.8655 27.9048 58.0833 26.2683C58.6608 24.6485 59.7252 23.247 61.1307 22.2561C62.5361 21.2651 64.2137 20.7332 65.9333 20.7333ZM87.3467 24.05C87.9501 25.5867 88.1419 27.2543 87.9031 28.8879C87.6643 30.5214 87.0032 32.0644 85.9852 33.364C84.9672 34.6637 83.6275 35.6751 82.0987 36.2982C80.5698 36.9213 78.9048 37.1345 77.2683 36.9167C75.5651 36.3097 74.1055 35.1653 73.1098 33.656C72.114 32.1468 71.6362 30.3546 71.7483 28.55C72.8849 28.7686 74.0589 28.6868 75.1541 28.3127C76.2494 27.9385 77.2281 27.285 77.9933 26.4167C78.6678 26.5378 79.3589 26.5989 80.0667 26.6C82.7129 26.604 85.2813 25.7044 87.3467 24.05ZM73 18.6667C73.8841 18.6667 74.7319 19.0179 75.357 19.643C75.9821 20.2681 76.3333 21.1159 76.3333 22C76.3333 22.8841 75.9821 23.7319 75.357 24.357C74.7319 24.9821 73.8841 25.3333 73 25.3333C72.1159 25.3333 71.2681 24.9821 70.643 24.357C70.0179 23.7319 69.6667 22.8841 69.6667 22C69.6667 21.1159 70.0179 20.2681 70.643 19.643C71.2681 19.0179 72.1159 18.6667 73 18.6667ZM78.5167 7C79.8677 6.99985 81.2032 7.28837 82.4336 7.84624C83.6641 8.40412 84.7612 9.21847 85.6514 10.2348C86.5416 11.251 87.2044 12.4458 87.5953 13.739C87.9863 15.0323 88.0964 16.3941 87.9183 17.7333C87.3107 19.4362 86.1658 20.8953 84.6563 21.8904C83.1467 22.8856 81.3545 23.3627 79.55 23.25C79.7686 22.1134 79.6868 20.9395 79.3127 19.8442C78.9385 18.7489 78.285 17.7703 77.4167 17.005C77.5378 16.3317 77.5989 15.6411 77.6 14.9333C77.604 12.2871 76.7044 9.71872 75.05 7.65333C76.1546 7.22104 77.3305 6.99944 78.5167 7ZM67.4833 7C67.9067 7 68.3233 7.02722 68.7333 7.08167C70.4362 7.68926 71.8953 8.8342 72.8904 10.3437C73.8856 11.8533 74.3627 13.6455 74.25 15.45C73.1134 15.2314 71.9395 15.3132 70.8442 15.6873C69.7489 16.0615 68.7703 16.715 68.005 17.5833C67.3213 17.4607 66.628 17.3993 65.9333 17.4C63.2871 17.396 60.7187 18.2956 58.6533 19.95C58.0886 18.512 57.8837 16.9577 58.0565 15.4224C58.2294 13.8871 58.7747 12.4173 59.6451 11.1408C60.5154 9.86435 61.6845 8.81985 63.0506 8.09817C64.4167 7.3765 65.9384 6.99951 67.4833 7Z" fill="#7588FF"/>
</svg>
